<?xml version="1.0" encoding="utf-8"?>
<!-- Generator: Adobe Illustrator 17.0.0, SVG Export Plug-In . SVG Version: 6.00 Build 0)  -->
<!DOCTYPE svg PUBLIC "-//W3C//DTD SVG 1.0//EN" "http://www.w3.org/TR/2001/REC-SVG-20010904/DTD/svg10.dtd">
<svg version="1.0" id="Layer_1" xmlns="http://www.w3.org/2000/svg" xmlns:xlink="http://www.w3.org/1999/xlink" x="0px" y="0px"
	 width="120px" height="120px" viewBox="0 0 120 120" enable-background="new 0 0 120 120" xml:space="preserve">
<g>
	<path d="M-336-81.2h-5.8l-1.2,3.2h-2.9l5.4-14.2h3.2l5.4,14.2h-3L-336-81.2z M-340.8-83.7h3.9l-2-5.4L-340.8-83.7z"/>
	<path d="M-325.6-78h-2.7l-4-9.8h2.9l2.4,6.6l2.3-6.6h2.8L-325.6-78z"/>
	<path d="M-320.8-80.7c0-0.4,0.1-0.8,0.2-1.2c0.2-0.3,0.4-0.6,0.6-0.9c0.3-0.3,0.6-0.5,0.9-0.6c0.4-0.1,0.7-0.3,1.1-0.3l2.4-0.4
		c0.3,0,0.5-0.1,0.6-0.3c0.1-0.1,0.2-0.3,0.2-0.5c0-0.3-0.1-0.6-0.4-0.9c-0.3-0.3-0.7-0.4-1.3-0.4c-0.6,0-1,0.2-1.3,0.5
		c-0.3,0.3-0.5,0.7-0.5,1.1l-2.4-0.5c0-0.4,0.2-0.8,0.4-1.2s0.5-0.7,0.8-1c0.3-0.3,0.8-0.6,1.3-0.8c0.5-0.2,1.1-0.3,1.8-0.3
		c0.8,0,1.4,0.1,2,0.3c0.5,0.2,1,0.5,1.3,0.8c0.3,0.3,0.6,0.7,0.7,1.2s0.2,0.9,0.2,1.4v4.8c0,0.3,0,0.6,0,0.9c0,0.3,0.1,0.5,0.1,0.7
		h-2.4c0-0.1,0-0.3-0.1-0.5c0-0.2,0-0.4,0-0.6c-0.3,0.4-0.6,0.7-1.1,1c-0.5,0.3-1.1,0.4-1.8,0.4c-0.5,0-1-0.1-1.4-0.3
		c-0.4-0.2-0.8-0.4-1.1-0.7s-0.5-0.6-0.7-0.9C-320.7-79.9-320.8-80.3-320.8-80.7z M-316.8-79.7c0.3,0,0.5,0,0.8-0.1
		c0.3-0.1,0.5-0.2,0.7-0.4s0.4-0.4,0.5-0.7c0.1-0.3,0.2-0.6,0.2-1.1v-0.4l-2.2,0.3c-0.3,0.1-0.6,0.2-0.9,0.4s-0.3,0.5-0.3,0.9
		c0,0.3,0.1,0.6,0.3,0.8S-317.2-79.7-316.8-79.7z"/>
	<path d="M-306.2-87.8h2v2.4h-2v4.1c0,0.4,0.1,0.7,0.3,0.9c0.2,0.2,0.5,0.3,0.9,0.3c0.2,0,0.3,0,0.5,0c0.2,0,0.3,0,0.3-0.1v2.2
		c-0.1,0.1-0.3,0.1-0.5,0.2c-0.2,0.1-0.6,0.1-1,0.1c-1,0-1.7-0.3-2.3-0.8c-0.6-0.5-0.8-1.3-0.8-2.2v-4.6h-1.8v-2.4h0.5
		c0.5,0,0.9-0.2,1.1-0.5c0.2-0.3,0.4-0.7,0.4-1.1v-1.4h2.4V-87.8z"/>
	<path d="M-302.5-80.7c0-0.4,0.1-0.8,0.2-1.2c0.2-0.3,0.4-0.6,0.6-0.9c0.3-0.3,0.6-0.5,0.9-0.6c0.4-0.1,0.7-0.3,1.1-0.3l2.4-0.4
		c0.3,0,0.5-0.1,0.6-0.3c0.1-0.1,0.2-0.3,0.2-0.5c0-0.3-0.1-0.6-0.4-0.9c-0.3-0.3-0.7-0.4-1.3-0.4c-0.6,0-1,0.2-1.3,0.5
		c-0.3,0.3-0.5,0.7-0.5,1.1l-2.4-0.5c0-0.4,0.2-0.8,0.4-1.2s0.5-0.7,0.8-1c0.3-0.3,0.8-0.6,1.3-0.8c0.5-0.2,1.1-0.3,1.8-0.3
		c0.8,0,1.4,0.1,2,0.3c0.5,0.2,1,0.5,1.3,0.8c0.3,0.3,0.6,0.7,0.7,1.2s0.2,0.9,0.2,1.4v4.8c0,0.3,0,0.6,0,0.9c0,0.3,0.1,0.5,0.1,0.7
		h-2.4c0-0.1,0-0.3-0.1-0.5c0-0.2,0-0.4,0-0.6c-0.3,0.4-0.6,0.7-1.1,1c-0.5,0.3-1.1,0.4-1.8,0.4c-0.5,0-1-0.1-1.4-0.3
		c-0.4-0.2-0.8-0.4-1.1-0.7s-0.5-0.6-0.7-0.9C-302.4-79.9-302.5-80.3-302.5-80.7z M-298.5-79.7c0.3,0,0.5,0,0.8-0.1
		c0.3-0.1,0.5-0.2,0.7-0.4s0.4-0.4,0.5-0.7c0.1-0.3,0.2-0.6,0.2-1.1v-0.4l-2.2,0.3c-0.3,0.1-0.6,0.2-0.9,0.4s-0.3,0.5-0.3,0.9
		c0,0.3,0.1,0.6,0.3,0.8S-298.9-79.7-298.5-79.7z"/>
	<path d="M-285.1-85.2c-0.3-0.1-0.5-0.1-0.8-0.1c-0.3,0-0.7,0-1,0.1c-0.3,0.1-0.6,0.2-0.8,0.5c-0.2,0.2-0.4,0.5-0.5,0.9
		c-0.1,0.4-0.2,0.8-0.2,1.3v4.5h-2.7v-9.8h2.6v1.5c0.1-0.3,0.3-0.6,0.6-0.8c0.2-0.2,0.5-0.4,0.7-0.5c0.3-0.1,0.5-0.2,0.8-0.2
		s0.5-0.1,0.7-0.1c0.1,0,0.2,0,0.3,0c0.1,0,0.2,0,0.3,0V-85.2z"/>
	<path d="M-281.7-81.2c0,0.4,0.2,0.7,0.5,1c0.3,0.3,0.7,0.5,1.3,0.5c0.4,0,0.8-0.1,1-0.3c0.2-0.2,0.3-0.4,0.3-0.7
		c0-0.2-0.1-0.4-0.2-0.6c-0.2-0.2-0.4-0.3-0.8-0.4L-281-82c-1-0.2-1.7-0.6-2.1-1.1s-0.7-1.1-0.7-1.8c0-0.4,0.1-0.9,0.3-1.3
		c0.2-0.4,0.4-0.7,0.8-1c0.3-0.3,0.7-0.5,1.2-0.7s0.9-0.3,1.5-0.3c0.7,0,1.3,0.1,1.8,0.3c0.5,0.2,0.9,0.4,1.2,0.7
		c0.3,0.3,0.5,0.6,0.7,0.9c0.1,0.3,0.2,0.6,0.3,0.9l-2.2,0.5c0-0.1-0.1-0.3-0.1-0.5c-0.1-0.2-0.2-0.3-0.3-0.4
		c-0.1-0.1-0.3-0.2-0.5-0.3s-0.4-0.1-0.7-0.1c-0.3,0-0.6,0.1-0.9,0.3c-0.2,0.2-0.4,0.4-0.4,0.7c0,0.2,0.1,0.4,0.3,0.6
		c0.2,0.1,0.4,0.2,0.6,0.3l1.4,0.3c1,0.2,1.7,0.6,2.2,1.1c0.5,0.5,0.7,1.2,0.7,1.9c0,0.4-0.1,0.8-0.2,1.2s-0.4,0.7-0.7,1
		c-0.3,0.3-0.7,0.6-1.2,0.7c-0.5,0.2-1,0.3-1.7,0.3c-0.7,0-1.4-0.1-1.9-0.3c-0.5-0.2-0.9-0.5-1.2-0.8c-0.3-0.3-0.6-0.6-0.7-1
		c-0.2-0.4-0.2-0.7-0.3-1L-281.7-81.2z"/>
	<path fill="#5C5C5C" d="M-269.2-78v-14.2h2.8V-78H-269.2z"/>
	<path fill="#5C5C5C" d="M-259-85.7c-0.3,0-0.7,0.1-1,0.2s-0.6,0.3-0.8,0.5c-0.2,0.2-0.4,0.5-0.5,0.9c-0.1,0.3-0.2,0.7-0.2,1.2
		s0.1,0.8,0.2,1.2c0.1,0.3,0.3,0.6,0.5,0.9c0.2,0.2,0.5,0.4,0.8,0.5c0.3,0.1,0.6,0.2,1,0.2c0.3,0,0.6,0,0.9-0.1s0.5-0.2,0.7-0.4
		c0.2-0.2,0.3-0.3,0.5-0.5c0.1-0.2,0.2-0.4,0.3-0.6l2.3,0.8c-0.1,0.4-0.3,0.8-0.5,1.2c-0.2,0.4-0.6,0.7-0.9,1.1
		c-0.4,0.3-0.8,0.6-1.4,0.8c-0.5,0.2-1.1,0.3-1.8,0.3c-0.7,0-1.4-0.1-2-0.4c-0.6-0.3-1.2-0.6-1.7-1.1c-0.5-0.5-0.8-1-1.1-1.6
		c-0.3-0.6-0.4-1.3-0.4-2.1c0-0.8,0.1-1.5,0.4-2.1c0.3-0.6,0.6-1.2,1.1-1.6s1-0.8,1.6-1.1c0.6-0.3,1.3-0.4,2-0.4
		c0.7,0,1.3,0.1,1.8,0.3c0.5,0.2,1,0.4,1.4,0.8c0.4,0.3,0.7,0.7,0.9,1.1s0.4,0.8,0.5,1.2l-2.4,0.8c-0.1-0.4-0.3-0.8-0.7-1.1
		C-257.8-85.5-258.3-85.7-259-85.7z"/>
	<path fill="#5C5C5C" d="M-248.1-88.1c0.7,0,1.4,0.1,2,0.4c0.6,0.3,1.2,0.6,1.6,1.1s0.8,1,1.1,1.6c0.3,0.6,0.4,1.3,0.4,2.1
		c0,0.8-0.1,1.5-0.4,2.1c-0.3,0.6-0.6,1.2-1.1,1.6c-0.5,0.5-1,0.8-1.6,1.1c-0.6,0.3-1.3,0.4-2,0.4s-1.4-0.1-2-0.4
		c-0.6-0.3-1.2-0.6-1.6-1.1c-0.5-0.5-0.8-1-1.1-1.6c-0.3-0.6-0.4-1.3-0.4-2.1c0-0.8,0.1-1.5,0.4-2.1c0.3-0.6,0.6-1.2,1.1-1.6
		s1-0.8,1.6-1.1C-249.5-88-248.8-88.1-248.1-88.1z M-248.1-80.1c0.3,0,0.6-0.1,0.9-0.2c0.3-0.1,0.6-0.3,0.8-0.5
		c0.2-0.2,0.4-0.5,0.5-0.9c0.1-0.3,0.2-0.8,0.2-1.2s-0.1-0.9-0.2-1.2c-0.1-0.3-0.3-0.6-0.5-0.9s-0.5-0.4-0.8-0.5
		c-0.3-0.1-0.6-0.2-0.9-0.2s-0.6,0.1-0.9,0.2c-0.3,0.1-0.6,0.3-0.8,0.5s-0.4,0.5-0.5,0.9c-0.1,0.3-0.2,0.8-0.2,1.2s0.1,0.9,0.2,1.2
		c0.1,0.3,0.3,0.6,0.5,0.9c0.2,0.2,0.5,0.4,0.8,0.5C-248.7-80.2-248.4-80.1-248.1-80.1z"/>
	<path fill="#5C5C5C" d="M-238.2-78h-2.7v-9.8h2.6v1.2c0.3-0.5,0.7-0.9,1.3-1.1c0.5-0.2,1.1-0.4,1.6-0.4c0.6,0,1.1,0.1,1.6,0.3
		c0.4,0.2,0.8,0.5,1.1,0.8c0.3,0.3,0.5,0.8,0.7,1.2c0.1,0.5,0.2,1,0.2,1.5v6.2h-2.7v-5.7c0-0.6-0.1-1-0.4-1.4
		c-0.3-0.4-0.8-0.6-1.4-0.6c-0.6,0-1,0.2-1.4,0.6c-0.3,0.4-0.5,0.9-0.5,1.4V-78z"/>
	<path fill="#5C5C5C" d="M-216.9-88c0-0.2-0.1-0.4-0.2-0.6c-0.1-0.2-0.3-0.5-0.5-0.6c-0.2-0.2-0.5-0.4-0.8-0.5s-0.7-0.2-1.2-0.2
		c-0.3,0-0.6,0-0.9,0.1c-0.3,0.1-0.5,0.2-0.7,0.4c-0.2,0.2-0.3,0.4-0.5,0.6s-0.2,0.4-0.2,0.7c0,0.4,0.1,0.7,0.4,1s0.6,0.5,1.2,0.6
		l2,0.4c0.6,0.1,1.2,0.3,1.7,0.6c0.5,0.3,0.9,0.6,1.2,1s0.6,0.8,0.8,1.2c0.2,0.5,0.3,0.9,0.3,1.4c0,0.5-0.1,1.1-0.3,1.6
		c-0.2,0.5-0.6,1-1,1.4c-0.4,0.4-1,0.7-1.6,1c-0.6,0.3-1.4,0.4-2.2,0.4c-0.9,0-1.8-0.1-2.4-0.4c-0.7-0.3-1.3-0.6-1.7-1.1
		c-0.5-0.4-0.8-0.9-1-1.4s-0.4-1-0.4-1.6l2.6-0.7c0,0.3,0.1,0.7,0.3,1c0.1,0.3,0.3,0.6,0.6,0.8c0.3,0.2,0.6,0.4,0.9,0.6
		c0.4,0.1,0.8,0.2,1.3,0.2c0.7,0,1.3-0.2,1.7-0.5s0.6-0.7,0.6-1.3c0-0.4-0.1-0.8-0.4-1.1c-0.3-0.3-0.7-0.5-1.3-0.6l-2-0.4
		c-1.1-0.2-2-0.7-2.7-1.4c-0.7-0.7-1-1.6-1-2.7c0-0.6,0.1-1.2,0.4-1.8c0.3-0.5,0.6-1,1.1-1.4c0.5-0.4,1-0.7,1.6-0.9
		c0.6-0.2,1.2-0.3,1.9-0.3c0.9,0,1.6,0.1,2.2,0.4c0.6,0.2,1.1,0.5,1.5,0.9c0.4,0.4,0.7,0.8,0.9,1.2s0.4,0.8,0.5,1.3L-216.9-88z"/>
	<path fill="#5C5C5C" d="M-203.4-80.8c-0.1,0.4-0.3,0.8-0.6,1.2c-0.3,0.4-0.6,0.7-1,1c-0.4,0.3-0.8,0.5-1.3,0.7
		c-0.5,0.2-1,0.3-1.7,0.3c-0.7,0-1.3-0.1-1.9-0.3c-0.6-0.2-1.2-0.6-1.6-1c-0.5-0.5-0.8-1-1.1-1.7c-0.3-0.7-0.4-1.4-0.4-2.2
		c0-0.8,0.1-1.5,0.4-2.1s0.6-1.2,1.1-1.6c0.4-0.4,1-0.8,1.5-1c0.6-0.2,1.2-0.4,1.8-0.4c1.5,0,2.7,0.5,3.6,1.4s1.3,2.2,1.3,3.7
		c0,0.2,0,0.4,0,0.5c0,0.2,0,0.3,0,0.3h-7c0,0.3,0.1,0.6,0.2,0.9c0.1,0.3,0.3,0.5,0.5,0.7c0.2,0.2,0.5,0.4,0.8,0.5s0.6,0.2,0.9,0.2
		c0.6,0,1.1-0.1,1.5-0.4c0.4-0.3,0.6-0.6,0.8-1.1L-203.4-80.8z M-205.9-84c0-0.2-0.1-0.5-0.1-0.7c-0.1-0.2-0.2-0.4-0.4-0.6
		c-0.2-0.2-0.4-0.3-0.7-0.4c-0.3-0.1-0.6-0.2-1-0.2c-0.3,0-0.7,0.1-0.9,0.2c-0.3,0.1-0.5,0.3-0.7,0.5s-0.3,0.4-0.4,0.6
		c-0.1,0.2-0.2,0.5-0.2,0.7H-205.9z"/>
	<path fill="#5C5C5C" d="M-197.9-87.8h2v2.4h-2v4.1c0,0.4,0.1,0.7,0.3,0.9c0.2,0.2,0.5,0.3,0.9,0.3c0.2,0,0.3,0,0.5,0
		c0.2,0,0.3,0,0.3-0.1v2.2c-0.1,0.1-0.3,0.1-0.5,0.2c-0.2,0.1-0.6,0.1-1,0.1c-1,0-1.7-0.3-2.3-0.8c-0.6-0.5-0.8-1.3-0.8-2.2v-4.6
		h-1.8v-2.4h0.5c0.5,0,0.9-0.2,1.1-0.5c0.2-0.3,0.4-0.7,0.4-1.1v-1.4h2.4V-87.8z"/>
</g>
<line fill="none" stroke="#EEEEEE" stroke-width="2" stroke-miterlimit="10" x1="-347" y1="-58" x2="293" y2="-58"/>
<line fill="none" stroke="#EEEEEE" stroke-width="2" stroke-miterlimit="10" x1="-347" y1="361" x2="293" y2="361"/>
<g opacity="0.6">
	<path fill="#999999" d="M173.6,383.5c0.3,0,0.5,0,0.7,0.1s0.4,0.2,0.5,0.3c0.1,0.1,0.3,0.3,0.3,0.5c0.1,0.2,0.1,0.4,0.1,0.6
		c0,0.3-0.1,0.6-0.2,0.8c-0.2,0.2-0.4,0.4-0.6,0.5c0.2,0,0.3,0.1,0.4,0.2c0.1,0.1,0.2,0.2,0.3,0.3s0.2,0.3,0.2,0.4
		c0,0.1,0.1,0.3,0.1,0.5c0,0.2,0,0.4-0.1,0.6c-0.1,0.2-0.2,0.4-0.4,0.5c-0.2,0.1-0.3,0.2-0.6,0.3c-0.2,0.1-0.5,0.1-0.7,0.1h-2v-5.7
		H173.6z M173.5,386c0.3,0,0.6-0.1,0.7-0.3c0.2-0.2,0.3-0.4,0.3-0.7c0-0.3-0.1-0.5-0.3-0.6c-0.2-0.2-0.4-0.2-0.8-0.2h-0.9v1.8H173.5
		z M173.7,388.5c0.3,0,0.6-0.1,0.8-0.2c0.2-0.2,0.3-0.4,0.3-0.7c0-0.3-0.1-0.5-0.3-0.7c-0.2-0.2-0.4-0.3-0.8-0.3h-1.1v1.8H173.7z"/>
	<path fill="#999999" d="M178.2,385.2c0.3,0,0.6,0.1,0.8,0.2c0.2,0.1,0.4,0.2,0.6,0.4s0.3,0.4,0.4,0.6s0.1,0.5,0.1,0.8
		c0,0.3,0,0.6-0.1,0.8c-0.1,0.3-0.2,0.5-0.4,0.6s-0.4,0.3-0.6,0.4c-0.2,0.1-0.5,0.2-0.8,0.2c-0.3,0-0.6-0.1-0.8-0.2
		c-0.2-0.1-0.4-0.2-0.6-0.4s-0.3-0.4-0.4-0.6c-0.1-0.3-0.1-0.5-0.1-0.8c0-0.3,0-0.6,0.1-0.8s0.2-0.5,0.4-0.6s0.4-0.3,0.6-0.4
		C177.7,385.2,177.9,385.2,178.2,385.2z M178.2,388.6c0.2,0,0.3,0,0.5-0.1c0.1-0.1,0.3-0.1,0.4-0.3c0.1-0.1,0.2-0.3,0.3-0.4
		c0.1-0.2,0.1-0.4,0.1-0.6c0-0.2,0-0.4-0.1-0.6c-0.1-0.2-0.2-0.3-0.3-0.4c-0.1-0.1-0.2-0.2-0.4-0.3c-0.1-0.1-0.3-0.1-0.5-0.1
		s-0.3,0-0.5,0.1c-0.1,0.1-0.3,0.1-0.4,0.3c-0.1,0.1-0.2,0.3-0.3,0.4s-0.1,0.4-0.1,0.6c0,0.2,0,0.4,0.1,0.6s0.2,0.3,0.3,0.4
		s0.2,0.2,0.4,0.3C177.9,388.6,178.1,388.6,178.2,388.6z"/>
	<path fill="#999999" d="M181.9,387.2l-1.4-1.9h0.9l0.9,1.4l0.9-1.4h0.9l-1.4,1.9c0,0.1,0.1,0.1,0.2,0.2c0.1,0.1,0.2,0.2,0.3,0.3
		s0.2,0.3,0.3,0.4c0.1,0.1,0.2,0.3,0.3,0.4s0.2,0.2,0.3,0.3c0.1,0.1,0.1,0.2,0.2,0.2h-0.9l-1-1.4l-1,1.4h-0.9L181.9,387.2z"/>
	<path fill="#999999" d="M191.3,389.1l-0.1-0.8c-0.1,0.1-0.2,0.2-0.3,0.3c-0.1,0.1-0.2,0.2-0.4,0.3s-0.3,0.2-0.5,0.2
		c-0.2,0.1-0.4,0.1-0.7,0.1c-0.4,0-0.7-0.1-1-0.2c-0.3-0.1-0.6-0.3-0.9-0.6c-0.3-0.3-0.5-0.6-0.6-0.9c-0.2-0.4-0.2-0.8-0.2-1.3
		c0-0.5,0.1-0.9,0.2-1.3s0.4-0.7,0.6-0.9c0.3-0.2,0.6-0.4,0.9-0.6s0.7-0.2,1-0.2c0.3,0,0.6,0,0.9,0.1s0.5,0.2,0.7,0.3
		s0.4,0.3,0.6,0.5c0.2,0.2,0.3,0.4,0.4,0.7l-0.7,0.3c-0.1-0.4-0.3-0.7-0.7-1c-0.3-0.2-0.7-0.3-1.1-0.3c-0.3,0-0.5,0-0.7,0.1
		c-0.2,0.1-0.5,0.2-0.6,0.4c-0.2,0.2-0.3,0.4-0.5,0.7c-0.1,0.3-0.2,0.6-0.2,1c0,0.4,0.1,0.7,0.2,1c0.1,0.3,0.3,0.5,0.4,0.7
		c0.2,0.2,0.4,0.3,0.6,0.4c0.2,0.1,0.5,0.1,0.7,0.1c0.3,0,0.6,0,0.8-0.1s0.4-0.2,0.5-0.4s0.2-0.3,0.3-0.5c0.1-0.2,0.1-0.3,0.1-0.5
		h-2v-0.7h2.7v2.8H191.3z"/>
	<path fill="#999999" d="M195.6,388.7c-0.1,0.2-0.3,0.4-0.5,0.4c-0.2,0.1-0.4,0.1-0.7,0.1c-0.2,0-0.4,0-0.6-0.1
		c-0.2-0.1-0.3-0.2-0.5-0.3c-0.1-0.1-0.2-0.3-0.3-0.5c-0.1-0.2-0.1-0.4-0.1-0.6v-2.4h0.8v2.3c0,0.1,0,0.3,0,0.4
		c0,0.1,0.1,0.2,0.2,0.3c0.1,0.1,0.2,0.2,0.3,0.2s0.2,0.1,0.4,0.1c0.3,0,0.5-0.1,0.7-0.3c0.2-0.2,0.2-0.4,0.2-0.7v-2.3h0.8v3.1
		c0,0.2,0,0.3,0,0.4c0,0.1,0,0.2,0,0.3h-0.7c0,0,0-0.1,0-0.2C195.6,388.8,195.6,388.8,195.6,388.7z"/>
	<path fill="#999999" d="M197.7,390.8l1-2l-1.7-3.4h0.9l1.2,2.7l1.2-2.7h0.8l-2.5,5.5H197.7z"/>
	<path fill="#999999" d="M200.8,388.6c0-0.1,0.1-0.3,0.2-0.4s0.3-0.2,0.4-0.2c0.2,0,0.3,0.1,0.5,0.2c0.1,0.1,0.2,0.3,0.2,0.6
		c0,0.3,0,0.5-0.1,0.7c-0.1,0.2-0.2,0.3-0.3,0.5c-0.1,0.1-0.2,0.2-0.4,0.3c-0.1,0.1-0.3,0.1-0.4,0.1V390c0.1,0,0.2-0.1,0.3-0.1
		c0.1-0.1,0.2-0.1,0.2-0.2c0.1-0.1,0.1-0.2,0.1-0.3c0-0.1,0.1-0.2,0.1-0.3c0,0,0,0-0.1,0c0,0-0.1,0-0.1,0c-0.2,0-0.3,0-0.4-0.1
		C200.9,388.9,200.8,388.8,200.8,388.6z"/>
	<path fill="#999999" d="M208.6,387.6h-2.5l-0.6,1.6h-0.8l2.3-5.7h0.9l2.3,5.7h-0.8L208.6,387.6z M206.4,386.8h2l-1-2.5L206.4,386.8
		z"/>
	<path fill="#999999" d="M211.1,387.9c0,0.2,0.1,0.4,0.3,0.5c0.1,0.1,0.4,0.2,0.6,0.2c0.2,0,0.4-0.1,0.5-0.2
		c0.1-0.1,0.2-0.2,0.2-0.4c0-0.1,0-0.2-0.1-0.3c-0.1-0.1-0.2-0.1-0.4-0.2l-0.7-0.1c-0.3-0.1-0.5-0.2-0.7-0.4
		c-0.2-0.2-0.3-0.4-0.3-0.7c0-0.2,0-0.3,0.1-0.5s0.2-0.3,0.3-0.4c0.1-0.1,0.3-0.2,0.4-0.3c0.2-0.1,0.3-0.1,0.5-0.1
		c0.3,0,0.5,0,0.7,0.1c0.2,0.1,0.3,0.2,0.4,0.3c0.1,0.1,0.2,0.2,0.3,0.3c0.1,0.1,0.1,0.2,0.1,0.3l-0.7,0.2c0,0,0-0.1-0.1-0.2
		c0-0.1-0.1-0.1-0.1-0.2s-0.1-0.1-0.2-0.2s-0.2-0.1-0.4-0.1c-0.2,0-0.3,0.1-0.5,0.2c-0.1,0.1-0.2,0.2-0.2,0.4c0,0.2,0.1,0.4,0.4,0.5
		l0.6,0.1c0.4,0.1,0.6,0.2,0.8,0.4c0.2,0.2,0.3,0.4,0.3,0.7c0,0.1,0,0.3-0.1,0.4s-0.1,0.3-0.3,0.4c-0.1,0.1-0.3,0.2-0.4,0.3
		c-0.2,0.1-0.4,0.1-0.6,0.1c-0.3,0-0.5,0-0.7-0.1c-0.2-0.1-0.3-0.2-0.5-0.3c-0.1-0.1-0.2-0.2-0.3-0.4s-0.1-0.3-0.1-0.4L211.1,387.9z
		"/>
	<path fill="#999999" d="M215.5,385.3h0.8v0.7h-0.8v2c0,0.2,0,0.3,0.1,0.4c0.1,0.1,0.2,0.1,0.4,0.1c0,0,0.1,0,0.2,0
		c0.1,0,0.1,0,0.1,0v0.6c0,0-0.1,0-0.2,0c-0.1,0-0.2,0-0.3,0c-0.3,0-0.6-0.1-0.8-0.3c-0.2-0.2-0.3-0.5-0.3-0.8V386H214v-0.7h0.2
		c0.2,0,0.4-0.1,0.5-0.2c0.1-0.1,0.1-0.3,0.1-0.4v-0.6h0.7V385.3z"/>
	<path fill="#999999" d="M219.3,386.1c-0.1,0-0.2,0-0.3,0c-0.3,0-0.6,0.1-0.8,0.3s-0.3,0.5-0.3,0.9v1.9h-0.8v-3.8h0.7v0.7
		c0.1-0.1,0.2-0.3,0.2-0.4c0.1-0.1,0.2-0.2,0.3-0.2c0.1-0.1,0.2-0.1,0.3-0.1c0.1,0,0.2,0,0.3,0c0.1,0,0.1,0,0.1,0c0,0,0.1,0,0.1,0
		V386.1z"/>
	<path fill="#999999" d="M221.7,385.2c0.3,0,0.6,0.1,0.8,0.2c0.2,0.1,0.4,0.2,0.6,0.4s0.3,0.4,0.4,0.6c0.1,0.2,0.1,0.5,0.1,0.8
		c0,0.3,0,0.6-0.1,0.8c-0.1,0.3-0.2,0.5-0.4,0.6s-0.4,0.3-0.6,0.4c-0.2,0.1-0.5,0.2-0.8,0.2c-0.3,0-0.6-0.1-0.8-0.2
		c-0.2-0.1-0.4-0.2-0.6-0.4s-0.3-0.4-0.4-0.6c-0.1-0.3-0.1-0.5-0.1-0.8c0-0.3,0-0.6,0.1-0.8s0.2-0.5,0.4-0.6s0.4-0.3,0.6-0.4
		C221.2,385.2,221.5,385.2,221.7,385.2z M221.7,388.6c0.2,0,0.3,0,0.5-0.1s0.3-0.1,0.4-0.3c0.1-0.1,0.2-0.3,0.3-0.4s0.1-0.4,0.1-0.6
		c0-0.2,0-0.4-0.1-0.6s-0.2-0.3-0.3-0.4c-0.1-0.1-0.2-0.2-0.4-0.3s-0.3-0.1-0.5-0.1s-0.3,0-0.5,0.1c-0.1,0.1-0.3,0.1-0.4,0.3
		c-0.1,0.1-0.2,0.3-0.3,0.4c-0.1,0.2-0.1,0.4-0.1,0.6c0,0.2,0,0.4,0.1,0.6c0.1,0.2,0.2,0.3,0.3,0.4c0.1,0.1,0.2,0.2,0.4,0.3
		C221.4,388.6,221.6,388.6,221.7,388.6z"/>
	<path fill="#999999" d="M225.4,389.1h-0.8v-3.8h0.7v0.6c0.1-0.2,0.3-0.4,0.5-0.5c0.2-0.1,0.4-0.2,0.7-0.2c0.2,0,0.4,0,0.6,0.1
		s0.3,0.2,0.4,0.3c0.1,0.1,0.2,0.3,0.3,0.5c0.1,0.2,0.1,0.4,0.1,0.6v2.4h-0.8v-2.3c0-0.1,0-0.3,0-0.4c0-0.1-0.1-0.2-0.2-0.3
		s-0.2-0.2-0.3-0.2c-0.1-0.1-0.3-0.1-0.4-0.1c-0.2,0-0.3,0-0.4,0.1c-0.1,0.1-0.2,0.1-0.3,0.2c-0.1,0.1-0.1,0.2-0.2,0.3
		c0,0.1-0.1,0.3-0.1,0.4V389.1z"/>
	<path fill="#999999" d="M228.9,388.1c0-0.2,0-0.3,0.1-0.5s0.1-0.3,0.2-0.3s0.2-0.2,0.4-0.2c0.1-0.1,0.3-0.1,0.5-0.1l1-0.2
		c0.1,0,0.2-0.1,0.2-0.1c0-0.1,0.1-0.1,0.1-0.2c0-0.2-0.1-0.3-0.2-0.5s-0.3-0.2-0.6-0.2c-0.3,0-0.5,0.1-0.6,0.2
		c-0.1,0.1-0.2,0.3-0.3,0.6l-0.7-0.2c0-0.2,0.1-0.3,0.2-0.5c0.1-0.2,0.2-0.3,0.3-0.4s0.3-0.2,0.5-0.3s0.4-0.1,0.6-0.1
		c0.3,0,0.5,0,0.7,0.1c0.2,0.1,0.4,0.2,0.5,0.3c0.1,0.1,0.2,0.3,0.3,0.4s0.1,0.3,0.1,0.5v1.9c0,0.2,0,0.3,0,0.4c0,0.1,0,0.2,0,0.2
		h-0.7c0,0,0-0.1,0-0.2c0-0.1,0-0.2,0-0.3c0,0.1-0.1,0.1-0.2,0.2c-0.1,0.1-0.2,0.1-0.3,0.2c-0.1,0.1-0.2,0.1-0.4,0.2
		s-0.3,0.1-0.5,0.1c-0.2,0-0.4,0-0.5-0.1c-0.2-0.1-0.3-0.1-0.4-0.3c-0.1-0.1-0.2-0.2-0.3-0.4C229,388.4,228.9,388.3,228.9,388.1z
		 M230.3,388.6c0.2,0,0.3,0,0.4-0.1s0.3-0.1,0.4-0.2c0.1-0.1,0.2-0.2,0.2-0.4s0.1-0.3,0.1-0.5v-0.2l-1.2,0.2c-0.2,0-0.3,0.1-0.4,0.2
		c-0.1,0.1-0.2,0.2-0.2,0.4c0,0.1,0.1,0.3,0.2,0.4C230,388.6,230.1,388.6,230.3,388.6z"/>
	<path fill="#999999" d="M235.8,388.7c-0.1,0.2-0.3,0.4-0.5,0.4c-0.2,0.1-0.4,0.1-0.7,0.1c-0.2,0-0.4,0-0.6-0.1
		c-0.2-0.1-0.3-0.2-0.5-0.3s-0.2-0.3-0.3-0.5c-0.1-0.2-0.1-0.4-0.1-0.6v-2.4h0.8v2.3c0,0.1,0,0.3,0,0.4s0.1,0.2,0.2,0.3
		c0.1,0.1,0.2,0.2,0.3,0.2s0.2,0.1,0.4,0.1c0.3,0,0.5-0.1,0.7-0.3c0.2-0.2,0.2-0.4,0.2-0.7v-2.3h0.8v3.1c0,0.2,0,0.3,0,0.4
		s0,0.2,0,0.3h-0.7c0,0,0-0.1,0-0.2C235.8,388.8,235.8,388.8,235.8,388.7z"/>
	<path fill="#999999" d="M238.8,385.3h0.8v0.7h-0.8v2c0,0.2,0,0.3,0.1,0.4c0.1,0.1,0.2,0.1,0.4,0.1c0,0,0.1,0,0.2,0
		c0.1,0,0.1,0,0.1,0v0.6c0,0-0.1,0-0.2,0c-0.1,0-0.2,0-0.3,0c-0.3,0-0.6-0.1-0.8-0.3s-0.3-0.5-0.3-0.8V386h-0.7v-0.7h0.2
		c0.2,0,0.4-0.1,0.5-0.2c0.1-0.1,0.1-0.3,0.1-0.4v-0.6h0.7V385.3z"/>
	<path fill="#999999" d="M240.6,388.6c0-0.1,0.1-0.3,0.2-0.4s0.3-0.2,0.4-0.2c0.2,0,0.3,0.1,0.5,0.2c0.1,0.1,0.2,0.3,0.2,0.6
		c0,0.3,0,0.5-0.1,0.7c-0.1,0.2-0.2,0.3-0.3,0.5c-0.1,0.1-0.2,0.2-0.4,0.3c-0.1,0.1-0.3,0.1-0.4,0.1V390c0.1,0,0.2-0.1,0.3-0.1
		c0.1-0.1,0.2-0.1,0.2-0.2c0.1-0.1,0.1-0.2,0.1-0.3c0-0.1,0.1-0.2,0.1-0.3c0,0,0,0-0.1,0c0,0-0.1,0-0.1,0c-0.2,0-0.3,0-0.4-0.1
		C240.6,388.9,240.6,388.8,240.6,388.6z"/>
	<path fill="#999999" d="M250.4,389.1v-4.4l-1.9,4.4h-0.7l-1.9-4.4v4.4h-0.8v-5.7h1.1l2,4.6l2-4.6h1v5.7H250.4z"/>
	<path fill="#999999" d="M252.3,388.1c0-0.2,0-0.3,0.1-0.5c0.1-0.1,0.1-0.3,0.2-0.3s0.2-0.2,0.4-0.2c0.1-0.1,0.3-0.1,0.5-0.1l1-0.2
		c0.1,0,0.2-0.1,0.2-0.1c0-0.1,0.1-0.1,0.1-0.2c0-0.2-0.1-0.3-0.2-0.5s-0.3-0.2-0.6-0.2c-0.3,0-0.5,0.1-0.6,0.2
		c-0.1,0.1-0.2,0.3-0.3,0.6l-0.7-0.2c0-0.2,0.1-0.3,0.2-0.5c0.1-0.2,0.2-0.3,0.3-0.4s0.3-0.2,0.5-0.3s0.4-0.1,0.6-0.1
		c0.3,0,0.5,0,0.7,0.1c0.2,0.1,0.4,0.2,0.5,0.3c0.1,0.1,0.2,0.3,0.3,0.4s0.1,0.3,0.1,0.5v1.9c0,0.2,0,0.3,0,0.4c0,0.1,0,0.2,0,0.2
		h-0.7c0,0,0-0.1,0-0.2c0-0.1,0-0.2,0-0.3c0,0.1-0.1,0.1-0.2,0.2c-0.1,0.1-0.2,0.1-0.3,0.2c-0.1,0.1-0.2,0.1-0.4,0.2
		s-0.3,0.1-0.5,0.1c-0.2,0-0.4,0-0.5-0.1c-0.2-0.1-0.3-0.1-0.4-0.3c-0.1-0.1-0.2-0.2-0.3-0.4C252.3,388.4,252.3,388.3,252.3,388.1z
		 M253.7,388.6c0.2,0,0.3,0,0.4-0.1s0.3-0.1,0.4-0.2c0.1-0.1,0.2-0.2,0.2-0.4s0.1-0.3,0.1-0.5v-0.2l-1.2,0.2c-0.2,0-0.3,0.1-0.4,0.2
		c-0.1,0.1-0.2,0.2-0.2,0.4c0,0.1,0.1,0.3,0.2,0.4C253.3,388.6,253.5,388.6,253.7,388.6z"/>
	<path fill="#999999" d="M256.7,389.1v-5.8h0.8v5.8H256.7z"/>
	<path fill="#999999" d="M262.1,388c-0.1,0.2-0.1,0.3-0.2,0.5s-0.2,0.3-0.4,0.4s-0.3,0.2-0.5,0.3c-0.2,0.1-0.4,0.1-0.6,0.1
		c-0.3,0-0.5,0-0.7-0.1c-0.2-0.1-0.4-0.2-0.6-0.4c-0.2-0.2-0.3-0.4-0.4-0.6c-0.1-0.3-0.2-0.5-0.2-0.9c0-0.3,0.1-0.6,0.2-0.8
		c0.1-0.2,0.2-0.5,0.4-0.6s0.4-0.3,0.6-0.4c0.2-0.1,0.5-0.1,0.7-0.1c0.3,0,0.6,0,0.8,0.1s0.4,0.2,0.6,0.4s0.3,0.4,0.4,0.6
		c0.1,0.2,0.1,0.5,0.1,0.8c0,0,0,0.1,0,0.1c0,0,0,0.1,0,0.1h-2.9c0,0.2,0,0.3,0.1,0.5c0.1,0.1,0.1,0.3,0.2,0.4
		c0.1,0.1,0.2,0.2,0.4,0.2c0.1,0.1,0.3,0.1,0.5,0.1c0.3,0,0.6-0.1,0.7-0.2c0.2-0.1,0.3-0.3,0.4-0.6L262.1,388z M261.3,386.8
		c0-0.3-0.1-0.5-0.3-0.7c-0.2-0.2-0.4-0.3-0.8-0.3c-0.2,0-0.3,0-0.4,0.1c-0.1,0.1-0.2,0.1-0.3,0.2c-0.1,0.1-0.2,0.2-0.2,0.3
		c-0.1,0.1-0.1,0.2-0.1,0.4H261.3z"/>
	<path fill="#999999" d="M262.9,388.6c0-0.1,0.1-0.3,0.2-0.4s0.3-0.2,0.4-0.2s0.3,0.1,0.5,0.2c0.1,0.1,0.2,0.3,0.2,0.6
		c0,0.3,0,0.5-0.1,0.7c-0.1,0.2-0.2,0.3-0.3,0.5c-0.1,0.1-0.2,0.2-0.4,0.3c-0.1,0.1-0.3,0.1-0.4,0.1V390c0.1,0,0.2-0.1,0.3-0.1
		c0.1-0.1,0.2-0.1,0.2-0.2c0.1-0.1,0.1-0.2,0.1-0.3c0-0.1,0.1-0.2,0.1-0.3c0,0,0,0-0.1,0c0,0-0.1,0-0.1,0c-0.1,0-0.3,0-0.4-0.1
		C262.9,388.9,262.9,388.8,262.9,388.6z"/>
	<path fill="#999999" d="M267.4,389.1v-5.7h3.4v0.7h-2.7v1.8h2.4v0.7h-2.4v2.4H267.4z"/>
	<path fill="#999999" d="M274.8,388c-0.1,0.2-0.1,0.3-0.2,0.5c-0.1,0.1-0.2,0.3-0.4,0.4s-0.3,0.2-0.5,0.3c-0.2,0.1-0.4,0.1-0.6,0.1
		c-0.3,0-0.5,0-0.7-0.1c-0.2-0.1-0.4-0.2-0.6-0.4c-0.2-0.2-0.3-0.4-0.4-0.6c-0.1-0.3-0.2-0.5-0.2-0.9c0-0.3,0.1-0.6,0.2-0.8
		s0.2-0.5,0.4-0.6s0.4-0.3,0.6-0.4s0.5-0.1,0.7-0.1c0.3,0,0.6,0,0.8,0.1s0.4,0.2,0.6,0.4c0.2,0.2,0.3,0.4,0.4,0.6
		c0.1,0.2,0.1,0.5,0.1,0.8c0,0,0,0.1,0,0.1c0,0,0,0.1,0,0.1h-2.9c0,0.2,0,0.3,0.1,0.5c0.1,0.1,0.1,0.3,0.2,0.4
		c0.1,0.1,0.2,0.2,0.4,0.2s0.3,0.1,0.5,0.1c0.3,0,0.6-0.1,0.7-0.2s0.3-0.3,0.4-0.6L274.8,388z M274,386.8c0-0.3-0.1-0.5-0.3-0.7
		c-0.2-0.2-0.4-0.3-0.8-0.3c-0.2,0-0.3,0-0.4,0.1c-0.1,0.1-0.2,0.1-0.3,0.2c-0.1,0.1-0.2,0.2-0.2,0.3s-0.1,0.2-0.1,0.4H274z"/>
	<path fill="#999999" d="M275.8,389.1v-3.8h0.7v0.5c0.1-0.2,0.3-0.4,0.5-0.5c0.2-0.1,0.4-0.2,0.7-0.2c0.2,0,0.5,0.1,0.7,0.2
		s0.4,0.3,0.5,0.6c0.2-0.3,0.3-0.5,0.6-0.6c0.2-0.1,0.5-0.2,0.7-0.2c0.2,0,0.3,0,0.5,0.1s0.3,0.1,0.4,0.3c0.1,0.1,0.2,0.3,0.3,0.5
		c0.1,0.2,0.1,0.4,0.1,0.7v2.5h-0.7v-2.4c0-0.3-0.1-0.5-0.2-0.6c-0.1-0.2-0.3-0.3-0.6-0.3c-0.3,0-0.5,0.1-0.6,0.3
		c-0.2,0.2-0.2,0.4-0.2,0.7v2.3h-0.8v-2.4c0-0.3-0.1-0.5-0.2-0.6c-0.1-0.2-0.3-0.3-0.6-0.3c-0.3,0-0.5,0.1-0.7,0.3
		c-0.2,0.2-0.2,0.4-0.2,0.7v2.3H275.8z"/>
	<path fill="#999999" d="M282.4,388.1c0-0.2,0-0.3,0.1-0.5s0.1-0.3,0.2-0.3s0.2-0.2,0.4-0.2c0.1-0.1,0.3-0.1,0.5-0.1l1-0.2
		c0.1,0,0.2-0.1,0.2-0.1c0-0.1,0.1-0.1,0.1-0.2c0-0.2-0.1-0.3-0.2-0.5s-0.3-0.2-0.6-0.2c-0.3,0-0.5,0.1-0.6,0.2
		c-0.1,0.1-0.2,0.3-0.3,0.6l-0.7-0.2c0-0.2,0.1-0.3,0.2-0.5c0.1-0.2,0.2-0.3,0.3-0.4s0.3-0.2,0.5-0.3s0.4-0.1,0.6-0.1
		c0.3,0,0.5,0,0.7,0.1c0.2,0.1,0.4,0.2,0.5,0.3c0.1,0.1,0.2,0.3,0.3,0.4s0.1,0.3,0.1,0.5v1.9c0,0.2,0,0.3,0,0.4c0,0.1,0,0.2,0,0.2
		H285c0,0,0-0.1,0-0.2c0-0.1,0-0.2,0-0.3c0,0.1-0.1,0.1-0.2,0.2c-0.1,0.1-0.2,0.1-0.3,0.2c-0.1,0.1-0.2,0.1-0.4,0.2
		s-0.3,0.1-0.5,0.1c-0.2,0-0.4,0-0.5-0.1c-0.2-0.1-0.3-0.1-0.4-0.3c-0.1-0.1-0.2-0.2-0.3-0.4C282.4,388.4,282.4,388.3,282.4,388.1z
		 M283.8,388.6c0.2,0,0.3,0,0.4-0.1s0.3-0.1,0.4-0.2c0.1-0.1,0.2-0.2,0.2-0.4s0.1-0.3,0.1-0.5v-0.2l-1.2,0.2c-0.2,0-0.3,0.1-0.4,0.2
		c-0.1,0.1-0.2,0.2-0.2,0.4c0,0.1,0.1,0.3,0.2,0.4C283.4,388.6,283.6,388.6,283.8,388.6z"/>
	<path fill="#999999" d="M286.8,389.1v-5.8h0.8v5.8H286.8z"/>
	<path fill="#999999" d="M292.2,388c-0.1,0.2-0.1,0.3-0.2,0.5c-0.1,0.1-0.2,0.3-0.4,0.4s-0.3,0.2-0.5,0.3c-0.2,0.1-0.4,0.1-0.6,0.1
		c-0.3,0-0.5,0-0.7-0.1c-0.2-0.1-0.4-0.2-0.6-0.4c-0.2-0.2-0.3-0.4-0.4-0.6c-0.1-0.3-0.2-0.5-0.2-0.9c0-0.3,0.1-0.6,0.2-0.8
		c0.1-0.2,0.2-0.5,0.4-0.6s0.4-0.3,0.6-0.4c0.2-0.1,0.5-0.1,0.7-0.1c0.3,0,0.6,0,0.8,0.1s0.4,0.2,0.6,0.4s0.3,0.4,0.4,0.6
		c0.1,0.2,0.1,0.5,0.1,0.8c0,0,0,0.1,0,0.1c0,0,0,0.1,0,0.1h-2.9c0,0.2,0,0.3,0.1,0.5c0.1,0.1,0.1,0.3,0.2,0.4
		c0.1,0.1,0.2,0.2,0.4,0.2c0.1,0.1,0.3,0.1,0.5,0.1c0.3,0,0.6-0.1,0.7-0.2c0.2-0.1,0.3-0.3,0.4-0.6L292.2,388z M291.4,386.8
		c0-0.3-0.1-0.5-0.3-0.7c-0.2-0.2-0.4-0.3-0.8-0.3c-0.2,0-0.3,0-0.4,0.1c-0.1,0.1-0.2,0.1-0.3,0.2c-0.1,0.1-0.2,0.2-0.2,0.3
		c-0.1,0.1-0.1,0.2-0.1,0.4H291.4z"/>
	<path fill="#999999" d="M210.6,393.5c0.3,0,0.5,0,0.7,0.1s0.4,0.2,0.5,0.3c0.1,0.1,0.3,0.3,0.3,0.5c0.1,0.2,0.1,0.4,0.1,0.6
		c0,0.3-0.1,0.6-0.2,0.8c-0.2,0.2-0.4,0.4-0.6,0.5c0.2,0,0.3,0.1,0.4,0.2c0.1,0.1,0.2,0.2,0.3,0.3s0.2,0.3,0.2,0.4
		c0,0.1,0.1,0.3,0.1,0.5c0,0.2,0,0.4-0.1,0.6c-0.1,0.2-0.2,0.4-0.4,0.5c-0.2,0.1-0.3,0.2-0.6,0.3c-0.2,0.1-0.5,0.1-0.7,0.1h-2v-5.7
		H210.6z M210.5,396c0.3,0,0.6-0.1,0.7-0.3c0.2-0.2,0.3-0.4,0.3-0.7c0-0.3-0.1-0.5-0.3-0.6c-0.2-0.2-0.4-0.2-0.8-0.2h-0.9v1.8H210.5
		z M210.6,398.5c0.3,0,0.6-0.1,0.8-0.2c0.2-0.2,0.3-0.4,0.3-0.7c0-0.3-0.1-0.5-0.3-0.7c-0.2-0.2-0.4-0.3-0.8-0.3h-1.1v1.8H210.6z"/>
	<path fill="#999999" d="M216.9,398c-0.1,0.2-0.1,0.3-0.2,0.5s-0.2,0.3-0.4,0.4s-0.3,0.2-0.5,0.3c-0.2,0.1-0.4,0.1-0.6,0.1
		c-0.3,0-0.5,0-0.7-0.1c-0.2-0.1-0.4-0.2-0.6-0.4c-0.2-0.2-0.3-0.4-0.4-0.6c-0.1-0.3-0.2-0.5-0.2-0.9c0-0.3,0.1-0.6,0.2-0.8
		c0.1-0.2,0.2-0.5,0.4-0.6s0.4-0.3,0.6-0.4c0.2-0.1,0.5-0.1,0.7-0.1c0.3,0,0.6,0,0.8,0.1c0.2,0.1,0.4,0.2,0.6,0.4s0.3,0.4,0.4,0.6
		c0.1,0.2,0.1,0.5,0.1,0.8c0,0,0,0.1,0,0.1c0,0,0,0.1,0,0.1H214c0,0.2,0,0.3,0.1,0.5c0.1,0.1,0.1,0.3,0.2,0.4
		c0.1,0.1,0.2,0.2,0.4,0.2c0.1,0.1,0.3,0.1,0.5,0.1c0.3,0,0.6-0.1,0.7-0.2c0.2-0.1,0.3-0.3,0.4-0.6L216.9,398z M216.1,396.8
		c0-0.3-0.1-0.5-0.3-0.7c-0.2-0.2-0.4-0.3-0.8-0.3c-0.2,0-0.3,0-0.4,0.1c-0.1,0.1-0.2,0.1-0.3,0.2c-0.1,0.1-0.2,0.2-0.2,0.3
		c-0.1,0.1-0.1,0.2-0.1,0.4H216.1z"/>
	<path fill="#999999" d="M217.6,398.1c0-0.2,0-0.3,0.1-0.5s0.1-0.3,0.2-0.3c0.1-0.1,0.2-0.2,0.4-0.2s0.3-0.1,0.5-0.1l1-0.2
		c0.1,0,0.2-0.1,0.2-0.1c0-0.1,0.1-0.1,0.1-0.2c0-0.2-0.1-0.3-0.2-0.5s-0.3-0.2-0.6-0.2c-0.3,0-0.5,0.1-0.6,0.2
		c-0.1,0.1-0.2,0.3-0.3,0.6l-0.7-0.2c0-0.2,0.1-0.3,0.2-0.5c0.1-0.2,0.2-0.3,0.3-0.4s0.3-0.2,0.5-0.3c0.2-0.1,0.4-0.1,0.6-0.1
		c0.3,0,0.5,0,0.7,0.1c0.2,0.1,0.4,0.2,0.5,0.3c0.1,0.1,0.2,0.3,0.3,0.4c0.1,0.2,0.1,0.3,0.1,0.5v1.9c0,0.2,0,0.3,0,0.4
		c0,0.1,0,0.2,0,0.2h-0.7c0,0,0-0.1,0-0.2s0-0.2,0-0.3c0,0.1-0.1,0.1-0.2,0.2c-0.1,0.1-0.2,0.1-0.3,0.2c-0.1,0.1-0.2,0.1-0.4,0.2
		c-0.1,0-0.3,0.1-0.5,0.1c-0.2,0-0.4,0-0.5-0.1c-0.2-0.1-0.3-0.1-0.4-0.3c-0.1-0.1-0.2-0.2-0.3-0.4
		C217.6,398.4,217.6,398.3,217.6,398.1z M219,398.6c0.2,0,0.3,0,0.4-0.1c0.1,0,0.3-0.1,0.4-0.2c0.1-0.1,0.2-0.2,0.2-0.4
		c0.1-0.1,0.1-0.3,0.1-0.5v-0.2l-1.2,0.2c-0.2,0-0.3,0.1-0.4,0.2c-0.1,0.1-0.2,0.2-0.2,0.4c0,0.1,0.1,0.3,0.2,0.4
		C218.7,398.6,218.8,398.6,219,398.6z"/>
	<path fill="#999999" d="M224.2,396.1c-0.1,0-0.2,0-0.3,0c-0.3,0-0.6,0.1-0.8,0.3c-0.2,0.2-0.3,0.5-0.3,0.9v1.9H222v-3.8h0.7v0.7
		c0.1-0.1,0.2-0.3,0.2-0.4c0.1-0.1,0.2-0.2,0.3-0.2c0.1-0.1,0.2-0.1,0.3-0.1s0.2,0,0.3,0c0.1,0,0.1,0,0.1,0c0,0,0.1,0,0.1,0V396.1z"
		/>
	<path fill="#999999" d="M224.2,398.6c0-0.1,0.1-0.3,0.2-0.4s0.3-0.2,0.4-0.2c0.2,0,0.3,0.1,0.5,0.2c0.1,0.1,0.2,0.3,0.2,0.6
		c0,0.3,0,0.5-0.1,0.7c-0.1,0.2-0.2,0.3-0.3,0.5c-0.1,0.1-0.2,0.2-0.4,0.3c-0.1,0.1-0.3,0.1-0.4,0.1V400c0.1,0,0.2-0.1,0.3-0.1
		c0.1-0.1,0.2-0.1,0.2-0.2c0.1-0.1,0.1-0.2,0.1-0.3c0-0.1,0.1-0.2,0.1-0.3c0,0,0,0-0.1,0c0,0-0.1,0-0.1,0c-0.2,0-0.3,0-0.4-0.1
		C224.2,398.9,224.2,398.8,224.2,398.6z"/>
	<path fill="#999999" d="M228.7,399.1v-5.7h2c0.4,0,0.7,0.1,1,0.2c0.3,0.1,0.6,0.3,0.9,0.5c0.2,0.2,0.4,0.5,0.6,0.9s0.2,0.8,0.2,1.2
		s-0.1,0.9-0.2,1.2c-0.1,0.4-0.3,0.6-0.6,0.9c-0.3,0.2-0.5,0.4-0.9,0.5s-0.7,0.2-1,0.2H228.7z M230.6,398.4c0.3,0,0.5,0,0.7-0.1
		c0.2-0.1,0.4-0.2,0.6-0.4c0.2-0.2,0.3-0.4,0.4-0.7s0.2-0.6,0.2-0.9s-0.1-0.7-0.2-0.9s-0.2-0.5-0.4-0.7s-0.4-0.3-0.6-0.4
		s-0.5-0.1-0.7-0.1h-1.2v4.3H230.6z"/>
	<path fill="#999999" d="M236,395.2c0.3,0,0.6,0.1,0.8,0.2c0.2,0.1,0.4,0.2,0.6,0.4s0.3,0.4,0.4,0.6s0.1,0.5,0.1,0.8
		c0,0.3,0,0.6-0.1,0.8c-0.1,0.3-0.2,0.5-0.4,0.6s-0.4,0.3-0.6,0.4c-0.2,0.1-0.5,0.2-0.8,0.2c-0.3,0-0.6-0.1-0.8-0.2
		c-0.2-0.1-0.4-0.2-0.6-0.4s-0.3-0.4-0.4-0.6c-0.1-0.3-0.1-0.5-0.1-0.8c0-0.3,0-0.6,0.1-0.8s0.2-0.5,0.4-0.6s0.4-0.3,0.6-0.4
		C235.5,395.2,235.7,395.2,236,395.2z M236,398.6c0.2,0,0.3,0,0.5-0.1c0.1-0.1,0.3-0.1,0.4-0.3c0.1-0.1,0.2-0.3,0.3-0.4
		c0.1-0.2,0.1-0.4,0.1-0.6c0-0.2,0-0.4-0.1-0.6c-0.1-0.2-0.2-0.3-0.3-0.4c-0.1-0.1-0.2-0.2-0.4-0.3c-0.1-0.1-0.3-0.1-0.5-0.1
		s-0.3,0-0.5,0.1c-0.1,0.1-0.3,0.1-0.4,0.3c-0.1,0.1-0.2,0.3-0.3,0.4s-0.1,0.4-0.1,0.6c0,0.2,0,0.4,0.1,0.6s0.2,0.3,0.3,0.4
		s0.2,0.2,0.4,0.3C235.7,398.6,235.8,398.6,236,398.6z"/>
	<path fill="#999999" d="M239.4,399.2c0,0.3,0.1,0.5,0.3,0.7s0.4,0.3,0.7,0.3c0.4,0,0.7-0.1,0.9-0.3s0.3-0.5,0.3-0.9v-0.6
		c-0.1,0.2-0.2,0.3-0.4,0.4c-0.2,0.1-0.4,0.2-0.7,0.2c-0.3,0-0.5,0-0.7-0.1c-0.2-0.1-0.4-0.2-0.6-0.4c-0.2-0.2-0.3-0.4-0.4-0.6
		s-0.1-0.5-0.1-0.8c0-0.3,0-0.5,0.1-0.7c0.1-0.2,0.2-0.4,0.4-0.6s0.3-0.3,0.6-0.4c0.2-0.1,0.5-0.1,0.7-0.1c0.3,0,0.5,0.1,0.7,0.2
		s0.3,0.3,0.4,0.4v-0.5h0.7v3.6c0,0.2,0,0.5-0.1,0.7c-0.1,0.2-0.2,0.4-0.3,0.6c-0.2,0.2-0.3,0.3-0.6,0.4c-0.2,0.1-0.5,0.2-0.9,0.2
		c-0.2,0-0.5,0-0.7-0.1c-0.2-0.1-0.4-0.2-0.5-0.3c-0.2-0.1-0.3-0.3-0.4-0.5c-0.1-0.2-0.2-0.4-0.2-0.6L239.4,399.2z M240.5,398.3
		c0.3,0,0.6-0.1,0.8-0.3c0.2-0.2,0.3-0.5,0.3-0.9s-0.1-0.7-0.3-0.9c-0.2-0.2-0.5-0.3-0.8-0.3c-0.3,0-0.6,0.1-0.8,0.3
		c-0.2,0.2-0.3,0.5-0.3,0.9c0,0.4,0.1,0.7,0.3,0.9C239.9,398.2,240.2,398.3,240.5,398.3z"/>
	<path fill="#999999" d="M243.5,398.6c0-0.1,0.1-0.3,0.2-0.4s0.3-0.2,0.4-0.2s0.3,0.1,0.5,0.2c0.1,0.1,0.2,0.3,0.2,0.6
		c0,0.3,0,0.5-0.1,0.7c-0.1,0.2-0.2,0.3-0.3,0.5c-0.1,0.1-0.2,0.2-0.4,0.3c-0.1,0.1-0.3,0.1-0.4,0.1V400c0.1,0,0.2-0.1,0.3-0.1
		c0.1-0.1,0.2-0.1,0.2-0.2c0.1-0.1,0.1-0.2,0.1-0.3c0-0.1,0.1-0.2,0.1-0.3c0,0,0,0-0.1,0c0,0-0.1,0-0.1,0c-0.1,0-0.3,0-0.4-0.1
		C243.5,398.9,243.5,398.8,243.5,398.6z"/>
	<path fill="#999999" d="M250.4,399.3c-0.4,0-0.7-0.1-1.1-0.2c-0.3-0.1-0.6-0.3-0.9-0.6c-0.3-0.3-0.5-0.6-0.6-0.9
		c-0.2-0.4-0.2-0.8-0.2-1.3s0.1-0.9,0.2-1.3c0.2-0.4,0.4-0.7,0.6-0.9c0.3-0.3,0.6-0.4,0.9-0.6c0.3-0.1,0.7-0.2,1-0.2
		c0.3,0,0.6,0,0.9,0.1s0.5,0.2,0.7,0.4c0.2,0.2,0.4,0.3,0.5,0.6c0.1,0.2,0.3,0.5,0.3,0.7l-0.7,0.3c-0.1-0.4-0.3-0.8-0.6-1
		c-0.3-0.2-0.7-0.3-1.2-0.3c-0.3,0-0.5,0-0.7,0.1c-0.2,0.1-0.5,0.2-0.6,0.4s-0.3,0.4-0.5,0.7c-0.1,0.3-0.2,0.6-0.2,1s0.1,0.7,0.2,1
		c0.1,0.3,0.3,0.5,0.5,0.7s0.4,0.3,0.6,0.4c0.2,0.1,0.5,0.1,0.7,0.1c0.2,0,0.5,0,0.7-0.1s0.4-0.2,0.5-0.3c0.2-0.1,0.3-0.3,0.4-0.4
		s0.2-0.3,0.2-0.5l0.7,0.3c-0.1,0.3-0.2,0.5-0.3,0.7c-0.1,0.2-0.3,0.4-0.5,0.6c-0.2,0.2-0.5,0.3-0.7,0.4
		C251.1,399.2,250.8,399.3,250.4,399.3z"/>
	<path fill="#999999" d="M253.5,398.1c0-0.2,0-0.3,0.1-0.5s0.1-0.3,0.2-0.3c0.1-0.1,0.2-0.2,0.4-0.2s0.3-0.1,0.5-0.1l1-0.2
		c0.1,0,0.2-0.1,0.2-0.1c0-0.1,0.1-0.1,0.1-0.2c0-0.2-0.1-0.3-0.2-0.5s-0.3-0.2-0.6-0.2c-0.3,0-0.5,0.1-0.6,0.2
		c-0.1,0.1-0.2,0.3-0.3,0.6l-0.7-0.2c0-0.2,0.1-0.3,0.2-0.5c0.1-0.2,0.2-0.3,0.3-0.4s0.3-0.2,0.5-0.3c0.2-0.1,0.4-0.1,0.6-0.1
		c0.3,0,0.5,0,0.7,0.1c0.2,0.1,0.4,0.2,0.5,0.3c0.1,0.1,0.2,0.3,0.3,0.4c0.1,0.2,0.1,0.3,0.1,0.5v1.9c0,0.2,0,0.3,0,0.4
		c0,0.1,0,0.2,0,0.2h-0.7c0,0,0-0.1,0-0.2c0-0.1,0-0.2,0-0.3c0,0.1-0.1,0.1-0.2,0.2c-0.1,0.1-0.2,0.1-0.3,0.2
		c-0.1,0.1-0.2,0.1-0.4,0.2c-0.1,0-0.3,0.1-0.5,0.1c-0.2,0-0.4,0-0.5-0.1c-0.2-0.1-0.3-0.1-0.4-0.3c-0.1-0.1-0.2-0.2-0.3-0.4
		C253.5,398.4,253.5,398.3,253.5,398.1z M254.9,398.6c0.2,0,0.3,0,0.4-0.1c0.1,0,0.3-0.1,0.4-0.2c0.1-0.1,0.2-0.2,0.2-0.4
		c0.1-0.1,0.1-0.3,0.1-0.5v-0.2l-1.2,0.2c-0.2,0-0.3,0.1-0.4,0.2c-0.1,0.1-0.2,0.2-0.2,0.4c0,0.1,0.1,0.3,0.2,0.4
		C254.6,398.6,254.7,398.6,254.9,398.6z"/>
	<path fill="#999999" d="M258.9,395.3h0.8v0.7h-0.8v2c0,0.2,0,0.3,0.1,0.4c0.1,0.1,0.2,0.1,0.4,0.1c0,0,0.1,0,0.2,0
		c0.1,0,0.1,0,0.1,0v0.6c0,0-0.1,0-0.2,0c-0.1,0-0.2,0-0.3,0c-0.3,0-0.6-0.1-0.8-0.3s-0.3-0.5-0.3-0.8V396h-0.7v-0.7h0.2
		c0.2,0,0.4-0.1,0.5-0.2c0.1-0.1,0.1-0.3,0.1-0.4v-0.6h0.7V395.3z"/>
	<path fill="#999999" d="M260.7,398.6c0-0.1,0.1-0.3,0.2-0.4s0.3-0.2,0.4-0.2c0.2,0,0.3,0.1,0.5,0.2c0.1,0.1,0.2,0.3,0.2,0.6
		c0,0.3,0,0.5-0.1,0.7c-0.1,0.2-0.2,0.3-0.3,0.5c-0.1,0.1-0.2,0.2-0.4,0.3c-0.1,0.1-0.3,0.1-0.4,0.1V400c0.1,0,0.2-0.1,0.3-0.1
		c0.1-0.1,0.2-0.1,0.2-0.2c0.1-0.1,0.1-0.2,0.1-0.3c0-0.1,0.1-0.2,0.1-0.3c0,0,0,0-0.1,0c0,0-0.1,0-0.1,0c-0.2,0-0.3,0-0.4-0.1
		C260.8,398.9,260.7,398.8,260.7,398.6z"/>
	<path fill="#999999" d="M267.2,399.3c-0.3,0-0.6,0-0.8-0.1s-0.5-0.2-0.6-0.4c-0.2-0.2-0.3-0.4-0.4-0.6c-0.1-0.3-0.2-0.6-0.2-0.9
		v-3.7h0.8v3.7c0,0.4,0.1,0.8,0.3,1c0.2,0.2,0.5,0.4,0.9,0.4s0.7-0.1,0.9-0.4s0.3-0.6,0.3-1v-3.7h0.8v3.7c0,0.3-0.1,0.6-0.2,0.9
		c-0.1,0.3-0.2,0.5-0.4,0.6c-0.2,0.2-0.4,0.3-0.6,0.4S267.5,399.3,267.2,399.3z"/>
	<path fill="#999999" d="M271.2,399.1h-0.8v-3.8h0.7v0.6c0.1-0.2,0.3-0.4,0.5-0.5c0.2-0.1,0.4-0.2,0.7-0.2c0.2,0,0.4,0,0.6,0.1
		c0.2,0.1,0.3,0.2,0.4,0.3c0.1,0.1,0.2,0.3,0.3,0.5s0.1,0.4,0.1,0.6v2.4H273v-2.3c0-0.1,0-0.3,0-0.4c0-0.1-0.1-0.2-0.2-0.3
		c-0.1-0.1-0.2-0.2-0.3-0.2s-0.3-0.1-0.4-0.1c-0.1,0-0.3,0-0.4,0.1c-0.1,0.1-0.2,0.1-0.3,0.2c-0.1,0.1-0.1,0.2-0.2,0.3
		s-0.1,0.3-0.1,0.4V399.1z"/>
	<path fill="#999999" d="M274.8,393.8c0-0.2,0.1-0.3,0.2-0.4c0.1-0.1,0.2-0.2,0.4-0.2c0.2,0,0.3,0.1,0.4,0.2
		c0.1,0.1,0.2,0.2,0.2,0.4c0,0.1-0.1,0.3-0.2,0.4c-0.1,0.1-0.2,0.2-0.4,0.2c-0.2,0-0.3-0.1-0.4-0.2
		C274.8,394.1,274.8,394,274.8,393.8z M274.9,399.1v-3.8h0.7v3.8H274.9z"/>
	<path fill="#999999" d="M278.6,395.9c-0.2,0-0.3,0-0.4,0.1c-0.1,0.1-0.3,0.1-0.4,0.3c-0.1,0.1-0.2,0.3-0.3,0.4
		c-0.1,0.2-0.1,0.4-0.1,0.6c0,0.2,0,0.4,0.1,0.6c0.1,0.2,0.2,0.3,0.3,0.4c0.1,0.1,0.2,0.2,0.4,0.3s0.3,0.1,0.4,0.1
		c0.2,0,0.3,0,0.5-0.1c0.1-0.1,0.2-0.1,0.3-0.2c0.1-0.1,0.1-0.2,0.2-0.3c0-0.1,0.1-0.2,0.1-0.3l0.7,0.3c0,0.1-0.1,0.3-0.2,0.4
		c-0.1,0.1-0.2,0.3-0.4,0.4c-0.1,0.1-0.3,0.2-0.5,0.3c-0.2,0.1-0.4,0.1-0.7,0.1c-0.3,0-0.5-0.1-0.8-0.2c-0.2-0.1-0.4-0.2-0.6-0.4
		c-0.2-0.2-0.3-0.4-0.4-0.6c-0.1-0.2-0.1-0.5-0.1-0.8c0-0.3,0-0.6,0.1-0.8c0.1-0.3,0.2-0.5,0.4-0.6c0.2-0.2,0.4-0.3,0.6-0.4
		c0.2-0.1,0.5-0.2,0.8-0.2c0.3,0,0.5,0,0.7,0.1c0.2,0.1,0.4,0.2,0.5,0.3c0.1,0.1,0.3,0.3,0.3,0.4c0.1,0.1,0.1,0.3,0.2,0.4l-0.7,0.3
		c0-0.1-0.1-0.2-0.1-0.3c0-0.1-0.1-0.2-0.2-0.3s-0.2-0.1-0.3-0.2S278.8,395.9,278.6,395.9z"/>
	<path fill="#999999" d="M282.8,395.2c0.3,0,0.6,0.1,0.8,0.2c0.2,0.1,0.4,0.2,0.6,0.4s0.3,0.4,0.4,0.6s0.1,0.5,0.1,0.8
		c0,0.3,0,0.6-0.1,0.8c-0.1,0.3-0.2,0.5-0.4,0.6s-0.4,0.3-0.6,0.4c-0.2,0.1-0.5,0.2-0.8,0.2c-0.3,0-0.6-0.1-0.8-0.2
		c-0.2-0.1-0.4-0.2-0.6-0.4s-0.3-0.4-0.4-0.6c-0.1-0.3-0.1-0.5-0.1-0.8c0-0.3,0-0.6,0.1-0.8s0.2-0.5,0.4-0.6s0.4-0.3,0.6-0.4
		C282.3,395.2,282.5,395.2,282.8,395.2z M282.8,398.6c0.2,0,0.3,0,0.5-0.1c0.1-0.1,0.3-0.1,0.4-0.3c0.1-0.1,0.2-0.3,0.3-0.4
		c0.1-0.2,0.1-0.4,0.1-0.6c0-0.2,0-0.4-0.1-0.6c-0.1-0.2-0.2-0.3-0.3-0.4c-0.1-0.1-0.2-0.2-0.4-0.3c-0.1-0.1-0.3-0.1-0.5-0.1
		s-0.3,0-0.5,0.1c-0.1,0.1-0.3,0.1-0.4,0.3c-0.1,0.1-0.2,0.3-0.3,0.4s-0.1,0.4-0.1,0.6c0,0.2,0,0.4,0.1,0.6s0.2,0.3,0.3,0.4
		s0.2,0.2,0.4,0.3C282.5,398.6,282.7,398.6,282.8,398.6z"/>
	<path fill="#999999" d="M287.9,396.1c-0.1,0-0.2,0-0.3,0c-0.3,0-0.6,0.1-0.8,0.3c-0.2,0.2-0.3,0.5-0.3,0.9v1.9h-0.8v-3.8h0.7v0.7
		c0.1-0.1,0.2-0.3,0.2-0.4c0.1-0.1,0.2-0.2,0.3-0.2c0.1-0.1,0.2-0.1,0.3-0.1c0.1,0,0.2,0,0.3,0c0.1,0,0.1,0,0.1,0c0,0,0.1,0,0.1,0
		V396.1z"/>
	<path fill="#999999" d="M289.4,399.1h-0.8v-3.8h0.7v0.6c0.1-0.2,0.3-0.4,0.5-0.5c0.2-0.1,0.4-0.2,0.7-0.2c0.2,0,0.4,0,0.6,0.1
		c0.2,0.1,0.3,0.2,0.4,0.3c0.1,0.1,0.2,0.3,0.3,0.5s0.1,0.4,0.1,0.6v2.4h-0.8v-2.3c0-0.1,0-0.3,0-0.4c0-0.1-0.1-0.2-0.2-0.3
		c-0.1-0.1-0.2-0.2-0.3-0.2s-0.3-0.1-0.4-0.1c-0.1,0-0.3,0-0.4,0.1c-0.1,0.1-0.2,0.1-0.3,0.2c-0.1,0.1-0.1,0.2-0.2,0.3
		s-0.1,0.3-0.1,0.4V399.1z"/>
</g>
<g>
	<path fill="#9013FE" d="M-315.4,399.1h-1.1l4.1-8.5h1.1L-315.4,399.1z"/>
	<path fill="#9013FE" d="M-311,399.1v-5.8h1.1v0.8c0.2-0.3,0.4-0.6,0.8-0.7s0.7-0.2,1-0.2c0.4,0,0.7,0.1,1,0.3
		c0.3,0.2,0.6,0.5,0.7,0.8c0.2-0.4,0.5-0.7,0.9-0.9s0.7-0.2,1.1-0.2c0.2,0,0.5,0,0.7,0.1c0.2,0.1,0.5,0.2,0.6,0.4
		c0.2,0.2,0.3,0.4,0.5,0.7c0.1,0.3,0.2,0.6,0.2,1v3.7h-1.1v-3.6c0-0.4-0.1-0.7-0.3-0.9c-0.2-0.3-0.5-0.4-0.9-0.4
		c-0.4,0-0.7,0.1-1,0.4c-0.2,0.3-0.4,0.6-0.4,1v3.5h-1.1v-3.6c0-0.4-0.1-0.7-0.3-0.9c-0.2-0.3-0.5-0.4-0.9-0.4c-0.4,0-0.7,0.1-1,0.4
		c-0.2,0.3-0.4,0.6-0.4,1.1v3.5H-311z"/>
	<path fill="#9013FE" d="M-301.1,397.6c0-0.3,0-0.5,0.1-0.7c0.1-0.2,0.2-0.4,0.4-0.5c0.2-0.1,0.3-0.3,0.6-0.3
		c0.2-0.1,0.4-0.2,0.7-0.2l1.6-0.2c0.2,0,0.3-0.1,0.4-0.2c0.1-0.1,0.1-0.2,0.1-0.3c0-0.3-0.1-0.5-0.3-0.7c-0.2-0.2-0.5-0.3-1-0.3
		c-0.4,0-0.7,0.1-0.9,0.3c-0.2,0.2-0.3,0.5-0.4,0.8l-1.1-0.3c0-0.3,0.1-0.5,0.2-0.8s0.3-0.4,0.5-0.6s0.5-0.3,0.7-0.4
		c0.3-0.1,0.6-0.1,0.9-0.1c0.4,0,0.8,0.1,1.1,0.2c0.3,0.1,0.6,0.3,0.7,0.5c0.2,0.2,0.3,0.4,0.4,0.7c0.1,0.3,0.1,0.5,0.1,0.8v2.9
		c0,0.3,0,0.5,0,0.6c0,0.2,0,0.3,0,0.3h-1.1c0-0.1,0-0.2,0-0.3s0-0.3,0-0.5c-0.1,0.1-0.1,0.2-0.3,0.3c-0.1,0.1-0.2,0.2-0.4,0.3
		c-0.2,0.1-0.3,0.2-0.5,0.2c-0.2,0.1-0.4,0.1-0.7,0.1c-0.3,0-0.6,0-0.8-0.1c-0.2-0.1-0.4-0.2-0.6-0.4s-0.3-0.3-0.4-0.5
		C-301,398-301.1,397.8-301.1,397.6z M-299,398.4c0.2,0,0.4,0,0.7-0.1c0.2-0.1,0.4-0.2,0.5-0.3c0.1-0.1,0.3-0.3,0.4-0.5
		s0.1-0.5,0.1-0.8v-0.3l-1.8,0.3c-0.2,0-0.4,0.1-0.6,0.3c-0.2,0.1-0.2,0.3-0.2,0.6c0,0.2,0.1,0.4,0.3,0.6
		C-299.5,398.3-299.3,398.4-299,398.4z"/>
	<path fill="#9013FE" d="M-294.4,401.6l1.4-3l-2.5-5.1h1.3l1.8,4l1.7-4h1.2l-3.8,8.2H-294.4z"/>
	<path fill="#9013FE" d="M-288.8,397.6c0-0.3,0-0.5,0.1-0.7c0.1-0.2,0.2-0.4,0.4-0.5c0.2-0.1,0.3-0.3,0.6-0.3
		c0.2-0.1,0.4-0.2,0.7-0.2l1.6-0.2c0.2,0,0.3-0.1,0.4-0.2c0.1-0.1,0.1-0.2,0.1-0.3c0-0.3-0.1-0.5-0.3-0.7c-0.2-0.2-0.5-0.3-1-0.3
		c-0.4,0-0.7,0.1-0.9,0.3c-0.2,0.2-0.3,0.5-0.4,0.8l-1.1-0.3c0-0.3,0.1-0.5,0.2-0.8s0.3-0.4,0.5-0.6s0.5-0.3,0.7-0.4
		c0.3-0.1,0.6-0.1,0.9-0.1c0.4,0,0.8,0.1,1.1,0.2c0.3,0.1,0.6,0.3,0.7,0.5c0.2,0.2,0.3,0.4,0.4,0.7c0.1,0.3,0.1,0.5,0.1,0.8v2.9
		c0,0.3,0,0.5,0,0.6c0,0.2,0,0.3,0,0.3h-1.1c0-0.1,0-0.2,0-0.3s0-0.3,0-0.5c-0.1,0.1-0.1,0.2-0.3,0.3c-0.1,0.1-0.2,0.2-0.4,0.3
		c-0.2,0.1-0.3,0.2-0.5,0.2c-0.2,0.1-0.4,0.1-0.7,0.1c-0.3,0-0.6,0-0.8-0.1c-0.2-0.1-0.4-0.2-0.6-0.4s-0.3-0.3-0.4-0.5
		C-288.8,398-288.8,397.8-288.8,397.6z M-286.7,398.4c0.2,0,0.4,0,0.7-0.1c0.2-0.1,0.4-0.2,0.5-0.3c0.1-0.1,0.3-0.3,0.4-0.5
		s0.1-0.5,0.1-0.8v-0.3l-1.8,0.3c-0.2,0-0.4,0.1-0.6,0.3c-0.2,0.1-0.2,0.3-0.2,0.6c0,0.2,0.1,0.4,0.3,0.6
		C-287.3,398.3-287,398.4-286.7,398.4z"/>
	<path fill="#9013FE" d="M-281.1,399.1h-1.1v-5.8h1.1v0.8c0.2-0.4,0.5-0.6,0.8-0.8c0.3-0.2,0.6-0.2,1-0.2c0.3,0,0.6,0.1,0.9,0.2
		c0.3,0.1,0.5,0.3,0.6,0.5c0.2,0.2,0.3,0.4,0.4,0.7c0.1,0.3,0.1,0.6,0.1,0.9v3.7h-1.1v-3.5c0-0.2,0-0.4-0.1-0.6
		c0-0.2-0.1-0.3-0.2-0.5c-0.1-0.1-0.2-0.2-0.4-0.3c-0.2-0.1-0.4-0.1-0.6-0.1c-0.2,0-0.4,0-0.6,0.1s-0.3,0.2-0.4,0.3
		c-0.1,0.1-0.2,0.3-0.3,0.5c-0.1,0.2-0.1,0.4-0.1,0.6V399.1z"/>
	<path fill="#9013FE" d="M-272.7,395.8l2.5,3.3h-1.4l-1.9-2.5l-0.8,0.8v1.7h-1.1v-8.7h1.1v5.5l2.5-2.6h1.6L-272.7,395.8z"/>
	<path fill="#9013FE" d="M-265.4,398.3c-0.1,0.3-0.4,0.5-0.7,0.7c-0.3,0.2-0.7,0.3-1.1,0.3c-0.4,0-0.8-0.1-1.1-0.2s-0.6-0.4-0.9-0.6
		c-0.2-0.3-0.4-0.6-0.5-1s-0.2-0.8-0.2-1.2c0-0.4,0.1-0.8,0.2-1.2c0.1-0.4,0.3-0.7,0.6-1c0.2-0.3,0.5-0.5,0.9-0.7s0.7-0.2,1.1-0.2
		c0.3,0,0.5,0,0.7,0.1c0.2,0.1,0.4,0.1,0.5,0.2c0.1,0.1,0.3,0.2,0.4,0.3c0.1,0.1,0.2,0.2,0.2,0.4v-3.7h1.1v7.6c0,0.3,0,0.5,0,0.7
		c0,0.2,0,0.3,0,0.4h-1.1c0-0.1,0-0.2,0-0.3C-265.4,398.7-265.4,398.5-265.4,398.3L-265.4,398.3z M-268.8,396.2c0,0.3,0,0.6,0.1,0.8
		s0.2,0.5,0.3,0.7c0.1,0.2,0.3,0.3,0.5,0.4c0.2,0.1,0.4,0.2,0.7,0.2c0.3,0,0.5-0.1,0.7-0.2s0.4-0.3,0.5-0.4c0.1-0.2,0.3-0.4,0.3-0.7
		s0.1-0.5,0.1-0.8c0-0.6-0.1-1.1-0.4-1.5s-0.7-0.6-1.2-0.6c-0.3,0-0.5,0-0.7,0.1c-0.2,0.1-0.4,0.2-0.5,0.4c-0.1,0.2-0.3,0.4-0.3,0.6
		S-268.8,395.9-268.8,396.2z"/>
	<path fill="#9013FE" d="M-261.3,399.1h-1.1v-8.7h1.1v3.6c0.2-0.3,0.5-0.5,0.8-0.6c0.3-0.1,0.6-0.2,1-0.2c0.3,0,0.6,0.1,0.9,0.2
		c0.3,0.1,0.5,0.3,0.6,0.5c0.2,0.2,0.3,0.4,0.4,0.7c0.1,0.3,0.1,0.6,0.1,0.9v3.7h-1.1v-3.5c0-0.2,0-0.4-0.1-0.6
		c0-0.2-0.1-0.3-0.2-0.5c-0.1-0.1-0.2-0.2-0.4-0.3c-0.2-0.1-0.4-0.1-0.6-0.1c-0.2,0-0.4,0-0.6,0.1c-0.2,0.1-0.3,0.2-0.4,0.3
		c-0.1,0.1-0.2,0.3-0.3,0.5c-0.1,0.2-0.1,0.4-0.1,0.6V399.1z"/>
	<path fill="#9013FE" d="M-256,397.6c0-0.3,0-0.5,0.1-0.7c0.1-0.2,0.2-0.4,0.4-0.5c0.2-0.1,0.3-0.3,0.6-0.3c0.2-0.1,0.4-0.2,0.7-0.2
		l1.6-0.2c0.2,0,0.3-0.1,0.4-0.2c0.1-0.1,0.1-0.2,0.1-0.3c0-0.3-0.1-0.5-0.3-0.7c-0.2-0.2-0.5-0.3-1-0.3c-0.4,0-0.7,0.1-0.9,0.3
		c-0.2,0.2-0.3,0.5-0.4,0.8l-1.1-0.3c0-0.3,0.1-0.5,0.2-0.8s0.3-0.4,0.5-0.6s0.5-0.3,0.7-0.4c0.3-0.1,0.6-0.1,0.9-0.1
		c0.4,0,0.8,0.1,1.1,0.2c0.3,0.1,0.6,0.3,0.7,0.5c0.2,0.2,0.3,0.4,0.4,0.7c0.1,0.3,0.1,0.5,0.1,0.8v2.9c0,0.3,0,0.5,0,0.6
		c0,0.2,0,0.3,0,0.3h-1.1c0-0.1,0-0.2,0-0.3s0-0.3,0-0.5c-0.1,0.1-0.1,0.2-0.3,0.3c-0.1,0.1-0.2,0.2-0.4,0.3
		c-0.2,0.1-0.3,0.2-0.5,0.2c-0.2,0.1-0.4,0.1-0.7,0.1c-0.3,0-0.6,0-0.8-0.1c-0.2-0.1-0.4-0.2-0.6-0.4s-0.3-0.3-0.4-0.5
		C-256,398-256,397.8-256,397.6z M-253.9,398.4c0.2,0,0.4,0,0.7-0.1c0.2-0.1,0.4-0.2,0.5-0.3c0.1-0.1,0.3-0.3,0.4-0.5
		s0.1-0.5,0.1-0.8v-0.3l-1.8,0.3c-0.2,0-0.4,0.1-0.6,0.3c-0.2,0.1-0.2,0.3-0.2,0.6c0,0.2,0.1,0.4,0.3,0.6
		C-254.4,398.3-254.2,398.4-253.9,398.4z"/>
	<path fill="#9013FE" d="M-245,393.4l1.5,4.3l1.3-4.3h1.2l-1.9,5.8h-1.2l-1.5-4.4l-1.5,4.4h-1.2l-1.9-5.8h1.2l1.3,4.3l1.5-4.3H-245z
		"/>
	<path fill="#9013FE" d="M-240.3,397.6c0-0.3,0-0.5,0.1-0.7c0.1-0.2,0.2-0.4,0.4-0.5c0.2-0.1,0.3-0.3,0.6-0.3
		c0.2-0.1,0.4-0.2,0.7-0.2l1.6-0.2c0.2,0,0.3-0.1,0.4-0.2c0.1-0.1,0.1-0.2,0.1-0.3c0-0.3-0.1-0.5-0.3-0.7c-0.2-0.2-0.5-0.3-1-0.3
		c-0.4,0-0.7,0.1-0.9,0.3c-0.2,0.2-0.3,0.5-0.4,0.8l-1.1-0.3c0-0.3,0.1-0.5,0.2-0.8s0.3-0.4,0.5-0.6s0.5-0.3,0.7-0.4
		c0.3-0.1,0.6-0.1,0.9-0.1c0.4,0,0.8,0.1,1.1,0.2c0.3,0.1,0.6,0.3,0.7,0.5c0.2,0.2,0.3,0.4,0.4,0.7c0.1,0.3,0.1,0.5,0.1,0.8v2.9
		c0,0.3,0,0.5,0,0.6c0,0.2,0,0.3,0,0.3h-1.1c0-0.1,0-0.2,0-0.3s0-0.3,0-0.5c-0.1,0.1-0.1,0.2-0.3,0.3c-0.1,0.1-0.2,0.2-0.4,0.3
		c-0.2,0.1-0.3,0.2-0.5,0.2c-0.2,0.1-0.4,0.1-0.7,0.1c-0.3,0-0.6,0-0.8-0.1c-0.2-0.1-0.4-0.2-0.6-0.4s-0.3-0.3-0.4-0.5
		C-240.2,398-240.3,397.8-240.3,397.6z M-238.2,398.4c0.2,0,0.4,0,0.7-0.1c0.2-0.1,0.4-0.2,0.5-0.3c0.1-0.1,0.3-0.3,0.4-0.5
		s0.1-0.5,0.1-0.8v-0.3l-1.8,0.3c-0.2,0-0.4,0.1-0.6,0.3c-0.2,0.1-0.2,0.3-0.2,0.6c0,0.2,0.1,0.4,0.3,0.6
		C-238.7,398.3-238.5,398.4-238.2,398.4z"/>
	<path fill="#9013FE" d="M-232.5,399.1h-1.1v-5.8h1.1v0.8c0.2-0.4,0.5-0.6,0.8-0.8c0.3-0.2,0.6-0.2,1-0.2c0.3,0,0.6,0.1,0.9,0.2
		c0.3,0.1,0.5,0.3,0.6,0.5c0.2,0.2,0.3,0.4,0.4,0.7c0.1,0.3,0.1,0.6,0.1,0.9v3.7h-1.1v-3.5c0-0.2,0-0.4-0.1-0.6
		c0-0.2-0.1-0.3-0.2-0.5c-0.1-0.1-0.2-0.2-0.4-0.3c-0.2-0.1-0.4-0.1-0.6-0.1c-0.2,0-0.4,0-0.6,0.1s-0.3,0.2-0.4,0.3
		c-0.1,0.1-0.2,0.3-0.3,0.5c-0.1,0.2-0.1,0.4-0.1,0.6V399.1z"/>
</g>
<path fill-rule="evenodd" clip-rule="evenodd" fill="#9013FE" d="M-329.1,404.5c-0.4-2.4-1.1-4.6-1.9-6.7c1.9-0.3,3.9-0.3,5.9,0.2
	C-325.5,400.7-327,403-329.1,404.5z M-341.3,404.3c0.7-0.9,2.1-2.5,4.1-3.9c1.4-0.9,2.8-1.6,4.3-2.1c0.9,2.2,1.6,4.7,2,7.3
	c-1.3,0.6-2.7,0.9-4.2,0.9C-337.4,406.5-339.6,405.7-341.3,404.3z M-345.1,396C-345,396-345,396-345.1,396c1.3,0,3.5-0.1,6.2-0.6
	c1.5-0.3,2.9-0.6,4.3-1.1c0.3,0.7,0.7,1.4,1,2.2c-1.9,0.6-3.5,1.5-4.7,2.3c-2.1,1.4-3.6,3.1-4.4,4c-1.5-1.8-2.4-4-2.4-6.5
	C-345.1,396.3-345.1,396.1-345.1,396z M-339,387.2c0.6,0.8,2,2.7,3.5,5.4c-3.8,1.2-7.5,1.4-9.3,1.5
	C-344.1,391-341.9,388.4-339,387.2z M-328.5,388.7c-1.5,1.4-3.3,2.4-5.2,3.2c-1.3-2.5-2.6-4.3-3.4-5.4c0.7-0.1,1.4-0.2,2.1-0.2
	C-332.5,386.3-330.3,387.2-328.5,388.7z M-327.2,390.1c1.3,1.7,2.2,3.8,2.2,6c-2.5-0.5-4.8-0.5-6.7-0.1c-0.4-0.8-0.7-1.6-1.1-2.4
	C-330.6,392.7-328.7,391.5-327.2,390.1z M-335,384.4c-6.6,0-12,5.4-12,12s5.4,12,12,12c6.6,0,12-5.4,12-12S-328.4,384.4-335,384.4z"
	/>
<g>
	<path fill="#9013FE" d="M-160.5,399.1v-5.8h1.1v0.8c0.2-0.3,0.4-0.6,0.8-0.7s0.7-0.2,1-0.2c0.4,0,0.7,0.1,1,0.3
		c0.3,0.2,0.6,0.5,0.7,0.8c0.2-0.4,0.5-0.7,0.9-0.9s0.7-0.2,1.1-0.2c0.2,0,0.5,0,0.7,0.1c0.2,0.1,0.5,0.2,0.6,0.4
		c0.2,0.2,0.3,0.4,0.5,0.7c0.1,0.3,0.2,0.6,0.2,1v3.7h-1.1v-3.6c0-0.4-0.1-0.7-0.3-0.9c-0.2-0.3-0.5-0.4-0.9-0.4
		c-0.4,0-0.7,0.1-1,0.4c-0.2,0.3-0.4,0.6-0.4,1v3.5h-1.1v-3.6c0-0.4-0.1-0.7-0.3-0.9c-0.2-0.3-0.5-0.4-0.9-0.4c-0.4,0-0.7,0.1-1,0.4
		c-0.2,0.3-0.4,0.6-0.4,1.1v3.5H-160.5z"/>
	<path fill="#9013FE" d="M-150.6,397.6c0-0.3,0-0.5,0.1-0.7c0.1-0.2,0.2-0.4,0.4-0.5c0.2-0.1,0.3-0.3,0.6-0.3
		c0.2-0.1,0.4-0.2,0.7-0.2l1.6-0.2c0.2,0,0.3-0.1,0.4-0.2c0.1-0.1,0.1-0.2,0.1-0.3c0-0.3-0.1-0.5-0.3-0.7c-0.2-0.2-0.5-0.3-1-0.3
		c-0.4,0-0.7,0.1-0.9,0.3c-0.2,0.2-0.3,0.5-0.4,0.8l-1.1-0.3c0-0.3,0.1-0.5,0.2-0.8s0.3-0.4,0.5-0.6s0.5-0.3,0.7-0.4
		c0.3-0.1,0.6-0.1,0.9-0.1c0.4,0,0.8,0.1,1.1,0.2c0.3,0.1,0.6,0.3,0.7,0.5c0.2,0.2,0.3,0.4,0.4,0.7c0.1,0.3,0.1,0.5,0.1,0.8v2.9
		c0,0.3,0,0.5,0,0.6c0,0.2,0,0.3,0,0.3h-1.1c0-0.1,0-0.2,0-0.3s0-0.3,0-0.5c-0.1,0.1-0.1,0.2-0.3,0.3c-0.1,0.1-0.2,0.2-0.4,0.3
		c-0.2,0.1-0.3,0.2-0.5,0.2c-0.2,0.1-0.4,0.1-0.7,0.1c-0.3,0-0.6,0-0.8-0.1c-0.2-0.1-0.4-0.2-0.6-0.4s-0.3-0.3-0.4-0.5
		C-150.5,398-150.6,397.8-150.6,397.6z M-148.5,398.4c0.2,0,0.4,0,0.7-0.1c0.2-0.1,0.4-0.2,0.5-0.3c0.1-0.1,0.3-0.3,0.4-0.5
		s0.1-0.5,0.1-0.8v-0.3l-1.8,0.3c-0.2,0-0.4,0.1-0.6,0.3c-0.2,0.1-0.2,0.3-0.2,0.6c0,0.2,0.1,0.4,0.3,0.6
		C-149,398.3-148.8,398.4-148.5,398.4z"/>
	<path fill="#9013FE" d="M-143.9,401.6l1.4-3l-2.5-5.1h1.3l1.8,4l1.7-4h1.2l-3.8,8.2H-143.9z"/>
	<path fill="#9013FE" d="M-138.3,397.6c0-0.3,0-0.5,0.1-0.7c0.1-0.2,0.2-0.4,0.4-0.5c0.2-0.1,0.3-0.3,0.6-0.3
		c0.2-0.1,0.4-0.2,0.7-0.2l1.6-0.2c0.2,0,0.3-0.1,0.4-0.2c0.1-0.1,0.1-0.2,0.1-0.3c0-0.3-0.1-0.5-0.3-0.7c-0.2-0.2-0.5-0.3-1-0.3
		c-0.4,0-0.7,0.1-0.9,0.3c-0.2,0.2-0.3,0.5-0.4,0.8l-1.1-0.3c0-0.3,0.1-0.5,0.2-0.8s0.3-0.4,0.5-0.6s0.5-0.3,0.7-0.4
		c0.3-0.1,0.6-0.1,0.9-0.1c0.4,0,0.8,0.1,1.1,0.2c0.3,0.1,0.6,0.3,0.7,0.5c0.2,0.2,0.3,0.4,0.4,0.7c0.1,0.3,0.1,0.5,0.1,0.8v2.9
		c0,0.3,0,0.5,0,0.6c0,0.2,0,0.3,0,0.3h-1.1c0-0.1,0-0.2,0-0.3s0-0.3,0-0.5c-0.1,0.1-0.1,0.2-0.3,0.3c-0.1,0.1-0.2,0.2-0.4,0.3
		c-0.2,0.1-0.3,0.2-0.5,0.2c-0.2,0.1-0.4,0.1-0.7,0.1c-0.3,0-0.6,0-0.8-0.1c-0.2-0.1-0.4-0.2-0.6-0.4s-0.3-0.3-0.4-0.5
		C-138.3,398-138.3,397.8-138.3,397.6z M-136.2,398.4c0.2,0,0.4,0,0.7-0.1c0.2-0.1,0.4-0.2,0.5-0.3c0.1-0.1,0.3-0.3,0.4-0.5
		s0.1-0.5,0.1-0.8v-0.3l-1.8,0.3c-0.2,0-0.4,0.1-0.6,0.3c-0.2,0.1-0.2,0.3-0.2,0.6c0,0.2,0.1,0.4,0.3,0.6
		C-136.8,398.3-136.5,398.4-136.2,398.4z"/>
	<path fill="#9013FE" d="M-130.6,399.1h-1.1v-5.8h1.1v0.8c0.2-0.4,0.5-0.6,0.8-0.8c0.3-0.2,0.6-0.2,1-0.2c0.3,0,0.6,0.1,0.9,0.2
		c0.3,0.1,0.5,0.3,0.6,0.5c0.2,0.2,0.3,0.4,0.4,0.7c0.1,0.3,0.1,0.6,0.1,0.9v3.7h-1.1v-3.5c0-0.2,0-0.4-0.1-0.6
		c0-0.2-0.1-0.3-0.2-0.5c-0.1-0.1-0.2-0.2-0.4-0.3c-0.2-0.1-0.4-0.1-0.6-0.1c-0.2,0-0.4,0-0.6,0.1s-0.3,0.2-0.4,0.3
		c-0.1,0.1-0.2,0.3-0.3,0.5c-0.1,0.2-0.1,0.4-0.1,0.6V399.1z"/>
	<path fill="#9013FE" d="M-122.2,395.8l2.5,3.3h-1.4l-1.9-2.5l-0.8,0.8v1.7h-1.1v-8.7h1.1v5.5l2.5-2.6h1.6L-122.2,395.8z"/>
	<path fill="#9013FE" d="M-119.1,400.1v-0.9h6.1v0.9H-119.1z"/>
	<path fill="#9013FE" d="M-110.4,393.4h1.2v1h-1.2v3c0,0.3,0.1,0.5,0.2,0.6s0.3,0.2,0.6,0.2c0.1,0,0.2,0,0.2,0s0.2,0,0.2,0v1
		c0,0-0.1,0-0.3,0.1c-0.1,0-0.3,0-0.5,0c-0.5,0-0.9-0.1-1.2-0.4c-0.3-0.3-0.4-0.7-0.4-1.2v-3.2h-1.1v-1h0.3c0.3,0,0.5-0.1,0.7-0.3
		c0.1-0.2,0.2-0.4,0.2-0.6v-0.9h1V393.4z"/>
	<path fill="#9013FE" d="M-106.6,399.1h-1.1v-8.7h1.1v3.6c0.2-0.3,0.5-0.5,0.8-0.6c0.3-0.1,0.6-0.2,1-0.2c0.3,0,0.6,0.1,0.9,0.2
		c0.3,0.1,0.5,0.3,0.6,0.5c0.2,0.2,0.3,0.4,0.4,0.7c0.1,0.3,0.1,0.6,0.1,0.9v3.7h-1.1v-3.5c0-0.2,0-0.4-0.1-0.6
		c0-0.2-0.1-0.3-0.2-0.5c-0.1-0.1-0.2-0.2-0.4-0.3c-0.2-0.1-0.4-0.1-0.6-0.1c-0.2,0-0.4,0-0.6,0.1c-0.2,0.1-0.3,0.2-0.4,0.3
		c-0.1,0.1-0.2,0.3-0.3,0.5c-0.1,0.2-0.1,0.4-0.1,0.6V399.1z"/>
	<path fill="#9013FE" d="M-95.9,397.5c-0.1,0.3-0.2,0.5-0.4,0.7c-0.2,0.2-0.3,0.4-0.6,0.6c-0.2,0.2-0.5,0.3-0.8,0.4
		c-0.3,0.1-0.6,0.1-0.9,0.1c-0.4,0-0.8-0.1-1.1-0.2c-0.4-0.1-0.7-0.3-0.9-0.6c-0.3-0.3-0.5-0.6-0.6-1c-0.2-0.4-0.2-0.8-0.2-1.3
		c0-0.5,0.1-0.9,0.2-1.2c0.2-0.4,0.4-0.7,0.6-1c0.3-0.3,0.5-0.5,0.9-0.6c0.3-0.1,0.7-0.2,1-0.2c0.4,0,0.8,0.1,1.2,0.2
		c0.3,0.1,0.6,0.4,0.9,0.6c0.2,0.3,0.4,0.6,0.5,1s0.2,0.8,0.2,1.2c0,0.1,0,0.1,0,0.2c0,0.1,0,0.1,0,0.2h-4.3c0,0.3,0.1,0.5,0.1,0.7
		c0.1,0.2,0.2,0.4,0.4,0.6c0.2,0.2,0.3,0.3,0.6,0.4s0.4,0.1,0.7,0.1c0.5,0,0.8-0.1,1.1-0.3c0.2-0.2,0.4-0.5,0.5-0.8L-95.9,397.5z
		 M-97.1,395.7c0-0.4-0.2-0.8-0.4-1c-0.3-0.3-0.7-0.4-1.2-0.4c-0.2,0-0.5,0-0.6,0.1c-0.2,0.1-0.3,0.2-0.5,0.3
		c-0.1,0.1-0.2,0.3-0.3,0.5c-0.1,0.2-0.1,0.4-0.1,0.5H-97.1z"/>
	<path fill="#9013FE" d="M-95.4,400.1v-0.9h6.1v0.9H-95.4z"/>
	<path fill="#9013FE" d="M-85.8,393.2c0.4,0,0.8,0.1,1.2,0.2s0.7,0.4,0.9,0.6c0.3,0.3,0.5,0.6,0.6,1s0.2,0.8,0.2,1.2
		c0,0.4-0.1,0.8-0.2,1.2s-0.3,0.7-0.6,1c-0.3,0.3-0.6,0.5-0.9,0.6c-0.4,0.2-0.8,0.2-1.2,0.2c-0.4,0-0.8-0.1-1.2-0.2
		c-0.4-0.2-0.7-0.4-0.9-0.6c-0.3-0.3-0.5-0.6-0.6-1c-0.1-0.4-0.2-0.8-0.2-1.2c0-0.4,0.1-0.8,0.2-1.2c0.1-0.4,0.3-0.7,0.6-1
		c0.3-0.3,0.6-0.5,0.9-0.6C-86.7,393.3-86.3,393.2-85.8,393.2z M-85.8,398.3c0.2,0,0.5,0,0.7-0.1s0.4-0.2,0.6-0.4
		c0.2-0.2,0.3-0.4,0.4-0.6s0.1-0.6,0.1-0.9s0-0.6-0.1-0.9s-0.2-0.5-0.4-0.6s-0.4-0.3-0.6-0.4c-0.2-0.1-0.4-0.1-0.7-0.1
		c-0.2,0-0.5,0-0.7,0.1c-0.2,0.1-0.4,0.2-0.6,0.4s-0.3,0.4-0.4,0.6c-0.1,0.3-0.1,0.5-0.1,0.9s0,0.6,0.1,0.9c0.1,0.3,0.2,0.5,0.4,0.6
		c0.2,0.2,0.4,0.3,0.6,0.4S-86.1,398.3-85.8,398.3z"/>
	<path fill="#9013FE" d="M-80.3,399.1h-1.1v-5.8h1.1v0.8c0.2-0.4,0.5-0.6,0.8-0.8c0.3-0.2,0.6-0.2,1-0.2c0.3,0,0.6,0.1,0.9,0.2
		c0.3,0.1,0.5,0.3,0.6,0.5c0.2,0.2,0.3,0.4,0.4,0.7c0.1,0.3,0.1,0.6,0.1,0.9v3.7h-1.1v-3.5c0-0.2,0-0.4-0.1-0.6
		c0-0.2-0.1-0.3-0.2-0.5c-0.1-0.1-0.2-0.2-0.4-0.3c-0.2-0.1-0.4-0.1-0.6-0.1c-0.2,0-0.4,0-0.6,0.1s-0.3,0.2-0.4,0.3
		c-0.1,0.1-0.2,0.3-0.3,0.5c-0.1,0.2-0.1,0.4-0.1,0.6V399.1z"/>
	<path fill="#9013FE" d="M-69.7,397.5c-0.1,0.3-0.2,0.5-0.4,0.7c-0.2,0.2-0.3,0.4-0.6,0.6c-0.2,0.2-0.5,0.3-0.8,0.4
		c-0.3,0.1-0.6,0.1-0.9,0.1c-0.4,0-0.8-0.1-1.1-0.2c-0.4-0.1-0.7-0.3-0.9-0.6c-0.3-0.3-0.5-0.6-0.6-1c-0.2-0.4-0.2-0.8-0.2-1.3
		c0-0.5,0.1-0.9,0.2-1.2c0.2-0.4,0.4-0.7,0.6-1c0.3-0.3,0.5-0.5,0.9-0.6c0.3-0.1,0.7-0.2,1-0.2c0.4,0,0.8,0.1,1.2,0.2
		c0.3,0.1,0.6,0.4,0.9,0.6c0.2,0.3,0.4,0.6,0.5,1s0.2,0.8,0.2,1.2c0,0.1,0,0.1,0,0.2c0,0.1,0,0.1,0,0.2H-74c0,0.3,0.1,0.5,0.1,0.7
		c0.1,0.2,0.2,0.4,0.4,0.6c0.2,0.2,0.3,0.3,0.6,0.4s0.4,0.1,0.7,0.1c0.5,0,0.8-0.1,1.1-0.3c0.2-0.2,0.4-0.5,0.5-0.8L-69.7,397.5z
		 M-70.8,395.7c0-0.4-0.2-0.8-0.4-1c-0.3-0.3-0.7-0.4-1.2-0.4c-0.2,0-0.5,0-0.6,0.1c-0.2,0.1-0.3,0.2-0.5,0.3
		c-0.1,0.1-0.2,0.3-0.3,0.5c-0.1,0.2-0.1,0.4-0.1,0.5H-70.8z"/>
</g>
<g>
	<path fill-rule="evenodd" clip-rule="evenodd" fill="#9013FE" d="M-173.6,388c-0.4,0-0.8,0.2-1.1,0.5c-0.3,0.3-0.5,0.7-0.5,1.1
		c0,0.4,0.2,0.8,0.5,1.1c0.3,0.3,0.7,0.5,1.1,0.5c0.4,0,0.8-0.2,1.1-0.5c0.3-0.3,0.5-0.7,0.5-1.1c0-0.4-0.2-0.8-0.5-1.1
		C-172.7,388.2-173.2,388-173.6,388z"/>
	<path fill-rule="evenodd" clip-rule="evenodd" fill="#9013FE" d="M-174.6,384h-10.7c-3.6,0-6.6,3-6.6,6.6v10.7c0,3.6,3,6.6,6.6,6.6
		h10.7c3.6,0,6.6-3,6.6-6.6v-10.7C-168,387-171,384-174.6,384z M-170.1,401.4c0,2.5-2,4.5-4.5,4.5h-10.7c-2.5,0-4.5-2-4.5-4.5v-10.7
		c0-2.5,2-4.5,4.5-4.5h10.7c2.5,0,4.5,2,4.5,4.5V401.4z"/>
	<path fill-rule="evenodd" clip-rule="evenodd" fill="#9013FE" d="M-180,389.8c-3.4,0-6.2,2.8-6.2,6.2c0,3.4,2.8,6.2,6.2,6.2
		c3.4,0,6.2-2.8,6.2-6.2C-173.8,392.6-176.6,389.8-180,389.8z M-180,400.1c-2.2,0-4.1-1.8-4.1-4.1s1.8-4.1,4.1-4.1
		c2.2,0,4.1,1.8,4.1,4.1S-177.8,400.1-180,400.1z"/>
</g>
<g>
	<circle fill="#4577FF" cx="-115" cy="228" r="60"/>
	<rect x="-179" y="164" fill="none" width="128" height="128"/>
	<g>
		<defs>
			<circle id="SVGID_1_" cx="-115" cy="228" r="60"/>
		</defs>
		<clipPath id="SVGID_2_">
			<use xlink:href="#SVGID_1_"  overflow="visible"/>
		</clipPath>
		<path clip-path="url(#SVGID_2_)" fill="#FFAA00" d="M-137,240L-137,240c6.6,0,12-5.4,12-12v-24c0-2.2-1.8-4-4-4h-8
			c-6.6,0-12,5.4-12,12v16C-149,234.6-143.6,240-137,240z"/>
		<path clip-path="url(#SVGID_2_)" fill="#FFC036" d="M-81,292h-64v-72c0-17.6,14.4-32,32-32h0c17.6,0,32,14.4,32,32V292z"/>
		<path clip-path="url(#SVGID_2_)" fill="#FFE09E" d="M-93,300h-48v0c0-13.3,10.7-24,24-24h0C-103.7,276-93,286.7-93,300L-93,300z"
			/>
	</g>
	<circle fill="#603535" cx="-109" cy="220" r="4"/>
	<path fill="#FFE09E" d="M-105,208L-105,208c0,1.1-0.9,2-2,2h-4c-1.1,0-2-0.9-2-2l0,0c0-1.1,0.9-2,2-2h4
		C-105.9,206-105,206.9-105,208z"/>
	<path fill="#FFE09E" d="M-121,208L-121,208c0,1.1-0.9,2-2,2h-4c-1.1,0-2-0.9-2-2l0,0c0-1.1,0.9-2,2-2h4
		C-121.9,206-121,206.9-121,208z"/>
	<circle fill="#603535" cx="-125" cy="220" r="4"/>
	<path fill="#F5463A" d="M-119,256h12c1.1,0,2,0.9,2,2v6c0,4.4-3.6,8-8,8h0c-4.4,0-8-3.6-8-8v-6C-121,256.9-120.1,256-119,256z"/>
	<g>
		<path fill="#ED2F21" d="M-113,266c-1.1,0-2-0.9-2-2v-8c0-1.1,0.9-2,2-2s2,0.9,2,2v8C-111,265.1-111.9,266-113,266z"/>
	</g>
	<path fill="#FFE09E" d="M-121,264h-12c-13.2,0-24-10.8-24-24v-8c0-4.4,3.6-8,8-8h44c4.4,0,8,3.6,8,8v8C-97,253.2-107.8,264-121,264
		z"/>
	<path fill="#603535" d="M-151,224h12c1.1,0,2,0.9,2,2v2c0,4.4-3.6,8-8,8h0c-4.4,0-8-3.6-8-8v-2C-153,224.9-152.1,224-151,224z"/>
	<circle fill="#FFC036" cx="-129" cy="232" r="2"/>
	<circle fill="#301B1B" cx="-141" cy="230" r="2"/>
	<circle fill="#301B1B" cx="-149" cy="230" r="2"/>
	<circle fill="#FFC036" cx="-121" cy="232" r="2"/>
	<circle fill="#FFC036" cx="-125" cy="240" r="2"/>
	<path fill="#FFAA00" d="M-81,240L-81,240c-6.6,0-12-5.4-12-12v-24c0-2.2,1.8-4,4-4h8c6.6,0,12,5.4,12,12v16
		C-69,234.6-74.4,240-81,240z"/>
</g>
<g>
	<circle fill="#F5463A" cx="60" cy="60" r="60"/>
	<rect x="-4" y="-4" fill="none" width="128" height="128"/>
	<g>
		<defs>
			<circle id="SVGID_3_" cx="60" cy="60" r="60"/>
		</defs>
		<clipPath id="SVGID_4_">
			<use xlink:href="#SVGID_3_"  overflow="visible"/>
		</clipPath>
		<path clip-path="url(#SVGID_4_)" fill="#2BD665" d="M92,136H28v-16c0-17.7,14.3-32,32-32h0c17.7,0,32,14.3,32,32V136z"/>
		<path clip-path="url(#SVGID_4_)" fill="#1FC258" d="M60,104c6.6,0,12-5.4,12-12v-1.7c-3.7-1.5-7.8-2.3-12-2.3l0,0
			c-4.2,0-8.3,0.8-12,2.3V92C48,98.6,53.4,104,60,104z"/>
	</g>
	<path fill="#FFA47A" d="M60,100L60,100c-4.4,0-8-3.6-8-8v-8c0-4.4,3.6-8,8-8h0c4.4,0,8,3.6,8,8v8C68,96.4,64.4,100,60,100z"/>
	<path fill="#FFBB9B" d="M60,90L60,90c-16.6,0-30-13.4-30-30v-8c0-16.6,13.4-30,30-30h0c16.6,0,30,13.4,30,30v8
		C90,76.6,76.6,90,60,90z"/>
	<circle fill="#603535" cx="64" cy="52" r="4"/>
	<circle fill="#603535" cx="48" cy="52" r="4"/>
	<path fill="#FFFFFF" d="M56,76L56,76c-7.7,0-14-6.3-14-14v-2h28v2C70,69.7,63.7,76,56,76z"/>
	<path fill="#FFBB9B" d="M90,62h-2V50h2c3.3,0,6,2.7,6,6v0C96,59.3,93.3,62,90,62z"/>
	<path fill="#643536" d="M88,50h4V34c0-4.4-3.6-8-8-8h0v20C84,48.2,85.8,50,88,50z"/>
	<path fill="#643536" d="M88,40H40c-8.8,0-16-7.2-16-16v0h56c4.4,0,8,3.6,8,8V40z"/>
	<path fill="#643536" d="M88,28H44c-8.8,0-16-7.2-16-16v0h44C80.8,12,88,19.2,88,28L88,28z"/>
</g>
<g>
	<circle fill="#1D1433" cx="-115" cy="60" r="60"/>
	<g>
		<defs>
			<circle id="SVGID_5_" cx="-115" cy="60" r="60"/>
		</defs>
		<clipPath id="SVGID_6_">
			<use xlink:href="#SVGID_5_"  overflow="visible"/>
		</clipPath>
		<path clip-path="url(#SVGID_6_)" fill="#F0EBFF" d="M-79,124h-72v-16c0-17.7,14.3-32,32-32h8c17.7,0,32,14.3,32,32V124z"/>
		<path clip-path="url(#SVGID_6_)" fill="#DED4FF" d="M-97,148h-48v-24c0-13.3,10.7-24,24-24h0c13.3,0,24,10.7,24,24V148z"/>
	</g>
	<path fill="#F0EBFF" d="M-79,88h-72V52c0-19.8,16.2-36,36-36h0c19.8,0,36,16.2,36,36V88z"/>
	<path fill="#3E257A" d="M-115,72h-20c-11,0-20-9-20-20v0c0-11,9-20,20-20h20c11,0,20,9,20,20v0C-95,63-104,72-115,72z"/>
	<path fill="#50338F" d="M-147,52c0-11,9-20,20-20h-8c-11,0-20,9-20,20s9,20,20,20h8C-138,72-147,63-147,52z"/>
	<path fill="#1D1433" d="M-119,80h-2v-4h2c1.1,0,2,0.9,2,2l0,0C-117,79.1-117.9,80-119,80z"/>
	<path fill="#A385FF" d="M-79,96h-72c-2.2,0-4-1.8-4-4v0c0-2.2,1.8-4,4-4h72c2.2,0,4,1.8,4,4v0C-75,94.2-76.8,96-79,96z"/>
	<circle fill="#1D1433" cx="-111" cy="52" r="4"/>
	<circle fill="#F5463A" cx="-91" cy="104" r="2"/>
	<circle fill="#FFC036" cx="-99" cy="104" r="2"/>
	<circle fill="#1D1433" cx="-127" cy="52" r="4"/>
	<path fill="#A385FF" d="M-79,68h-4c-4.4,0-8-3.6-8-8v-8c0-4.4,3.6-8,8-8h4c4.4,0,8,3.6,8,8v8C-71,64.4-74.6,68-79,68z"/>
	<path fill="#F0EBFF" d="M-79,68L-79,68c-4.4,0-8-3.6-8-8v-8c0-4.4,3.6-8,8-8h0c4.4,0,8,3.6,8,8v8C-71,64.4-74.6,68-79,68z"/>
	<g>
		<path fill="#A385FF" d="M-79,58c-1.1,0-2-0.9-2-2V28c0-1.1,0.9-2,2-2s2,0.9,2,2v28C-77,57.1-77.9,58-79,58z"/>
	</g>
	<path fill="#DED4FF" d="M-79,32L-79,32c-2.2,0-4-1.8-4-4v0c0-2.2,1.8-4,4-4h0c2.2,0,4,1.8,4,4v0C-75,30.2-76.8,32-79,32z"/>
	<rect x="-129" y="76" fill="#1D1433" width="4" height="4"/>
	<path fill="#1D1433" d="M-129,80h-2c-1.1,0-2-0.9-2-2v0c0-1.1,0.9-2,2-2h2V80z"/>
	<rect x="-125" y="76" fill="#1D1433" width="4" height="4"/>
	<rect x="-179" y="-4" fill="none" width="128" height="128"/>
</g>
<g>
	<circle fill="#FFCE47" cx="235" cy="60" r="60"/>
	<g>
		<defs>
			<circle id="SVGID_7_" cx="235" cy="60" r="60"/>
		</defs>
		<clipPath id="SVGID_8_">
			<use xlink:href="#SVGID_7_"  overflow="visible"/>
		</clipPath>
		<path clip-path="url(#SVGID_8_)" fill="#643536" d="M267,100h-60c-4.4,0-8-3.6-8-8V36c0-8.8,7.2-16,16-16h24c19.9,0,36,16.1,36,36
			v36C275,96.4,271.4,100,267,100z"/>
		<path clip-path="url(#SVGID_8_)" fill="#CC2996" d="M263,140h-56v-20c0-15.5,12.5-28,28-28h0c15.5,0,28,12.5,28,28V140z"/>
		<path clip-path="url(#SVGID_8_)" fill="#FFA47A" d="M235,108c6.6,0,12-5.4,12-12v-1.3c-3.6-1.7-7.7-2.7-12-2.7s-8.4,1-12,2.7V96
			C223,102.6,228.4,108,235,108z"/>
	</g>
	<path fill="#FFA47A" d="M235,104L235,104c-4.4,0-8-3.6-8-8v-8c0-4.4,3.6-8,8-8h0c4.4,0,8,3.6,8,8v8C243,100.4,239.4,104,235,104z"
		/>
	<path fill="#FFBB9B" d="M235,90L235,90c-16.6,0-30-13.4-30-30v-8c0-16.6,13.4-30,30-30h0c16.6,0,30,13.4,30,30v8
		C265,76.6,251.6,90,235,90z"/>
	<path fill="#643536" d="M243,10h-2h-4h-14c-6.3,0-11.5,4.9-12,11.1c0,0.3,0,0.6,0,0.9c0,13.2,10.8,24,24,24h34h6v-4
		C275,24.4,260.6,10,243,10z"/>
	<circle fill="#603535" cx="239" cy="52" r="4"/>
	<circle fill="#603535" cx="223" cy="52" r="4"/>
	<path fill="#FFFFFF" d="M231,76L231,76c-7.7,0-14-6.3-14-14v-2h28v2C245,69.7,238.7,76,231,76z"/>
	<path fill="#FFD8A8" d="M265,62h-2V50h2c3.3,0,6,2.7,6,6v0C271,59.3,268.3,62,265,62z"/>
	<path fill="#643536" d="M267,100L267,100c4.4,0,8-3.6,8-8V44h-24v40C251,92.8,258.2,100,267,100z"/>
	<rect x="171" y="-4" fill="none" width="128" height="128"/>
</g>
<g>
	<circle fill="#603535" cx="60" cy="228" r="60"/>
	<path fill="#FF680A" d="M60,208H40v-20c0-2.2,1.8-4,4-4h0c8.8,0,16,7.2,16,16V208z"/>
	<g>
		<defs>
			<circle id="SVGID_9_" cx="60" cy="228" r="60"/>
		</defs>
		<clipPath id="SVGID_10_">
			<use xlink:href="#SVGID_9_"  overflow="visible"/>
		</clipPath>
		<path clip-path="url(#SVGID_10_)" fill="#FF7E29" d="M94,300H30v-8c0-19.8,16.2-36,36-36h28V300z"/>
		<path clip-path="url(#SVGID_10_)" fill="#FF680A" d="M84,296H36v-4c0-13.3,10.7-24,24-24h0c13.3,0,24,10.7,24,24V296z"/>
	</g>
	<path fill="#FF7E29" d="M94,264H62c-19.9,0-36-16.1-36-36v0c0-19.8,16.2-36,36-36h16c8.8,0,16,7.2,16,16V264z"/>
	<path fill="#FFE4D1" d="M52,258L52,258c-11,0-20-9-20-20v-4c0-4.4,3.6-8,8-8h24c4.4,0,8,3.6,8,8v4C72,249,63,258,52,258z"/>
	<circle fill="#603535" cx="64" cy="220" r="4"/>
	<circle fill="#603535" cx="48" cy="220" r="4"/>
	<path fill="#603535" d="M44,226h8c1.1,0,2,0.9,2,2l0,0c0,3.3-2.7,6-6,6h0c-3.3,0-6-2.7-6-6l0,0C42,226.9,42.9,226,44,226z"/>
	<path fill="#FF680A" d="M70,216L70,216c0,1.1-0.9,2-2,2h-8c-1.1,0-2-0.9-2-2l0,0c0-1.1,0.9-2,2-2h8C69.1,214,70,214.9,70,216z"/>
	<path fill="#FFE4D1" d="M80,234L80,234c0,1.1-0.9,2-2,2H66c-1.1,0-2-0.9-2-2l0,0c0-1.1,0.9-2,2-2h12C79.1,232,80,232.9,80,234z"/>
	<path fill="#FFE4D1" d="M80,242L80,242c0,1.1-0.9,2-2,2H66c-1.1,0-2-0.9-2-2l0,0c0-1.1,0.9-2,2-2h12C79.1,240,80,240.9,80,242z"/>
	<path fill="#FFE4D1" d="M40,234L40,234c0,1.1-0.9,2-2,2H26c-1.1,0-2-0.9-2-2l0,0c0-1.1,0.9-2,2-2h12C39.1,232,40,232.9,40,234z"/>
	<path fill="#FFE4D1" d="M40,242L40,242c0,1.1-0.9,2-2,2H26c-1.1,0-2-0.9-2-2l0,0c0-1.1,0.9-2,2-2h12C39.1,240,40,240.9,40,242z"/>
	<path fill="#FF680A" d="M54,216L54,216c0,1.1-0.9,2-2,2h-8c-1.1,0-2-0.9-2-2l0,0c0-1.1,0.9-2,2-2h8C53.1,214,54,214.9,54,216z"/>
	<path fill="#FF7E29" d="M74,208h20v-20c0-2.2-1.8-4-4-4h0c-8.8,0-16,7.2-16,16V208z"/>
	<g>
		<path fill="#F3A9B1" d="M90,200v-12c-4,0-7.6,2-9.7,5C84.2,194.3,87.6,196.8,90,200z"/>
	</g>
	<circle fill="#FFBD8F" cx="64" cy="232" r="2"/>
	<circle fill="#FFBD8F" cx="60" cy="240" r="2"/>
	<circle fill="#FFBD8F" cx="36" cy="240" r="2"/>
	<path fill="#FF680A" d="M90,240h4v-8h-4c-2.2,0-4,1.8-4,4v0C86,238.2,87.8,240,90,240z"/>
	<path fill="#FF680A" d="M90,252h4v-8h-4c-2.2,0-4,1.8-4,4v0C86,250.2,87.8,252,90,252z"/>
	<path fill="#FF680A" d="M86,264h8v-8h-8c-2.2,0-4,1.8-4,4l0,0C82,262.2,83.8,264,86,264z"/>
	<rect x="-4" y="164" fill="none" width="128" height="128"/>
</g>
<g>
	<circle fill="#2BD665" cx="-289" cy="228" r="60"/>
	<g>
		<defs>
			<circle id="SVGID_11_" cx="-289" cy="228" r="60"/>
		</defs>
		<clipPath id="SVGID_12_">
			<use xlink:href="#SVGID_11_"  overflow="visible"/>
		</clipPath>
		<path clip-path="url(#SVGID_12_)" fill="#C14F3B" d="M-297,200L-297,200c0,8.8-7.2,16-16,16h0c-8.8,0-16-7.2-16-16v0
			c0-8.8,7.2-16,16-16h0C-304.2,184-297,191.2-297,200z"/>
		<path clip-path="url(#SVGID_12_)" fill="#F3A9B1" d="M-304.5,202.8l-5.7,5.7c-1.6,1.6-4.1,1.6-5.7,0l-2.8-2.8
			c-3.1-3.1-3.1-8.2,0-11.3l0,0c3.1-3.1,8.2-3.1,11.3,0l2.8,2.8C-303,198.7-303,201.3-304.5,202.8z"/>
		<path clip-path="url(#SVGID_12_)" fill="#D76B5A" d="M-261,216L-261,216c-8.8,0-16-7.2-16-16v0c0-8.8,7.2-16,16-16h0
			c8.8,0,16,7.2,16,16v0C-245,208.8-252.2,216-261,216z"/>
		<path clip-path="url(#SVGID_12_)" fill="#F3A9B1" d="M-263.8,208.5l-5.7-5.7c-1.6-1.6-1.6-4.1,0-5.7l2.8-2.8
			c3.1-3.1,8.2-3.1,11.3,0h0c3.1,3.1,3.1,8.2,0,11.3l-2.8,2.8C-259.7,210-262.3,210-263.8,208.5z"/>
		<path clip-path="url(#SVGID_12_)" fill="#D76B5A" d="M-253,292h-72v-72c0-19.8,16.2-36,36-36h0c19.8,0,36,16.2,36,36L-253,292z"/>
		<path clip-path="url(#SVGID_12_)" fill="#C14F3B" d="M-257,236L-257,236c-1.1,0-2-0.9-2-2v-4c0-1.1,0.9-2,2-2l0,0c1.1,0,2,0.9,2,2
			v4C-255,235.1-255.9,236-257,236z"/>
		<path clip-path="url(#SVGID_12_)" fill="#C14F3B" d="M-265,248L-265,248c-1.1,0-2-0.9-2-2v-4c0-1.1,0.9-2,2-2l0,0c1.1,0,2,0.9,2,2
			v4C-263,247.1-263.9,248-265,248z"/>
		<path clip-path="url(#SVGID_12_)" fill="#C14F3B" d="M-257,260L-257,260c-1.1,0-2-0.9-2-2v-4c0-1.1,0.9-2,2-2l0,0c1.1,0,2,0.9,2,2
			v4C-255,259.1-255.9,260-257,260z"/>
		<path clip-path="url(#SVGID_12_)" fill="#C14F3B" d="M-265,272L-265,272c-1.1,0-2-0.9-2-2v-4c0-1.1,0.9-2,2-2l0,0c1.1,0,2,0.9,2,2
			v4C-263,271.1-263.9,272-265,272z"/>
		<path clip-path="url(#SVGID_12_)" fill="#C14F3B" d="M-273,284L-273,284c-1.1,0-2-0.9-2-2v-4c0-1.1,0.9-2,2-2l0,0c1.1,0,2,0.9,2,2
			v4C-271,283.1-271.9,284-273,284z"/>
		<path clip-path="url(#SVGID_12_)" fill="#C14F3B" d="M-281,292L-281,292c-1.1,0-2-0.9-2-2v-4c0-1.1,0.9-2,2-2l0,0c1.1,0,2,0.9,2,2
			v4C-279,291.1-279.9,292-281,292z"/>
		<path clip-path="url(#SVGID_12_)" fill="#C14F3B" d="M-313,288L-313,288c-1.1,0-2-0.9-2-2v-4c0-1.1,0.9-2,2-2l0,0c1.1,0,2,0.9,2,2
			v4C-311,287.1-311.9,288-313,288z"/>
		<path clip-path="url(#SVGID_12_)" fill="#C14F3B" d="M-321,276L-321,276c-1.1,0-2-0.9-2-2v-4c0-1.1,0.9-2,2-2l0,0c1.1,0,2,0.9,2,2
			v4C-319,275.1-319.9,276-321,276z"/>
		<path clip-path="url(#SVGID_12_)" fill="#C14F3B" d="M-257,284L-257,284c-1.1,0-2-0.9-2-2v-4c0-1.1,0.9-2,2-2l0,0c1.1,0,2,0.9,2,2
			v4C-255,283.1-255.9,284-257,284z"/>
	</g>
	<path fill="#FFA47A" d="M-297,264L-297,264c-6.6,0-12-5.4-12-12v-4h24v4C-285,258.6-290.4,264-297,264z"/>
	<path fill="#FFBB9B" d="M-289,258h-8c-2.2,0-4-1.8-4-4v-28h8c8.8,0,16,7.2,16,16v4C-277,252.6-282.4,258-289,258z"/>
	<path fill="#FFBB9B" d="M-305,258L-305,258c2.2,0,4-1.8,4-4v-28l0,0c-8.8,0-16,7.2-16,16v4C-317,252.6-311.6,258-305,258z"/>
	<circle fill="#603535" cx="-285" cy="220" r="4"/>
	<circle fill="#603535" cx="-301" cy="220" r="4"/>
	<path fill="#343A40" d="M-303,230h4c2.2,0,4,1.8,4,4v2c0,3.3-2.7,6-6,6l0,0c-3.3,0-6-2.7-6-6v-2C-307,231.8-305.2,230-303,230z"/>
	<path fill="#C14F3B" d="M-281,208L-281,208c0,1.1-0.9,2-2,2h-4c-1.1,0-2-0.9-2-2l0,0c0-1.1,0.9-2,2-2h4
		C-281.9,206-281,206.9-281,208z"/>
	<path fill="#C14F3B" d="M-297,212L-297,212c0,1.1-0.9,2-2,2h-4c-1.1,0-2-0.9-2-2l0,0c0-1.1,0.9-2,2-2h4
		C-297.9,210-297,210.9-297,212z"/>
	<rect x="-353" y="164" fill="none" width="128" height="128"/>
</g>
<g>
	<circle fill="#CC2996" cx="-289" cy="60" r="60"/>
	<g>
		<defs>
			<circle id="SVGID_13_" cx="-289" cy="60" r="60"/>
		</defs>
		<use xlink:href="#SVGID_13_"  overflow="visible" fill="#7732D1"/>
		<clipPath id="SVGID_14_">
			<use xlink:href="#SVGID_13_"  overflow="visible"/>
		</clipPath>
		<path clip-path="url(#SVGID_14_)" fill="#FFC74D" d="M-265,128h-48v-24c0-13.3,10.7-24,24-24h0c13.3,0,24,10.7,24,24V128z"/>
		<path clip-path="url(#SVGID_14_)" fill="#FFBE33" d="M-309.8,92h41.5c-4.2-7.2-11.9-12-20.8-12C-297.9,80-305.6,84.8-309.8,92z"/>
	</g>
	<path fill="#C07867" d="M-253,88h-28V24h28c2.2,0,4,1.8,4,4v56C-249,86.2-250.8,88-253,88z"/>
	<path fill="#F4A568" d="M-261,48V28c0-2.2-1.8-4-4-4h8c2.2,0,4,1.8,4,4v20H-261z"/>
	<path fill="#F4A568" d="M-269,88h-56c-2.2,0-4-1.8-4-4V28c0-2.2,1.8-4,4-4h56c2.2,0,4,1.8,4,4v56C-265,86.2-266.8,88-269,88z"/>
	<path fill="#FFBB9B" d="M-281,60h-32c-4.4,0-8-3.6-8-8v0c0-4.4,3.6-8,8-8h32c4.4,0,8,3.6,8,8v0C-273,56.4-276.6,60-281,60z"/>
	<path fill="#C07867" d="M-313,52c0-4.4,3.6-8,8-8h-8c-4.4,0-8,3.6-8,8s3.6,8,8,8h8C-309.4,60-313,56.4-313,52z"/>
	<circle fill="#603535" cx="-285" cy="52" r="4"/>
	<circle fill="#603535" cx="-301" cy="52" r="4"/>
	<rect x="-353" y="-4" fill="none" width="128" height="128"/>
</g>
<g>
	<g>
		<defs>
			<circle id="SVGID_15_" cx="235" cy="228" r="60"/>
		</defs>
		<use xlink:href="#SVGID_15_"  overflow="visible" fill="#6521CC"/>
		<clipPath id="SVGID_16_">
			<use xlink:href="#SVGID_15_"  overflow="visible"/>
		</clipPath>
		<path clip-path="url(#SVGID_16_)" fill="#FF85C8" d="M259,264h-12c-4.4,0-8-3.6-8-8v-36c0-11,9-20,20-20h0c11,0,20,9,20,20v24
			C279,255,270,264,259,264z"/>
		<path clip-path="url(#SVGID_16_)" fill="#F8F9FA" d="M271,300h-64v-8c0-19.8,16.2-36,36-36h28V300z"/>
		<path clip-path="url(#SVGID_16_)" fill="#DED4FF" d="M263,292h-48v0c0-13.3,10.7-24,24-24h0C252.3,268,263,278.7,263,292L263,292z
			"/>
	</g>
	<path fill="#F8F9FA" d="M271,260h-40c-22,0-40-18-40-40v0c0-6.6,5.4-12,12-12h68V260z"/>
	<g>
		<defs>
			<path id="SVGID_17_" d="M271,260h-40c-22,0-40-18-40-40v0c0-6.6,5.4-12,12-12h68V260z"/>
		</defs>
		<clipPath id="SVGID_18_">
			<use xlink:href="#SVGID_17_"  overflow="visible"/>
		</clipPath>
		<path clip-path="url(#SVGID_18_)" fill="#DED4FF" d="M203,236h-4c-4.4,0-8-3.6-8-8v-8c0-6.6,5.4-12,12-12h0c6.6,0,12,5.4,12,12v4
			C215,230.6,209.6,236,203,236z"/>
	</g>
	<circle fill="#B199FF" cx="205" cy="230" r="2"/>
	<circle fill="#B199FF" cx="197" cy="230" r="2"/>
	<circle fill="#603535" cx="239" cy="220" r="4"/>
	<circle fill="#603535" cx="223" cy="220" r="4"/>
	<path fill="#F8F9FA" d="M259,200v18h12v-18c0-3.3-2.7-6-6-6l0,0C261.7,194,259,196.7,259,200z"/>
	<path fill="#FFADDA" d="M263,200v6h4v-6c0-1.1-0.9-2-2-2l0,0C263.9,198,263,198.9,263,200z"/>
	<g>
		<path fill="#FFAA00" d="M243,188h-8l0,0c0-2.2,1.8-4,4-4l0,0C241.2,184,243,185.8,243,188L243,188z"/>
		<rect x="235" y="188" fill="#FFCE47" width="8" height="4"/>
		<rect x="235" y="192" fill="#FFAA00" width="8" height="4"/>
		<rect x="235" y="196" fill="#FFCE47" width="8" height="4"/>
		<rect x="235" y="200" fill="#FFAA00" width="8" height="4"/>
		<rect x="235" y="204" fill="#FFCE47" width="8" height="4"/>
	</g>
	<rect x="171" y="164" fill="none" width="128" height="128"/>
</g>
</svg>
