<?xml version="1.0" encoding="utf-8"?>
<!-- Generator: Adobe Illustrator 17.0.0, SVG Export Plug-In . SVG Version: 6.00 Build 0)  -->
<!DOCTYPE svg PUBLIC "-//W3C//DTD SVG 1.0//EN" "http://www.w3.org/TR/2001/REC-SVG-20010904/DTD/svg10.dtd">
<svg version="1.0" id="Layer_1" xmlns="http://www.w3.org/2000/svg" xmlns:xlink="http://www.w3.org/1999/xlink" x="0px" y="0px"
	 width="120px" height="120px" viewBox="0 0 120 120" enable-background="new 0 0 120 120" xml:space="preserve">
<g>
	<path d="M13-81.2H7.3L6.1-78H3.2l5.4-14.2h3.2L17.2-78h-3L13-81.2z M8.2-83.7h3.9l-2-5.4L8.2-83.7z"/>
	<path d="M23.4-78h-2.7l-4-9.8h2.9l2.4,6.6l2.3-6.6h2.8L23.4-78z"/>
	<path d="M28.2-80.7c0-0.4,0.1-0.8,0.2-1.2c0.2-0.3,0.4-0.6,0.6-0.9c0.3-0.3,0.6-0.5,0.9-0.6c0.4-0.1,0.7-0.3,1.1-0.3l2.4-0.4
		c0.3,0,0.5-0.1,0.6-0.3c0.1-0.1,0.2-0.3,0.2-0.5c0-0.3-0.1-0.6-0.4-0.9c-0.3-0.3-0.7-0.4-1.3-0.4c-0.6,0-1,0.2-1.3,0.5
		c-0.3,0.3-0.5,0.7-0.5,1.1l-2.4-0.5c0-0.4,0.2-0.8,0.4-1.2s0.5-0.7,0.8-1c0.3-0.3,0.8-0.6,1.3-0.8c0.5-0.2,1.1-0.3,1.8-0.3
		c0.8,0,1.4,0.1,2,0.3c0.5,0.2,1,0.5,1.3,0.8c0.3,0.3,0.6,0.7,0.7,1.2s0.2,0.9,0.2,1.4v4.8c0,0.3,0,0.6,0,0.9c0,0.3,0.1,0.5,0.1,0.7
		h-2.4c0-0.1,0-0.3-0.1-0.5c0-0.2,0-0.4,0-0.6c-0.3,0.4-0.6,0.7-1.1,1c-0.5,0.3-1.1,0.4-1.8,0.4c-0.5,0-1-0.1-1.4-0.3
		c-0.4-0.2-0.8-0.4-1.1-0.7s-0.5-0.6-0.7-0.9C28.3-79.9,28.2-80.3,28.2-80.7z M32.2-79.7c0.3,0,0.5,0,0.8-0.1
		c0.3-0.1,0.5-0.2,0.7-0.4s0.4-0.4,0.5-0.7c0.1-0.3,0.2-0.6,0.2-1.1v-0.4l-2.2,0.3c-0.3,0.1-0.6,0.2-0.9,0.4s-0.3,0.5-0.3,0.9
		c0,0.3,0.1,0.6,0.3,0.8S31.8-79.7,32.2-79.7z"/>
	<path d="M42.8-87.8h2v2.4h-2v4.1c0,0.4,0.1,0.7,0.3,0.9c0.2,0.2,0.5,0.3,0.9,0.3c0.2,0,0.3,0,0.5,0c0.2,0,0.3,0,0.3-0.1v2.2
		c-0.1,0.1-0.3,0.1-0.5,0.2c-0.2,0.1-0.6,0.1-1,0.1c-1,0-1.7-0.3-2.3-0.8c-0.6-0.5-0.8-1.3-0.8-2.2v-4.6h-1.8v-2.4h0.5
		c0.5,0,0.9-0.2,1.1-0.5c0.2-0.3,0.4-0.7,0.4-1.1v-1.4h2.4V-87.8z"/>
	<path d="M46.5-80.7c0-0.4,0.1-0.8,0.2-1.2c0.2-0.3,0.4-0.6,0.6-0.9c0.3-0.3,0.6-0.5,0.9-0.6c0.4-0.1,0.7-0.3,1.1-0.3l2.4-0.4
		c0.3,0,0.5-0.1,0.6-0.3c0.1-0.1,0.2-0.3,0.2-0.5c0-0.3-0.1-0.6-0.4-0.9C52-85.8,51.5-86,51-86c-0.6,0-1,0.2-1.3,0.5
		c-0.3,0.3-0.5,0.7-0.5,1.1l-2.4-0.5c0-0.4,0.2-0.8,0.4-1.2s0.5-0.7,0.8-1c0.3-0.3,0.8-0.6,1.3-0.8c0.5-0.2,1.1-0.3,1.8-0.3
		c0.8,0,1.4,0.1,2,0.3c0.5,0.2,1,0.5,1.3,0.8c0.3,0.3,0.6,0.7,0.7,1.2s0.2,0.9,0.2,1.4v4.8c0,0.3,0,0.6,0,0.9c0,0.3,0.1,0.5,0.1,0.7
		h-2.4c0-0.1,0-0.3-0.1-0.5c0-0.2,0-0.4,0-0.6c-0.3,0.4-0.6,0.7-1.1,1c-0.5,0.3-1.1,0.4-1.8,0.4c-0.5,0-1-0.1-1.4-0.3
		c-0.4-0.2-0.8-0.4-1.1-0.7s-0.5-0.6-0.7-0.9C46.6-79.9,46.5-80.3,46.5-80.7z M50.5-79.7c0.3,0,0.5,0,0.8-0.1
		c0.3-0.1,0.5-0.2,0.7-0.4s0.4-0.4,0.5-0.7c0.1-0.3,0.2-0.6,0.2-1.1v-0.4l-2.2,0.3c-0.3,0.1-0.6,0.2-0.9,0.4s-0.3,0.5-0.3,0.9
		c0,0.3,0.1,0.6,0.3,0.8S50.1-79.7,50.5-79.7z"/>
	<path d="M63.9-85.2c-0.3-0.1-0.5-0.1-0.8-0.1c-0.3,0-0.7,0-1,0.1c-0.3,0.1-0.6,0.2-0.8,0.5c-0.2,0.2-0.4,0.5-0.5,0.9
		c-0.1,0.4-0.2,0.8-0.2,1.3v4.5h-2.7v-9.8h2.6v1.5c0.1-0.3,0.3-0.6,0.6-0.8c0.2-0.2,0.5-0.4,0.7-0.5c0.3-0.1,0.5-0.2,0.8-0.2
		s0.5-0.1,0.7-0.1c0.1,0,0.2,0,0.3,0c0.1,0,0.2,0,0.3,0V-85.2z"/>
	<path d="M67.3-81.2c0,0.4,0.2,0.7,0.5,1c0.3,0.3,0.7,0.5,1.3,0.5c0.4,0,0.8-0.1,1-0.3c0.2-0.2,0.3-0.4,0.3-0.7
		c0-0.2-0.1-0.4-0.2-0.6c-0.2-0.2-0.4-0.3-0.8-0.4L68-82c-1-0.2-1.7-0.6-2.1-1.1s-0.7-1.1-0.7-1.8c0-0.4,0.1-0.9,0.3-1.3
		c0.2-0.4,0.4-0.7,0.8-1c0.3-0.3,0.7-0.5,1.2-0.7s0.9-0.3,1.5-0.3c0.7,0,1.3,0.1,1.8,0.3c0.5,0.2,0.9,0.4,1.2,0.7
		c0.3,0.3,0.5,0.6,0.7,0.9c0.1,0.3,0.2,0.6,0.3,0.9l-2.2,0.5c0-0.1-0.1-0.3-0.1-0.5c-0.1-0.2-0.2-0.3-0.3-0.4
		c-0.1-0.1-0.3-0.2-0.5-0.3s-0.4-0.1-0.7-0.1c-0.3,0-0.6,0.1-0.9,0.3c-0.2,0.2-0.4,0.4-0.4,0.7c0,0.2,0.1,0.4,0.3,0.6
		c0.2,0.1,0.4,0.2,0.6,0.3l1.4,0.3c1,0.2,1.7,0.6,2.2,1.1c0.5,0.5,0.7,1.2,0.7,1.9c0,0.4-0.1,0.8-0.2,1.2s-0.4,0.7-0.7,1
		c-0.3,0.3-0.7,0.6-1.2,0.7c-0.5,0.2-1,0.3-1.7,0.3c-0.7,0-1.4-0.1-1.9-0.3c-0.5-0.2-0.9-0.5-1.2-0.8c-0.3-0.3-0.6-0.6-0.7-1
		c-0.2-0.4-0.2-0.7-0.3-1L67.3-81.2z"/>
	<path fill="#5C5C5C" d="M79.8-78v-14.2h2.8V-78H79.8z"/>
	<path fill="#5C5C5C" d="M90-85.7c-0.3,0-0.7,0.1-1,0.2s-0.6,0.3-0.8,0.5c-0.2,0.2-0.4,0.5-0.5,0.9c-0.1,0.3-0.2,0.7-0.2,1.2
		s0.1,0.8,0.2,1.2c0.1,0.3,0.3,0.6,0.5,0.9c0.2,0.2,0.5,0.4,0.8,0.5c0.3,0.1,0.6,0.2,1,0.2c0.3,0,0.6,0,0.9-0.1s0.5-0.2,0.7-0.4
		c0.2-0.2,0.3-0.3,0.5-0.5c0.1-0.2,0.2-0.4,0.3-0.6l2.3,0.8c-0.1,0.4-0.3,0.8-0.5,1.2c-0.2,0.4-0.6,0.7-0.9,1.1
		c-0.4,0.3-0.8,0.6-1.4,0.8c-0.5,0.2-1.1,0.3-1.8,0.3c-0.7,0-1.4-0.1-2-0.4c-0.6-0.3-1.2-0.6-1.7-1.1c-0.5-0.5-0.8-1-1.1-1.6
		c-0.3-0.6-0.4-1.3-0.4-2.1c0-0.8,0.1-1.5,0.4-2.1c0.3-0.6,0.6-1.2,1.1-1.6s1-0.8,1.6-1.1c0.6-0.3,1.3-0.4,2-0.4
		c0.7,0,1.3,0.1,1.8,0.3c0.5,0.2,1,0.4,1.4,0.8c0.4,0.3,0.7,0.7,0.9,1.1s0.4,0.8,0.5,1.2L92.2-84c-0.1-0.4-0.3-0.8-0.7-1.1
		C91.2-85.5,90.7-85.7,90-85.7z"/>
	<path fill="#5C5C5C" d="M100.9-88.1c0.7,0,1.4,0.1,2,0.4c0.6,0.3,1.2,0.6,1.6,1.1s0.8,1,1.1,1.6c0.3,0.6,0.4,1.3,0.4,2.1
		c0,0.8-0.1,1.5-0.4,2.1c-0.3,0.6-0.6,1.2-1.1,1.6c-0.5,0.5-1,0.8-1.6,1.1c-0.6,0.3-1.3,0.4-2,0.4s-1.4-0.1-2-0.4
		c-0.6-0.3-1.2-0.6-1.6-1.1c-0.5-0.5-0.8-1-1.1-1.6c-0.3-0.6-0.4-1.3-0.4-2.1c0-0.8,0.1-1.5,0.4-2.1c0.3-0.6,0.6-1.2,1.1-1.6
		s1-0.8,1.6-1.1C99.5-88,100.2-88.1,100.9-88.1z M100.9-80.1c0.3,0,0.6-0.1,0.9-0.2c0.3-0.1,0.6-0.3,0.8-0.5
		c0.2-0.2,0.4-0.5,0.5-0.9c0.1-0.3,0.2-0.8,0.2-1.2s-0.1-0.9-0.2-1.2c-0.1-0.3-0.3-0.6-0.5-0.9s-0.5-0.4-0.8-0.5
		c-0.3-0.1-0.6-0.2-0.9-0.2s-0.6,0.1-0.9,0.2c-0.3,0.1-0.6,0.3-0.8,0.5s-0.4,0.5-0.5,0.9c-0.1,0.3-0.2,0.8-0.2,1.2s0.1,0.9,0.2,1.2
		c0.1,0.3,0.3,0.6,0.5,0.9c0.2,0.2,0.5,0.4,0.8,0.5C100.3-80.2,100.6-80.1,100.9-80.1z"/>
	<path fill="#5C5C5C" d="M110.8-78h-2.7v-9.8h2.6v1.2c0.3-0.5,0.7-0.9,1.3-1.1c0.5-0.2,1.1-0.4,1.6-0.4c0.6,0,1.1,0.1,1.6,0.3
		c0.4,0.2,0.8,0.5,1.1,0.8c0.3,0.3,0.5,0.8,0.7,1.2c0.1,0.5,0.2,1,0.2,1.5v6.2h-2.7v-5.7c0-0.6-0.1-1-0.4-1.4
		c-0.3-0.4-0.8-0.6-1.4-0.6c-0.6,0-1,0.2-1.4,0.6c-0.3,0.4-0.5,0.9-0.5,1.4V-78z"/>
	<path fill="#5C5C5C" d="M132.1-88c0-0.2-0.1-0.4-0.2-0.6c-0.1-0.2-0.3-0.5-0.5-0.6c-0.2-0.2-0.5-0.4-0.8-0.5s-0.7-0.2-1.2-0.2
		c-0.3,0-0.6,0-0.9,0.1c-0.3,0.1-0.5,0.2-0.7,0.4c-0.2,0.2-0.3,0.4-0.5,0.6s-0.2,0.4-0.2,0.7c0,0.4,0.1,0.7,0.4,1s0.6,0.5,1.2,0.6
		l2,0.4c0.6,0.1,1.2,0.3,1.7,0.6c0.5,0.3,0.9,0.6,1.2,1s0.6,0.8,0.8,1.2c0.2,0.5,0.3,0.9,0.3,1.4c0,0.5-0.1,1.1-0.3,1.6
		c-0.2,0.5-0.6,1-1,1.4c-0.4,0.4-1,0.7-1.6,1c-0.6,0.3-1.4,0.4-2.2,0.4c-0.9,0-1.8-0.1-2.4-0.4c-0.7-0.3-1.3-0.6-1.7-1.1
		c-0.5-0.4-0.8-0.9-1-1.4s-0.4-1-0.4-1.6l2.6-0.7c0,0.3,0.1,0.7,0.3,1c0.1,0.3,0.3,0.6,0.6,0.8c0.3,0.2,0.6,0.4,0.9,0.6
		c0.4,0.1,0.8,0.2,1.3,0.2c0.7,0,1.3-0.2,1.7-0.5s0.6-0.7,0.6-1.3c0-0.4-0.1-0.8-0.4-1.1c-0.3-0.3-0.7-0.5-1.3-0.6l-2-0.4
		c-1.1-0.2-2-0.7-2.7-1.4c-0.7-0.7-1-1.6-1-2.7c0-0.6,0.1-1.2,0.4-1.8c0.3-0.5,0.6-1,1.1-1.4c0.5-0.4,1-0.7,1.6-0.9
		c0.6-0.2,1.2-0.3,1.9-0.3c0.9,0,1.6,0.1,2.2,0.4c0.6,0.2,1.1,0.5,1.5,0.9c0.4,0.4,0.7,0.8,0.9,1.2s0.4,0.8,0.5,1.3L132.1-88z"/>
	<path fill="#5C5C5C" d="M145.6-80.8c-0.1,0.4-0.3,0.8-0.6,1.2c-0.3,0.4-0.6,0.7-1,1c-0.4,0.3-0.8,0.5-1.3,0.7
		c-0.5,0.2-1,0.3-1.7,0.3c-0.7,0-1.3-0.1-1.9-0.3c-0.6-0.2-1.2-0.6-1.6-1c-0.5-0.5-0.8-1-1.1-1.7c-0.3-0.7-0.4-1.4-0.4-2.2
		c0-0.8,0.1-1.5,0.4-2.1s0.6-1.2,1.1-1.6c0.4-0.4,1-0.8,1.5-1c0.6-0.2,1.2-0.4,1.8-0.4c1.5,0,2.7,0.5,3.6,1.4s1.3,2.2,1.3,3.7
		c0,0.2,0,0.4,0,0.5c0,0.2,0,0.3,0,0.3h-7c0,0.3,0.1,0.6,0.2,0.9c0.1,0.3,0.3,0.5,0.5,0.7c0.2,0.2,0.5,0.4,0.8,0.5s0.6,0.2,0.9,0.2
		c0.6,0,1.1-0.1,1.5-0.4c0.4-0.3,0.6-0.6,0.8-1.1L145.6-80.8z M143.1-84c0-0.2-0.1-0.5-0.1-0.7c-0.1-0.2-0.2-0.4-0.4-0.6
		c-0.2-0.2-0.4-0.3-0.7-0.4c-0.3-0.1-0.6-0.2-1-0.2c-0.3,0-0.7,0.1-0.9,0.2c-0.3,0.1-0.5,0.3-0.7,0.5s-0.3,0.4-0.4,0.6
		c-0.1,0.2-0.2,0.5-0.2,0.7H143.1z"/>
	<path fill="#5C5C5C" d="M151.1-87.8h2v2.4h-2v4.1c0,0.4,0.1,0.7,0.3,0.9c0.2,0.2,0.5,0.3,0.9,0.3c0.2,0,0.3,0,0.5,0
		c0.2,0,0.3,0,0.3-0.1v2.2c-0.1,0.1-0.3,0.1-0.5,0.2c-0.2,0.1-0.6,0.1-1,0.1c-1,0-1.7-0.3-2.3-0.8c-0.6-0.5-0.8-1.3-0.8-2.2v-4.6
		h-1.8v-2.4h0.5c0.5,0,0.9-0.2,1.1-0.5c0.2-0.3,0.4-0.7,0.4-1.1v-1.4h2.4V-87.8z"/>
</g>
<line fill="none" stroke="#EEEEEE" stroke-width="2" stroke-miterlimit="10" x1="2" y1="-58" x2="642" y2="-58"/>
<line fill="none" stroke="#EEEEEE" stroke-width="2" stroke-miterlimit="10" x1="2" y1="361" x2="642" y2="361"/>
<g opacity="0.6">
	<path fill="#999999" d="M522.6,383.5c0.3,0,0.5,0,0.7,0.1s0.4,0.2,0.5,0.3c0.1,0.1,0.3,0.3,0.3,0.5c0.1,0.2,0.1,0.4,0.1,0.6
		c0,0.3-0.1,0.6-0.2,0.8c-0.2,0.2-0.4,0.4-0.6,0.5c0.2,0,0.3,0.1,0.4,0.2c0.1,0.1,0.2,0.2,0.3,0.3s0.2,0.3,0.2,0.4
		c0,0.1,0.1,0.3,0.1,0.5c0,0.2,0,0.4-0.1,0.6c-0.1,0.2-0.2,0.4-0.4,0.5c-0.2,0.1-0.3,0.2-0.6,0.3c-0.2,0.1-0.5,0.1-0.7,0.1h-2v-5.7
		H522.6z M522.5,386c0.3,0,0.6-0.1,0.7-0.3c0.2-0.2,0.3-0.4,0.3-0.7c0-0.3-0.1-0.5-0.3-0.6c-0.2-0.2-0.4-0.2-0.8-0.2h-0.9v1.8H522.5
		z M522.7,388.5c0.3,0,0.6-0.1,0.8-0.2c0.2-0.2,0.3-0.4,0.3-0.7c0-0.3-0.1-0.5-0.3-0.7c-0.2-0.2-0.4-0.3-0.8-0.3h-1.1v1.8H522.7z"/>
	<path fill="#999999" d="M527.2,385.2c0.3,0,0.6,0.1,0.8,0.2c0.2,0.1,0.4,0.2,0.6,0.4s0.3,0.4,0.4,0.6s0.1,0.5,0.1,0.8
		c0,0.3,0,0.6-0.1,0.8c-0.1,0.3-0.2,0.5-0.4,0.6s-0.4,0.3-0.6,0.4c-0.2,0.1-0.5,0.2-0.8,0.2c-0.3,0-0.6-0.1-0.8-0.2
		c-0.2-0.1-0.4-0.2-0.6-0.4s-0.3-0.4-0.4-0.6c-0.1-0.3-0.1-0.5-0.1-0.8c0-0.3,0-0.6,0.1-0.8s0.2-0.5,0.4-0.6s0.4-0.3,0.6-0.4
		C526.7,385.2,526.9,385.2,527.2,385.2z M527.2,388.6c0.2,0,0.3,0,0.5-0.1c0.1-0.1,0.3-0.1,0.4-0.3c0.1-0.1,0.2-0.3,0.3-0.4
		c0.1-0.2,0.1-0.4,0.1-0.6c0-0.2,0-0.4-0.1-0.6c-0.1-0.2-0.2-0.3-0.3-0.4c-0.1-0.1-0.2-0.2-0.4-0.3c-0.1-0.1-0.3-0.1-0.5-0.1
		s-0.3,0-0.5,0.1c-0.1,0.1-0.3,0.1-0.4,0.3c-0.1,0.1-0.2,0.3-0.3,0.4s-0.1,0.4-0.1,0.6c0,0.2,0,0.4,0.1,0.6s0.2,0.3,0.3,0.4
		s0.2,0.2,0.4,0.3C526.9,388.6,527.1,388.6,527.2,388.6z"/>
	<path fill="#999999" d="M530.9,387.2l-1.4-1.9h0.9l0.9,1.4l0.9-1.4h0.9l-1.4,1.9c0,0.1,0.1,0.1,0.2,0.2c0.1,0.1,0.2,0.2,0.3,0.3
		s0.2,0.3,0.3,0.4c0.1,0.1,0.2,0.3,0.3,0.4s0.2,0.2,0.3,0.3c0.1,0.1,0.1,0.2,0.2,0.2h-0.9l-1-1.4l-1,1.4h-0.9L530.9,387.2z"/>
	<path fill="#999999" d="M540.3,389.1l-0.1-0.8c-0.1,0.1-0.2,0.2-0.3,0.3c-0.1,0.1-0.2,0.2-0.4,0.3s-0.3,0.2-0.5,0.2
		c-0.2,0.1-0.4,0.1-0.7,0.1c-0.4,0-0.7-0.1-1-0.2c-0.3-0.1-0.6-0.3-0.9-0.6c-0.3-0.3-0.5-0.6-0.6-0.9c-0.2-0.4-0.2-0.8-0.2-1.3
		c0-0.5,0.1-0.9,0.2-1.3s0.4-0.7,0.6-0.9c0.3-0.2,0.6-0.4,0.9-0.6s0.7-0.2,1-0.2c0.3,0,0.6,0,0.9,0.1s0.5,0.2,0.7,0.3
		s0.4,0.3,0.6,0.5c0.2,0.2,0.3,0.4,0.4,0.7l-0.7,0.3c-0.1-0.4-0.3-0.7-0.7-1c-0.3-0.2-0.7-0.3-1.1-0.3c-0.3,0-0.5,0-0.7,0.1
		c-0.2,0.1-0.5,0.2-0.6,0.4c-0.2,0.2-0.3,0.4-0.5,0.7c-0.1,0.3-0.2,0.6-0.2,1c0,0.4,0.1,0.7,0.2,1c0.1,0.3,0.3,0.5,0.4,0.7
		c0.2,0.2,0.4,0.3,0.6,0.4c0.2,0.1,0.5,0.1,0.7,0.1c0.3,0,0.6,0,0.8-0.1s0.4-0.2,0.5-0.4s0.2-0.3,0.3-0.5c0.1-0.2,0.1-0.3,0.1-0.5
		h-2v-0.7h2.7v2.8H540.3z"/>
	<path fill="#999999" d="M544.6,388.7c-0.1,0.2-0.3,0.4-0.5,0.4c-0.2,0.1-0.4,0.1-0.7,0.1c-0.2,0-0.4,0-0.6-0.1
		c-0.2-0.1-0.3-0.2-0.5-0.3c-0.1-0.1-0.2-0.3-0.3-0.5c-0.1-0.2-0.1-0.4-0.1-0.6v-2.4h0.8v2.3c0,0.1,0,0.3,0,0.4
		c0,0.1,0.1,0.2,0.2,0.3c0.1,0.1,0.2,0.2,0.3,0.2s0.2,0.1,0.4,0.1c0.3,0,0.5-0.1,0.7-0.3c0.2-0.2,0.2-0.4,0.2-0.7v-2.3h0.8v3.1
		c0,0.2,0,0.3,0,0.4c0,0.1,0,0.2,0,0.3h-0.7c0,0,0-0.1,0-0.2C544.6,388.8,544.6,388.8,544.6,388.7z"/>
	<path fill="#999999" d="M546.7,390.8l1-2l-1.7-3.4h0.9l1.2,2.7l1.2-2.7h0.8l-2.5,5.5H546.7z"/>
	<path fill="#999999" d="M549.8,388.6c0-0.1,0.1-0.3,0.2-0.4s0.3-0.2,0.4-0.2c0.2,0,0.3,0.1,0.5,0.2c0.1,0.1,0.2,0.3,0.2,0.6
		c0,0.3,0,0.5-0.1,0.7c-0.1,0.2-0.2,0.3-0.3,0.5c-0.1,0.1-0.2,0.2-0.4,0.3c-0.1,0.1-0.3,0.1-0.4,0.1V390c0.1,0,0.2-0.1,0.3-0.1
		c0.1-0.1,0.2-0.1,0.2-0.2c0.1-0.1,0.1-0.2,0.1-0.3c0-0.1,0.1-0.2,0.1-0.3c0,0,0,0-0.1,0c0,0-0.1,0-0.1,0c-0.2,0-0.3,0-0.4-0.1
		C549.9,388.9,549.8,388.8,549.8,388.6z"/>
	<path fill="#999999" d="M557.6,387.6h-2.5l-0.6,1.6h-0.8l2.3-5.7h0.9l2.3,5.7h-0.8L557.6,387.6z M555.4,386.8h2l-1-2.5L555.4,386.8
		z"/>
	<path fill="#999999" d="M560.1,387.9c0,0.2,0.1,0.4,0.3,0.5c0.1,0.1,0.4,0.2,0.6,0.2c0.2,0,0.4-0.1,0.5-0.2
		c0.1-0.1,0.2-0.2,0.2-0.4c0-0.1,0-0.2-0.1-0.3c-0.1-0.1-0.2-0.1-0.4-0.2l-0.7-0.1c-0.3-0.1-0.5-0.2-0.7-0.4
		c-0.2-0.2-0.3-0.4-0.3-0.7c0-0.2,0-0.3,0.1-0.5s0.2-0.3,0.3-0.4c0.1-0.1,0.3-0.2,0.4-0.3c0.2-0.1,0.3-0.1,0.5-0.1
		c0.3,0,0.5,0,0.7,0.1c0.2,0.1,0.3,0.2,0.4,0.3c0.1,0.1,0.2,0.2,0.3,0.3c0.1,0.1,0.1,0.2,0.1,0.3l-0.7,0.2c0,0,0-0.1-0.1-0.2
		c0-0.1-0.1-0.1-0.1-0.2s-0.1-0.1-0.2-0.2s-0.2-0.1-0.4-0.1c-0.2,0-0.3,0.1-0.5,0.2c-0.1,0.1-0.2,0.2-0.2,0.4c0,0.2,0.1,0.4,0.4,0.5
		l0.6,0.1c0.4,0.1,0.6,0.2,0.8,0.4c0.2,0.2,0.3,0.4,0.3,0.7c0,0.1,0,0.3-0.1,0.4s-0.1,0.3-0.3,0.4c-0.1,0.1-0.3,0.2-0.4,0.3
		c-0.2,0.1-0.4,0.1-0.6,0.1c-0.3,0-0.5,0-0.7-0.1c-0.2-0.1-0.3-0.2-0.5-0.3c-0.1-0.1-0.2-0.2-0.3-0.4s-0.1-0.3-0.1-0.4L560.1,387.9z
		"/>
	<path fill="#999999" d="M564.5,385.3h0.8v0.7h-0.8v2c0,0.2,0,0.3,0.1,0.4c0.1,0.1,0.2,0.1,0.4,0.1c0,0,0.1,0,0.2,0
		c0.1,0,0.1,0,0.1,0v0.6c0,0-0.1,0-0.2,0c-0.1,0-0.2,0-0.3,0c-0.3,0-0.6-0.1-0.8-0.3c-0.2-0.2-0.3-0.5-0.3-0.8V386H563v-0.7h0.2
		c0.2,0,0.4-0.1,0.5-0.2c0.1-0.1,0.1-0.3,0.1-0.4v-0.6h0.7V385.3z"/>
	<path fill="#999999" d="M568.3,386.1c-0.1,0-0.2,0-0.3,0c-0.3,0-0.6,0.1-0.8,0.3s-0.3,0.5-0.3,0.9v1.9h-0.8v-3.8h0.7v0.7
		c0.1-0.1,0.2-0.3,0.2-0.4c0.1-0.1,0.2-0.2,0.3-0.2c0.1-0.1,0.2-0.1,0.3-0.1c0.1,0,0.2,0,0.3,0c0.1,0,0.1,0,0.1,0c0,0,0.1,0,0.1,0
		V386.1z"/>
	<path fill="#999999" d="M570.7,385.2c0.3,0,0.6,0.1,0.8,0.2c0.2,0.1,0.4,0.2,0.6,0.4s0.3,0.4,0.4,0.6c0.1,0.2,0.1,0.5,0.1,0.8
		c0,0.3,0,0.6-0.1,0.8c-0.1,0.3-0.2,0.5-0.4,0.6s-0.4,0.3-0.6,0.4c-0.2,0.1-0.5,0.2-0.8,0.2c-0.3,0-0.6-0.1-0.8-0.2
		c-0.2-0.1-0.4-0.2-0.6-0.4s-0.3-0.4-0.4-0.6c-0.1-0.3-0.1-0.5-0.1-0.8c0-0.3,0-0.6,0.1-0.8s0.2-0.5,0.4-0.6s0.4-0.3,0.6-0.4
		C570.2,385.2,570.5,385.2,570.7,385.2z M570.7,388.6c0.2,0,0.3,0,0.5-0.1s0.3-0.1,0.4-0.3c0.1-0.1,0.2-0.3,0.3-0.4s0.1-0.4,0.1-0.6
		c0-0.2,0-0.4-0.1-0.6s-0.2-0.3-0.3-0.4c-0.1-0.1-0.2-0.2-0.4-0.3s-0.3-0.1-0.5-0.1s-0.3,0-0.5,0.1c-0.1,0.1-0.3,0.1-0.4,0.3
		c-0.1,0.1-0.2,0.3-0.3,0.4c-0.1,0.2-0.1,0.4-0.1,0.6c0,0.2,0,0.4,0.1,0.6c0.1,0.2,0.2,0.3,0.3,0.4c0.1,0.1,0.2,0.2,0.4,0.3
		C570.4,388.6,570.6,388.6,570.7,388.6z"/>
	<path fill="#999999" d="M574.4,389.1h-0.8v-3.8h0.7v0.6c0.1-0.2,0.3-0.4,0.5-0.5c0.2-0.1,0.4-0.2,0.7-0.2c0.2,0,0.4,0,0.6,0.1
		s0.3,0.2,0.4,0.3c0.1,0.1,0.2,0.3,0.3,0.5c0.1,0.2,0.1,0.4,0.1,0.6v2.4h-0.8v-2.3c0-0.1,0-0.3,0-0.4c0-0.1-0.1-0.2-0.2-0.3
		s-0.2-0.2-0.3-0.2c-0.1-0.1-0.3-0.1-0.4-0.1c-0.2,0-0.3,0-0.4,0.1c-0.1,0.1-0.2,0.1-0.3,0.2c-0.1,0.1-0.1,0.2-0.2,0.3
		c0,0.1-0.1,0.3-0.1,0.4V389.1z"/>
	<path fill="#999999" d="M577.9,388.1c0-0.2,0-0.3,0.1-0.5s0.1-0.3,0.2-0.3s0.2-0.2,0.4-0.2c0.1-0.1,0.3-0.1,0.5-0.1l1-0.2
		c0.1,0,0.2-0.1,0.2-0.1c0-0.1,0.1-0.1,0.1-0.2c0-0.2-0.1-0.3-0.2-0.5s-0.3-0.2-0.6-0.2c-0.3,0-0.5,0.1-0.6,0.2
		c-0.1,0.1-0.2,0.3-0.3,0.6l-0.7-0.2c0-0.2,0.1-0.3,0.2-0.5c0.1-0.2,0.2-0.3,0.3-0.4s0.3-0.2,0.5-0.3s0.4-0.1,0.6-0.1
		c0.3,0,0.5,0,0.7,0.1c0.2,0.1,0.4,0.2,0.5,0.3c0.1,0.1,0.2,0.3,0.3,0.4s0.1,0.3,0.1,0.5v1.9c0,0.2,0,0.3,0,0.4c0,0.1,0,0.2,0,0.2
		h-0.7c0,0,0-0.1,0-0.2c0-0.1,0-0.2,0-0.3c0,0.1-0.1,0.1-0.2,0.2c-0.1,0.1-0.2,0.1-0.3,0.2c-0.1,0.1-0.2,0.1-0.4,0.2
		s-0.3,0.1-0.5,0.1c-0.2,0-0.4,0-0.5-0.1c-0.2-0.1-0.3-0.1-0.4-0.3c-0.1-0.1-0.2-0.2-0.3-0.4C578,388.4,577.9,388.3,577.9,388.1z
		 M579.3,388.6c0.2,0,0.3,0,0.4-0.1s0.3-0.1,0.4-0.2c0.1-0.1,0.2-0.2,0.2-0.4s0.1-0.3,0.1-0.5v-0.2l-1.2,0.2c-0.2,0-0.3,0.1-0.4,0.2
		c-0.1,0.1-0.2,0.2-0.2,0.4c0,0.1,0.1,0.3,0.2,0.4C579,388.6,579.1,388.6,579.3,388.6z"/>
	<path fill="#999999" d="M584.8,388.7c-0.1,0.2-0.3,0.4-0.5,0.4c-0.2,0.1-0.4,0.1-0.7,0.1c-0.2,0-0.4,0-0.6-0.1
		c-0.2-0.1-0.3-0.2-0.5-0.3s-0.2-0.3-0.3-0.5c-0.1-0.2-0.1-0.4-0.1-0.6v-2.4h0.8v2.3c0,0.1,0,0.3,0,0.4s0.1,0.2,0.2,0.3
		c0.1,0.1,0.2,0.2,0.3,0.2s0.2,0.1,0.4,0.1c0.3,0,0.5-0.1,0.7-0.3c0.2-0.2,0.2-0.4,0.2-0.7v-2.3h0.8v3.1c0,0.2,0,0.3,0,0.4
		s0,0.2,0,0.3h-0.7c0,0,0-0.1,0-0.2C584.8,388.8,584.8,388.8,584.8,388.7z"/>
	<path fill="#999999" d="M587.8,385.3h0.8v0.7h-0.8v2c0,0.2,0,0.3,0.1,0.4c0.1,0.1,0.2,0.1,0.4,0.1c0,0,0.1,0,0.2,0
		c0.1,0,0.1,0,0.1,0v0.6c0,0-0.1,0-0.2,0c-0.1,0-0.2,0-0.3,0c-0.3,0-0.6-0.1-0.8-0.3s-0.3-0.5-0.3-0.8V386h-0.7v-0.7h0.2
		c0.2,0,0.4-0.1,0.5-0.2c0.1-0.1,0.1-0.3,0.1-0.4v-0.6h0.7V385.3z"/>
	<path fill="#999999" d="M589.6,388.6c0-0.1,0.1-0.3,0.2-0.4s0.3-0.2,0.4-0.2c0.2,0,0.3,0.1,0.5,0.2c0.1,0.1,0.2,0.3,0.2,0.6
		c0,0.3,0,0.5-0.1,0.7c-0.1,0.2-0.2,0.3-0.3,0.5c-0.1,0.1-0.2,0.2-0.4,0.3c-0.1,0.1-0.3,0.1-0.4,0.1V390c0.1,0,0.2-0.1,0.3-0.1
		c0.1-0.1,0.2-0.1,0.2-0.2c0.1-0.1,0.1-0.2,0.1-0.3c0-0.1,0.1-0.2,0.1-0.3c0,0,0,0-0.1,0c0,0-0.1,0-0.1,0c-0.2,0-0.3,0-0.4-0.1
		C589.6,388.9,589.6,388.8,589.6,388.6z"/>
	<path fill="#999999" d="M599.4,389.1v-4.4l-1.9,4.4h-0.7l-1.9-4.4v4.4h-0.8v-5.7h1.1l2,4.6l2-4.6h1v5.7H599.4z"/>
	<path fill="#999999" d="M601.3,388.1c0-0.2,0-0.3,0.1-0.5s0.1-0.3,0.2-0.3s0.2-0.2,0.4-0.2c0.1-0.1,0.3-0.1,0.5-0.1l1-0.2
		c0.1,0,0.2-0.1,0.2-0.1c0-0.1,0.1-0.1,0.1-0.2c0-0.2-0.1-0.3-0.2-0.5s-0.3-0.2-0.6-0.2c-0.3,0-0.5,0.1-0.6,0.2
		c-0.1,0.1-0.2,0.3-0.3,0.6l-0.7-0.2c0-0.2,0.1-0.3,0.2-0.5c0.1-0.2,0.2-0.3,0.3-0.4s0.3-0.2,0.5-0.3s0.4-0.1,0.6-0.1
		c0.3,0,0.5,0,0.7,0.1c0.2,0.1,0.4,0.2,0.5,0.3c0.1,0.1,0.2,0.3,0.3,0.4s0.1,0.3,0.1,0.5v1.9c0,0.2,0,0.3,0,0.4c0,0.1,0,0.2,0,0.2
		h-0.7c0,0,0-0.1,0-0.2c0-0.1,0-0.2,0-0.3c0,0.1-0.1,0.1-0.2,0.2c-0.1,0.1-0.2,0.1-0.3,0.2c-0.1,0.1-0.2,0.1-0.4,0.2
		s-0.3,0.1-0.5,0.1c-0.2,0-0.4,0-0.5-0.1c-0.2-0.1-0.3-0.1-0.4-0.3c-0.1-0.1-0.2-0.2-0.3-0.4C601.3,388.4,601.3,388.3,601.3,388.1z
		 M602.7,388.6c0.2,0,0.3,0,0.4-0.1s0.3-0.1,0.4-0.2c0.1-0.1,0.2-0.2,0.2-0.4s0.1-0.3,0.1-0.5v-0.2l-1.2,0.2c-0.2,0-0.3,0.1-0.4,0.2
		c-0.1,0.1-0.2,0.2-0.2,0.4c0,0.1,0.1,0.3,0.2,0.4C602.3,388.6,602.5,388.6,602.7,388.6z"/>
	<path fill="#999999" d="M605.7,389.1v-5.8h0.8v5.8H605.7z"/>
	<path fill="#999999" d="M611.1,388c-0.1,0.2-0.1,0.3-0.2,0.5s-0.2,0.3-0.4,0.4s-0.3,0.2-0.5,0.3c-0.2,0.1-0.4,0.1-0.6,0.1
		c-0.3,0-0.5,0-0.7-0.1c-0.2-0.1-0.4-0.2-0.6-0.4c-0.2-0.2-0.3-0.4-0.4-0.6c-0.1-0.3-0.2-0.5-0.2-0.9c0-0.3,0.1-0.6,0.2-0.8
		c0.1-0.2,0.2-0.5,0.4-0.6s0.4-0.3,0.6-0.4c0.2-0.1,0.5-0.1,0.7-0.1c0.3,0,0.6,0,0.8,0.1s0.4,0.2,0.6,0.4s0.3,0.4,0.4,0.6
		c0.1,0.2,0.1,0.5,0.1,0.8c0,0,0,0.1,0,0.1c0,0,0,0.1,0,0.1h-2.9c0,0.2,0,0.3,0.1,0.5c0.1,0.1,0.1,0.3,0.2,0.4
		c0.1,0.1,0.2,0.2,0.4,0.2c0.1,0.1,0.3,0.1,0.5,0.1c0.3,0,0.6-0.1,0.7-0.2c0.2-0.1,0.3-0.3,0.4-0.6L611.1,388z M610.3,386.8
		c0-0.3-0.1-0.5-0.3-0.7c-0.2-0.2-0.4-0.3-0.8-0.3c-0.2,0-0.3,0-0.4,0.1c-0.1,0.1-0.2,0.1-0.3,0.2c-0.1,0.1-0.2,0.2-0.2,0.3
		c-0.1,0.1-0.1,0.2-0.1,0.4H610.3z"/>
	<path fill="#999999" d="M611.9,388.6c0-0.1,0.1-0.3,0.2-0.4s0.3-0.2,0.4-0.2s0.3,0.1,0.5,0.2c0.1,0.1,0.2,0.3,0.2,0.6
		c0,0.3,0,0.5-0.1,0.7c-0.1,0.2-0.2,0.3-0.3,0.5c-0.1,0.1-0.2,0.2-0.4,0.3c-0.1,0.1-0.3,0.1-0.4,0.1V390c0.1,0,0.2-0.1,0.3-0.1
		c0.1-0.1,0.2-0.1,0.2-0.2c0.1-0.1,0.1-0.2,0.1-0.3c0-0.1,0.1-0.2,0.1-0.3c0,0,0,0-0.1,0c0,0-0.1,0-0.1,0c-0.1,0-0.3,0-0.4-0.1
		C611.9,388.9,611.9,388.8,611.9,388.6z"/>
	<path fill="#999999" d="M616.4,389.1v-5.7h3.4v0.7h-2.7v1.8h2.4v0.7h-2.4v2.4H616.4z"/>
	<path fill="#999999" d="M623.8,388c-0.1,0.2-0.1,0.3-0.2,0.5c-0.1,0.1-0.2,0.3-0.4,0.4s-0.3,0.2-0.5,0.3c-0.2,0.1-0.4,0.1-0.6,0.1
		c-0.3,0-0.5,0-0.7-0.1c-0.2-0.1-0.4-0.2-0.6-0.4c-0.2-0.2-0.3-0.4-0.4-0.6c-0.1-0.3-0.2-0.5-0.2-0.9c0-0.3,0.1-0.6,0.2-0.8
		s0.2-0.5,0.4-0.6s0.4-0.3,0.6-0.4s0.5-0.1,0.7-0.1c0.3,0,0.6,0,0.8,0.1s0.4,0.2,0.6,0.4c0.2,0.2,0.3,0.4,0.4,0.6
		c0.1,0.2,0.1,0.5,0.1,0.8c0,0,0,0.1,0,0.1c0,0,0,0.1,0,0.1h-2.9c0,0.2,0,0.3,0.1,0.5c0.1,0.1,0.1,0.3,0.2,0.4
		c0.1,0.1,0.2,0.2,0.4,0.2s0.3,0.1,0.5,0.1c0.3,0,0.6-0.1,0.7-0.2s0.3-0.3,0.4-0.6L623.8,388z M623,386.8c0-0.3-0.1-0.5-0.3-0.7
		c-0.2-0.2-0.4-0.3-0.8-0.3c-0.2,0-0.3,0-0.4,0.1c-0.1,0.1-0.2,0.1-0.3,0.2c-0.1,0.1-0.2,0.2-0.2,0.3s-0.1,0.2-0.1,0.4H623z"/>
	<path fill="#999999" d="M624.8,389.1v-3.8h0.7v0.5c0.1-0.2,0.3-0.4,0.5-0.5c0.2-0.1,0.4-0.2,0.7-0.2c0.2,0,0.5,0.1,0.7,0.2
		s0.4,0.3,0.5,0.6c0.2-0.3,0.3-0.5,0.6-0.6c0.2-0.1,0.5-0.2,0.7-0.2c0.2,0,0.3,0,0.5,0.1s0.3,0.1,0.4,0.3c0.1,0.1,0.2,0.3,0.3,0.5
		c0.1,0.2,0.1,0.4,0.1,0.7v2.5h-0.7v-2.4c0-0.3-0.1-0.5-0.2-0.6c-0.1-0.2-0.3-0.3-0.6-0.3c-0.3,0-0.5,0.1-0.6,0.3
		c-0.2,0.2-0.2,0.4-0.2,0.7v2.3h-0.8v-2.4c0-0.3-0.1-0.5-0.2-0.6c-0.1-0.2-0.3-0.3-0.6-0.3c-0.3,0-0.5,0.1-0.7,0.3
		c-0.2,0.2-0.2,0.4-0.2,0.7v2.3H624.8z"/>
	<path fill="#999999" d="M631.4,388.1c0-0.2,0-0.3,0.1-0.5s0.1-0.3,0.2-0.3s0.2-0.2,0.4-0.2c0.1-0.1,0.3-0.1,0.5-0.1l1-0.2
		c0.1,0,0.2-0.1,0.2-0.1c0-0.1,0.1-0.1,0.1-0.2c0-0.2-0.1-0.3-0.2-0.5s-0.3-0.2-0.6-0.2c-0.3,0-0.5,0.1-0.6,0.2
		c-0.1,0.1-0.2,0.3-0.3,0.6l-0.7-0.2c0-0.2,0.1-0.3,0.2-0.5c0.1-0.2,0.2-0.3,0.3-0.4s0.3-0.2,0.5-0.3s0.4-0.1,0.6-0.1
		c0.3,0,0.5,0,0.7,0.1c0.2,0.1,0.4,0.2,0.5,0.3c0.1,0.1,0.2,0.3,0.3,0.4s0.1,0.3,0.1,0.5v1.9c0,0.2,0,0.3,0,0.4c0,0.1,0,0.2,0,0.2
		H634c0,0,0-0.1,0-0.2c0-0.1,0-0.2,0-0.3c0,0.1-0.1,0.1-0.2,0.2c-0.1,0.1-0.2,0.1-0.3,0.2c-0.1,0.1-0.2,0.1-0.4,0.2
		s-0.3,0.1-0.5,0.1c-0.2,0-0.4,0-0.5-0.1c-0.2-0.1-0.3-0.1-0.4-0.3c-0.1-0.1-0.2-0.2-0.3-0.4C631.4,388.4,631.4,388.3,631.4,388.1z
		 M632.8,388.6c0.2,0,0.3,0,0.4-0.1s0.3-0.1,0.4-0.2c0.1-0.1,0.2-0.2,0.2-0.4s0.1-0.3,0.1-0.5v-0.2l-1.2,0.2c-0.2,0-0.3,0.1-0.4,0.2
		c-0.1,0.1-0.2,0.2-0.2,0.4c0,0.1,0.1,0.3,0.2,0.4C632.4,388.6,632.6,388.6,632.8,388.6z"/>
	<path fill="#999999" d="M635.8,389.1v-5.8h0.8v5.8H635.8z"/>
	<path fill="#999999" d="M641.2,388c-0.1,0.2-0.1,0.3-0.2,0.5s-0.2,0.3-0.4,0.4s-0.3,0.2-0.5,0.3c-0.2,0.1-0.4,0.1-0.6,0.1
		c-0.3,0-0.5,0-0.7-0.1c-0.2-0.1-0.4-0.2-0.6-0.4c-0.2-0.2-0.3-0.4-0.4-0.6c-0.1-0.3-0.2-0.5-0.2-0.9c0-0.3,0.1-0.6,0.2-0.8
		c0.1-0.2,0.2-0.5,0.4-0.6s0.4-0.3,0.6-0.4c0.2-0.1,0.5-0.1,0.7-0.1c0.3,0,0.6,0,0.8,0.1s0.4,0.2,0.6,0.4s0.3,0.4,0.4,0.6
		c0.1,0.2,0.1,0.5,0.1,0.8c0,0,0,0.1,0,0.1c0,0,0,0.1,0,0.1h-2.9c0,0.2,0,0.3,0.1,0.5c0.1,0.1,0.1,0.3,0.2,0.4
		c0.1,0.1,0.2,0.2,0.4,0.2c0.1,0.1,0.3,0.1,0.5,0.1c0.3,0,0.6-0.1,0.7-0.2c0.2-0.1,0.3-0.3,0.4-0.6L641.2,388z M640.4,386.8
		c0-0.3-0.1-0.5-0.3-0.7c-0.2-0.2-0.4-0.3-0.8-0.3c-0.2,0-0.3,0-0.4,0.1c-0.1,0.1-0.2,0.1-0.3,0.2c-0.1,0.1-0.2,0.2-0.2,0.3
		c-0.1,0.1-0.1,0.2-0.1,0.4H640.4z"/>
	<path fill="#999999" d="M559.6,393.5c0.3,0,0.5,0,0.7,0.1s0.4,0.2,0.5,0.3c0.1,0.1,0.3,0.3,0.3,0.5c0.1,0.2,0.1,0.4,0.1,0.6
		c0,0.3-0.1,0.6-0.2,0.8c-0.2,0.2-0.4,0.4-0.6,0.5c0.2,0,0.3,0.1,0.4,0.2c0.1,0.1,0.2,0.2,0.3,0.3s0.2,0.3,0.2,0.4
		c0,0.1,0.1,0.3,0.1,0.5c0,0.2,0,0.4-0.1,0.6c-0.1,0.2-0.2,0.4-0.4,0.5c-0.2,0.1-0.3,0.2-0.6,0.3c-0.2,0.1-0.5,0.1-0.7,0.1h-2v-5.7
		H559.6z M559.5,396c0.3,0,0.6-0.1,0.7-0.3c0.2-0.2,0.3-0.4,0.3-0.7c0-0.3-0.1-0.5-0.3-0.6c-0.2-0.2-0.4-0.2-0.8-0.2h-0.9v1.8H559.5
		z M559.6,398.5c0.3,0,0.6-0.1,0.8-0.2c0.2-0.2,0.3-0.4,0.3-0.7c0-0.3-0.1-0.5-0.3-0.7c-0.2-0.2-0.4-0.3-0.8-0.3h-1.1v1.8H559.6z"/>
	<path fill="#999999" d="M565.9,398c-0.1,0.2-0.1,0.3-0.2,0.5s-0.2,0.3-0.4,0.4s-0.3,0.2-0.5,0.3c-0.2,0.1-0.4,0.1-0.6,0.1
		c-0.3,0-0.5,0-0.7-0.1c-0.2-0.1-0.4-0.2-0.6-0.4c-0.2-0.2-0.3-0.4-0.4-0.6c-0.1-0.3-0.2-0.5-0.2-0.9c0-0.3,0.1-0.6,0.2-0.8
		c0.1-0.2,0.2-0.5,0.4-0.6s0.4-0.3,0.6-0.4c0.2-0.1,0.5-0.1,0.7-0.1c0.3,0,0.6,0,0.8,0.1s0.4,0.2,0.6,0.4s0.3,0.4,0.4,0.6
		c0.1,0.2,0.1,0.5,0.1,0.8c0,0,0,0.1,0,0.1c0,0,0,0.1,0,0.1H563c0,0.2,0,0.3,0.1,0.5c0.1,0.1,0.1,0.3,0.2,0.4
		c0.1,0.1,0.2,0.2,0.4,0.2c0.1,0.1,0.3,0.1,0.5,0.1c0.3,0,0.6-0.1,0.7-0.2c0.2-0.1,0.3-0.3,0.4-0.6L565.9,398z M565.1,396.8
		c0-0.3-0.1-0.5-0.3-0.7c-0.2-0.2-0.4-0.3-0.8-0.3c-0.2,0-0.3,0-0.4,0.1c-0.1,0.1-0.2,0.1-0.3,0.2c-0.1,0.1-0.2,0.2-0.2,0.3
		c-0.1,0.1-0.1,0.2-0.1,0.4H565.1z"/>
	<path fill="#999999" d="M566.6,398.1c0-0.2,0-0.3,0.1-0.5s0.1-0.3,0.2-0.3c0.1-0.1,0.2-0.2,0.4-0.2s0.3-0.1,0.5-0.1l1-0.2
		c0.1,0,0.2-0.1,0.2-0.1c0-0.1,0.1-0.1,0.1-0.2c0-0.2-0.1-0.3-0.2-0.5s-0.3-0.2-0.6-0.2c-0.3,0-0.5,0.1-0.6,0.2
		c-0.1,0.1-0.2,0.3-0.3,0.6l-0.7-0.2c0-0.2,0.1-0.3,0.2-0.5c0.1-0.2,0.2-0.3,0.3-0.4s0.3-0.2,0.5-0.3c0.2-0.1,0.4-0.1,0.6-0.1
		c0.3,0,0.5,0,0.7,0.1c0.2,0.1,0.4,0.2,0.5,0.3c0.1,0.1,0.2,0.3,0.3,0.4c0.1,0.2,0.1,0.3,0.1,0.5v1.9c0,0.2,0,0.3,0,0.4
		c0,0.1,0,0.2,0,0.2h-0.7c0,0,0-0.1,0-0.2s0-0.2,0-0.3c0,0.1-0.1,0.1-0.2,0.2c-0.1,0.1-0.2,0.1-0.3,0.2c-0.1,0.1-0.2,0.1-0.4,0.2
		c-0.1,0-0.3,0.1-0.5,0.1c-0.2,0-0.4,0-0.5-0.1c-0.2-0.1-0.3-0.1-0.4-0.3c-0.1-0.1-0.2-0.2-0.3-0.4
		C566.6,398.4,566.6,398.3,566.6,398.1z M568,398.6c0.2,0,0.3,0,0.4-0.1c0.1,0,0.3-0.1,0.4-0.2c0.1-0.1,0.2-0.2,0.2-0.4
		c0.1-0.1,0.1-0.3,0.1-0.5v-0.2l-1.2,0.2c-0.2,0-0.3,0.1-0.4,0.2c-0.1,0.1-0.2,0.2-0.2,0.4c0,0.1,0.1,0.3,0.2,0.4
		C567.7,398.6,567.8,398.6,568,398.6z"/>
	<path fill="#999999" d="M573.2,396.1c-0.1,0-0.2,0-0.3,0c-0.3,0-0.6,0.1-0.8,0.3c-0.2,0.2-0.3,0.5-0.3,0.9v1.9H571v-3.8h0.7v0.7
		c0.1-0.1,0.2-0.3,0.2-0.4c0.1-0.1,0.2-0.2,0.3-0.2c0.1-0.1,0.2-0.1,0.3-0.1s0.2,0,0.3,0c0.1,0,0.1,0,0.1,0c0,0,0.1,0,0.1,0V396.1z"
		/>
	<path fill="#999999" d="M573.2,398.6c0-0.1,0.1-0.3,0.2-0.4s0.3-0.2,0.4-0.2c0.2,0,0.3,0.1,0.5,0.2c0.1,0.1,0.2,0.3,0.2,0.6
		c0,0.3,0,0.5-0.1,0.7c-0.1,0.2-0.2,0.3-0.3,0.5c-0.1,0.1-0.2,0.2-0.4,0.3c-0.1,0.1-0.3,0.1-0.4,0.1V400c0.1,0,0.2-0.1,0.3-0.1
		c0.1-0.1,0.2-0.1,0.2-0.2c0.1-0.1,0.1-0.2,0.1-0.3c0-0.1,0.1-0.2,0.1-0.3c0,0,0,0-0.1,0c0,0-0.1,0-0.1,0c-0.2,0-0.3,0-0.4-0.1
		C573.2,398.9,573.2,398.8,573.2,398.6z"/>
	<path fill="#999999" d="M577.7,399.1v-5.7h2c0.4,0,0.7,0.1,1,0.2c0.3,0.1,0.6,0.3,0.9,0.5c0.2,0.2,0.4,0.5,0.6,0.9s0.2,0.8,0.2,1.2
		s-0.1,0.9-0.2,1.2c-0.1,0.4-0.3,0.6-0.6,0.9c-0.3,0.2-0.5,0.4-0.9,0.5s-0.7,0.2-1,0.2H577.7z M579.6,398.4c0.3,0,0.5,0,0.7-0.1
		c0.2-0.1,0.4-0.2,0.6-0.4c0.2-0.2,0.3-0.4,0.4-0.7s0.2-0.6,0.2-0.9s-0.1-0.7-0.2-0.9s-0.2-0.5-0.4-0.7s-0.4-0.3-0.6-0.4
		s-0.5-0.1-0.7-0.1h-1.2v4.3H579.6z"/>
	<path fill="#999999" d="M585,395.2c0.3,0,0.6,0.1,0.8,0.2c0.2,0.1,0.4,0.2,0.6,0.4s0.3,0.4,0.4,0.6s0.1,0.5,0.1,0.8
		c0,0.3,0,0.6-0.1,0.8c-0.1,0.3-0.2,0.5-0.4,0.6s-0.4,0.3-0.6,0.4c-0.2,0.1-0.5,0.2-0.8,0.2c-0.3,0-0.6-0.1-0.8-0.2
		c-0.2-0.1-0.4-0.2-0.6-0.4s-0.3-0.4-0.4-0.6c-0.1-0.3-0.1-0.5-0.1-0.8c0-0.3,0-0.6,0.1-0.8s0.2-0.5,0.4-0.6s0.4-0.3,0.6-0.4
		C584.5,395.2,584.7,395.2,585,395.2z M585,398.6c0.2,0,0.3,0,0.5-0.1c0.1-0.1,0.3-0.1,0.4-0.3c0.1-0.1,0.2-0.3,0.3-0.4
		c0.1-0.2,0.1-0.4,0.1-0.6c0-0.2,0-0.4-0.1-0.6c-0.1-0.2-0.2-0.3-0.3-0.4c-0.1-0.1-0.2-0.2-0.4-0.3c-0.1-0.1-0.3-0.1-0.5-0.1
		s-0.3,0-0.5,0.1c-0.1,0.1-0.3,0.1-0.4,0.3c-0.1,0.1-0.2,0.3-0.3,0.4s-0.1,0.4-0.1,0.6c0,0.2,0,0.4,0.1,0.6s0.2,0.3,0.3,0.4
		s0.2,0.2,0.4,0.3C584.7,398.6,584.8,398.6,585,398.6z"/>
	<path fill="#999999" d="M588.4,399.2c0,0.3,0.1,0.5,0.3,0.7s0.4,0.3,0.7,0.3c0.4,0,0.7-0.1,0.9-0.3s0.3-0.5,0.3-0.9v-0.6
		c-0.1,0.2-0.2,0.3-0.4,0.4c-0.2,0.1-0.4,0.2-0.7,0.2c-0.3,0-0.5,0-0.7-0.1c-0.2-0.1-0.4-0.2-0.6-0.4c-0.2-0.2-0.3-0.4-0.4-0.6
		s-0.1-0.5-0.1-0.8c0-0.3,0-0.5,0.1-0.7c0.1-0.2,0.2-0.4,0.4-0.6s0.3-0.3,0.6-0.4c0.2-0.1,0.5-0.1,0.7-0.1c0.3,0,0.5,0.1,0.7,0.2
		s0.3,0.3,0.4,0.4v-0.5h0.7v3.6c0,0.2,0,0.5-0.1,0.7c-0.1,0.2-0.2,0.4-0.3,0.6c-0.2,0.2-0.3,0.3-0.6,0.4c-0.2,0.1-0.5,0.2-0.9,0.2
		c-0.2,0-0.5,0-0.7-0.1c-0.2-0.1-0.4-0.2-0.5-0.3c-0.2-0.1-0.3-0.3-0.4-0.5c-0.1-0.2-0.2-0.4-0.2-0.6L588.4,399.2z M589.5,398.3
		c0.3,0,0.6-0.1,0.8-0.3c0.2-0.2,0.3-0.5,0.3-0.9s-0.1-0.7-0.3-0.9c-0.2-0.2-0.5-0.3-0.8-0.3c-0.3,0-0.6,0.1-0.8,0.3
		c-0.2,0.2-0.3,0.5-0.3,0.9c0,0.4,0.1,0.7,0.3,0.9C588.9,398.2,589.2,398.3,589.5,398.3z"/>
	<path fill="#999999" d="M592.5,398.6c0-0.1,0.1-0.3,0.2-0.4s0.3-0.2,0.4-0.2s0.3,0.1,0.5,0.2c0.1,0.1,0.2,0.3,0.2,0.6
		c0,0.3,0,0.5-0.1,0.7c-0.1,0.2-0.2,0.3-0.3,0.5c-0.1,0.1-0.2,0.2-0.4,0.3c-0.1,0.1-0.3,0.1-0.4,0.1V400c0.1,0,0.2-0.1,0.3-0.1
		c0.1-0.1,0.2-0.1,0.2-0.2c0.1-0.1,0.1-0.2,0.1-0.3c0-0.1,0.1-0.2,0.1-0.3c0,0,0,0-0.1,0c0,0-0.1,0-0.1,0c-0.1,0-0.3,0-0.4-0.1
		C592.5,398.9,592.5,398.8,592.5,398.6z"/>
	<path fill="#999999" d="M599.4,399.3c-0.4,0-0.7-0.1-1.1-0.2c-0.3-0.1-0.6-0.3-0.9-0.6c-0.3-0.3-0.5-0.6-0.6-0.9
		c-0.2-0.4-0.2-0.8-0.2-1.3s0.1-0.9,0.2-1.3c0.2-0.4,0.4-0.7,0.6-0.9c0.3-0.3,0.6-0.4,0.9-0.6c0.3-0.1,0.7-0.2,1-0.2
		c0.3,0,0.6,0,0.9,0.1s0.5,0.2,0.7,0.4c0.2,0.2,0.4,0.3,0.5,0.6c0.1,0.2,0.3,0.5,0.3,0.7l-0.7,0.3c-0.1-0.4-0.3-0.8-0.6-1
		c-0.3-0.2-0.7-0.3-1.2-0.3c-0.3,0-0.5,0-0.7,0.1c-0.2,0.1-0.5,0.2-0.6,0.4s-0.3,0.4-0.5,0.7c-0.1,0.3-0.2,0.6-0.2,1s0.1,0.7,0.2,1
		c0.1,0.3,0.3,0.5,0.5,0.7s0.4,0.3,0.6,0.4c0.2,0.1,0.5,0.1,0.7,0.1c0.2,0,0.5,0,0.7-0.1s0.4-0.2,0.5-0.3c0.2-0.1,0.3-0.3,0.4-0.4
		s0.2-0.3,0.2-0.5l0.7,0.3c-0.1,0.3-0.2,0.5-0.3,0.7c-0.1,0.2-0.3,0.4-0.5,0.6c-0.2,0.2-0.5,0.3-0.7,0.4
		C600.1,399.2,599.8,399.3,599.4,399.3z"/>
	<path fill="#999999" d="M602.5,398.1c0-0.2,0-0.3,0.1-0.5s0.1-0.3,0.2-0.3c0.1-0.1,0.2-0.2,0.4-0.2s0.3-0.1,0.5-0.1l1-0.2
		c0.1,0,0.2-0.1,0.2-0.1c0-0.1,0.1-0.1,0.1-0.2c0-0.2-0.1-0.3-0.2-0.5s-0.3-0.2-0.6-0.2c-0.3,0-0.5,0.1-0.6,0.2
		c-0.1,0.1-0.2,0.3-0.3,0.6l-0.7-0.2c0-0.2,0.1-0.3,0.2-0.5c0.1-0.2,0.2-0.3,0.3-0.4s0.3-0.2,0.5-0.3c0.2-0.1,0.4-0.1,0.6-0.1
		c0.3,0,0.5,0,0.7,0.1c0.2,0.1,0.4,0.2,0.5,0.3c0.1,0.1,0.2,0.3,0.3,0.4c0.1,0.2,0.1,0.3,0.1,0.5v1.9c0,0.2,0,0.3,0,0.4
		c0,0.1,0,0.2,0,0.2h-0.7c0,0,0-0.1,0-0.2s0-0.2,0-0.3c0,0.1-0.1,0.1-0.2,0.2c-0.1,0.1-0.2,0.1-0.3,0.2c-0.1,0.1-0.2,0.1-0.4,0.2
		c-0.1,0-0.3,0.1-0.5,0.1c-0.2,0-0.4,0-0.5-0.1c-0.2-0.1-0.3-0.1-0.4-0.3c-0.1-0.1-0.2-0.2-0.3-0.4
		C602.5,398.4,602.5,398.3,602.5,398.1z M603.9,398.6c0.2,0,0.3,0,0.4-0.1c0.1,0,0.3-0.1,0.4-0.2c0.1-0.1,0.2-0.2,0.2-0.4
		c0.1-0.1,0.1-0.3,0.1-0.5v-0.2l-1.2,0.2c-0.2,0-0.3,0.1-0.4,0.2c-0.1,0.1-0.2,0.2-0.2,0.4c0,0.1,0.1,0.3,0.2,0.4
		C603.6,398.6,603.7,398.6,603.9,398.6z"/>
	<path fill="#999999" d="M607.9,395.3h0.8v0.7h-0.8v2c0,0.2,0,0.3,0.1,0.4c0.1,0.1,0.2,0.1,0.4,0.1c0,0,0.1,0,0.2,0
		c0.1,0,0.1,0,0.1,0v0.6c0,0-0.1,0-0.2,0c-0.1,0-0.2,0-0.3,0c-0.3,0-0.6-0.1-0.8-0.3s-0.3-0.5-0.3-0.8V396h-0.7v-0.7h0.2
		c0.2,0,0.4-0.1,0.5-0.2c0.1-0.1,0.1-0.3,0.1-0.4v-0.6h0.7V395.3z"/>
	<path fill="#999999" d="M609.7,398.6c0-0.1,0.1-0.3,0.2-0.4s0.3-0.2,0.4-0.2c0.2,0,0.3,0.1,0.5,0.2c0.1,0.1,0.2,0.3,0.2,0.6
		c0,0.3,0,0.5-0.1,0.7c-0.1,0.2-0.2,0.3-0.3,0.5c-0.1,0.1-0.2,0.2-0.4,0.3c-0.1,0.1-0.3,0.1-0.4,0.1V400c0.1,0,0.2-0.1,0.3-0.1
		c0.1-0.1,0.2-0.1,0.2-0.2c0.1-0.1,0.1-0.2,0.1-0.3c0-0.1,0.1-0.2,0.1-0.3c0,0,0,0-0.1,0c0,0-0.1,0-0.1,0c-0.2,0-0.3,0-0.4-0.1
		C609.8,398.9,609.7,398.8,609.7,398.6z"/>
	<path fill="#999999" d="M616.2,399.3c-0.3,0-0.6,0-0.8-0.1s-0.5-0.2-0.6-0.4c-0.2-0.2-0.3-0.4-0.4-0.6c-0.1-0.3-0.2-0.6-0.2-0.9
		v-3.7h0.8v3.7c0,0.4,0.1,0.8,0.3,1c0.2,0.2,0.5,0.4,0.9,0.4s0.7-0.1,0.9-0.4s0.3-0.6,0.3-1v-3.7h0.8v3.7c0,0.3-0.1,0.6-0.2,0.9
		c-0.1,0.3-0.2,0.5-0.4,0.6c-0.2,0.2-0.4,0.3-0.6,0.4S616.5,399.3,616.2,399.3z"/>
	<path fill="#999999" d="M620.2,399.1h-0.8v-3.8h0.7v0.6c0.1-0.2,0.3-0.4,0.5-0.5c0.2-0.1,0.4-0.2,0.7-0.2c0.2,0,0.4,0,0.6,0.1
		c0.2,0.1,0.3,0.2,0.4,0.3c0.1,0.1,0.2,0.3,0.3,0.5s0.1,0.4,0.1,0.6v2.4H622v-2.3c0-0.1,0-0.3,0-0.4c0-0.1-0.1-0.2-0.2-0.3
		c-0.1-0.1-0.2-0.2-0.3-0.2s-0.3-0.1-0.4-0.1c-0.1,0-0.3,0-0.4,0.1c-0.1,0.1-0.2,0.1-0.3,0.2c-0.1,0.1-0.1,0.2-0.2,0.3
		s-0.1,0.3-0.1,0.4V399.1z"/>
	<path fill="#999999" d="M623.8,393.8c0-0.2,0.1-0.3,0.2-0.4c0.1-0.1,0.2-0.2,0.4-0.2c0.2,0,0.3,0.1,0.4,0.2
		c0.1,0.1,0.2,0.2,0.2,0.4c0,0.1-0.1,0.3-0.2,0.4c-0.1,0.1-0.2,0.2-0.4,0.2c-0.2,0-0.3-0.1-0.4-0.2
		C623.8,394.1,623.8,394,623.8,393.8z M623.9,399.1v-3.8h0.7v3.8H623.9z"/>
	<path fill="#999999" d="M627.6,395.9c-0.2,0-0.3,0-0.4,0.1c-0.1,0.1-0.3,0.1-0.4,0.3c-0.1,0.1-0.2,0.3-0.3,0.4
		c-0.1,0.2-0.1,0.4-0.1,0.6c0,0.2,0,0.4,0.1,0.6c0.1,0.2,0.2,0.3,0.3,0.4c0.1,0.1,0.2,0.2,0.4,0.3s0.3,0.1,0.4,0.1
		c0.2,0,0.3,0,0.5-0.1c0.1-0.1,0.2-0.1,0.3-0.2c0.1-0.1,0.1-0.2,0.2-0.3c0-0.1,0.1-0.2,0.1-0.3l0.7,0.3c0,0.1-0.1,0.3-0.2,0.4
		c-0.1,0.1-0.2,0.3-0.4,0.4c-0.1,0.1-0.3,0.2-0.5,0.3c-0.2,0.1-0.4,0.1-0.7,0.1c-0.3,0-0.5-0.1-0.8-0.2c-0.2-0.1-0.4-0.2-0.6-0.4
		c-0.2-0.2-0.3-0.4-0.4-0.6c-0.1-0.2-0.1-0.5-0.1-0.8c0-0.3,0-0.6,0.1-0.8c0.1-0.3,0.2-0.5,0.4-0.6c0.2-0.2,0.4-0.3,0.6-0.4
		c0.2-0.1,0.5-0.2,0.8-0.2c0.3,0,0.5,0,0.7,0.1c0.2,0.1,0.4,0.2,0.5,0.3c0.1,0.1,0.3,0.3,0.3,0.4c0.1,0.1,0.1,0.3,0.2,0.4l-0.7,0.3
		c0-0.1-0.1-0.2-0.1-0.3c0-0.1-0.1-0.2-0.2-0.3s-0.2-0.1-0.3-0.2S627.8,395.9,627.6,395.9z"/>
	<path fill="#999999" d="M631.8,395.2c0.3,0,0.6,0.1,0.8,0.2c0.2,0.1,0.4,0.2,0.6,0.4s0.3,0.4,0.4,0.6s0.1,0.5,0.1,0.8
		c0,0.3,0,0.6-0.1,0.8c-0.1,0.3-0.2,0.5-0.4,0.6s-0.4,0.3-0.6,0.4c-0.2,0.1-0.5,0.2-0.8,0.2c-0.3,0-0.6-0.1-0.8-0.2
		c-0.2-0.1-0.4-0.2-0.6-0.4s-0.3-0.4-0.4-0.6c-0.1-0.3-0.1-0.5-0.1-0.8c0-0.3,0-0.6,0.1-0.8s0.2-0.5,0.4-0.6s0.4-0.3,0.6-0.4
		C631.3,395.2,631.5,395.2,631.8,395.2z M631.8,398.6c0.2,0,0.3,0,0.5-0.1c0.1-0.1,0.3-0.1,0.4-0.3c0.1-0.1,0.2-0.3,0.3-0.4
		c0.1-0.2,0.1-0.4,0.1-0.6c0-0.2,0-0.4-0.1-0.6c-0.1-0.2-0.2-0.3-0.3-0.4c-0.1-0.1-0.2-0.2-0.4-0.3c-0.1-0.1-0.3-0.1-0.5-0.1
		s-0.3,0-0.5,0.1c-0.1,0.1-0.3,0.1-0.4,0.3c-0.1,0.1-0.2,0.3-0.3,0.4s-0.1,0.4-0.1,0.6c0,0.2,0,0.4,0.1,0.6s0.2,0.3,0.3,0.4
		s0.2,0.2,0.4,0.3C631.5,398.6,631.7,398.6,631.8,398.6z"/>
	<path fill="#999999" d="M636.9,396.1c-0.1,0-0.2,0-0.3,0c-0.3,0-0.6,0.1-0.8,0.3c-0.2,0.2-0.3,0.5-0.3,0.9v1.9h-0.8v-3.8h0.7v0.7
		c0.1-0.1,0.2-0.3,0.2-0.4c0.1-0.1,0.2-0.2,0.3-0.2c0.1-0.1,0.2-0.1,0.3-0.1s0.2,0,0.3,0c0.1,0,0.1,0,0.1,0c0,0,0.1,0,0.1,0V396.1z"
		/>
	<path fill="#999999" d="M638.4,399.1h-0.8v-3.8h0.7v0.6c0.1-0.2,0.3-0.4,0.5-0.5c0.2-0.1,0.4-0.2,0.7-0.2c0.2,0,0.4,0,0.6,0.1
		c0.2,0.1,0.3,0.2,0.4,0.3c0.1,0.1,0.2,0.3,0.3,0.5s0.1,0.4,0.1,0.6v2.4h-0.8v-2.3c0-0.1,0-0.3,0-0.4c0-0.1-0.1-0.2-0.2-0.3
		c-0.1-0.1-0.2-0.2-0.3-0.2s-0.3-0.1-0.4-0.1c-0.1,0-0.3,0-0.4,0.1c-0.1,0.1-0.2,0.1-0.3,0.2c-0.1,0.1-0.1,0.2-0.2,0.3
		s-0.1,0.3-0.1,0.4V399.1z"/>
</g>
<g>
	<path fill="#9013FE" d="M33.6,399.1h-1.1l4.1-8.5h1.1L33.6,399.1z"/>
	<path fill="#9013FE" d="M38,399.1v-5.8h1.1v0.8c0.2-0.3,0.4-0.6,0.8-0.7s0.7-0.2,1-0.2c0.4,0,0.7,0.1,1,0.3
		c0.3,0.2,0.6,0.5,0.7,0.8c0.2-0.4,0.5-0.7,0.9-0.9s0.7-0.2,1.1-0.2c0.2,0,0.5,0,0.7,0.1c0.2,0.1,0.5,0.2,0.6,0.4
		c0.2,0.2,0.3,0.4,0.5,0.7c0.1,0.3,0.2,0.6,0.2,1v3.7h-1.1v-3.6c0-0.4-0.1-0.7-0.3-0.9c-0.2-0.3-0.5-0.4-0.9-0.4
		c-0.4,0-0.7,0.1-1,0.4c-0.2,0.3-0.4,0.6-0.4,1v3.5h-1.1v-3.6c0-0.4-0.1-0.7-0.3-0.9c-0.2-0.3-0.5-0.4-0.9-0.4c-0.4,0-0.7,0.1-1,0.4
		c-0.2,0.3-0.4,0.6-0.4,1.1v3.5H38z"/>
	<path fill="#9013FE" d="M47.9,397.6c0-0.3,0-0.5,0.1-0.7c0.1-0.2,0.2-0.4,0.4-0.5c0.2-0.1,0.3-0.3,0.6-0.3c0.2-0.1,0.4-0.2,0.7-0.2
		l1.6-0.2c0.2,0,0.3-0.1,0.4-0.2c0.1-0.1,0.1-0.2,0.1-0.3c0-0.3-0.1-0.5-0.3-0.7c-0.2-0.2-0.5-0.3-1-0.3c-0.4,0-0.7,0.1-0.9,0.3
		c-0.2,0.2-0.3,0.5-0.4,0.8l-1.1-0.3c0-0.3,0.1-0.5,0.2-0.8s0.3-0.4,0.5-0.6s0.5-0.3,0.7-0.4c0.3-0.1,0.6-0.1,0.9-0.1
		c0.4,0,0.8,0.1,1.1,0.2c0.3,0.1,0.6,0.3,0.7,0.5c0.2,0.2,0.3,0.4,0.4,0.7c0.1,0.3,0.1,0.5,0.1,0.8v2.9c0,0.3,0,0.5,0,0.6
		c0,0.2,0,0.3,0,0.3h-1.1c0-0.1,0-0.2,0-0.3s0-0.3,0-0.5c-0.1,0.1-0.1,0.2-0.3,0.3c-0.1,0.1-0.2,0.2-0.4,0.3
		c-0.2,0.1-0.3,0.2-0.5,0.2c-0.2,0.1-0.4,0.1-0.7,0.1c-0.3,0-0.6,0-0.8-0.1c-0.2-0.1-0.4-0.2-0.6-0.4s-0.3-0.3-0.4-0.5
		C48,398,47.9,397.8,47.9,397.6z M50,398.4c0.2,0,0.4,0,0.7-0.1c0.2-0.1,0.4-0.2,0.5-0.3c0.1-0.1,0.3-0.3,0.4-0.5s0.1-0.5,0.1-0.8
		v-0.3l-1.8,0.3c-0.2,0-0.4,0.1-0.6,0.3c-0.2,0.1-0.2,0.3-0.2,0.6c0,0.2,0.1,0.4,0.3,0.6C49.5,398.3,49.7,398.4,50,398.4z"/>
	<path fill="#9013FE" d="M54.6,401.6l1.4-3l-2.5-5.1h1.3l1.8,4l1.7-4h1.2l-3.8,8.2H54.6z"/>
	<path fill="#9013FE" d="M60.2,397.6c0-0.3,0-0.5,0.1-0.7c0.1-0.2,0.2-0.4,0.4-0.5c0.2-0.1,0.3-0.3,0.6-0.3c0.2-0.1,0.4-0.2,0.7-0.2
		l1.6-0.2c0.2,0,0.3-0.1,0.4-0.2c0.1-0.1,0.1-0.2,0.1-0.3c0-0.3-0.1-0.5-0.3-0.7c-0.2-0.2-0.5-0.3-1-0.3c-0.4,0-0.7,0.1-0.9,0.3
		c-0.2,0.2-0.3,0.5-0.4,0.8l-1.1-0.3c0-0.3,0.1-0.5,0.2-0.8s0.3-0.4,0.5-0.6s0.5-0.3,0.7-0.4c0.3-0.1,0.6-0.1,0.9-0.1
		c0.4,0,0.8,0.1,1.1,0.2c0.3,0.1,0.6,0.3,0.7,0.5c0.2,0.2,0.3,0.4,0.4,0.7c0.1,0.3,0.1,0.5,0.1,0.8v2.9c0,0.3,0,0.5,0,0.6
		c0,0.2,0,0.3,0,0.3H64c0-0.1,0-0.2,0-0.3s0-0.3,0-0.5c-0.1,0.1-0.1,0.2-0.3,0.3c-0.1,0.1-0.2,0.2-0.4,0.3c-0.2,0.1-0.3,0.2-0.5,0.2
		c-0.2,0.1-0.4,0.1-0.7,0.1c-0.3,0-0.6,0-0.8-0.1c-0.2-0.1-0.4-0.2-0.6-0.4s-0.3-0.3-0.4-0.5C60.2,398,60.2,397.8,60.2,397.6z
		 M62.3,398.4c0.2,0,0.4,0,0.7-0.1c0.2-0.1,0.4-0.2,0.5-0.3c0.1-0.1,0.3-0.3,0.4-0.5s0.1-0.5,0.1-0.8v-0.3l-1.8,0.3
		c-0.2,0-0.4,0.1-0.6,0.3c-0.2,0.1-0.2,0.3-0.2,0.6c0,0.2,0.1,0.4,0.3,0.6C61.7,398.3,62,398.4,62.3,398.4z"/>
	<path fill="#9013FE" d="M67.9,399.1h-1.1v-5.8h1.1v0.8c0.2-0.4,0.5-0.6,0.8-0.8c0.3-0.2,0.6-0.2,1-0.2c0.3,0,0.6,0.1,0.9,0.2
		c0.3,0.1,0.5,0.3,0.6,0.5c0.2,0.2,0.3,0.4,0.4,0.7c0.1,0.3,0.1,0.6,0.1,0.9v3.7h-1.1v-3.5c0-0.2,0-0.4-0.1-0.6
		c0-0.2-0.1-0.3-0.2-0.5c-0.1-0.1-0.2-0.2-0.4-0.3c-0.2-0.1-0.4-0.1-0.6-0.1c-0.2,0-0.4,0-0.6,0.1s-0.3,0.2-0.4,0.3
		c-0.1,0.1-0.2,0.3-0.3,0.5c-0.1,0.2-0.1,0.4-0.1,0.6V399.1z"/>
	<path fill="#9013FE" d="M76.3,395.8l2.5,3.3h-1.4l-1.9-2.5l-0.8,0.8v1.7h-1.1v-8.7h1.1v5.5l2.5-2.6h1.6L76.3,395.8z"/>
	<path fill="#9013FE" d="M83.6,398.3c-0.1,0.3-0.4,0.5-0.7,0.7c-0.3,0.2-0.7,0.3-1.1,0.3c-0.4,0-0.8-0.1-1.1-0.2s-0.6-0.4-0.9-0.6
		c-0.2-0.3-0.4-0.6-0.5-1s-0.2-0.8-0.2-1.2c0-0.4,0.1-0.8,0.2-1.2c0.1-0.4,0.3-0.7,0.6-1c0.2-0.3,0.5-0.5,0.9-0.7s0.7-0.2,1.1-0.2
		c0.3,0,0.5,0,0.7,0.1c0.2,0.1,0.4,0.1,0.5,0.2c0.1,0.1,0.3,0.2,0.4,0.3c0.1,0.1,0.2,0.2,0.2,0.4v-3.7h1.1v7.6c0,0.3,0,0.5,0,0.7
		c0,0.2,0,0.3,0,0.4h-1.1c0-0.1,0-0.2,0-0.3C83.6,398.7,83.6,398.5,83.6,398.3L83.6,398.3z M80.2,396.2c0,0.3,0,0.6,0.1,0.8
		s0.2,0.5,0.3,0.7c0.1,0.2,0.3,0.3,0.5,0.4c0.2,0.1,0.4,0.2,0.7,0.2c0.3,0,0.5-0.1,0.7-0.2s0.4-0.3,0.5-0.4c0.1-0.2,0.3-0.4,0.3-0.7
		s0.1-0.5,0.1-0.8c0-0.6-0.1-1.1-0.4-1.5s-0.7-0.6-1.2-0.6c-0.3,0-0.5,0-0.7,0.1c-0.2,0.1-0.4,0.2-0.5,0.4c-0.1,0.2-0.3,0.4-0.3,0.6
		S80.2,395.9,80.2,396.2z"/>
	<path fill="#9013FE" d="M87.7,399.1h-1.1v-8.7h1.1v3.6c0.2-0.3,0.5-0.5,0.8-0.6c0.3-0.1,0.6-0.2,1-0.2c0.3,0,0.6,0.1,0.9,0.2
		c0.3,0.1,0.5,0.3,0.6,0.5c0.2,0.2,0.3,0.4,0.4,0.7c0.1,0.3,0.1,0.6,0.1,0.9v3.7h-1.1v-3.5c0-0.2,0-0.4-0.1-0.6
		c0-0.2-0.1-0.3-0.2-0.5c-0.1-0.1-0.2-0.2-0.4-0.3c-0.2-0.1-0.4-0.1-0.6-0.1c-0.2,0-0.4,0-0.6,0.1c-0.2,0.1-0.3,0.2-0.4,0.3
		c-0.1,0.1-0.2,0.3-0.3,0.5c-0.1,0.2-0.1,0.4-0.1,0.6V399.1z"/>
	<path fill="#9013FE" d="M93,397.6c0-0.3,0-0.5,0.1-0.7c0.1-0.2,0.2-0.4,0.4-0.5c0.2-0.1,0.3-0.3,0.6-0.3c0.2-0.1,0.4-0.2,0.7-0.2
		l1.6-0.2c0.2,0,0.3-0.1,0.4-0.2c0.1-0.1,0.1-0.2,0.1-0.3c0-0.3-0.1-0.5-0.3-0.7c-0.2-0.2-0.5-0.3-1-0.3c-0.4,0-0.7,0.1-0.9,0.3
		c-0.2,0.2-0.3,0.5-0.4,0.8l-1.1-0.3c0-0.3,0.1-0.5,0.2-0.8s0.3-0.4,0.5-0.6s0.5-0.3,0.7-0.4c0.3-0.1,0.6-0.1,0.9-0.1
		c0.4,0,0.8,0.1,1.1,0.2c0.3,0.1,0.6,0.3,0.7,0.5c0.2,0.2,0.3,0.4,0.4,0.7c0.1,0.3,0.1,0.5,0.1,0.8v2.9c0,0.3,0,0.5,0,0.6
		c0,0.2,0,0.3,0,0.3h-1.1c0-0.1,0-0.2,0-0.3s0-0.3,0-0.5c-0.1,0.1-0.1,0.2-0.3,0.3c-0.1,0.1-0.2,0.2-0.4,0.3
		c-0.2,0.1-0.3,0.2-0.5,0.2c-0.2,0.1-0.4,0.1-0.7,0.1c-0.3,0-0.6,0-0.8-0.1c-0.2-0.1-0.4-0.2-0.6-0.4s-0.3-0.3-0.4-0.5
		C93,398,93,397.8,93,397.6z M95.1,398.4c0.2,0,0.4,0,0.7-0.1c0.2-0.1,0.4-0.2,0.5-0.3c0.1-0.1,0.3-0.3,0.4-0.5s0.1-0.5,0.1-0.8
		v-0.3l-1.8,0.3c-0.2,0-0.4,0.1-0.6,0.3c-0.2,0.1-0.2,0.3-0.2,0.6c0,0.2,0.1,0.4,0.3,0.6C94.6,398.3,94.8,398.4,95.1,398.4z"/>
	<path fill="#9013FE" d="M104,393.4l1.5,4.3l1.3-4.3h1.2l-1.9,5.8H105l-1.5-4.4l-1.5,4.4h-1.2l-1.9-5.8h1.2l1.3,4.3l1.5-4.3H104z"/>
	<path fill="#9013FE" d="M108.7,397.6c0-0.3,0-0.5,0.1-0.7c0.1-0.2,0.2-0.4,0.4-0.5c0.2-0.1,0.3-0.3,0.6-0.3
		c0.2-0.1,0.4-0.2,0.7-0.2l1.6-0.2c0.2,0,0.3-0.1,0.4-0.2c0.1-0.1,0.1-0.2,0.1-0.3c0-0.3-0.1-0.5-0.3-0.7c-0.2-0.2-0.5-0.3-1-0.3
		c-0.4,0-0.7,0.1-0.9,0.3c-0.2,0.2-0.3,0.5-0.4,0.8l-1.1-0.3c0-0.3,0.1-0.5,0.2-0.8s0.3-0.4,0.5-0.6s0.5-0.3,0.7-0.4
		c0.3-0.1,0.6-0.1,0.9-0.1c0.4,0,0.8,0.1,1.1,0.2c0.3,0.1,0.6,0.3,0.7,0.5c0.2,0.2,0.3,0.4,0.4,0.7c0.1,0.3,0.1,0.5,0.1,0.8v2.9
		c0,0.3,0,0.5,0,0.6c0,0.2,0,0.3,0,0.3h-1.1c0-0.1,0-0.2,0-0.3s0-0.3,0-0.5c-0.1,0.1-0.1,0.2-0.3,0.3c-0.1,0.1-0.2,0.2-0.4,0.3
		c-0.2,0.1-0.3,0.2-0.5,0.2c-0.2,0.1-0.4,0.1-0.7,0.1c-0.3,0-0.6,0-0.8-0.1c-0.2-0.1-0.4-0.2-0.6-0.4s-0.3-0.3-0.4-0.5
		C108.8,398,108.7,397.8,108.7,397.6z M110.8,398.4c0.2,0,0.4,0,0.7-0.1c0.2-0.1,0.4-0.2,0.5-0.3c0.1-0.1,0.3-0.3,0.4-0.5
		s0.1-0.5,0.1-0.8v-0.3l-1.8,0.3c-0.2,0-0.4,0.1-0.6,0.3c-0.2,0.1-0.2,0.3-0.2,0.6c0,0.2,0.1,0.4,0.3,0.6
		C110.3,398.3,110.5,398.4,110.8,398.4z"/>
	<path fill="#9013FE" d="M116.5,399.1h-1.1v-5.8h1.1v0.8c0.2-0.4,0.5-0.6,0.8-0.8c0.3-0.2,0.6-0.2,1-0.2c0.3,0,0.6,0.1,0.9,0.2
		c0.3,0.1,0.5,0.3,0.6,0.5c0.2,0.2,0.3,0.4,0.4,0.7c0.1,0.3,0.1,0.6,0.1,0.9v3.7h-1.1v-3.5c0-0.2,0-0.4-0.1-0.6
		c0-0.2-0.1-0.3-0.2-0.5c-0.1-0.1-0.2-0.2-0.4-0.3c-0.2-0.1-0.4-0.1-0.6-0.1c-0.2,0-0.4,0-0.6,0.1s-0.3,0.2-0.4,0.3
		c-0.1,0.1-0.2,0.3-0.3,0.5c-0.1,0.2-0.1,0.4-0.1,0.6V399.1z"/>
</g>
<path fill-rule="evenodd" clip-rule="evenodd" fill="#9013FE" d="M19.9,404.5c-0.4-2.4-1.1-4.6-1.9-6.7c1.9-0.3,3.9-0.3,5.9,0.2
	C23.5,400.7,22,403,19.9,404.5z M7.7,404.3c0.7-0.9,2.1-2.5,4.1-3.9c1.4-0.9,2.8-1.6,4.3-2.1c0.9,2.2,1.6,4.7,2,7.3
	c-1.3,0.6-2.7,0.9-4.2,0.9C11.6,406.5,9.4,405.7,7.7,404.3z M3.9,396C4,396,4,396,3.9,396c1.3,0,3.5-0.1,6.2-0.6
	c1.5-0.3,2.9-0.6,4.3-1.1c0.3,0.7,0.7,1.4,1,2.2c-1.9,0.6-3.5,1.5-4.7,2.3c-2.1,1.4-3.6,3.1-4.4,4c-1.5-1.8-2.4-4-2.4-6.5
	C3.9,396.3,3.9,396.1,3.9,396z M10,387.2c0.6,0.8,2,2.7,3.5,5.4c-3.8,1.2-7.5,1.4-9.3,1.5C4.9,391,7.1,388.4,10,387.2z M20.5,388.7
	c-1.5,1.4-3.3,2.4-5.2,3.2c-1.3-2.5-2.6-4.3-3.4-5.4c0.7-0.1,1.4-0.2,2.1-0.2C16.5,386.3,18.7,387.2,20.5,388.7z M21.8,390.1
	c1.3,1.7,2.2,3.8,2.2,6c-2.5-0.5-4.8-0.5-6.7-0.1c-0.4-0.8-0.7-1.6-1.1-2.4C18.4,392.7,20.3,391.5,21.8,390.1z M14,384.4
	c-6.6,0-12,5.4-12,12s5.4,12,12,12c6.6,0,12-5.4,12-12S20.6,384.4,14,384.4z"/>
<g>
	<path fill="#9013FE" d="M188.5,399.1v-5.8h1.1v0.8c0.2-0.3,0.4-0.6,0.8-0.7s0.7-0.2,1-0.2c0.4,0,0.7,0.1,1,0.3
		c0.3,0.2,0.6,0.5,0.7,0.8c0.2-0.4,0.5-0.7,0.9-0.9s0.7-0.2,1.1-0.2c0.2,0,0.5,0,0.7,0.1c0.2,0.1,0.5,0.2,0.6,0.4
		c0.2,0.2,0.3,0.4,0.5,0.7c0.1,0.3,0.2,0.6,0.2,1v3.7h-1.1v-3.6c0-0.4-0.1-0.7-0.3-0.9c-0.2-0.3-0.5-0.4-0.9-0.4
		c-0.4,0-0.7,0.1-1,0.4c-0.2,0.3-0.4,0.6-0.4,1v3.5h-1.1v-3.6c0-0.4-0.1-0.7-0.3-0.9c-0.2-0.3-0.5-0.4-0.9-0.4c-0.4,0-0.7,0.1-1,0.4
		c-0.2,0.3-0.4,0.6-0.4,1.1v3.5H188.5z"/>
	<path fill="#9013FE" d="M198.4,397.6c0-0.3,0-0.5,0.1-0.7c0.1-0.2,0.2-0.4,0.4-0.5c0.2-0.1,0.3-0.3,0.6-0.3
		c0.2-0.1,0.4-0.2,0.7-0.2l1.6-0.2c0.2,0,0.3-0.1,0.4-0.2c0.1-0.1,0.1-0.2,0.1-0.3c0-0.3-0.1-0.5-0.3-0.7c-0.2-0.2-0.5-0.3-1-0.3
		c-0.4,0-0.7,0.1-0.9,0.3c-0.2,0.2-0.3,0.5-0.4,0.8l-1.1-0.3c0-0.3,0.1-0.5,0.2-0.8s0.3-0.4,0.5-0.6s0.5-0.3,0.7-0.4
		c0.3-0.1,0.6-0.1,0.9-0.1c0.4,0,0.8,0.1,1.1,0.2c0.3,0.1,0.6,0.3,0.7,0.5c0.2,0.2,0.3,0.4,0.4,0.7c0.1,0.3,0.1,0.5,0.1,0.8v2.9
		c0,0.3,0,0.5,0,0.6c0,0.2,0,0.3,0,0.3h-1.1c0-0.1,0-0.2,0-0.3s0-0.3,0-0.5c-0.1,0.1-0.1,0.2-0.3,0.3c-0.1,0.1-0.2,0.2-0.4,0.3
		c-0.2,0.1-0.3,0.2-0.5,0.2c-0.2,0.1-0.4,0.1-0.7,0.1c-0.3,0-0.6,0-0.8-0.1c-0.2-0.1-0.4-0.2-0.6-0.4s-0.3-0.3-0.4-0.5
		C198.5,398,198.4,397.8,198.4,397.6z M200.5,398.4c0.2,0,0.4,0,0.7-0.1c0.2-0.1,0.4-0.2,0.5-0.3c0.1-0.1,0.3-0.3,0.4-0.5
		s0.1-0.5,0.1-0.8v-0.3l-1.8,0.3c-0.2,0-0.4,0.1-0.6,0.3c-0.2,0.1-0.2,0.3-0.2,0.6c0,0.2,0.1,0.4,0.3,0.6
		C200,398.3,200.2,398.4,200.5,398.4z"/>
	<path fill="#9013FE" d="M205.1,401.6l1.4-3l-2.5-5.1h1.3l1.8,4l1.7-4h1.2l-3.8,8.2H205.1z"/>
	<path fill="#9013FE" d="M210.7,397.6c0-0.3,0-0.5,0.1-0.7c0.1-0.2,0.2-0.4,0.4-0.5c0.2-0.1,0.3-0.3,0.6-0.3
		c0.2-0.1,0.4-0.2,0.7-0.2l1.6-0.2c0.2,0,0.3-0.1,0.4-0.2c0.1-0.1,0.1-0.2,0.1-0.3c0-0.3-0.1-0.5-0.3-0.7c-0.2-0.2-0.5-0.3-1-0.3
		c-0.4,0-0.7,0.1-0.9,0.3c-0.2,0.2-0.3,0.5-0.4,0.8l-1.1-0.3c0-0.3,0.1-0.5,0.2-0.8s0.3-0.4,0.5-0.6s0.5-0.3,0.7-0.4
		c0.3-0.1,0.6-0.1,0.9-0.1c0.4,0,0.8,0.1,1.1,0.2c0.3,0.1,0.6,0.3,0.7,0.5c0.2,0.2,0.3,0.4,0.4,0.7c0.1,0.3,0.1,0.5,0.1,0.8v2.9
		c0,0.3,0,0.5,0,0.6c0,0.2,0,0.3,0,0.3h-1.1c0-0.1,0-0.2,0-0.3s0-0.3,0-0.5c-0.1,0.1-0.1,0.2-0.3,0.3c-0.1,0.1-0.2,0.2-0.4,0.3
		c-0.2,0.1-0.3,0.2-0.5,0.2c-0.2,0.1-0.4,0.1-0.7,0.1c-0.3,0-0.6,0-0.8-0.1c-0.2-0.1-0.4-0.2-0.6-0.4s-0.3-0.3-0.4-0.5
		C210.7,398,210.7,397.8,210.7,397.6z M212.8,398.4c0.2,0,0.4,0,0.7-0.1c0.2-0.1,0.4-0.2,0.5-0.3c0.1-0.1,0.3-0.3,0.4-0.5
		s0.1-0.5,0.1-0.8v-0.3l-1.8,0.3c-0.2,0-0.4,0.1-0.6,0.3c-0.2,0.1-0.2,0.3-0.2,0.6c0,0.2,0.1,0.4,0.3,0.6
		C212.2,398.3,212.5,398.4,212.8,398.4z"/>
	<path fill="#9013FE" d="M218.4,399.1h-1.1v-5.8h1.1v0.8c0.2-0.4,0.5-0.6,0.8-0.8c0.3-0.2,0.6-0.2,1-0.2c0.3,0,0.6,0.1,0.9,0.2
		c0.3,0.1,0.5,0.3,0.6,0.5c0.2,0.2,0.3,0.4,0.4,0.7c0.1,0.3,0.1,0.6,0.1,0.9v3.7h-1.1v-3.5c0-0.2,0-0.4-0.1-0.6
		c0-0.2-0.1-0.3-0.2-0.5c-0.1-0.1-0.2-0.2-0.4-0.3c-0.2-0.1-0.4-0.1-0.6-0.1c-0.2,0-0.4,0-0.6,0.1s-0.3,0.2-0.4,0.3
		c-0.1,0.1-0.2,0.3-0.3,0.5c-0.1,0.2-0.1,0.4-0.1,0.6V399.1z"/>
	<path fill="#9013FE" d="M226.8,395.8l2.5,3.3h-1.4l-1.9-2.5l-0.8,0.8v1.7h-1.1v-8.7h1.1v5.5l2.5-2.6h1.6L226.8,395.8z"/>
	<path fill="#9013FE" d="M229.9,400.1v-0.9h6.1v0.9H229.9z"/>
	<path fill="#9013FE" d="M238.6,393.4h1.2v1h-1.2v3c0,0.3,0.1,0.5,0.2,0.6s0.3,0.2,0.6,0.2c0.1,0,0.2,0,0.2,0s0.2,0,0.2,0v1
		c0,0-0.1,0-0.3,0.1c-0.1,0-0.3,0-0.5,0c-0.5,0-0.9-0.1-1.2-0.4c-0.3-0.3-0.4-0.7-0.4-1.2v-3.2h-1.1v-1h0.3c0.3,0,0.5-0.1,0.7-0.3
		c0.1-0.2,0.2-0.4,0.2-0.6v-0.9h1V393.4z"/>
	<path fill="#9013FE" d="M242.4,399.1h-1.1v-8.7h1.1v3.6c0.2-0.3,0.5-0.5,0.8-0.6c0.3-0.1,0.6-0.2,1-0.2c0.3,0,0.6,0.1,0.9,0.2
		c0.3,0.1,0.5,0.3,0.6,0.5c0.2,0.2,0.3,0.4,0.4,0.7c0.1,0.3,0.1,0.6,0.1,0.9v3.7h-1.1v-3.5c0-0.2,0-0.4-0.1-0.6
		c0-0.2-0.1-0.3-0.2-0.5c-0.1-0.1-0.2-0.2-0.4-0.3c-0.2-0.1-0.4-0.1-0.6-0.1c-0.2,0-0.4,0-0.6,0.1c-0.2,0.1-0.3,0.2-0.4,0.3
		c-0.1,0.1-0.2,0.3-0.3,0.5c-0.1,0.2-0.1,0.4-0.1,0.6V399.1z"/>
	<path fill="#9013FE" d="M253.1,397.5c-0.1,0.3-0.2,0.5-0.4,0.7c-0.2,0.2-0.3,0.4-0.6,0.6c-0.2,0.2-0.5,0.3-0.8,0.4
		c-0.3,0.1-0.6,0.1-0.9,0.1c-0.4,0-0.8-0.1-1.1-0.2c-0.4-0.1-0.7-0.3-0.9-0.6c-0.3-0.3-0.5-0.6-0.6-1c-0.2-0.4-0.2-0.8-0.2-1.3
		c0-0.5,0.1-0.9,0.2-1.2c0.2-0.4,0.4-0.7,0.6-1c0.3-0.3,0.5-0.5,0.9-0.6c0.3-0.1,0.7-0.2,1-0.2c0.4,0,0.8,0.1,1.2,0.2
		c0.3,0.1,0.6,0.4,0.9,0.6c0.2,0.3,0.4,0.6,0.5,1s0.2,0.8,0.2,1.2c0,0.1,0,0.1,0,0.2c0,0.1,0,0.1,0,0.2h-4.3c0,0.3,0.1,0.5,0.1,0.7
		c0.1,0.2,0.2,0.4,0.4,0.6c0.2,0.2,0.3,0.3,0.6,0.4s0.4,0.1,0.7,0.1c0.5,0,0.8-0.1,1.1-0.3c0.2-0.2,0.4-0.5,0.5-0.8L253.1,397.5z
		 M251.9,395.7c0-0.4-0.2-0.8-0.4-1c-0.3-0.3-0.7-0.4-1.2-0.4c-0.2,0-0.5,0-0.6,0.1c-0.2,0.1-0.3,0.2-0.5,0.3
		c-0.1,0.1-0.2,0.3-0.3,0.5c-0.1,0.2-0.1,0.4-0.1,0.5H251.9z"/>
	<path fill="#9013FE" d="M253.6,400.1v-0.9h6.1v0.9H253.6z"/>
	<path fill="#9013FE" d="M263.2,393.2c0.4,0,0.8,0.1,1.2,0.2s0.7,0.4,0.9,0.6c0.3,0.3,0.5,0.6,0.6,1s0.2,0.8,0.2,1.2
		c0,0.4-0.1,0.8-0.2,1.2s-0.3,0.7-0.6,1c-0.3,0.3-0.6,0.5-0.9,0.6c-0.4,0.2-0.8,0.2-1.2,0.2c-0.4,0-0.8-0.1-1.2-0.2
		c-0.4-0.2-0.7-0.4-0.9-0.6c-0.3-0.3-0.5-0.6-0.6-1c-0.1-0.4-0.2-0.8-0.2-1.2c0-0.4,0.1-0.8,0.2-1.2c0.1-0.4,0.3-0.7,0.6-1
		c0.3-0.3,0.6-0.5,0.9-0.6C262.3,393.3,262.7,393.2,263.2,393.2z M263.2,398.3c0.2,0,0.5,0,0.7-0.1s0.4-0.2,0.6-0.4
		c0.2-0.2,0.3-0.4,0.4-0.6s0.1-0.6,0.1-0.9s0-0.6-0.1-0.9s-0.2-0.5-0.4-0.6s-0.4-0.3-0.6-0.4c-0.2-0.1-0.4-0.1-0.7-0.1
		c-0.2,0-0.5,0-0.7,0.1c-0.2,0.1-0.4,0.2-0.6,0.4s-0.3,0.4-0.4,0.6c-0.1,0.3-0.1,0.5-0.1,0.9s0,0.6,0.1,0.9c0.1,0.3,0.2,0.5,0.4,0.6
		c0.2,0.2,0.4,0.3,0.6,0.4S262.9,398.3,263.2,398.3z"/>
	<path fill="#9013FE" d="M268.7,399.1h-1.1v-5.8h1.1v0.8c0.2-0.4,0.5-0.6,0.8-0.8c0.3-0.2,0.6-0.2,1-0.2c0.3,0,0.6,0.1,0.9,0.2
		c0.3,0.1,0.5,0.3,0.6,0.5c0.2,0.2,0.3,0.4,0.4,0.7c0.1,0.3,0.1,0.6,0.1,0.9v3.7h-1.1v-3.5c0-0.2,0-0.4-0.1-0.6
		c0-0.2-0.1-0.3-0.2-0.5c-0.1-0.1-0.2-0.2-0.4-0.3c-0.2-0.1-0.4-0.1-0.6-0.1c-0.2,0-0.4,0-0.6,0.1s-0.3,0.2-0.4,0.3
		c-0.1,0.1-0.2,0.3-0.3,0.5c-0.1,0.2-0.1,0.4-0.1,0.6V399.1z"/>
	<path fill="#9013FE" d="M279.3,397.5c-0.1,0.3-0.2,0.5-0.4,0.7c-0.2,0.2-0.3,0.4-0.6,0.6c-0.2,0.2-0.5,0.3-0.8,0.4
		c-0.3,0.1-0.6,0.1-0.9,0.1c-0.4,0-0.8-0.1-1.1-0.2c-0.4-0.1-0.7-0.3-0.9-0.6c-0.3-0.3-0.5-0.6-0.6-1c-0.2-0.4-0.2-0.8-0.2-1.3
		c0-0.5,0.1-0.9,0.2-1.2c0.2-0.4,0.4-0.7,0.6-1c0.3-0.3,0.5-0.5,0.9-0.6c0.3-0.1,0.7-0.2,1-0.2c0.4,0,0.8,0.1,1.2,0.2
		c0.3,0.1,0.6,0.4,0.9,0.6c0.2,0.3,0.4,0.6,0.5,1s0.2,0.8,0.2,1.2c0,0.1,0,0.1,0,0.2c0,0.1,0,0.1,0,0.2H275c0,0.3,0.1,0.5,0.1,0.7
		c0.1,0.2,0.2,0.4,0.4,0.6c0.2,0.2,0.3,0.3,0.6,0.4s0.4,0.1,0.7,0.1c0.5,0,0.8-0.1,1.1-0.3c0.2-0.2,0.4-0.5,0.5-0.8L279.3,397.5z
		 M278.2,395.7c0-0.4-0.2-0.8-0.4-1c-0.3-0.3-0.7-0.4-1.2-0.4c-0.2,0-0.5,0-0.6,0.1c-0.2,0.1-0.3,0.2-0.5,0.3
		c-0.1,0.1-0.2,0.3-0.3,0.5c-0.1,0.2-0.1,0.4-0.1,0.5H278.2z"/>
</g>
<g>
	<path fill-rule="evenodd" clip-rule="evenodd" fill="#9013FE" d="M175.4,388c-0.4,0-0.8,0.2-1.1,0.5c-0.3,0.3-0.5,0.7-0.5,1.1
		c0,0.4,0.2,0.8,0.5,1.1c0.3,0.3,0.7,0.5,1.1,0.5c0.4,0,0.8-0.2,1.1-0.5c0.3-0.3,0.5-0.7,0.5-1.1c0-0.4-0.2-0.8-0.5-1.1
		C176.3,388.2,175.8,388,175.4,388z"/>
	<path fill-rule="evenodd" clip-rule="evenodd" fill="#9013FE" d="M174.4,384h-10.7c-3.6,0-6.6,3-6.6,6.6v10.7c0,3.6,3,6.6,6.6,6.6
		h10.7c3.6,0,6.6-3,6.6-6.6v-10.7C181,387,178,384,174.4,384z M178.9,401.4c0,2.5-2,4.5-4.5,4.5h-10.7c-2.5,0-4.5-2-4.5-4.5v-10.7
		c0-2.5,2-4.5,4.5-4.5h10.7c2.5,0,4.5,2,4.5,4.5V401.4z"/>
	<path fill-rule="evenodd" clip-rule="evenodd" fill="#9013FE" d="M169,389.8c-3.4,0-6.2,2.8-6.2,6.2c0,3.4,2.8,6.2,6.2,6.2
		c3.4,0,6.2-2.8,6.2-6.2C175.2,392.6,172.4,389.8,169,389.8z M169,400.1c-2.2,0-4.1-1.8-4.1-4.1s1.8-4.1,4.1-4.1
		c2.2,0,4.1,1.8,4.1,4.1S171.2,400.1,169,400.1z"/>
</g>
<g>
	<circle fill="#4577FF" cx="234" cy="228" r="60"/>
	<rect x="170" y="164" fill="none" width="128" height="128"/>
	<g>
		<defs>
			<circle id="SVGID_1_" cx="234" cy="228" r="60"/>
		</defs>
		<clipPath id="SVGID_2_">
			<use xlink:href="#SVGID_1_"  overflow="visible"/>
		</clipPath>
		<path clip-path="url(#SVGID_2_)" fill="#FFAA00" d="M212,240L212,240c6.6,0,12-5.4,12-12v-24c0-2.2-1.8-4-4-4h-8
			c-6.6,0-12,5.4-12,12v16C200,234.6,205.4,240,212,240z"/>
		<path clip-path="url(#SVGID_2_)" fill="#FFC036" d="M268,292h-64v-72c0-17.6,14.4-32,32-32h0c17.6,0,32,14.4,32,32V292z"/>
		<path clip-path="url(#SVGID_2_)" fill="#FFE09E" d="M256,300h-48v0c0-13.3,10.7-24,24-24h0C245.3,276,256,286.7,256,300L256,300z"
			/>
	</g>
	<circle fill="#603535" cx="240" cy="220" r="4"/>
	<path fill="#FFE09E" d="M244,208L244,208c0,1.1-0.9,2-2,2h-4c-1.1,0-2-0.9-2-2l0,0c0-1.1,0.9-2,2-2h4C243.1,206,244,206.9,244,208z
		"/>
	<path fill="#FFE09E" d="M228,208L228,208c0,1.1-0.9,2-2,2h-4c-1.1,0-2-0.9-2-2l0,0c0-1.1,0.9-2,2-2h4C227.1,206,228,206.9,228,208z
		"/>
	<circle fill="#603535" cx="224" cy="220" r="4"/>
	<path fill="#F5463A" d="M230,256h12c1.1,0,2,0.9,2,2v6c0,4.4-3.6,8-8,8h0c-4.4,0-8-3.6-8-8v-6C228,256.9,228.9,256,230,256z"/>
	<g>
		<path fill="#ED2F21" d="M236,266c-1.1,0-2-0.9-2-2v-8c0-1.1,0.9-2,2-2s2,0.9,2,2v8C238,265.1,237.1,266,236,266z"/>
	</g>
	<path fill="#FFE09E" d="M228,264h-12c-13.2,0-24-10.8-24-24v-8c0-4.4,3.6-8,8-8h44c4.4,0,8,3.6,8,8v8C252,253.2,241.2,264,228,264z
		"/>
	<path fill="#603535" d="M198,224h12c1.1,0,2,0.9,2,2v2c0,4.4-3.6,8-8,8h0c-4.4,0-8-3.6-8-8v-2C196,224.9,196.9,224,198,224z"/>
	<circle fill="#FFC036" cx="220" cy="232" r="2"/>
	<circle fill="#301B1B" cx="208" cy="230" r="2"/>
	<circle fill="#301B1B" cx="200" cy="230" r="2"/>
	<circle fill="#FFC036" cx="228" cy="232" r="2"/>
	<circle fill="#FFC036" cx="224" cy="240" r="2"/>
	<path fill="#FFAA00" d="M268,240L268,240c-6.6,0-12-5.4-12-12v-24c0-2.2,1.8-4,4-4h8c6.6,0,12,5.4,12,12v16
		C280,234.6,274.6,240,268,240z"/>
</g>
<g>
	<circle fill="#F5463A" cx="409" cy="60" r="60"/>
	<rect x="345" y="-4" fill="none" width="128" height="128"/>
	<g>
		<defs>
			<circle id="SVGID_3_" cx="409" cy="60" r="60"/>
		</defs>
		<clipPath id="SVGID_4_">
			<use xlink:href="#SVGID_3_"  overflow="visible"/>
		</clipPath>
		<path clip-path="url(#SVGID_4_)" fill="#2BD665" d="M441,136h-64v-16c0-17.7,14.3-32,32-32h0c17.7,0,32,14.3,32,32V136z"/>
		<path clip-path="url(#SVGID_4_)" fill="#1FC258" d="M409,104c6.6,0,12-5.4,12-12v-1.7c-3.7-1.5-7.8-2.3-12-2.3l0,0
			c-4.2,0-8.3,0.8-12,2.3V92C397,98.6,402.4,104,409,104z"/>
	</g>
	<path fill="#FFA47A" d="M409,100L409,100c-4.4,0-8-3.6-8-8v-8c0-4.4,3.6-8,8-8h0c4.4,0,8,3.6,8,8v8C417,96.4,413.4,100,409,100z"/>
	<path fill="#FFBB9B" d="M409,90L409,90c-16.6,0-30-13.4-30-30v-8c0-16.6,13.4-30,30-30h0c16.6,0,30,13.4,30,30v8
		C439,76.6,425.6,90,409,90z"/>
	<circle fill="#603535" cx="413" cy="52" r="4"/>
	<circle fill="#603535" cx="397" cy="52" r="4"/>
	<path fill="#FFFFFF" d="M405,76L405,76c-7.7,0-14-6.3-14-14v-2h28v2C419,69.7,412.7,76,405,76z"/>
	<path fill="#FFBB9B" d="M439,62h-2V50h2c3.3,0,6,2.7,6,6v0C445,59.3,442.3,62,439,62z"/>
	<path fill="#643536" d="M437,50h4V34c0-4.4-3.6-8-8-8l0,0v20C433,48.2,434.8,50,437,50z"/>
	<path fill="#643536" d="M437,40h-48c-8.8,0-16-7.2-16-16v0h56c4.4,0,8,3.6,8,8V40z"/>
	<path fill="#643536" d="M437,28h-44c-8.8,0-16-7.2-16-16v0h44C429.8,12,437,19.2,437,28L437,28z"/>
</g>
<g>
	<circle fill="#1D1433" cx="234" cy="60" r="60"/>
	<g>
		<defs>
			<circle id="SVGID_5_" cx="234" cy="60" r="60"/>
		</defs>
		<clipPath id="SVGID_6_">
			<use xlink:href="#SVGID_5_"  overflow="visible"/>
		</clipPath>
		<path clip-path="url(#SVGID_6_)" fill="#F0EBFF" d="M270,124h-72v-16c0-17.7,14.3-32,32-32h8c17.7,0,32,14.3,32,32V124z"/>
		<path clip-path="url(#SVGID_6_)" fill="#DED4FF" d="M252,148h-48v-24c0-13.3,10.7-24,24-24h0c13.3,0,24,10.7,24,24V148z"/>
	</g>
	<path fill="#F0EBFF" d="M270,88h-72V52c0-19.8,16.2-36,36-36h0c19.8,0,36,16.2,36,36V88z"/>
	<path fill="#3E257A" d="M234,72h-20c-11,0-20-9-20-20v0c0-11,9-20,20-20h20c11,0,20,9,20,20v0C254,63,245,72,234,72z"/>
	<path fill="#50338F" d="M202,52c0-11,9-20,20-20h-8c-11,0-20,9-20,20s9,20,20,20h8C211,72,202,63,202,52z"/>
	<path fill="#1D1433" d="M230,80h-2v-4h2c1.1,0,2,0.9,2,2l0,0C232,79.1,231.1,80,230,80z"/>
	<path fill="#A385FF" d="M270,96h-72c-2.2,0-4-1.8-4-4v0c0-2.2,1.8-4,4-4h72c2.2,0,4,1.8,4,4v0C274,94.2,272.2,96,270,96z"/>
	<circle fill="#1D1433" cx="238" cy="52" r="4"/>
	<circle fill="#F5463A" cx="258" cy="104" r="2"/>
	<circle fill="#FFC036" cx="250" cy="104" r="2"/>
	<circle fill="#1D1433" cx="222" cy="52" r="4"/>
	<path fill="#A385FF" d="M270,68h-4c-4.4,0-8-3.6-8-8v-8c0-4.4,3.6-8,8-8h4c4.4,0,8,3.6,8,8v8C278,64.4,274.4,68,270,68z"/>
	<path fill="#F0EBFF" d="M270,68L270,68c-4.4,0-8-3.6-8-8v-8c0-4.4,3.6-8,8-8l0,0c4.4,0,8,3.6,8,8v8C278,64.4,274.4,68,270,68z"/>
	<g>
		<path fill="#A385FF" d="M270,58c-1.1,0-2-0.9-2-2V28c0-1.1,0.9-2,2-2s2,0.9,2,2v28C272,57.1,271.1,58,270,58z"/>
	</g>
	<path fill="#DED4FF" d="M270,32L270,32c-2.2,0-4-1.8-4-4v0c0-2.2,1.8-4,4-4l0,0c2.2,0,4,1.8,4,4v0C274,30.2,272.2,32,270,32z"/>
	<rect x="220" y="76" fill="#1D1433" width="4" height="4"/>
	<path fill="#1D1433" d="M220,80h-2c-1.1,0-2-0.9-2-2v0c0-1.1,0.9-2,2-2h2V80z"/>
	<rect x="224" y="76" fill="#1D1433" width="4" height="4"/>
	<rect x="170" y="-4" fill="none" width="128" height="128"/>
</g>
<g>
	<circle fill="#FFCE47" cx="584" cy="60" r="60"/>
	<g>
		<defs>
			<circle id="SVGID_7_" cx="584" cy="60" r="60"/>
		</defs>
		<clipPath id="SVGID_8_">
			<use xlink:href="#SVGID_7_"  overflow="visible"/>
		</clipPath>
		<path clip-path="url(#SVGID_8_)" fill="#643536" d="M616,100h-60c-4.4,0-8-3.6-8-8V36c0-8.8,7.2-16,16-16h24c19.9,0,36,16.1,36,36
			v36C624,96.4,620.4,100,616,100z"/>
		<path clip-path="url(#SVGID_8_)" fill="#CC2996" d="M612,140h-56v-20c0-15.5,12.5-28,28-28h0c15.5,0,28,12.5,28,28V140z"/>
		<path clip-path="url(#SVGID_8_)" fill="#FFA47A" d="M584,108c6.6,0,12-5.4,12-12v-1.3c-3.6-1.7-7.7-2.7-12-2.7s-8.4,1-12,2.7V96
			C572,102.6,577.4,108,584,108z"/>
	</g>
	<path fill="#FFA47A" d="M584,104L584,104c-4.4,0-8-3.6-8-8v-8c0-4.4,3.6-8,8-8l0,0c4.4,0,8,3.6,8,8v8C592,100.4,588.4,104,584,104z
		"/>
	<path fill="#FFBB9B" d="M584,90L584,90c-16.6,0-30-13.4-30-30v-8c0-16.6,13.4-30,30-30h0c16.6,0,30,13.4,30,30v8
		C614,76.6,600.6,90,584,90z"/>
	<path fill="#643536" d="M592,10h-2h-4h-14c-6.3,0-11.5,4.9-12,11.1c0,0.3,0,0.6,0,0.9c0,13.2,10.8,24,24,24h34h6v-4
		C624,24.4,609.6,10,592,10z"/>
	<circle fill="#603535" cx="588" cy="52" r="4"/>
	<circle fill="#603535" cx="572" cy="52" r="4"/>
	<path fill="#FFFFFF" d="M580,76L580,76c-7.7,0-14-6.3-14-14v-2h28v2C594,69.7,587.7,76,580,76z"/>
	<path fill="#FFD8A8" d="M614,62h-2V50h2c3.3,0,6,2.7,6,6v0C620,59.3,617.3,62,614,62z"/>
	<path fill="#643536" d="M616,100L616,100c4.4,0,8-3.6,8-8V44h-24v40C600,92.8,607.2,100,616,100z"/>
	<rect x="520" y="-4" fill="none" width="128" height="128"/>
</g>
<g>
	<circle fill="#603535" cx="409" cy="228" r="60"/>
	<path fill="#FF680A" d="M409,208h-20v-20c0-2.2,1.8-4,4-4l0,0c8.8,0,16,7.2,16,16V208z"/>
	<g>
		<defs>
			<circle id="SVGID_9_" cx="409" cy="228" r="60"/>
		</defs>
		<clipPath id="SVGID_10_">
			<use xlink:href="#SVGID_9_"  overflow="visible"/>
		</clipPath>
		<path clip-path="url(#SVGID_10_)" fill="#FF7E29" d="M443,300h-64v-8c0-19.8,16.2-36,36-36h28V300z"/>
		<path clip-path="url(#SVGID_10_)" fill="#FF680A" d="M433,296h-48v-4c0-13.3,10.7-24,24-24h0c13.3,0,24,10.7,24,24V296z"/>
	</g>
	<path fill="#FF7E29" d="M443,264h-32c-19.9,0-36-16.1-36-36v0c0-19.8,16.2-36,36-36h16c8.8,0,16,7.2,16,16V264z"/>
	<path fill="#FFE4D1" d="M401,258L401,258c-11,0-20-9-20-20v-4c0-4.4,3.6-8,8-8h24c4.4,0,8,3.6,8,8v4C421,249,412,258,401,258z"/>
	<circle fill="#603535" cx="413" cy="220" r="4"/>
	<circle fill="#603535" cx="397" cy="220" r="4"/>
	<path fill="#603535" d="M393,226h8c1.1,0,2,0.9,2,2l0,0c0,3.3-2.7,6-6,6l0,0c-3.3,0-6-2.7-6-6l0,0C391,226.9,391.9,226,393,226z"/>
	<path fill="#FF680A" d="M419,216L419,216c0,1.1-0.9,2-2,2h-8c-1.1,0-2-0.9-2-2l0,0c0-1.1,0.9-2,2-2h8C418.1,214,419,214.9,419,216z
		"/>
	<path fill="#FFE4D1" d="M429,234L429,234c0,1.1-0.9,2-2,2h-12c-1.1,0-2-0.9-2-2l0,0c0-1.1,0.9-2,2-2h12
		C428.1,232,429,232.9,429,234z"/>
	<path fill="#FFE4D1" d="M429,242L429,242c0,1.1-0.9,2-2,2h-12c-1.1,0-2-0.9-2-2l0,0c0-1.1,0.9-2,2-2h12
		C428.1,240,429,240.9,429,242z"/>
	<path fill="#FFE4D1" d="M389,234L389,234c0,1.1-0.9,2-2,2h-12c-1.1,0-2-0.9-2-2l0,0c0-1.1,0.9-2,2-2h12
		C388.1,232,389,232.9,389,234z"/>
	<path fill="#FFE4D1" d="M389,242L389,242c0,1.1-0.9,2-2,2h-12c-1.1,0-2-0.9-2-2l0,0c0-1.1,0.9-2,2-2h12
		C388.1,240,389,240.9,389,242z"/>
	<path fill="#FF680A" d="M403,216L403,216c0,1.1-0.9,2-2,2h-8c-1.1,0-2-0.9-2-2l0,0c0-1.1,0.9-2,2-2h8C402.1,214,403,214.9,403,216z
		"/>
	<path fill="#FF7E29" d="M423,208h20v-20c0-2.2-1.8-4-4-4h0c-8.8,0-16,7.2-16,16V208z"/>
	<g>
		<path fill="#F3A9B1" d="M439,200v-12c-4,0-7.6,2-9.7,5C433.2,194.3,436.6,196.8,439,200z"/>
	</g>
	<circle fill="#FFBD8F" cx="413" cy="232" r="2"/>
	<circle fill="#FFBD8F" cx="409" cy="240" r="2"/>
	<circle fill="#FFBD8F" cx="385" cy="240" r="2"/>
	<path fill="#FF680A" d="M439,240h4v-8h-4c-2.2,0-4,1.8-4,4v0C435,238.2,436.8,240,439,240z"/>
	<path fill="#FF680A" d="M439,252h4v-8h-4c-2.2,0-4,1.8-4,4v0C435,250.2,436.8,252,439,252z"/>
	<path fill="#FF680A" d="M435,264h8v-8h-8c-2.2,0-4,1.8-4,4l0,0C431,262.2,432.8,264,435,264z"/>
	<rect x="345" y="164" fill="none" width="128" height="128"/>
</g>
<g>
	<circle fill="#2BD665" cx="60" cy="228" r="60"/>
	<g>
		<defs>
			<circle id="SVGID_11_" cx="60" cy="228" r="60"/>
		</defs>
		<clipPath id="SVGID_12_">
			<use xlink:href="#SVGID_11_"  overflow="visible"/>
		</clipPath>
		<path clip-path="url(#SVGID_12_)" fill="#C14F3B" d="M52,200L52,200c0,8.8-7.2,16-16,16h0c-8.8,0-16-7.2-16-16v0
			c0-8.8,7.2-16,16-16h0C44.8,184,52,191.2,52,200z"/>
		<path clip-path="url(#SVGID_12_)" fill="#F3A9B1" d="M44.5,202.8l-5.7,5.7c-1.6,1.6-4.1,1.6-5.7,0l-2.8-2.8
			c-3.1-3.1-3.1-8.2,0-11.3h0c3.1-3.1,8.2-3.1,11.3,0l2.8,2.8C46,198.7,46,201.3,44.5,202.8z"/>
		<path clip-path="url(#SVGID_12_)" fill="#D76B5A" d="M88,216L88,216c-8.8,0-16-7.2-16-16v0c0-8.8,7.2-16,16-16h0
			c8.8,0,16,7.2,16,16v0C104,208.8,96.8,216,88,216z"/>
		<path clip-path="url(#SVGID_12_)" fill="#F3A9B1" d="M85.2,208.5l-5.7-5.7c-1.6-1.6-1.6-4.1,0-5.7l2.8-2.8c3.1-3.1,8.2-3.1,11.3,0
			h0c3.1,3.1,3.1,8.2,0,11.3l-2.8,2.8C89.3,210,86.7,210,85.2,208.5z"/>
		<path clip-path="url(#SVGID_12_)" fill="#D76B5A" d="M96,292H24v-72c0-19.8,16.2-36,36-36h0c19.8,0,36,16.2,36,36V292z"/>
		<path clip-path="url(#SVGID_12_)" fill="#C14F3B" d="M92,236L92,236c-1.1,0-2-0.9-2-2v-4c0-1.1,0.9-2,2-2l0,0c1.1,0,2,0.9,2,2v4
			C94,235.1,93.1,236,92,236z"/>
		<path clip-path="url(#SVGID_12_)" fill="#C14F3B" d="M84,248L84,248c-1.1,0-2-0.9-2-2v-4c0-1.1,0.9-2,2-2l0,0c1.1,0,2,0.9,2,2v4
			C86,247.1,85.1,248,84,248z"/>
		<path clip-path="url(#SVGID_12_)" fill="#C14F3B" d="M92,260L92,260c-1.1,0-2-0.9-2-2v-4c0-1.1,0.9-2,2-2l0,0c1.1,0,2,0.9,2,2v4
			C94,259.1,93.1,260,92,260z"/>
		<path clip-path="url(#SVGID_12_)" fill="#C14F3B" d="M84,272L84,272c-1.1,0-2-0.9-2-2v-4c0-1.1,0.9-2,2-2l0,0c1.1,0,2,0.9,2,2v4
			C86,271.1,85.1,272,84,272z"/>
		<path clip-path="url(#SVGID_12_)" fill="#C14F3B" d="M76,284L76,284c-1.1,0-2-0.9-2-2v-4c0-1.1,0.9-2,2-2l0,0c1.1,0,2,0.9,2,2v4
			C78,283.1,77.1,284,76,284z"/>
		<path clip-path="url(#SVGID_12_)" fill="#C14F3B" d="M68,292L68,292c-1.1,0-2-0.9-2-2v-4c0-1.1,0.9-2,2-2l0,0c1.1,0,2,0.9,2,2v4
			C70,291.1,69.1,292,68,292z"/>
		<path clip-path="url(#SVGID_12_)" fill="#C14F3B" d="M36,288L36,288c-1.1,0-2-0.9-2-2v-4c0-1.1,0.9-2,2-2h0c1.1,0,2,0.9,2,2v4
			C38,287.1,37.1,288,36,288z"/>
		<path clip-path="url(#SVGID_12_)" fill="#C14F3B" d="M28,276L28,276c-1.1,0-2-0.9-2-2v-4c0-1.1,0.9-2,2-2h0c1.1,0,2,0.9,2,2v4
			C30,275.1,29.1,276,28,276z"/>
		<path clip-path="url(#SVGID_12_)" fill="#C14F3B" d="M92,284L92,284c-1.1,0-2-0.9-2-2v-4c0-1.1,0.9-2,2-2l0,0c1.1,0,2,0.9,2,2v4
			C94,283.1,93.1,284,92,284z"/>
	</g>
	<path fill="#FFA47A" d="M52,264L52,264c-6.6,0-12-5.4-12-12v-4h24v4C64,258.6,58.6,264,52,264z"/>
	<path fill="#FFBB9B" d="M60,258h-8c-2.2,0-4-1.8-4-4v-28h8c8.8,0,16,7.2,16,16v4C72,252.6,66.6,258,60,258z"/>
	<path fill="#FFBB9B" d="M44,258L44,258c2.2,0,4-1.8,4-4v-28h0c-8.8,0-16,7.2-16,16v4C32,252.6,37.4,258,44,258z"/>
	<circle fill="#603535" cx="64" cy="220" r="4"/>
	<circle fill="#603535" cx="48" cy="220" r="4"/>
	<path fill="#343A40" d="M46,230h4c2.2,0,4,1.8,4,4v2c0,3.3-2.7,6-6,6h0c-3.3,0-6-2.7-6-6v-2C42,231.8,43.8,230,46,230z"/>
	<path fill="#C14F3B" d="M68,208L68,208c0,1.1-0.9,2-2,2h-4c-1.1,0-2-0.9-2-2l0,0c0-1.1,0.9-2,2-2h4C67.1,206,68,206.9,68,208z"/>
	<path fill="#C14F3B" d="M52,212L52,212c0,1.1-0.9,2-2,2h-4c-1.1,0-2-0.9-2-2l0,0c0-1.1,0.9-2,2-2h4C51.1,210,52,210.9,52,212z"/>
	<rect x="-4" y="164" fill="none" width="128" height="128"/>
</g>
<g>
	<circle fill="#CC2996" cx="60" cy="60" r="60"/>
	<g>
		<defs>
			<circle id="SVGID_13_" cx="60" cy="60" r="60"/>
		</defs>
		<use xlink:href="#SVGID_13_"  overflow="visible" fill="#7732D1"/>
		<clipPath id="SVGID_14_">
			<use xlink:href="#SVGID_13_"  overflow="visible"/>
		</clipPath>
		<path clip-path="url(#SVGID_14_)" fill="#FFC74D" d="M84,128H36v-24c0-13.3,10.7-24,24-24h0c13.3,0,24,10.7,24,24V128z"/>
		<path clip-path="url(#SVGID_14_)" fill="#FFBE33" d="M39.2,92h41.5C76.6,84.8,68.9,80,60,80C51.1,80,43.4,84.8,39.2,92z"/>
	</g>
	<path fill="#C07867" d="M96,88H68V24h28c2.2,0,4,1.8,4,4v56C100,86.2,98.2,88,96,88z"/>
	<path fill="#F4A568" d="M88,48V28c0-2.2-1.8-4-4-4h8c2.2,0,4,1.8,4,4v20H88z"/>
	<path fill="#F4A568" d="M80,88H24c-2.2,0-4-1.8-4-4V28c0-2.2,1.8-4,4-4h56c2.2,0,4,1.8,4,4v56C84,86.2,82.2,88,80,88z"/>
	<path fill="#FFBB9B" d="M68,60H36c-4.4,0-8-3.6-8-8v0c0-4.4,3.6-8,8-8h32c4.4,0,8,3.6,8,8v0C76,56.4,72.4,60,68,60z"/>
	<path fill="#C07867" d="M36,52c0-4.4,3.6-8,8-8h-8c-4.4,0-8,3.6-8,8s3.6,8,8,8h8C39.6,60,36,56.4,36,52z"/>
	<circle fill="#603535" cx="64" cy="52" r="4"/>
	<circle fill="#603535" cx="48" cy="52" r="4"/>
	<rect x="-4" y="-4" fill="none" width="128" height="128"/>
</g>
<g>
	<g>
		<defs>
			<circle id="SVGID_15_" cx="584" cy="228" r="60"/>
		</defs>
		<use xlink:href="#SVGID_15_"  overflow="visible" fill="#6521CC"/>
		<clipPath id="SVGID_16_">
			<use xlink:href="#SVGID_15_"  overflow="visible"/>
		</clipPath>
		<path clip-path="url(#SVGID_16_)" fill="#FF85C8" d="M608,264h-12c-4.4,0-8-3.6-8-8v-36c0-11,9-20,20-20h0c11,0,20,9,20,20v24
			C628,255,619,264,608,264z"/>
		<path clip-path="url(#SVGID_16_)" fill="#F8F9FA" d="M620,300h-64v-8c0-19.8,16.2-36,36-36h28V300z"/>
		<path clip-path="url(#SVGID_16_)" fill="#DED4FF" d="M612,292h-48v0c0-13.3,10.7-24,24-24h0C601.3,268,612,278.7,612,292L612,292z
			"/>
	</g>
	<path fill="#F8F9FA" d="M620,260h-40c-22,0-40-18-40-40v0c0-6.6,5.4-12,12-12h68V260z"/>
	<g>
		<defs>
			<path id="SVGID_17_" d="M620,260h-40c-22,0-40-18-40-40v0c0-6.6,5.4-12,12-12h68V260z"/>
		</defs>
		<clipPath id="SVGID_18_">
			<use xlink:href="#SVGID_17_"  overflow="visible"/>
		</clipPath>
		<path clip-path="url(#SVGID_18_)" fill="#DED4FF" d="M552,236h-4c-4.4,0-8-3.6-8-8v-8c0-6.6,5.4-12,12-12h0c6.6,0,12,5.4,12,12v4
			C564,230.6,558.6,236,552,236z"/>
	</g>
	<circle fill="#B199FF" cx="554" cy="230" r="2"/>
	<circle fill="#B199FF" cx="546" cy="230" r="2"/>
	<circle fill="#603535" cx="588" cy="220" r="4"/>
	<circle fill="#603535" cx="572" cy="220" r="4"/>
	<path fill="#F8F9FA" d="M608,200v18h12v-18c0-3.3-2.7-6-6-6l0,0C610.7,194,608,196.7,608,200z"/>
	<path fill="#FFADDA" d="M612,200v6h4v-6c0-1.1-0.9-2-2-2l0,0C612.9,198,612,198.9,612,200z"/>
	<g>
		<path fill="#FFAA00" d="M592,188h-8l0,0c0-2.2,1.8-4,4-4l0,0C590.2,184,592,185.8,592,188L592,188z"/>
		<rect x="584" y="188" fill="#FFCE47" width="8" height="4"/>
		<rect x="584" y="192" fill="#FFAA00" width="8" height="4"/>
		<rect x="584" y="196" fill="#FFCE47" width="8" height="4"/>
		<rect x="584" y="200" fill="#FFAA00" width="8" height="4"/>
		<rect x="584" y="204" fill="#FFCE47" width="8" height="4"/>
	</g>
	<rect x="520" y="164" fill="none" width="128" height="128"/>
</g>
</svg>
