<?xml version="1.0" encoding="utf-8"?>
<!-- Generator: Adobe Illustrator 17.0.0, SVG Export Plug-In . SVG Version: 6.00 Build 0)  -->
<!DOCTYPE svg PUBLIC "-//W3C//DTD SVG 1.0//EN" "http://www.w3.org/TR/2001/REC-SVG-20010904/DTD/svg10.dtd">
<svg version="1.0" id="Layer_1" xmlns="http://www.w3.org/2000/svg" xmlns:xlink="http://www.w3.org/1999/xlink" x="0px" y="0px"
	 width="120px" height="120px" viewBox="0 0 120 120" enable-background="new 0 0 120 120" xml:space="preserve">
<g>
	<path d="M13-249.2H7.3L6.1-246H3.2l5.4-14.2h3.2l5.4,14.2h-3L13-249.2z M8.2-251.7h3.9l-2-5.4L8.2-251.7z"/>
	<path d="M23.4-246h-2.7l-4-9.8h2.9l2.4,6.6l2.3-6.6h2.8L23.4-246z"/>
	<path d="M28.2-248.7c0-0.4,0.1-0.8,0.2-1.2c0.2-0.3,0.4-0.6,0.6-0.9c0.3-0.3,0.6-0.5,0.9-0.6c0.4-0.1,0.7-0.3,1.1-0.3l2.4-0.4
		c0.3,0,0.5-0.1,0.6-0.3c0.1-0.1,0.2-0.3,0.2-0.5c0-0.3-0.1-0.6-0.4-0.9c-0.3-0.3-0.7-0.4-1.3-0.4c-0.6,0-1,0.2-1.3,0.5
		c-0.3,0.3-0.5,0.7-0.5,1.1l-2.4-0.5c0-0.4,0.2-0.8,0.4-1.2s0.5-0.7,0.8-1c0.3-0.3,0.8-0.6,1.3-0.8c0.5-0.2,1.1-0.3,1.8-0.3
		c0.8,0,1.4,0.1,2,0.3c0.5,0.2,1,0.5,1.3,0.8c0.3,0.3,0.6,0.7,0.7,1.2s0.2,0.9,0.2,1.4v4.8c0,0.3,0,0.6,0,0.9c0,0.3,0.1,0.5,0.1,0.7
		h-2.4c0-0.1,0-0.3-0.1-0.5c0-0.2,0-0.4,0-0.6c-0.3,0.4-0.6,0.7-1.1,1c-0.5,0.3-1.1,0.4-1.8,0.4c-0.5,0-1-0.1-1.4-0.3
		c-0.4-0.2-0.8-0.4-1.1-0.7s-0.5-0.6-0.7-0.9C28.3-247.9,28.2-248.3,28.2-248.7z M32.2-247.7c0.3,0,0.5,0,0.8-0.1
		c0.3-0.1,0.5-0.2,0.7-0.4s0.4-0.4,0.5-0.7c0.1-0.3,0.2-0.6,0.2-1.1v-0.4l-2.2,0.3c-0.3,0.1-0.6,0.2-0.9,0.4s-0.3,0.5-0.3,0.9
		c0,0.3,0.1,0.6,0.3,0.8S31.8-247.7,32.2-247.7z"/>
	<path d="M42.8-255.8h2v2.4h-2v4.1c0,0.4,0.1,0.7,0.3,0.9c0.2,0.2,0.5,0.3,0.9,0.3c0.2,0,0.3,0,0.5,0c0.2,0,0.3,0,0.3-0.1v2.2
		c-0.1,0.1-0.3,0.1-0.5,0.2c-0.2,0.1-0.6,0.1-1,0.1c-1,0-1.7-0.3-2.3-0.8c-0.6-0.5-0.8-1.3-0.8-2.2v-4.6h-1.8v-2.4h0.5
		c0.5,0,0.9-0.2,1.1-0.5c0.2-0.3,0.4-0.7,0.4-1.1v-1.4h2.4V-255.8z"/>
	<path d="M46.5-248.7c0-0.4,0.1-0.8,0.2-1.2c0.2-0.3,0.4-0.6,0.6-0.9c0.3-0.3,0.6-0.5,0.9-0.6c0.4-0.1,0.7-0.3,1.1-0.3l2.4-0.4
		c0.3,0,0.5-0.1,0.6-0.3c0.1-0.1,0.2-0.3,0.2-0.5c0-0.3-0.1-0.6-0.4-0.9c-0.3-0.3-0.7-0.4-1.3-0.4c-0.6,0-1,0.2-1.3,0.5
		c-0.3,0.3-0.5,0.7-0.5,1.1l-2.4-0.5c0-0.4,0.2-0.8,0.4-1.2s0.5-0.7,0.8-1c0.3-0.3,0.8-0.6,1.3-0.8c0.5-0.2,1.1-0.3,1.8-0.3
		c0.8,0,1.4,0.1,2,0.3c0.5,0.2,1,0.5,1.3,0.8c0.3,0.3,0.6,0.7,0.7,1.2s0.2,0.9,0.2,1.4v4.8c0,0.3,0,0.6,0,0.9c0,0.3,0.1,0.5,0.1,0.7
		h-2.4c0-0.1,0-0.3-0.1-0.5c0-0.2,0-0.4,0-0.6c-0.3,0.4-0.6,0.7-1.1,1c-0.5,0.3-1.1,0.4-1.8,0.4c-0.5,0-1-0.1-1.4-0.3
		c-0.4-0.2-0.8-0.4-1.1-0.7s-0.5-0.6-0.7-0.9C46.6-247.9,46.5-248.3,46.5-248.7z M50.5-247.7c0.3,0,0.5,0,0.8-0.1
		c0.3-0.1,0.5-0.2,0.7-0.4s0.4-0.4,0.5-0.7c0.1-0.3,0.2-0.6,0.2-1.1v-0.4l-2.2,0.3c-0.3,0.1-0.6,0.2-0.9,0.4s-0.3,0.5-0.3,0.9
		c0,0.3,0.1,0.6,0.3,0.8S50.1-247.7,50.5-247.7z"/>
	<path d="M63.9-253.2c-0.3-0.1-0.5-0.1-0.8-0.1c-0.3,0-0.7,0-1,0.1c-0.3,0.1-0.6,0.2-0.8,0.5c-0.2,0.2-0.4,0.5-0.5,0.9
		c-0.1,0.4-0.2,0.8-0.2,1.3v4.5h-2.7v-9.8h2.6v1.5c0.1-0.3,0.3-0.6,0.6-0.8c0.2-0.2,0.5-0.4,0.7-0.5c0.3-0.1,0.5-0.2,0.8-0.2
		s0.5-0.1,0.7-0.1c0.1,0,0.2,0,0.3,0c0.1,0,0.2,0,0.3,0V-253.2z"/>
	<path d="M67.3-249.2c0,0.4,0.2,0.7,0.5,1c0.3,0.3,0.7,0.5,1.3,0.5c0.4,0,0.8-0.1,1-0.3c0.2-0.2,0.3-0.4,0.3-0.7
		c0-0.2-0.1-0.4-0.2-0.6c-0.2-0.2-0.4-0.3-0.8-0.4L68-250c-1-0.2-1.7-0.6-2.1-1.1s-0.7-1.1-0.7-1.8c0-0.4,0.1-0.9,0.3-1.3
		c0.2-0.4,0.4-0.7,0.8-1c0.3-0.3,0.7-0.5,1.2-0.7s0.9-0.3,1.5-0.3c0.7,0,1.3,0.1,1.8,0.3c0.5,0.2,0.9,0.4,1.2,0.7
		c0.3,0.3,0.5,0.6,0.7,0.9c0.1,0.3,0.2,0.6,0.3,0.9l-2.2,0.5c0-0.1-0.1-0.3-0.1-0.5c-0.1-0.2-0.2-0.3-0.3-0.4
		c-0.1-0.1-0.3-0.2-0.5-0.3s-0.4-0.1-0.7-0.1c-0.3,0-0.6,0.1-0.9,0.3c-0.2,0.2-0.4,0.4-0.4,0.7c0,0.2,0.1,0.4,0.3,0.6
		c0.2,0.1,0.4,0.2,0.6,0.3l1.4,0.3c1,0.2,1.7,0.6,2.2,1.1c0.5,0.5,0.7,1.2,0.7,1.9c0,0.4-0.1,0.8-0.2,1.2s-0.4,0.7-0.7,1
		c-0.3,0.3-0.7,0.6-1.2,0.7c-0.5,0.2-1,0.3-1.7,0.3c-0.7,0-1.4-0.1-1.9-0.3c-0.5-0.2-0.9-0.5-1.2-0.8c-0.3-0.3-0.6-0.6-0.7-1
		c-0.2-0.4-0.2-0.7-0.3-1L67.3-249.2z"/>
	<path fill="#5C5C5C" d="M79.8-246v-14.2h2.8v14.2H79.8z"/>
	<path fill="#5C5C5C" d="M90-253.7c-0.3,0-0.7,0.1-1,0.2s-0.6,0.3-0.8,0.5c-0.2,0.2-0.4,0.5-0.5,0.9c-0.1,0.3-0.2,0.7-0.2,1.2
		s0.1,0.8,0.2,1.2c0.1,0.3,0.3,0.6,0.5,0.9c0.2,0.2,0.5,0.4,0.8,0.5c0.3,0.1,0.6,0.2,1,0.2c0.3,0,0.6,0,0.9-0.1s0.5-0.2,0.7-0.4
		c0.2-0.2,0.3-0.3,0.5-0.5c0.1-0.2,0.2-0.4,0.3-0.6l2.3,0.8c-0.1,0.4-0.3,0.8-0.5,1.2c-0.2,0.4-0.6,0.7-0.9,1.1
		c-0.4,0.3-0.8,0.6-1.4,0.8c-0.5,0.2-1.1,0.3-1.8,0.3c-0.7,0-1.4-0.1-2-0.4c-0.6-0.3-1.2-0.6-1.7-1.1c-0.5-0.5-0.8-1-1.1-1.6
		c-0.3-0.6-0.4-1.3-0.4-2.1c0-0.8,0.1-1.5,0.4-2.1c0.3-0.6,0.6-1.2,1.1-1.6s1-0.8,1.6-1.1c0.6-0.3,1.3-0.4,2-0.4
		c0.7,0,1.3,0.1,1.8,0.3c0.5,0.2,1,0.4,1.4,0.8c0.4,0.3,0.7,0.7,0.9,1.1s0.4,0.8,0.5,1.2l-2.4,0.8c-0.1-0.4-0.3-0.8-0.7-1.1
		C91.2-253.5,90.7-253.7,90-253.7z"/>
	<path fill="#5C5C5C" d="M100.9-256.1c0.7,0,1.4,0.1,2,0.4c0.6,0.3,1.2,0.6,1.6,1.1s0.8,1,1.1,1.6c0.3,0.6,0.4,1.3,0.4,2.1
		c0,0.8-0.1,1.5-0.4,2.1c-0.3,0.6-0.6,1.2-1.1,1.6c-0.5,0.5-1,0.8-1.6,1.1c-0.6,0.3-1.3,0.4-2,0.4s-1.4-0.1-2-0.4
		c-0.6-0.3-1.2-0.6-1.6-1.1c-0.5-0.5-0.8-1-1.1-1.6c-0.3-0.6-0.4-1.3-0.4-2.1c0-0.8,0.1-1.5,0.4-2.1c0.3-0.6,0.6-1.2,1.1-1.6
		s1-0.8,1.6-1.1C99.5-256,100.2-256.1,100.9-256.1z M100.9-248.1c0.3,0,0.6-0.1,0.9-0.2c0.3-0.1,0.6-0.3,0.8-0.5
		c0.2-0.2,0.4-0.5,0.5-0.9c0.1-0.3,0.2-0.8,0.2-1.2s-0.1-0.9-0.2-1.2c-0.1-0.3-0.3-0.6-0.5-0.9s-0.5-0.4-0.8-0.5
		c-0.3-0.1-0.6-0.2-0.9-0.2s-0.6,0.1-0.9,0.2c-0.3,0.1-0.6,0.3-0.8,0.5s-0.4,0.5-0.5,0.9c-0.1,0.3-0.2,0.8-0.2,1.2s0.1,0.9,0.2,1.2
		c0.1,0.3,0.3,0.6,0.5,0.9c0.2,0.2,0.5,0.4,0.8,0.5C100.3-248.2,100.6-248.1,100.9-248.1z"/>
	<path fill="#5C5C5C" d="M110.8-246h-2.7v-9.8h2.6v1.2c0.3-0.5,0.7-0.9,1.3-1.1c0.5-0.2,1.1-0.4,1.6-0.4c0.6,0,1.1,0.1,1.6,0.3
		c0.4,0.2,0.8,0.5,1.1,0.8c0.3,0.3,0.5,0.8,0.7,1.2c0.1,0.5,0.2,1,0.2,1.5v6.2h-2.7v-5.7c0-0.6-0.1-1-0.4-1.4
		c-0.3-0.4-0.8-0.6-1.4-0.6c-0.6,0-1,0.2-1.4,0.6c-0.3,0.4-0.5,0.9-0.5,1.4V-246z"/>
	<path fill="#5C5C5C" d="M132.1-256c0-0.2-0.1-0.4-0.2-0.6c-0.1-0.2-0.3-0.5-0.5-0.6c-0.2-0.2-0.5-0.4-0.8-0.5s-0.7-0.2-1.2-0.2
		c-0.3,0-0.6,0-0.9,0.1c-0.3,0.1-0.5,0.2-0.7,0.4c-0.2,0.2-0.3,0.4-0.5,0.6s-0.2,0.4-0.2,0.7c0,0.4,0.1,0.7,0.4,1s0.6,0.5,1.2,0.6
		l2,0.4c0.6,0.1,1.2,0.3,1.7,0.6c0.5,0.3,0.9,0.6,1.2,1s0.6,0.8,0.8,1.2c0.2,0.5,0.3,0.9,0.3,1.4c0,0.5-0.1,1.1-0.3,1.6
		c-0.2,0.5-0.6,1-1,1.4c-0.4,0.4-1,0.7-1.6,1c-0.6,0.3-1.4,0.4-2.2,0.4c-0.9,0-1.8-0.1-2.4-0.4c-0.7-0.3-1.3-0.6-1.7-1.1
		c-0.5-0.4-0.8-0.9-1-1.4s-0.4-1-0.4-1.6l2.6-0.7c0,0.3,0.1,0.7,0.3,1c0.1,0.3,0.3,0.6,0.6,0.8c0.3,0.2,0.6,0.4,0.9,0.6
		c0.4,0.1,0.8,0.2,1.3,0.2c0.7,0,1.3-0.2,1.7-0.5s0.6-0.7,0.6-1.3c0-0.4-0.1-0.8-0.4-1.1c-0.3-0.3-0.7-0.5-1.3-0.6l-2-0.4
		c-1.1-0.2-2-0.7-2.7-1.4c-0.7-0.7-1-1.6-1-2.7c0-0.6,0.1-1.2,0.4-1.8c0.3-0.5,0.6-1,1.1-1.4c0.5-0.4,1-0.7,1.6-0.9
		c0.6-0.2,1.2-0.3,1.9-0.3c0.9,0,1.6,0.1,2.2,0.4c0.6,0.2,1.1,0.5,1.5,0.9c0.4,0.4,0.7,0.8,0.9,1.2s0.4,0.8,0.5,1.3L132.1-256z"/>
	<path fill="#5C5C5C" d="M145.6-248.8c-0.1,0.4-0.3,0.8-0.6,1.2c-0.3,0.4-0.6,0.7-1,1c-0.4,0.3-0.8,0.5-1.3,0.7
		c-0.5,0.2-1,0.3-1.7,0.3c-0.7,0-1.3-0.1-1.9-0.3c-0.6-0.2-1.2-0.6-1.6-1c-0.5-0.5-0.8-1-1.1-1.7c-0.3-0.7-0.4-1.4-0.4-2.2
		c0-0.8,0.1-1.5,0.4-2.1s0.6-1.2,1.1-1.6c0.4-0.4,1-0.8,1.5-1c0.6-0.2,1.2-0.4,1.8-0.4c1.5,0,2.7,0.5,3.6,1.4s1.3,2.2,1.3,3.7
		c0,0.2,0,0.4,0,0.5c0,0.2,0,0.3,0,0.3h-7c0,0.3,0.1,0.6,0.2,0.9c0.1,0.3,0.3,0.5,0.5,0.7c0.2,0.2,0.5,0.4,0.8,0.5s0.6,0.2,0.9,0.2
		c0.6,0,1.1-0.1,1.5-0.4c0.4-0.3,0.6-0.6,0.8-1.1L145.6-248.8z M143.1-252c0-0.2-0.1-0.5-0.1-0.7c-0.1-0.2-0.2-0.4-0.4-0.6
		c-0.2-0.2-0.4-0.3-0.7-0.4c-0.3-0.1-0.6-0.2-1-0.2c-0.3,0-0.7,0.1-0.9,0.2c-0.3,0.1-0.5,0.3-0.7,0.5s-0.3,0.4-0.4,0.6
		c-0.1,0.2-0.2,0.5-0.2,0.7H143.1z"/>
	<path fill="#5C5C5C" d="M151.1-255.8h2v2.4h-2v4.1c0,0.4,0.1,0.7,0.3,0.9c0.2,0.2,0.5,0.3,0.9,0.3c0.2,0,0.3,0,0.5,0
		c0.2,0,0.3,0,0.3-0.1v2.2c-0.1,0.1-0.3,0.1-0.5,0.2c-0.2,0.1-0.6,0.1-1,0.1c-1,0-1.7-0.3-2.3-0.8c-0.6-0.5-0.8-1.3-0.8-2.2v-4.6
		h-1.8v-2.4h0.5c0.5,0,0.9-0.2,1.1-0.5c0.2-0.3,0.4-0.7,0.4-1.1v-1.4h2.4V-255.8z"/>
</g>
<line fill="none" stroke="#EEEEEE" stroke-width="2" stroke-miterlimit="10" x1="2" y1="-226" x2="642" y2="-226"/>
<line fill="none" stroke="#EEEEEE" stroke-width="2" stroke-miterlimit="10" x1="2" y1="193" x2="642" y2="193"/>
<g opacity="0.6">
	<path fill="#999999" d="M522.6,215.5c0.3,0,0.5,0,0.7,0.1s0.4,0.2,0.5,0.3c0.1,0.1,0.3,0.3,0.3,0.5c0.1,0.2,0.1,0.4,0.1,0.6
		c0,0.3-0.1,0.6-0.2,0.8c-0.2,0.2-0.4,0.4-0.6,0.5c0.2,0,0.3,0.1,0.4,0.2c0.1,0.1,0.2,0.2,0.3,0.3s0.2,0.3,0.2,0.4
		c0,0.1,0.1,0.3,0.1,0.5c0,0.2,0,0.4-0.1,0.6c-0.1,0.2-0.2,0.4-0.4,0.5c-0.2,0.1-0.3,0.2-0.6,0.3c-0.2,0.1-0.5,0.1-0.7,0.1h-2v-5.7
		H522.6z M522.5,218c0.3,0,0.6-0.1,0.7-0.3c0.2-0.2,0.3-0.4,0.3-0.7c0-0.3-0.1-0.5-0.3-0.6c-0.2-0.2-0.4-0.2-0.8-0.2h-0.9v1.8H522.5
		z M522.7,220.5c0.3,0,0.6-0.1,0.8-0.2c0.2-0.2,0.3-0.4,0.3-0.7c0-0.3-0.1-0.5-0.3-0.7c-0.2-0.2-0.4-0.3-0.8-0.3h-1.1v1.8H522.7z"/>
	<path fill="#999999" d="M527.2,217.2c0.3,0,0.6,0.1,0.8,0.2c0.2,0.1,0.4,0.2,0.6,0.4s0.3,0.4,0.4,0.6s0.1,0.5,0.1,0.8
		c0,0.3,0,0.6-0.1,0.8c-0.1,0.3-0.2,0.5-0.4,0.6s-0.4,0.3-0.6,0.4c-0.2,0.1-0.5,0.2-0.8,0.2c-0.3,0-0.6-0.1-0.8-0.2
		c-0.2-0.1-0.4-0.2-0.6-0.4s-0.3-0.4-0.4-0.6c-0.1-0.3-0.1-0.5-0.1-0.8c0-0.3,0-0.6,0.1-0.8s0.2-0.5,0.4-0.6s0.4-0.3,0.6-0.4
		C526.7,217.2,526.9,217.2,527.2,217.2z M527.2,220.6c0.2,0,0.3,0,0.5-0.1c0.1-0.1,0.3-0.1,0.4-0.3c0.1-0.1,0.2-0.3,0.3-0.4
		c0.1-0.2,0.1-0.4,0.1-0.6c0-0.2,0-0.4-0.1-0.6c-0.1-0.2-0.2-0.3-0.3-0.4c-0.1-0.1-0.2-0.2-0.4-0.3c-0.1-0.1-0.3-0.1-0.5-0.1
		s-0.3,0-0.5,0.1c-0.1,0.1-0.3,0.1-0.4,0.3c-0.1,0.1-0.2,0.3-0.3,0.4s-0.1,0.4-0.1,0.6c0,0.2,0,0.4,0.1,0.6s0.2,0.3,0.3,0.4
		s0.2,0.2,0.4,0.3C526.9,220.6,527.1,220.6,527.2,220.6z"/>
	<path fill="#999999" d="M530.9,219.2l-1.4-1.9h0.9l0.9,1.4l0.9-1.4h0.9l-1.4,1.9c0,0.1,0.1,0.1,0.2,0.2c0.1,0.1,0.2,0.2,0.3,0.3
		s0.2,0.3,0.3,0.4c0.1,0.1,0.2,0.3,0.3,0.4s0.2,0.2,0.3,0.3c0.1,0.1,0.1,0.2,0.2,0.2h-0.9l-1-1.4l-1,1.4h-0.9L530.9,219.2z"/>
	<path fill="#999999" d="M540.3,221.1l-0.1-0.8c-0.1,0.1-0.2,0.2-0.3,0.3c-0.1,0.1-0.2,0.2-0.4,0.3s-0.3,0.2-0.5,0.2
		c-0.2,0.1-0.4,0.1-0.7,0.1c-0.4,0-0.7-0.1-1-0.2c-0.3-0.1-0.6-0.3-0.9-0.6c-0.3-0.3-0.5-0.6-0.6-0.9c-0.2-0.4-0.2-0.8-0.2-1.3
		c0-0.5,0.1-0.9,0.2-1.3s0.4-0.7,0.6-0.9c0.3-0.2,0.6-0.4,0.9-0.6s0.7-0.2,1-0.2c0.3,0,0.6,0,0.9,0.1s0.5,0.2,0.7,0.3
		s0.4,0.3,0.6,0.5c0.2,0.2,0.3,0.4,0.4,0.7l-0.7,0.3c-0.1-0.4-0.3-0.7-0.7-1c-0.3-0.2-0.7-0.3-1.1-0.3c-0.3,0-0.5,0-0.7,0.1
		c-0.2,0.1-0.5,0.2-0.6,0.4c-0.2,0.2-0.3,0.4-0.5,0.7c-0.1,0.3-0.2,0.6-0.2,1c0,0.4,0.1,0.7,0.2,1c0.1,0.3,0.3,0.5,0.4,0.7
		c0.2,0.2,0.4,0.3,0.6,0.4c0.2,0.1,0.5,0.1,0.7,0.1c0.3,0,0.6,0,0.8-0.1s0.4-0.2,0.5-0.4s0.2-0.3,0.3-0.5c0.1-0.2,0.1-0.3,0.1-0.5
		h-2v-0.7h2.7v2.8H540.3z"/>
	<path fill="#999999" d="M544.6,220.7c-0.1,0.2-0.3,0.4-0.5,0.4c-0.2,0.1-0.4,0.1-0.7,0.1c-0.2,0-0.4,0-0.6-0.1
		c-0.2-0.1-0.3-0.2-0.5-0.3c-0.1-0.1-0.2-0.3-0.3-0.5c-0.1-0.2-0.1-0.4-0.1-0.6v-2.4h0.8v2.3c0,0.1,0,0.3,0,0.4
		c0,0.1,0.1,0.2,0.2,0.3c0.1,0.1,0.2,0.2,0.3,0.2s0.2,0.1,0.4,0.1c0.3,0,0.5-0.1,0.7-0.3c0.2-0.2,0.2-0.4,0.2-0.7v-2.3h0.8v3.1
		c0,0.2,0,0.3,0,0.4c0,0.1,0,0.2,0,0.3h-0.7c0,0,0-0.1,0-0.2C544.6,220.8,544.6,220.8,544.6,220.7z"/>
	<path fill="#999999" d="M546.7,222.8l1-2l-1.7-3.4h0.9l1.2,2.7l1.2-2.7h0.8l-2.5,5.5H546.7z"/>
	<path fill="#999999" d="M549.8,220.6c0-0.1,0.1-0.3,0.2-0.4s0.3-0.2,0.4-0.2c0.2,0,0.3,0.1,0.5,0.2c0.1,0.1,0.2,0.3,0.2,0.6
		c0,0.3,0,0.5-0.1,0.7c-0.1,0.2-0.2,0.3-0.3,0.5c-0.1,0.1-0.2,0.2-0.4,0.3c-0.1,0.1-0.3,0.1-0.4,0.1V222c0.1,0,0.2-0.1,0.3-0.1
		c0.1-0.1,0.2-0.1,0.2-0.2c0.1-0.1,0.1-0.2,0.1-0.3c0-0.1,0.1-0.2,0.1-0.3c0,0,0,0-0.1,0c0,0-0.1,0-0.1,0c-0.2,0-0.3,0-0.4-0.1
		C549.9,220.9,549.8,220.8,549.8,220.6z"/>
	<path fill="#999999" d="M557.6,219.6h-2.5l-0.6,1.6h-0.8l2.3-5.7h0.9l2.3,5.7h-0.8L557.6,219.6z M555.4,218.8h2l-1-2.5L555.4,218.8
		z"/>
	<path fill="#999999" d="M560.1,219.9c0,0.2,0.1,0.4,0.3,0.5c0.1,0.1,0.4,0.2,0.6,0.2c0.2,0,0.4-0.1,0.5-0.2
		c0.1-0.1,0.2-0.2,0.2-0.4c0-0.1,0-0.2-0.1-0.3c-0.1-0.1-0.2-0.1-0.4-0.2l-0.7-0.1c-0.3-0.1-0.5-0.2-0.7-0.4
		c-0.2-0.2-0.3-0.4-0.3-0.7c0-0.2,0-0.3,0.1-0.5s0.2-0.3,0.3-0.4c0.1-0.1,0.3-0.2,0.4-0.3c0.2-0.1,0.3-0.1,0.5-0.1
		c0.3,0,0.5,0,0.7,0.1c0.2,0.1,0.3,0.2,0.4,0.3c0.1,0.1,0.2,0.2,0.3,0.3c0.1,0.1,0.1,0.2,0.1,0.3l-0.7,0.2c0,0,0-0.1-0.1-0.2
		c0-0.1-0.1-0.1-0.1-0.2s-0.1-0.1-0.2-0.2s-0.2-0.1-0.4-0.1c-0.2,0-0.3,0.1-0.5,0.2c-0.1,0.1-0.2,0.2-0.2,0.4c0,0.2,0.1,0.4,0.4,0.5
		l0.6,0.1c0.4,0.1,0.6,0.2,0.8,0.4c0.2,0.2,0.3,0.4,0.3,0.7c0,0.1,0,0.3-0.1,0.4s-0.1,0.3-0.3,0.4c-0.1,0.1-0.3,0.2-0.4,0.3
		c-0.2,0.1-0.4,0.1-0.6,0.1c-0.3,0-0.5,0-0.7-0.1c-0.2-0.1-0.3-0.2-0.5-0.3c-0.1-0.1-0.2-0.2-0.3-0.4s-0.1-0.3-0.1-0.4L560.1,219.9z
		"/>
	<path fill="#999999" d="M564.5,217.3h0.8v0.7h-0.8v2c0,0.2,0,0.3,0.1,0.4c0.1,0.1,0.2,0.1,0.4,0.1c0,0,0.1,0,0.2,0
		c0.1,0,0.1,0,0.1,0v0.6c0,0-0.1,0-0.2,0c-0.1,0-0.2,0-0.3,0c-0.3,0-0.6-0.1-0.8-0.3c-0.2-0.2-0.3-0.5-0.3-0.8V218H563v-0.7h0.2
		c0.2,0,0.4-0.1,0.5-0.2c0.1-0.1,0.1-0.3,0.1-0.4v-0.6h0.7V217.3z"/>
	<path fill="#999999" d="M568.3,218.1c-0.1,0-0.2,0-0.3,0c-0.3,0-0.6,0.1-0.8,0.3s-0.3,0.5-0.3,0.9v1.9h-0.8v-3.8h0.7v0.7
		c0.1-0.1,0.2-0.3,0.2-0.4c0.1-0.1,0.2-0.2,0.3-0.2c0.1-0.1,0.2-0.1,0.3-0.1c0.1,0,0.2,0,0.3,0c0.1,0,0.1,0,0.1,0c0,0,0.1,0,0.1,0
		V218.1z"/>
	<path fill="#999999" d="M570.7,217.2c0.3,0,0.6,0.1,0.8,0.2c0.2,0.1,0.4,0.2,0.6,0.4s0.3,0.4,0.4,0.6c0.1,0.2,0.1,0.5,0.1,0.8
		c0,0.3,0,0.6-0.1,0.8c-0.1,0.3-0.2,0.5-0.4,0.6s-0.4,0.3-0.6,0.4c-0.2,0.1-0.5,0.2-0.8,0.2c-0.3,0-0.6-0.1-0.8-0.2
		c-0.2-0.1-0.4-0.2-0.6-0.4s-0.3-0.4-0.4-0.6c-0.1-0.3-0.1-0.5-0.1-0.8c0-0.3,0-0.6,0.1-0.8s0.2-0.5,0.4-0.6s0.4-0.3,0.6-0.4
		C570.2,217.2,570.5,217.2,570.7,217.2z M570.7,220.6c0.2,0,0.3,0,0.5-0.1s0.3-0.1,0.4-0.3c0.1-0.1,0.2-0.3,0.3-0.4s0.1-0.4,0.1-0.6
		c0-0.2,0-0.4-0.1-0.6s-0.2-0.3-0.3-0.4c-0.1-0.1-0.2-0.2-0.4-0.3s-0.3-0.1-0.5-0.1s-0.3,0-0.5,0.1c-0.1,0.1-0.3,0.1-0.4,0.3
		c-0.1,0.1-0.2,0.3-0.3,0.4c-0.1,0.2-0.1,0.4-0.1,0.6c0,0.2,0,0.4,0.1,0.6c0.1,0.2,0.2,0.3,0.3,0.4c0.1,0.1,0.2,0.2,0.4,0.3
		C570.4,220.6,570.6,220.6,570.7,220.6z"/>
	<path fill="#999999" d="M574.4,221.1h-0.8v-3.8h0.7v0.6c0.1-0.2,0.3-0.4,0.5-0.5c0.2-0.1,0.4-0.2,0.7-0.2c0.2,0,0.4,0,0.6,0.1
		s0.3,0.2,0.4,0.3c0.1,0.1,0.2,0.3,0.3,0.5c0.1,0.2,0.1,0.4,0.1,0.6v2.4h-0.8v-2.3c0-0.1,0-0.3,0-0.4c0-0.1-0.1-0.2-0.2-0.3
		s-0.2-0.2-0.3-0.2c-0.1-0.1-0.3-0.1-0.4-0.1c-0.2,0-0.3,0-0.4,0.1c-0.1,0.1-0.2,0.1-0.3,0.2c-0.1,0.1-0.1,0.2-0.2,0.3
		c0,0.1-0.1,0.3-0.1,0.4V221.1z"/>
	<path fill="#999999" d="M577.9,220.1c0-0.2,0-0.3,0.1-0.5s0.1-0.3,0.2-0.3s0.2-0.2,0.4-0.2c0.1-0.1,0.3-0.1,0.5-0.1l1-0.2
		c0.1,0,0.2-0.1,0.2-0.1c0-0.1,0.1-0.1,0.1-0.2c0-0.2-0.1-0.3-0.2-0.5s-0.3-0.2-0.6-0.2c-0.3,0-0.5,0.1-0.6,0.2
		c-0.1,0.1-0.2,0.3-0.3,0.6l-0.7-0.2c0-0.2,0.1-0.3,0.2-0.5c0.1-0.2,0.2-0.3,0.3-0.4s0.3-0.2,0.5-0.3s0.4-0.1,0.6-0.1
		c0.3,0,0.5,0,0.7,0.1c0.2,0.1,0.4,0.2,0.5,0.3c0.1,0.1,0.2,0.3,0.3,0.4s0.1,0.3,0.1,0.5v1.9c0,0.2,0,0.3,0,0.4c0,0.1,0,0.2,0,0.2
		h-0.7c0,0,0-0.1,0-0.2c0-0.1,0-0.2,0-0.3c0,0.1-0.1,0.1-0.2,0.2c-0.1,0.1-0.2,0.1-0.3,0.2c-0.1,0.1-0.2,0.1-0.4,0.2
		s-0.3,0.1-0.5,0.1c-0.2,0-0.4,0-0.5-0.1c-0.2-0.1-0.3-0.1-0.4-0.3c-0.1-0.1-0.2-0.2-0.3-0.4C578,220.4,577.9,220.3,577.9,220.1z
		 M579.3,220.6c0.2,0,0.3,0,0.4-0.1s0.3-0.1,0.4-0.2c0.1-0.1,0.2-0.2,0.2-0.4s0.1-0.3,0.1-0.5v-0.2l-1.2,0.2c-0.2,0-0.3,0.1-0.4,0.2
		c-0.1,0.1-0.2,0.2-0.2,0.4c0,0.1,0.1,0.3,0.2,0.4C579,220.6,579.1,220.6,579.3,220.6z"/>
	<path fill="#999999" d="M584.8,220.7c-0.1,0.2-0.3,0.4-0.5,0.4c-0.2,0.1-0.4,0.1-0.7,0.1c-0.2,0-0.4,0-0.6-0.1
		c-0.2-0.1-0.3-0.2-0.5-0.3s-0.2-0.3-0.3-0.5c-0.1-0.2-0.1-0.4-0.1-0.6v-2.4h0.8v2.3c0,0.1,0,0.3,0,0.4s0.1,0.2,0.2,0.3
		c0.1,0.1,0.2,0.2,0.3,0.2s0.2,0.1,0.4,0.1c0.3,0,0.5-0.1,0.7-0.3c0.2-0.2,0.2-0.4,0.2-0.7v-2.3h0.8v3.1c0,0.2,0,0.3,0,0.4
		s0,0.2,0,0.3h-0.7c0,0,0-0.1,0-0.2C584.8,220.8,584.8,220.8,584.8,220.7z"/>
	<path fill="#999999" d="M587.8,217.3h0.8v0.7h-0.8v2c0,0.2,0,0.3,0.1,0.4c0.1,0.1,0.2,0.1,0.4,0.1c0,0,0.1,0,0.2,0
		c0.1,0,0.1,0,0.1,0v0.6c0,0-0.1,0-0.2,0c-0.1,0-0.2,0-0.3,0c-0.3,0-0.6-0.1-0.8-0.3s-0.3-0.5-0.3-0.8V218h-0.7v-0.7h0.2
		c0.2,0,0.4-0.1,0.5-0.2c0.1-0.1,0.1-0.3,0.1-0.4v-0.6h0.7V217.3z"/>
	<path fill="#999999" d="M589.6,220.6c0-0.1,0.1-0.3,0.2-0.4s0.3-0.2,0.4-0.2c0.2,0,0.3,0.1,0.5,0.2c0.1,0.1,0.2,0.3,0.2,0.6
		c0,0.3,0,0.5-0.1,0.7c-0.1,0.2-0.2,0.3-0.3,0.5c-0.1,0.1-0.2,0.2-0.4,0.3c-0.1,0.1-0.3,0.1-0.4,0.1V222c0.1,0,0.2-0.1,0.3-0.1
		c0.1-0.1,0.2-0.1,0.2-0.2c0.1-0.1,0.1-0.2,0.1-0.3c0-0.1,0.1-0.2,0.1-0.3c0,0,0,0-0.1,0c0,0-0.1,0-0.1,0c-0.2,0-0.3,0-0.4-0.1
		C589.6,220.9,589.6,220.8,589.6,220.6z"/>
	<path fill="#999999" d="M599.4,221.1v-4.4l-1.9,4.4h-0.7l-1.9-4.4v4.4h-0.8v-5.7h1.1l2,4.6l2-4.6h1v5.7H599.4z"/>
	<path fill="#999999" d="M601.3,220.1c0-0.2,0-0.3,0.1-0.5s0.1-0.3,0.2-0.3s0.2-0.2,0.4-0.2c0.1-0.1,0.3-0.1,0.5-0.1l1-0.2
		c0.1,0,0.2-0.1,0.2-0.1c0-0.1,0.1-0.1,0.1-0.2c0-0.2-0.1-0.3-0.2-0.5s-0.3-0.2-0.6-0.2c-0.3,0-0.5,0.1-0.6,0.2
		c-0.1,0.1-0.2,0.3-0.3,0.6l-0.7-0.2c0-0.2,0.1-0.3,0.2-0.5c0.1-0.2,0.2-0.3,0.3-0.4s0.3-0.2,0.5-0.3s0.4-0.1,0.6-0.1
		c0.3,0,0.5,0,0.7,0.1c0.2,0.1,0.4,0.2,0.5,0.3c0.1,0.1,0.2,0.3,0.3,0.4s0.1,0.3,0.1,0.5v1.9c0,0.2,0,0.3,0,0.4c0,0.1,0,0.2,0,0.2
		h-0.7c0,0,0-0.1,0-0.2c0-0.1,0-0.2,0-0.3c0,0.1-0.1,0.1-0.2,0.2c-0.1,0.1-0.2,0.1-0.3,0.2c-0.1,0.1-0.2,0.1-0.4,0.2
		s-0.3,0.1-0.5,0.1c-0.2,0-0.4,0-0.5-0.1c-0.2-0.1-0.3-0.1-0.4-0.3c-0.1-0.1-0.2-0.2-0.3-0.4C601.3,220.4,601.3,220.3,601.3,220.1z
		 M602.7,220.6c0.2,0,0.3,0,0.4-0.1s0.3-0.1,0.4-0.2c0.1-0.1,0.2-0.2,0.2-0.4s0.1-0.3,0.1-0.5v-0.2l-1.2,0.2c-0.2,0-0.3,0.1-0.4,0.2
		c-0.1,0.1-0.2,0.2-0.2,0.4c0,0.1,0.1,0.3,0.2,0.4C602.3,220.6,602.5,220.6,602.7,220.6z"/>
	<path fill="#999999" d="M605.7,221.1v-5.8h0.8v5.8H605.7z"/>
	<path fill="#999999" d="M611.1,220c-0.1,0.2-0.1,0.3-0.2,0.5s-0.2,0.3-0.4,0.4s-0.3,0.2-0.5,0.3c-0.2,0.1-0.4,0.1-0.6,0.1
		c-0.3,0-0.5,0-0.7-0.1c-0.2-0.1-0.4-0.2-0.6-0.4c-0.2-0.2-0.3-0.4-0.4-0.6c-0.1-0.3-0.2-0.5-0.2-0.9c0-0.3,0.1-0.6,0.2-0.8
		c0.1-0.2,0.2-0.5,0.4-0.6s0.4-0.3,0.6-0.4c0.2-0.1,0.5-0.1,0.7-0.1c0.3,0,0.6,0,0.8,0.1s0.4,0.2,0.6,0.4s0.3,0.4,0.4,0.6
		c0.1,0.2,0.1,0.5,0.1,0.8c0,0,0,0.1,0,0.1c0,0,0,0.1,0,0.1h-2.9c0,0.2,0,0.3,0.1,0.5c0.1,0.1,0.1,0.3,0.2,0.4
		c0.1,0.1,0.2,0.2,0.4,0.2c0.1,0.1,0.3,0.1,0.5,0.1c0.3,0,0.6-0.1,0.7-0.2c0.2-0.1,0.3-0.3,0.4-0.6L611.1,220z M610.3,218.8
		c0-0.3-0.1-0.5-0.3-0.7c-0.2-0.2-0.4-0.3-0.8-0.3c-0.2,0-0.3,0-0.4,0.1c-0.1,0.1-0.2,0.1-0.3,0.2c-0.1,0.1-0.2,0.2-0.2,0.3
		c-0.1,0.1-0.1,0.2-0.1,0.4H610.3z"/>
	<path fill="#999999" d="M611.9,220.6c0-0.1,0.1-0.3,0.2-0.4s0.3-0.2,0.4-0.2s0.3,0.1,0.5,0.2c0.1,0.1,0.2,0.3,0.2,0.6
		c0,0.3,0,0.5-0.1,0.7c-0.1,0.2-0.2,0.3-0.3,0.5c-0.1,0.1-0.2,0.2-0.4,0.3c-0.1,0.1-0.3,0.1-0.4,0.1V222c0.1,0,0.2-0.1,0.3-0.1
		c0.1-0.1,0.2-0.1,0.2-0.2c0.1-0.1,0.1-0.2,0.1-0.3c0-0.1,0.1-0.2,0.1-0.3c0,0,0,0-0.1,0c0,0-0.1,0-0.1,0c-0.1,0-0.3,0-0.4-0.1
		C611.9,220.9,611.9,220.8,611.9,220.6z"/>
	<path fill="#999999" d="M616.4,221.1v-5.7h3.4v0.7h-2.7v1.8h2.4v0.7h-2.4v2.4H616.4z"/>
	<path fill="#999999" d="M623.8,220c-0.1,0.2-0.1,0.3-0.2,0.5c-0.1,0.1-0.2,0.3-0.4,0.4s-0.3,0.2-0.5,0.3c-0.2,0.1-0.4,0.1-0.6,0.1
		c-0.3,0-0.5,0-0.7-0.1c-0.2-0.1-0.4-0.2-0.6-0.4c-0.2-0.2-0.3-0.4-0.4-0.6c-0.1-0.3-0.2-0.5-0.2-0.9c0-0.3,0.1-0.6,0.2-0.8
		s0.2-0.5,0.4-0.6s0.4-0.3,0.6-0.4s0.5-0.1,0.7-0.1c0.3,0,0.6,0,0.8,0.1s0.4,0.2,0.6,0.4c0.2,0.2,0.3,0.4,0.4,0.6
		c0.1,0.2,0.1,0.5,0.1,0.8c0,0,0,0.1,0,0.1c0,0,0,0.1,0,0.1h-2.9c0,0.2,0,0.3,0.1,0.5c0.1,0.1,0.1,0.3,0.2,0.4
		c0.1,0.1,0.2,0.2,0.4,0.2s0.3,0.1,0.5,0.1c0.3,0,0.6-0.1,0.7-0.2s0.3-0.3,0.4-0.6L623.8,220z M623,218.8c0-0.3-0.1-0.5-0.3-0.7
		c-0.2-0.2-0.4-0.3-0.8-0.3c-0.2,0-0.3,0-0.4,0.1c-0.1,0.1-0.2,0.1-0.3,0.2c-0.1,0.1-0.2,0.2-0.2,0.3s-0.1,0.2-0.1,0.4H623z"/>
	<path fill="#999999" d="M624.8,221.1v-3.8h0.7v0.5c0.1-0.2,0.3-0.4,0.5-0.5c0.2-0.1,0.4-0.2,0.7-0.2c0.2,0,0.5,0.1,0.7,0.2
		s0.4,0.3,0.5,0.6c0.2-0.3,0.3-0.5,0.6-0.6c0.2-0.1,0.5-0.2,0.7-0.2c0.2,0,0.3,0,0.5,0.1s0.3,0.1,0.4,0.3c0.1,0.1,0.2,0.3,0.3,0.5
		c0.1,0.2,0.1,0.4,0.1,0.7v2.5h-0.7v-2.4c0-0.3-0.1-0.5-0.2-0.6c-0.1-0.2-0.3-0.3-0.6-0.3c-0.3,0-0.5,0.1-0.6,0.3
		c-0.2,0.2-0.2,0.4-0.2,0.7v2.3h-0.8v-2.4c0-0.3-0.1-0.5-0.2-0.6c-0.1-0.2-0.3-0.3-0.6-0.3c-0.3,0-0.5,0.1-0.7,0.3
		c-0.2,0.2-0.2,0.4-0.2,0.7v2.3H624.8z"/>
	<path fill="#999999" d="M631.4,220.1c0-0.2,0-0.3,0.1-0.5s0.1-0.3,0.2-0.3s0.2-0.2,0.4-0.2c0.1-0.1,0.3-0.1,0.5-0.1l1-0.2
		c0.1,0,0.2-0.1,0.2-0.1c0-0.1,0.1-0.1,0.1-0.2c0-0.2-0.1-0.3-0.2-0.5s-0.3-0.2-0.6-0.2c-0.3,0-0.5,0.1-0.6,0.2
		c-0.1,0.1-0.2,0.3-0.3,0.6l-0.7-0.2c0-0.2,0.1-0.3,0.2-0.5c0.1-0.2,0.2-0.3,0.3-0.4s0.3-0.2,0.5-0.3s0.4-0.1,0.6-0.1
		c0.3,0,0.5,0,0.7,0.1c0.2,0.1,0.4,0.2,0.5,0.3c0.1,0.1,0.2,0.3,0.3,0.4s0.1,0.3,0.1,0.5v1.9c0,0.2,0,0.3,0,0.4c0,0.1,0,0.2,0,0.2
		H634c0,0,0-0.1,0-0.2c0-0.1,0-0.2,0-0.3c0,0.1-0.1,0.1-0.2,0.2c-0.1,0.1-0.2,0.1-0.3,0.2c-0.1,0.1-0.2,0.1-0.4,0.2
		s-0.3,0.1-0.5,0.1c-0.2,0-0.4,0-0.5-0.1c-0.2-0.1-0.3-0.1-0.4-0.3c-0.1-0.1-0.2-0.2-0.3-0.4C631.4,220.4,631.4,220.3,631.4,220.1z
		 M632.8,220.6c0.2,0,0.3,0,0.4-0.1s0.3-0.1,0.4-0.2c0.1-0.1,0.2-0.2,0.2-0.4s0.1-0.3,0.1-0.5v-0.2l-1.2,0.2c-0.2,0-0.3,0.1-0.4,0.2
		c-0.1,0.1-0.2,0.2-0.2,0.4c0,0.1,0.1,0.3,0.2,0.4C632.4,220.6,632.6,220.6,632.8,220.6z"/>
	<path fill="#999999" d="M635.8,221.1v-5.8h0.8v5.8H635.8z"/>
	<path fill="#999999" d="M641.2,220c-0.1,0.2-0.1,0.3-0.2,0.5s-0.2,0.3-0.4,0.4s-0.3,0.2-0.5,0.3c-0.2,0.1-0.4,0.1-0.6,0.1
		c-0.3,0-0.5,0-0.7-0.1c-0.2-0.1-0.4-0.2-0.6-0.4c-0.2-0.2-0.3-0.4-0.4-0.6c-0.1-0.3-0.2-0.5-0.2-0.9c0-0.3,0.1-0.6,0.2-0.8
		c0.1-0.2,0.2-0.5,0.4-0.6s0.4-0.3,0.6-0.4c0.2-0.1,0.5-0.1,0.7-0.1c0.3,0,0.6,0,0.8,0.1s0.4,0.2,0.6,0.4s0.3,0.4,0.4,0.6
		c0.1,0.2,0.1,0.5,0.1,0.8c0,0,0,0.1,0,0.1c0,0,0,0.1,0,0.1h-2.9c0,0.2,0,0.3,0.1,0.5c0.1,0.1,0.1,0.3,0.2,0.4
		c0.1,0.1,0.2,0.2,0.4,0.2c0.1,0.1,0.3,0.1,0.5,0.1c0.3,0,0.6-0.1,0.7-0.2c0.2-0.1,0.3-0.3,0.4-0.6L641.2,220z M640.4,218.8
		c0-0.3-0.1-0.5-0.3-0.7c-0.2-0.2-0.4-0.3-0.8-0.3c-0.2,0-0.3,0-0.4,0.1c-0.1,0.1-0.2,0.1-0.3,0.2c-0.1,0.1-0.2,0.2-0.2,0.3
		c-0.1,0.1-0.1,0.2-0.1,0.4H640.4z"/>
	<path fill="#999999" d="M559.6,225.5c0.3,0,0.5,0,0.7,0.1s0.4,0.2,0.5,0.3c0.1,0.1,0.3,0.3,0.3,0.5c0.1,0.2,0.1,0.4,0.1,0.6
		c0,0.3-0.1,0.6-0.2,0.8c-0.2,0.2-0.4,0.4-0.6,0.5c0.2,0,0.3,0.1,0.4,0.2c0.1,0.1,0.2,0.2,0.3,0.3s0.2,0.3,0.2,0.4
		c0,0.1,0.1,0.3,0.1,0.5c0,0.2,0,0.4-0.1,0.6c-0.1,0.2-0.2,0.4-0.4,0.5c-0.2,0.1-0.3,0.2-0.6,0.3c-0.2,0.1-0.5,0.1-0.7,0.1h-2v-5.7
		H559.6z M559.5,228c0.3,0,0.6-0.1,0.7-0.3c0.2-0.2,0.3-0.4,0.3-0.7c0-0.3-0.1-0.5-0.3-0.6c-0.2-0.2-0.4-0.2-0.8-0.2h-0.9v1.8H559.5
		z M559.6,230.5c0.3,0,0.6-0.1,0.8-0.2c0.2-0.2,0.3-0.4,0.3-0.7c0-0.3-0.1-0.5-0.3-0.7c-0.2-0.2-0.4-0.3-0.8-0.3h-1.1v1.8H559.6z"/>
	<path fill="#999999" d="M565.9,230c-0.1,0.2-0.1,0.3-0.2,0.5s-0.2,0.3-0.4,0.4s-0.3,0.2-0.5,0.3c-0.2,0.1-0.4,0.1-0.6,0.1
		c-0.3,0-0.5,0-0.7-0.1c-0.2-0.1-0.4-0.2-0.6-0.4c-0.2-0.2-0.3-0.4-0.4-0.6c-0.1-0.3-0.2-0.5-0.2-0.9c0-0.3,0.1-0.6,0.2-0.8
		c0.1-0.2,0.2-0.5,0.4-0.6s0.4-0.3,0.6-0.4c0.2-0.1,0.5-0.1,0.7-0.1c0.3,0,0.6,0,0.8,0.1s0.4,0.2,0.6,0.4s0.3,0.4,0.4,0.6
		c0.1,0.2,0.1,0.5,0.1,0.8c0,0,0,0.1,0,0.1c0,0,0,0.1,0,0.1H563c0,0.2,0,0.3,0.1,0.5c0.1,0.1,0.1,0.3,0.2,0.4
		c0.1,0.1,0.2,0.2,0.4,0.2c0.1,0.1,0.3,0.1,0.5,0.1c0.3,0,0.6-0.1,0.7-0.2c0.2-0.1,0.3-0.3,0.4-0.6L565.9,230z M565.1,228.8
		c0-0.3-0.1-0.5-0.3-0.7c-0.2-0.2-0.4-0.3-0.8-0.3c-0.2,0-0.3,0-0.4,0.1c-0.1,0.1-0.2,0.1-0.3,0.2c-0.1,0.1-0.2,0.2-0.2,0.3
		c-0.1,0.1-0.1,0.2-0.1,0.4H565.1z"/>
	<path fill="#999999" d="M566.6,230.1c0-0.2,0-0.3,0.1-0.5s0.1-0.3,0.2-0.3c0.1-0.1,0.2-0.2,0.4-0.2s0.3-0.1,0.5-0.1l1-0.2
		c0.1,0,0.2-0.1,0.2-0.1c0-0.1,0.1-0.1,0.1-0.2c0-0.2-0.1-0.3-0.2-0.5s-0.3-0.2-0.6-0.2c-0.3,0-0.5,0.1-0.6,0.2
		c-0.1,0.1-0.2,0.3-0.3,0.6l-0.7-0.2c0-0.2,0.1-0.3,0.2-0.5c0.1-0.2,0.2-0.3,0.3-0.4s0.3-0.2,0.5-0.3c0.2-0.1,0.4-0.1,0.6-0.1
		c0.3,0,0.5,0,0.7,0.1c0.2,0.1,0.4,0.2,0.5,0.3c0.1,0.1,0.2,0.3,0.3,0.4c0.1,0.2,0.1,0.3,0.1,0.5v1.9c0,0.2,0,0.3,0,0.4
		c0,0.1,0,0.2,0,0.2h-0.7c0,0,0-0.1,0-0.2s0-0.2,0-0.3c0,0.1-0.1,0.1-0.2,0.2c-0.1,0.1-0.2,0.1-0.3,0.2c-0.1,0.1-0.2,0.1-0.4,0.2
		c-0.1,0-0.3,0.1-0.5,0.1c-0.2,0-0.4,0-0.5-0.1c-0.2-0.1-0.3-0.1-0.4-0.3c-0.1-0.1-0.2-0.2-0.3-0.4
		C566.6,230.4,566.6,230.3,566.6,230.1z M568,230.6c0.2,0,0.3,0,0.4-0.1c0.1,0,0.3-0.1,0.4-0.2c0.1-0.1,0.2-0.2,0.2-0.4
		c0.1-0.1,0.1-0.3,0.1-0.5v-0.2l-1.2,0.2c-0.2,0-0.3,0.1-0.4,0.2c-0.1,0.1-0.2,0.2-0.2,0.4c0,0.1,0.1,0.3,0.2,0.4
		C567.7,230.6,567.8,230.6,568,230.6z"/>
	<path fill="#999999" d="M573.2,228.1c-0.1,0-0.2,0-0.3,0c-0.3,0-0.6,0.1-0.8,0.3c-0.2,0.2-0.3,0.5-0.3,0.9v1.9H571v-3.8h0.7v0.7
		c0.1-0.1,0.2-0.3,0.2-0.4c0.1-0.1,0.2-0.2,0.3-0.2c0.1-0.1,0.2-0.1,0.3-0.1s0.2,0,0.3,0c0.1,0,0.1,0,0.1,0c0,0,0.1,0,0.1,0V228.1z"
		/>
	<path fill="#999999" d="M573.2,230.6c0-0.1,0.1-0.3,0.2-0.4s0.3-0.2,0.4-0.2c0.2,0,0.3,0.1,0.5,0.2c0.1,0.1,0.2,0.3,0.2,0.6
		c0,0.3,0,0.5-0.1,0.7c-0.1,0.2-0.2,0.3-0.3,0.5c-0.1,0.1-0.2,0.2-0.4,0.3c-0.1,0.1-0.3,0.1-0.4,0.1V232c0.1,0,0.2-0.1,0.3-0.1
		c0.1-0.1,0.2-0.1,0.2-0.2c0.1-0.1,0.1-0.2,0.1-0.3c0-0.1,0.1-0.2,0.1-0.3c0,0,0,0-0.1,0c0,0-0.1,0-0.1,0c-0.2,0-0.3,0-0.4-0.1
		C573.2,230.9,573.2,230.8,573.2,230.6z"/>
	<path fill="#999999" d="M577.7,231.1v-5.7h2c0.4,0,0.7,0.1,1,0.2c0.3,0.1,0.6,0.3,0.9,0.5c0.2,0.2,0.4,0.5,0.6,0.9s0.2,0.8,0.2,1.2
		s-0.1,0.9-0.2,1.2c-0.1,0.4-0.3,0.6-0.6,0.9c-0.3,0.2-0.5,0.4-0.9,0.5s-0.7,0.2-1,0.2H577.7z M579.6,230.4c0.3,0,0.5,0,0.7-0.1
		c0.2-0.1,0.4-0.2,0.6-0.4c0.2-0.2,0.3-0.4,0.4-0.7s0.2-0.6,0.2-0.9s-0.1-0.7-0.2-0.9s-0.2-0.5-0.4-0.7s-0.4-0.3-0.6-0.4
		s-0.5-0.1-0.7-0.1h-1.2v4.3H579.6z"/>
	<path fill="#999999" d="M585,227.2c0.3,0,0.6,0.1,0.8,0.2c0.2,0.1,0.4,0.2,0.6,0.4s0.3,0.4,0.4,0.6s0.1,0.5,0.1,0.8
		c0,0.3,0,0.6-0.1,0.8c-0.1,0.3-0.2,0.5-0.4,0.6s-0.4,0.3-0.6,0.4c-0.2,0.1-0.5,0.2-0.8,0.2c-0.3,0-0.6-0.1-0.8-0.2
		c-0.2-0.1-0.4-0.2-0.6-0.4s-0.3-0.4-0.4-0.6c-0.1-0.3-0.1-0.5-0.1-0.8c0-0.3,0-0.6,0.1-0.8s0.2-0.5,0.4-0.6s0.4-0.3,0.6-0.4
		C584.5,227.2,584.7,227.2,585,227.2z M585,230.6c0.2,0,0.3,0,0.5-0.1c0.1-0.1,0.3-0.1,0.4-0.3c0.1-0.1,0.2-0.3,0.3-0.4
		c0.1-0.2,0.1-0.4,0.1-0.6c0-0.2,0-0.4-0.1-0.6c-0.1-0.2-0.2-0.3-0.3-0.4c-0.1-0.1-0.2-0.2-0.4-0.3c-0.1-0.1-0.3-0.1-0.5-0.1
		s-0.3,0-0.5,0.1c-0.1,0.1-0.3,0.1-0.4,0.3c-0.1,0.1-0.2,0.3-0.3,0.4s-0.1,0.4-0.1,0.6c0,0.2,0,0.4,0.1,0.6s0.2,0.3,0.3,0.4
		s0.2,0.2,0.4,0.3C584.7,230.6,584.8,230.6,585,230.6z"/>
	<path fill="#999999" d="M588.4,231.2c0,0.3,0.1,0.5,0.3,0.7s0.4,0.3,0.7,0.3c0.4,0,0.7-0.1,0.9-0.3s0.3-0.5,0.3-0.9v-0.6
		c-0.1,0.2-0.2,0.3-0.4,0.4c-0.2,0.1-0.4,0.2-0.7,0.2c-0.3,0-0.5,0-0.7-0.1c-0.2-0.1-0.4-0.2-0.6-0.4c-0.2-0.2-0.3-0.4-0.4-0.6
		s-0.1-0.5-0.1-0.8c0-0.3,0-0.5,0.1-0.7c0.1-0.2,0.2-0.4,0.4-0.6s0.3-0.3,0.6-0.4c0.2-0.1,0.5-0.1,0.7-0.1c0.3,0,0.5,0.1,0.7,0.2
		s0.3,0.3,0.4,0.4v-0.5h0.7v3.6c0,0.2,0,0.5-0.1,0.7c-0.1,0.2-0.2,0.4-0.3,0.6c-0.2,0.2-0.3,0.3-0.6,0.4c-0.2,0.1-0.5,0.2-0.9,0.2
		c-0.2,0-0.5,0-0.7-0.1c-0.2-0.1-0.4-0.2-0.5-0.3c-0.2-0.1-0.3-0.3-0.4-0.5c-0.1-0.2-0.2-0.4-0.2-0.6L588.4,231.2z M589.5,230.3
		c0.3,0,0.6-0.1,0.8-0.3c0.2-0.2,0.3-0.5,0.3-0.9s-0.1-0.7-0.3-0.9c-0.2-0.2-0.5-0.3-0.8-0.3c-0.3,0-0.6,0.1-0.8,0.3
		c-0.2,0.2-0.3,0.5-0.3,0.9c0,0.4,0.1,0.7,0.3,0.9C588.9,230.2,589.2,230.3,589.5,230.3z"/>
	<path fill="#999999" d="M592.5,230.6c0-0.1,0.1-0.3,0.2-0.4s0.3-0.2,0.4-0.2s0.3,0.1,0.5,0.2c0.1,0.1,0.2,0.3,0.2,0.6
		c0,0.3,0,0.5-0.1,0.7c-0.1,0.2-0.2,0.3-0.3,0.5c-0.1,0.1-0.2,0.2-0.4,0.3c-0.1,0.1-0.3,0.1-0.4,0.1V232c0.1,0,0.2-0.1,0.3-0.1
		c0.1-0.1,0.2-0.1,0.2-0.2c0.1-0.1,0.1-0.2,0.1-0.3c0-0.1,0.1-0.2,0.1-0.3c0,0,0,0-0.1,0c0,0-0.1,0-0.1,0c-0.1,0-0.3,0-0.4-0.1
		C592.5,230.9,592.5,230.8,592.5,230.6z"/>
	<path fill="#999999" d="M599.4,231.3c-0.4,0-0.7-0.1-1.1-0.2c-0.3-0.1-0.6-0.3-0.9-0.6c-0.3-0.3-0.5-0.6-0.6-0.9
		c-0.2-0.4-0.2-0.8-0.2-1.3s0.1-0.9,0.2-1.3c0.2-0.4,0.4-0.7,0.6-0.9c0.3-0.3,0.6-0.4,0.9-0.6c0.3-0.1,0.7-0.2,1-0.2
		c0.3,0,0.6,0,0.9,0.1s0.5,0.2,0.7,0.4c0.2,0.2,0.4,0.3,0.5,0.6c0.1,0.2,0.3,0.5,0.3,0.7l-0.7,0.3c-0.1-0.4-0.3-0.8-0.6-1
		c-0.3-0.2-0.7-0.3-1.2-0.3c-0.3,0-0.5,0-0.7,0.1c-0.2,0.1-0.5,0.2-0.6,0.4s-0.3,0.4-0.5,0.7c-0.1,0.3-0.2,0.6-0.2,1s0.1,0.7,0.2,1
		c0.1,0.3,0.3,0.5,0.5,0.7s0.4,0.3,0.6,0.4c0.2,0.1,0.5,0.1,0.7,0.1c0.2,0,0.5,0,0.7-0.1s0.4-0.2,0.5-0.3c0.2-0.1,0.3-0.3,0.4-0.4
		s0.2-0.3,0.2-0.5l0.7,0.3c-0.1,0.3-0.2,0.5-0.3,0.7c-0.1,0.2-0.3,0.4-0.5,0.6c-0.2,0.2-0.5,0.3-0.7,0.4
		C600.1,231.2,599.8,231.3,599.4,231.3z"/>
	<path fill="#999999" d="M602.5,230.1c0-0.2,0-0.3,0.1-0.5s0.1-0.3,0.2-0.3c0.1-0.1,0.2-0.2,0.4-0.2s0.3-0.1,0.5-0.1l1-0.2
		c0.1,0,0.2-0.1,0.2-0.1c0-0.1,0.1-0.1,0.1-0.2c0-0.2-0.1-0.3-0.2-0.5s-0.3-0.2-0.6-0.2c-0.3,0-0.5,0.1-0.6,0.2
		c-0.1,0.1-0.2,0.3-0.3,0.6l-0.7-0.2c0-0.2,0.1-0.3,0.2-0.5c0.1-0.2,0.2-0.3,0.3-0.4s0.3-0.2,0.5-0.3c0.2-0.1,0.4-0.1,0.6-0.1
		c0.3,0,0.5,0,0.7,0.1c0.2,0.1,0.4,0.2,0.5,0.3c0.1,0.1,0.2,0.3,0.3,0.4c0.1,0.2,0.1,0.3,0.1,0.5v1.9c0,0.2,0,0.3,0,0.4
		c0,0.1,0,0.2,0,0.2h-0.7c0,0,0-0.1,0-0.2s0-0.2,0-0.3c0,0.1-0.1,0.1-0.2,0.2c-0.1,0.1-0.2,0.1-0.3,0.2c-0.1,0.1-0.2,0.1-0.4,0.2
		c-0.1,0-0.3,0.1-0.5,0.1c-0.2,0-0.4,0-0.5-0.1c-0.2-0.1-0.3-0.1-0.4-0.3c-0.1-0.1-0.2-0.2-0.3-0.4
		C602.5,230.4,602.5,230.3,602.5,230.1z M603.9,230.6c0.2,0,0.3,0,0.4-0.1c0.1,0,0.3-0.1,0.4-0.2c0.1-0.1,0.2-0.2,0.2-0.4
		c0.1-0.1,0.1-0.3,0.1-0.5v-0.2l-1.2,0.2c-0.2,0-0.3,0.1-0.4,0.2c-0.1,0.1-0.2,0.2-0.2,0.4c0,0.1,0.1,0.3,0.2,0.4
		C603.6,230.6,603.7,230.6,603.9,230.6z"/>
	<path fill="#999999" d="M607.9,227.3h0.8v0.7h-0.8v2c0,0.2,0,0.3,0.1,0.4c0.1,0.1,0.2,0.1,0.4,0.1c0,0,0.1,0,0.2,0
		c0.1,0,0.1,0,0.1,0v0.6c0,0-0.1,0-0.2,0c-0.1,0-0.2,0-0.3,0c-0.3,0-0.6-0.1-0.8-0.3s-0.3-0.5-0.3-0.8V228h-0.7v-0.7h0.2
		c0.2,0,0.4-0.1,0.5-0.2c0.1-0.1,0.1-0.3,0.1-0.4v-0.6h0.7V227.3z"/>
	<path fill="#999999" d="M609.7,230.6c0-0.1,0.1-0.3,0.2-0.4s0.3-0.2,0.4-0.2c0.2,0,0.3,0.1,0.5,0.2c0.1,0.1,0.2,0.3,0.2,0.6
		c0,0.3,0,0.5-0.1,0.7c-0.1,0.2-0.2,0.3-0.3,0.5c-0.1,0.1-0.2,0.2-0.4,0.3c-0.1,0.1-0.3,0.1-0.4,0.1V232c0.1,0,0.2-0.1,0.3-0.1
		c0.1-0.1,0.2-0.1,0.2-0.2c0.1-0.1,0.1-0.2,0.1-0.3c0-0.1,0.1-0.2,0.1-0.3c0,0,0,0-0.1,0c0,0-0.1,0-0.1,0c-0.2,0-0.3,0-0.4-0.1
		C609.8,230.9,609.7,230.8,609.7,230.6z"/>
	<path fill="#999999" d="M616.2,231.3c-0.3,0-0.6,0-0.8-0.1s-0.5-0.2-0.6-0.4c-0.2-0.2-0.3-0.4-0.4-0.6c-0.1-0.3-0.2-0.6-0.2-0.9
		v-3.7h0.8v3.7c0,0.4,0.1,0.8,0.3,1c0.2,0.2,0.5,0.4,0.9,0.4s0.7-0.1,0.9-0.4s0.3-0.6,0.3-1v-3.7h0.8v3.7c0,0.3-0.1,0.6-0.2,0.9
		c-0.1,0.3-0.2,0.5-0.4,0.6c-0.2,0.2-0.4,0.3-0.6,0.4S616.5,231.3,616.2,231.3z"/>
	<path fill="#999999" d="M620.2,231.1h-0.8v-3.8h0.7v0.6c0.1-0.2,0.3-0.4,0.5-0.5c0.2-0.1,0.4-0.2,0.7-0.2c0.2,0,0.4,0,0.6,0.1
		c0.2,0.1,0.3,0.2,0.4,0.3c0.1,0.1,0.2,0.3,0.3,0.5s0.1,0.4,0.1,0.6v2.4H622v-2.3c0-0.1,0-0.3,0-0.4c0-0.1-0.1-0.2-0.2-0.3
		c-0.1-0.1-0.2-0.2-0.3-0.2s-0.3-0.1-0.4-0.1c-0.1,0-0.3,0-0.4,0.1c-0.1,0.1-0.2,0.1-0.3,0.2c-0.1,0.1-0.1,0.2-0.2,0.3
		s-0.1,0.3-0.1,0.4V231.1z"/>
	<path fill="#999999" d="M623.8,225.8c0-0.2,0.1-0.3,0.2-0.4c0.1-0.1,0.2-0.2,0.4-0.2c0.2,0,0.3,0.1,0.4,0.2
		c0.1,0.1,0.2,0.2,0.2,0.4c0,0.1-0.1,0.3-0.2,0.4c-0.1,0.1-0.2,0.2-0.4,0.2c-0.2,0-0.3-0.1-0.4-0.2
		C623.8,226.1,623.8,226,623.8,225.8z M623.9,231.1v-3.8h0.7v3.8H623.9z"/>
	<path fill="#999999" d="M627.6,227.9c-0.2,0-0.3,0-0.4,0.1c-0.1,0.1-0.3,0.1-0.4,0.3c-0.1,0.1-0.2,0.3-0.3,0.4
		c-0.1,0.2-0.1,0.4-0.1,0.6c0,0.2,0,0.4,0.1,0.6c0.1,0.2,0.2,0.3,0.3,0.4c0.1,0.1,0.2,0.2,0.4,0.3s0.3,0.1,0.4,0.1
		c0.2,0,0.3,0,0.5-0.1c0.1-0.1,0.2-0.1,0.3-0.2c0.1-0.1,0.1-0.2,0.2-0.3c0-0.1,0.1-0.2,0.1-0.3l0.7,0.3c0,0.1-0.1,0.3-0.2,0.4
		c-0.1,0.1-0.2,0.3-0.4,0.4c-0.1,0.1-0.3,0.2-0.5,0.3c-0.2,0.1-0.4,0.1-0.7,0.1c-0.3,0-0.5-0.1-0.8-0.2c-0.2-0.1-0.4-0.2-0.6-0.4
		c-0.2-0.2-0.3-0.4-0.4-0.6c-0.1-0.2-0.1-0.5-0.1-0.8c0-0.3,0-0.6,0.1-0.8c0.1-0.3,0.2-0.5,0.4-0.6c0.2-0.2,0.4-0.3,0.6-0.4
		c0.2-0.1,0.5-0.2,0.8-0.2c0.3,0,0.5,0,0.7,0.1c0.2,0.1,0.4,0.2,0.5,0.3c0.1,0.1,0.3,0.3,0.3,0.4c0.1,0.1,0.1,0.3,0.2,0.4l-0.7,0.3
		c0-0.1-0.1-0.2-0.1-0.3c0-0.1-0.1-0.2-0.2-0.3s-0.2-0.1-0.3-0.2S627.8,227.9,627.6,227.9z"/>
	<path fill="#999999" d="M631.8,227.2c0.3,0,0.6,0.1,0.8,0.2c0.2,0.1,0.4,0.2,0.6,0.4s0.3,0.4,0.4,0.6s0.1,0.5,0.1,0.8
		c0,0.3,0,0.6-0.1,0.8c-0.1,0.3-0.2,0.5-0.4,0.6s-0.4,0.3-0.6,0.4c-0.2,0.1-0.5,0.2-0.8,0.2c-0.3,0-0.6-0.1-0.8-0.2
		c-0.2-0.1-0.4-0.2-0.6-0.4s-0.3-0.4-0.4-0.6c-0.1-0.3-0.1-0.5-0.1-0.8c0-0.3,0-0.6,0.1-0.8s0.2-0.5,0.4-0.6s0.4-0.3,0.6-0.4
		C631.3,227.2,631.5,227.2,631.8,227.2z M631.8,230.6c0.2,0,0.3,0,0.5-0.1c0.1-0.1,0.3-0.1,0.4-0.3c0.1-0.1,0.2-0.3,0.3-0.4
		c0.1-0.2,0.1-0.4,0.1-0.6c0-0.2,0-0.4-0.1-0.6c-0.1-0.2-0.2-0.3-0.3-0.4c-0.1-0.1-0.2-0.2-0.4-0.3c-0.1-0.1-0.3-0.1-0.5-0.1
		s-0.3,0-0.5,0.1c-0.1,0.1-0.3,0.1-0.4,0.3c-0.1,0.1-0.2,0.3-0.3,0.4s-0.1,0.4-0.1,0.6c0,0.2,0,0.4,0.1,0.6s0.2,0.3,0.3,0.4
		s0.2,0.2,0.4,0.3C631.5,230.6,631.7,230.6,631.8,230.6z"/>
	<path fill="#999999" d="M636.9,228.1c-0.1,0-0.2,0-0.3,0c-0.3,0-0.6,0.1-0.8,0.3c-0.2,0.2-0.3,0.5-0.3,0.9v1.9h-0.8v-3.8h0.7v0.7
		c0.1-0.1,0.2-0.3,0.2-0.4c0.1-0.1,0.2-0.2,0.3-0.2c0.1-0.1,0.2-0.1,0.3-0.1s0.2,0,0.3,0c0.1,0,0.1,0,0.1,0c0,0,0.1,0,0.1,0V228.1z"
		/>
	<path fill="#999999" d="M638.4,231.1h-0.8v-3.8h0.7v0.6c0.1-0.2,0.3-0.4,0.5-0.5c0.2-0.1,0.4-0.2,0.7-0.2c0.2,0,0.4,0,0.6,0.1
		c0.2,0.1,0.3,0.2,0.4,0.3c0.1,0.1,0.2,0.3,0.3,0.5s0.1,0.4,0.1,0.6v2.4h-0.8v-2.3c0-0.1,0-0.3,0-0.4c0-0.1-0.1-0.2-0.2-0.3
		c-0.1-0.1-0.2-0.2-0.3-0.2s-0.3-0.1-0.4-0.1c-0.1,0-0.3,0-0.4,0.1c-0.1,0.1-0.2,0.1-0.3,0.2c-0.1,0.1-0.1,0.2-0.2,0.3
		s-0.1,0.3-0.1,0.4V231.1z"/>
</g>
<g>
	<path fill="#9013FE" d="M33.6,231.1h-1.1l4.1-8.5h1.1L33.6,231.1z"/>
	<path fill="#9013FE" d="M38,231.1v-5.8h1.1v0.8c0.2-0.3,0.4-0.6,0.8-0.7s0.7-0.2,1-0.2c0.4,0,0.7,0.1,1,0.3
		c0.3,0.2,0.6,0.5,0.7,0.8c0.2-0.4,0.5-0.7,0.9-0.9s0.7-0.2,1.1-0.2c0.2,0,0.5,0,0.7,0.1c0.2,0.1,0.5,0.2,0.6,0.4
		c0.2,0.2,0.3,0.4,0.5,0.7c0.1,0.3,0.2,0.6,0.2,1v3.7h-1.1v-3.6c0-0.4-0.1-0.7-0.3-0.9c-0.2-0.3-0.5-0.4-0.9-0.4
		c-0.4,0-0.7,0.1-1,0.4c-0.2,0.3-0.4,0.6-0.4,1v3.5h-1.1v-3.6c0-0.4-0.1-0.7-0.3-0.9c-0.2-0.3-0.5-0.4-0.9-0.4c-0.4,0-0.7,0.1-1,0.4
		c-0.2,0.3-0.4,0.6-0.4,1.1v3.5H38z"/>
	<path fill="#9013FE" d="M47.9,229.6c0-0.3,0-0.5,0.1-0.7c0.1-0.2,0.2-0.4,0.4-0.5c0.2-0.1,0.3-0.3,0.6-0.3c0.2-0.1,0.4-0.2,0.7-0.2
		l1.6-0.2c0.2,0,0.3-0.1,0.4-0.2c0.1-0.1,0.1-0.2,0.1-0.3c0-0.3-0.1-0.5-0.3-0.7c-0.2-0.2-0.5-0.3-1-0.3c-0.4,0-0.7,0.1-0.9,0.3
		c-0.2,0.2-0.3,0.5-0.4,0.8l-1.1-0.3c0-0.3,0.1-0.5,0.2-0.8s0.3-0.4,0.5-0.6s0.5-0.3,0.7-0.4c0.3-0.1,0.6-0.1,0.9-0.1
		c0.4,0,0.8,0.1,1.1,0.2c0.3,0.1,0.6,0.3,0.7,0.5c0.2,0.2,0.3,0.4,0.4,0.7c0.1,0.3,0.1,0.5,0.1,0.8v2.9c0,0.3,0,0.5,0,0.6
		c0,0.2,0,0.3,0,0.3h-1.1c0-0.1,0-0.2,0-0.3s0-0.3,0-0.5c-0.1,0.1-0.1,0.2-0.3,0.3c-0.1,0.1-0.2,0.2-0.4,0.3
		c-0.2,0.1-0.3,0.2-0.5,0.2c-0.2,0.1-0.4,0.1-0.7,0.1c-0.3,0-0.6,0-0.8-0.1c-0.2-0.1-0.4-0.2-0.6-0.4s-0.3-0.3-0.4-0.5
		C48,230,47.9,229.8,47.9,229.6z M50,230.4c0.2,0,0.4,0,0.7-0.1c0.2-0.1,0.4-0.2,0.5-0.3c0.1-0.1,0.3-0.3,0.4-0.5s0.1-0.5,0.1-0.8
		v-0.3l-1.8,0.3c-0.2,0-0.4,0.1-0.6,0.3c-0.2,0.1-0.2,0.3-0.2,0.6c0,0.2,0.1,0.4,0.3,0.6C49.5,230.3,49.7,230.4,50,230.4z"/>
	<path fill="#9013FE" d="M54.6,233.6l1.4-3l-2.5-5.1h1.3l1.8,4l1.7-4h1.2l-3.8,8.2H54.6z"/>
	<path fill="#9013FE" d="M60.2,229.6c0-0.3,0-0.5,0.1-0.7c0.1-0.2,0.2-0.4,0.4-0.5c0.2-0.1,0.3-0.3,0.6-0.3c0.2-0.1,0.4-0.2,0.7-0.2
		l1.6-0.2c0.2,0,0.3-0.1,0.4-0.2c0.1-0.1,0.1-0.2,0.1-0.3c0-0.3-0.1-0.5-0.3-0.7c-0.2-0.2-0.5-0.3-1-0.3c-0.4,0-0.7,0.1-0.9,0.3
		c-0.2,0.2-0.3,0.5-0.4,0.8l-1.1-0.3c0-0.3,0.1-0.5,0.2-0.8s0.3-0.4,0.5-0.6s0.5-0.3,0.7-0.4c0.3-0.1,0.6-0.1,0.9-0.1
		c0.4,0,0.8,0.1,1.1,0.2c0.3,0.1,0.6,0.3,0.7,0.5c0.2,0.2,0.3,0.4,0.4,0.7c0.1,0.3,0.1,0.5,0.1,0.8v2.9c0,0.3,0,0.5,0,0.6
		c0,0.2,0,0.3,0,0.3H64c0-0.1,0-0.2,0-0.3s0-0.3,0-0.5c-0.1,0.1-0.1,0.2-0.3,0.3c-0.1,0.1-0.2,0.2-0.4,0.3c-0.2,0.1-0.3,0.2-0.5,0.2
		c-0.2,0.1-0.4,0.1-0.7,0.1c-0.3,0-0.6,0-0.8-0.1c-0.2-0.1-0.4-0.2-0.6-0.4s-0.3-0.3-0.4-0.5C60.2,230,60.2,229.8,60.2,229.6z
		 M62.3,230.4c0.2,0,0.4,0,0.7-0.1c0.2-0.1,0.4-0.2,0.5-0.3c0.1-0.1,0.3-0.3,0.4-0.5s0.1-0.5,0.1-0.8v-0.3l-1.8,0.3
		c-0.2,0-0.4,0.1-0.6,0.3c-0.2,0.1-0.2,0.3-0.2,0.6c0,0.2,0.1,0.4,0.3,0.6C61.7,230.3,62,230.4,62.3,230.4z"/>
	<path fill="#9013FE" d="M67.9,231.1h-1.1v-5.8h1.1v0.8c0.2-0.4,0.5-0.6,0.8-0.8c0.3-0.2,0.6-0.2,1-0.2c0.3,0,0.6,0.1,0.9,0.2
		c0.3,0.1,0.5,0.3,0.6,0.5c0.2,0.2,0.3,0.4,0.4,0.7c0.1,0.3,0.1,0.6,0.1,0.9v3.7h-1.1v-3.5c0-0.2,0-0.4-0.1-0.6
		c0-0.2-0.1-0.3-0.2-0.5c-0.1-0.1-0.2-0.2-0.4-0.3c-0.2-0.1-0.4-0.1-0.6-0.1c-0.2,0-0.4,0-0.6,0.1s-0.3,0.2-0.4,0.3
		c-0.1,0.1-0.2,0.3-0.3,0.5c-0.1,0.2-0.1,0.4-0.1,0.6V231.1z"/>
	<path fill="#9013FE" d="M76.3,227.8l2.5,3.3h-1.4l-1.9-2.5l-0.8,0.8v1.7h-1.1v-8.7h1.1v5.5l2.5-2.6h1.6L76.3,227.8z"/>
	<path fill="#9013FE" d="M83.6,230.3c-0.1,0.3-0.4,0.5-0.7,0.7c-0.3,0.2-0.7,0.3-1.1,0.3c-0.4,0-0.8-0.1-1.1-0.2s-0.6-0.4-0.9-0.6
		c-0.2-0.3-0.4-0.6-0.5-1s-0.2-0.8-0.2-1.2c0-0.4,0.1-0.8,0.2-1.2c0.1-0.4,0.3-0.7,0.6-1c0.2-0.3,0.5-0.5,0.9-0.7s0.7-0.2,1.1-0.2
		c0.3,0,0.5,0,0.7,0.1c0.2,0.1,0.4,0.1,0.5,0.2c0.1,0.1,0.3,0.2,0.4,0.3c0.1,0.1,0.2,0.2,0.2,0.4v-3.7h1.1v7.6c0,0.3,0,0.5,0,0.7
		c0,0.2,0,0.3,0,0.4h-1.1c0-0.1,0-0.2,0-0.3C83.6,230.7,83.6,230.5,83.6,230.3L83.6,230.3z M80.2,228.2c0,0.3,0,0.6,0.1,0.8
		s0.2,0.5,0.3,0.7c0.1,0.2,0.3,0.3,0.5,0.4c0.2,0.1,0.4,0.2,0.7,0.2c0.3,0,0.5-0.1,0.7-0.2s0.4-0.3,0.5-0.4c0.1-0.2,0.3-0.4,0.3-0.7
		s0.1-0.5,0.1-0.8c0-0.6-0.1-1.1-0.4-1.5s-0.7-0.6-1.2-0.6c-0.3,0-0.5,0-0.7,0.1c-0.2,0.1-0.4,0.2-0.5,0.4c-0.1,0.2-0.3,0.4-0.3,0.6
		S80.2,227.9,80.2,228.2z"/>
	<path fill="#9013FE" d="M87.7,231.1h-1.1v-8.7h1.1v3.6c0.2-0.3,0.5-0.5,0.8-0.6c0.3-0.1,0.6-0.2,1-0.2c0.3,0,0.6,0.1,0.9,0.2
		c0.3,0.1,0.5,0.3,0.6,0.5c0.2,0.2,0.3,0.4,0.4,0.7c0.1,0.3,0.1,0.6,0.1,0.9v3.7h-1.1v-3.5c0-0.2,0-0.4-0.1-0.6
		c0-0.2-0.1-0.3-0.2-0.5c-0.1-0.1-0.2-0.2-0.4-0.3c-0.2-0.1-0.4-0.1-0.6-0.1c-0.2,0-0.4,0-0.6,0.1c-0.2,0.1-0.3,0.2-0.4,0.3
		c-0.1,0.1-0.2,0.3-0.3,0.5c-0.1,0.2-0.1,0.4-0.1,0.6V231.1z"/>
	<path fill="#9013FE" d="M93,229.6c0-0.3,0-0.5,0.1-0.7c0.1-0.2,0.2-0.4,0.4-0.5c0.2-0.1,0.3-0.3,0.6-0.3c0.2-0.1,0.4-0.2,0.7-0.2
		l1.6-0.2c0.2,0,0.3-0.1,0.4-0.2c0.1-0.1,0.1-0.2,0.1-0.3c0-0.3-0.1-0.5-0.3-0.7c-0.2-0.2-0.5-0.3-1-0.3c-0.4,0-0.7,0.1-0.9,0.3
		c-0.2,0.2-0.3,0.5-0.4,0.8l-1.1-0.3c0-0.3,0.1-0.5,0.2-0.8s0.3-0.4,0.5-0.6s0.5-0.3,0.7-0.4c0.3-0.1,0.6-0.1,0.9-0.1
		c0.4,0,0.8,0.1,1.1,0.2c0.3,0.1,0.6,0.3,0.7,0.5c0.2,0.2,0.3,0.4,0.4,0.7c0.1,0.3,0.1,0.5,0.1,0.8v2.9c0,0.3,0,0.5,0,0.6
		c0,0.2,0,0.3,0,0.3h-1.1c0-0.1,0-0.2,0-0.3s0-0.3,0-0.5c-0.1,0.1-0.1,0.2-0.3,0.3c-0.1,0.1-0.2,0.2-0.4,0.3
		c-0.2,0.1-0.3,0.2-0.5,0.2c-0.2,0.1-0.4,0.1-0.7,0.1c-0.3,0-0.6,0-0.8-0.1c-0.2-0.1-0.4-0.2-0.6-0.4s-0.3-0.3-0.4-0.5
		C93,230,93,229.8,93,229.6z M95.1,230.4c0.2,0,0.4,0,0.7-0.1c0.2-0.1,0.4-0.2,0.5-0.3c0.1-0.1,0.3-0.3,0.4-0.5s0.1-0.5,0.1-0.8
		v-0.3l-1.8,0.3c-0.2,0-0.4,0.1-0.6,0.3c-0.2,0.1-0.2,0.3-0.2,0.6c0,0.2,0.1,0.4,0.3,0.6C94.6,230.3,94.8,230.4,95.1,230.4z"/>
	<path fill="#9013FE" d="M104,225.4l1.5,4.3l1.3-4.3h1.2l-1.9,5.8H105l-1.5-4.4l-1.5,4.4h-1.2l-1.9-5.8h1.2l1.3,4.3l1.5-4.3H104z"/>
	<path fill="#9013FE" d="M108.7,229.6c0-0.3,0-0.5,0.1-0.7c0.1-0.2,0.2-0.4,0.4-0.5c0.2-0.1,0.3-0.3,0.6-0.3
		c0.2-0.1,0.4-0.2,0.7-0.2l1.6-0.2c0.2,0,0.3-0.1,0.4-0.2c0.1-0.1,0.1-0.2,0.1-0.3c0-0.3-0.1-0.5-0.3-0.7c-0.2-0.2-0.5-0.3-1-0.3
		c-0.4,0-0.7,0.1-0.9,0.3c-0.2,0.2-0.3,0.5-0.4,0.8l-1.1-0.3c0-0.3,0.1-0.5,0.2-0.8s0.3-0.4,0.5-0.6s0.5-0.3,0.7-0.4
		c0.3-0.1,0.6-0.1,0.9-0.1c0.4,0,0.8,0.1,1.1,0.2c0.3,0.1,0.6,0.3,0.7,0.5c0.2,0.2,0.3,0.4,0.4,0.7c0.1,0.3,0.1,0.5,0.1,0.8v2.9
		c0,0.3,0,0.5,0,0.6c0,0.2,0,0.3,0,0.3h-1.1c0-0.1,0-0.2,0-0.3s0-0.3,0-0.5c-0.1,0.1-0.1,0.2-0.3,0.3c-0.1,0.1-0.2,0.2-0.4,0.3
		c-0.2,0.1-0.3,0.2-0.5,0.2c-0.2,0.1-0.4,0.1-0.7,0.1c-0.3,0-0.6,0-0.8-0.1c-0.2-0.1-0.4-0.2-0.6-0.4s-0.3-0.3-0.4-0.5
		C108.8,230,108.7,229.8,108.7,229.6z M110.8,230.4c0.2,0,0.4,0,0.7-0.1c0.2-0.1,0.4-0.2,0.5-0.3c0.1-0.1,0.3-0.3,0.4-0.5
		s0.1-0.5,0.1-0.8v-0.3l-1.8,0.3c-0.2,0-0.4,0.1-0.6,0.3c-0.2,0.1-0.2,0.3-0.2,0.6c0,0.2,0.1,0.4,0.3,0.6
		C110.3,230.3,110.5,230.4,110.8,230.4z"/>
	<path fill="#9013FE" d="M116.5,231.1h-1.1v-5.8h1.1v0.8c0.2-0.4,0.5-0.6,0.8-0.8c0.3-0.2,0.6-0.2,1-0.2c0.3,0,0.6,0.1,0.9,0.2
		c0.3,0.1,0.5,0.3,0.6,0.5c0.2,0.2,0.3,0.4,0.4,0.7c0.1,0.3,0.1,0.6,0.1,0.9v3.7h-1.1v-3.5c0-0.2,0-0.4-0.1-0.6
		c0-0.2-0.1-0.3-0.2-0.5c-0.1-0.1-0.2-0.2-0.4-0.3c-0.2-0.1-0.4-0.1-0.6-0.1c-0.2,0-0.4,0-0.6,0.1s-0.3,0.2-0.4,0.3
		c-0.1,0.1-0.2,0.3-0.3,0.5c-0.1,0.2-0.1,0.4-0.1,0.6V231.1z"/>
</g>
<path fill-rule="evenodd" clip-rule="evenodd" fill="#9013FE" d="M19.9,236.5c-0.4-2.4-1.1-4.6-1.9-6.7c1.9-0.3,3.9-0.3,5.9,0.2
	C23.5,232.7,22,235,19.9,236.5z M7.7,236.3c0.7-0.9,2.1-2.5,4.1-3.9c1.4-0.9,2.8-1.6,4.3-2.1c0.9,2.2,1.6,4.7,2,7.3
	c-1.3,0.6-2.7,0.9-4.2,0.9C11.6,238.5,9.4,237.7,7.7,236.3z M3.9,228C4,228,4,228,3.9,228c1.3,0,3.5-0.1,6.2-0.6
	c1.5-0.3,2.9-0.6,4.3-1.1c0.3,0.7,0.7,1.4,1,2.2c-1.9,0.6-3.5,1.5-4.7,2.3c-2.1,1.4-3.6,3.1-4.4,4c-1.5-1.8-2.4-4-2.4-6.5
	C3.9,228.3,3.9,228.1,3.9,228z M10,219.2c0.6,0.8,2,2.7,3.5,5.4c-3.8,1.2-7.5,1.4-9.3,1.5C4.9,223,7.1,220.4,10,219.2z M20.5,220.7
	c-1.5,1.4-3.3,2.4-5.2,3.2c-1.3-2.5-2.6-4.3-3.4-5.4c0.7-0.1,1.4-0.2,2.1-0.2C16.5,218.3,18.7,219.2,20.5,220.7z M21.8,222.1
	c1.3,1.7,2.2,3.8,2.2,6c-2.5-0.5-4.8-0.5-6.7-0.1c-0.4-0.8-0.7-1.6-1.1-2.4C18.4,224.7,20.3,223.5,21.8,222.1z M14,216.4
	c-6.6,0-12,5.4-12,12s5.4,12,12,12c6.6,0,12-5.4,12-12S20.6,216.4,14,216.4z"/>
<g>
	<path fill="#9013FE" d="M188.5,231.1v-5.8h1.1v0.8c0.2-0.3,0.4-0.6,0.8-0.7s0.7-0.2,1-0.2c0.4,0,0.7,0.1,1,0.3
		c0.3,0.2,0.6,0.5,0.7,0.8c0.2-0.4,0.5-0.7,0.9-0.9s0.7-0.2,1.1-0.2c0.2,0,0.5,0,0.7,0.1c0.2,0.1,0.5,0.2,0.6,0.4
		c0.2,0.2,0.3,0.4,0.5,0.7c0.1,0.3,0.2,0.6,0.2,1v3.7h-1.1v-3.6c0-0.4-0.1-0.7-0.3-0.9c-0.2-0.3-0.5-0.4-0.9-0.4
		c-0.4,0-0.7,0.1-1,0.4c-0.2,0.3-0.4,0.6-0.4,1v3.5h-1.1v-3.6c0-0.4-0.1-0.7-0.3-0.9c-0.2-0.3-0.5-0.4-0.9-0.4c-0.4,0-0.7,0.1-1,0.4
		c-0.2,0.3-0.4,0.6-0.4,1.1v3.5H188.5z"/>
	<path fill="#9013FE" d="M198.4,229.6c0-0.3,0-0.5,0.1-0.7c0.1-0.2,0.2-0.4,0.4-0.5c0.2-0.1,0.3-0.3,0.6-0.3
		c0.2-0.1,0.4-0.2,0.7-0.2l1.6-0.2c0.2,0,0.3-0.1,0.4-0.2c0.1-0.1,0.1-0.2,0.1-0.3c0-0.3-0.1-0.5-0.3-0.7c-0.2-0.2-0.5-0.3-1-0.3
		c-0.4,0-0.7,0.1-0.9,0.3c-0.2,0.2-0.3,0.5-0.4,0.8l-1.1-0.3c0-0.3,0.1-0.5,0.2-0.8s0.3-0.4,0.5-0.6s0.5-0.3,0.7-0.4
		c0.3-0.1,0.6-0.1,0.9-0.1c0.4,0,0.8,0.1,1.1,0.2c0.3,0.1,0.6,0.3,0.7,0.5c0.2,0.2,0.3,0.4,0.4,0.7c0.1,0.3,0.1,0.5,0.1,0.8v2.9
		c0,0.3,0,0.5,0,0.6c0,0.2,0,0.3,0,0.3h-1.1c0-0.1,0-0.2,0-0.3s0-0.3,0-0.5c-0.1,0.1-0.1,0.2-0.3,0.3c-0.1,0.1-0.2,0.2-0.4,0.3
		c-0.2,0.1-0.3,0.2-0.5,0.2c-0.2,0.1-0.4,0.1-0.7,0.1c-0.3,0-0.6,0-0.8-0.1c-0.2-0.1-0.4-0.2-0.6-0.4s-0.3-0.3-0.4-0.5
		C198.5,230,198.4,229.8,198.4,229.6z M200.5,230.4c0.2,0,0.4,0,0.7-0.1c0.2-0.1,0.4-0.2,0.5-0.3c0.1-0.1,0.3-0.3,0.4-0.5
		s0.1-0.5,0.1-0.8v-0.3l-1.8,0.3c-0.2,0-0.4,0.1-0.6,0.3c-0.2,0.1-0.2,0.3-0.2,0.6c0,0.2,0.1,0.4,0.3,0.6
		C200,230.3,200.2,230.4,200.5,230.4z"/>
	<path fill="#9013FE" d="M205.1,233.6l1.4-3l-2.5-5.1h1.3l1.8,4l1.7-4h1.2l-3.8,8.2H205.1z"/>
	<path fill="#9013FE" d="M210.7,229.6c0-0.3,0-0.5,0.1-0.7c0.1-0.2,0.2-0.4,0.4-0.5c0.2-0.1,0.3-0.3,0.6-0.3
		c0.2-0.1,0.4-0.2,0.7-0.2l1.6-0.2c0.2,0,0.3-0.1,0.4-0.2c0.1-0.1,0.1-0.2,0.1-0.3c0-0.3-0.1-0.5-0.3-0.7c-0.2-0.2-0.5-0.3-1-0.3
		c-0.4,0-0.7,0.1-0.9,0.3c-0.2,0.2-0.3,0.5-0.4,0.8l-1.1-0.3c0-0.3,0.1-0.5,0.2-0.8s0.3-0.4,0.5-0.6s0.5-0.3,0.7-0.4
		c0.3-0.1,0.6-0.1,0.9-0.1c0.4,0,0.8,0.1,1.1,0.2c0.3,0.1,0.6,0.3,0.7,0.5c0.2,0.2,0.3,0.4,0.4,0.7c0.1,0.3,0.1,0.5,0.1,0.8v2.9
		c0,0.3,0,0.5,0,0.6c0,0.2,0,0.3,0,0.3h-1.1c0-0.1,0-0.2,0-0.3s0-0.3,0-0.5c-0.1,0.1-0.1,0.2-0.3,0.3c-0.1,0.1-0.2,0.2-0.4,0.3
		c-0.2,0.1-0.3,0.2-0.5,0.2c-0.2,0.1-0.4,0.1-0.7,0.1c-0.3,0-0.6,0-0.8-0.1c-0.2-0.1-0.4-0.2-0.6-0.4s-0.3-0.3-0.4-0.5
		C210.7,230,210.7,229.8,210.7,229.6z M212.8,230.4c0.2,0,0.4,0,0.7-0.1c0.2-0.1,0.4-0.2,0.5-0.3c0.1-0.1,0.3-0.3,0.4-0.5
		s0.1-0.5,0.1-0.8v-0.3l-1.8,0.3c-0.2,0-0.4,0.1-0.6,0.3c-0.2,0.1-0.2,0.3-0.2,0.6c0,0.2,0.1,0.4,0.3,0.6
		C212.2,230.3,212.5,230.4,212.8,230.4z"/>
	<path fill="#9013FE" d="M218.4,231.1h-1.1v-5.8h1.1v0.8c0.2-0.4,0.5-0.6,0.8-0.8c0.3-0.2,0.6-0.2,1-0.2c0.3,0,0.6,0.1,0.9,0.2
		c0.3,0.1,0.5,0.3,0.6,0.5c0.2,0.2,0.3,0.4,0.4,0.7c0.1,0.3,0.1,0.6,0.1,0.9v3.7h-1.1v-3.5c0-0.2,0-0.4-0.1-0.6
		c0-0.2-0.1-0.3-0.2-0.5c-0.1-0.1-0.2-0.2-0.4-0.3c-0.2-0.1-0.4-0.1-0.6-0.1c-0.2,0-0.4,0-0.6,0.1s-0.3,0.2-0.4,0.3
		c-0.1,0.1-0.2,0.3-0.3,0.5c-0.1,0.2-0.1,0.4-0.1,0.6V231.1z"/>
	<path fill="#9013FE" d="M226.8,227.8l2.5,3.3h-1.4l-1.9-2.5l-0.8,0.8v1.7h-1.1v-8.7h1.1v5.5l2.5-2.6h1.6L226.8,227.8z"/>
	<path fill="#9013FE" d="M229.9,232.1v-0.9h6.1v0.9H229.9z"/>
	<path fill="#9013FE" d="M238.6,225.4h1.2v1h-1.2v3c0,0.3,0.1,0.5,0.2,0.6s0.3,0.2,0.6,0.2c0.1,0,0.2,0,0.2,0s0.2,0,0.2,0v1
		c0,0-0.1,0-0.3,0.1c-0.1,0-0.3,0-0.5,0c-0.5,0-0.9-0.1-1.2-0.4c-0.3-0.3-0.4-0.7-0.4-1.2v-3.2h-1.1v-1h0.3c0.3,0,0.5-0.1,0.7-0.3
		c0.1-0.2,0.2-0.4,0.2-0.6v-0.9h1V225.4z"/>
	<path fill="#9013FE" d="M242.4,231.1h-1.1v-8.7h1.1v3.6c0.2-0.3,0.5-0.5,0.8-0.6c0.3-0.1,0.6-0.2,1-0.2c0.3,0,0.6,0.1,0.9,0.2
		c0.3,0.1,0.5,0.3,0.6,0.5c0.2,0.2,0.3,0.4,0.4,0.7c0.1,0.3,0.1,0.6,0.1,0.9v3.7h-1.1v-3.5c0-0.2,0-0.4-0.1-0.6
		c0-0.2-0.1-0.3-0.2-0.5c-0.1-0.1-0.2-0.2-0.4-0.3c-0.2-0.1-0.4-0.1-0.6-0.1c-0.2,0-0.4,0-0.6,0.1c-0.2,0.1-0.3,0.2-0.4,0.3
		c-0.1,0.1-0.2,0.3-0.3,0.5c-0.1,0.2-0.1,0.4-0.1,0.6V231.1z"/>
	<path fill="#9013FE" d="M253.1,229.5c-0.1,0.3-0.2,0.5-0.4,0.7c-0.2,0.2-0.3,0.4-0.6,0.6c-0.2,0.2-0.5,0.3-0.8,0.4
		c-0.3,0.1-0.6,0.1-0.9,0.1c-0.4,0-0.8-0.1-1.1-0.2c-0.4-0.1-0.7-0.3-0.9-0.6c-0.3-0.3-0.5-0.6-0.6-1c-0.2-0.4-0.2-0.8-0.2-1.3
		c0-0.5,0.1-0.9,0.2-1.2c0.2-0.4,0.4-0.7,0.6-1c0.3-0.3,0.5-0.5,0.9-0.6c0.3-0.1,0.7-0.2,1-0.2c0.4,0,0.8,0.1,1.2,0.2
		c0.3,0.1,0.6,0.4,0.9,0.6c0.2,0.3,0.4,0.6,0.5,1s0.2,0.8,0.2,1.2c0,0.1,0,0.1,0,0.2c0,0.1,0,0.1,0,0.2h-4.3c0,0.3,0.1,0.5,0.1,0.7
		c0.1,0.2,0.2,0.4,0.4,0.6c0.2,0.2,0.3,0.3,0.6,0.4s0.4,0.1,0.7,0.1c0.5,0,0.8-0.1,1.1-0.3c0.2-0.2,0.4-0.5,0.5-0.8L253.1,229.5z
		 M251.9,227.7c0-0.4-0.2-0.8-0.4-1c-0.3-0.3-0.7-0.4-1.2-0.4c-0.2,0-0.5,0-0.6,0.1c-0.2,0.1-0.3,0.2-0.5,0.3
		c-0.1,0.1-0.2,0.3-0.3,0.5c-0.1,0.2-0.1,0.4-0.1,0.5H251.9z"/>
	<path fill="#9013FE" d="M253.6,232.1v-0.9h6.1v0.9H253.6z"/>
	<path fill="#9013FE" d="M263.2,225.2c0.4,0,0.8,0.1,1.2,0.2s0.7,0.4,0.9,0.6c0.3,0.3,0.5,0.6,0.6,1s0.2,0.8,0.2,1.2
		c0,0.4-0.1,0.8-0.2,1.2s-0.3,0.7-0.6,1c-0.3,0.3-0.6,0.5-0.9,0.6c-0.4,0.2-0.8,0.2-1.2,0.2c-0.4,0-0.8-0.1-1.2-0.2
		c-0.4-0.2-0.7-0.4-0.9-0.6c-0.3-0.3-0.5-0.6-0.6-1c-0.1-0.4-0.2-0.8-0.2-1.2c0-0.4,0.1-0.8,0.2-1.2c0.1-0.4,0.3-0.7,0.6-1
		c0.3-0.3,0.6-0.5,0.9-0.6C262.3,225.3,262.7,225.2,263.2,225.2z M263.2,230.3c0.2,0,0.5,0,0.7-0.1s0.4-0.2,0.6-0.4
		c0.2-0.2,0.3-0.4,0.4-0.6s0.1-0.6,0.1-0.9s0-0.6-0.1-0.9s-0.2-0.5-0.4-0.6s-0.4-0.3-0.6-0.4c-0.2-0.1-0.4-0.1-0.7-0.1
		c-0.2,0-0.5,0-0.7,0.1c-0.2,0.1-0.4,0.2-0.6,0.4s-0.3,0.4-0.4,0.6c-0.1,0.3-0.1,0.5-0.1,0.9s0,0.6,0.1,0.9c0.1,0.3,0.2,0.5,0.4,0.6
		c0.2,0.2,0.4,0.3,0.6,0.4S262.9,230.3,263.2,230.3z"/>
	<path fill="#9013FE" d="M268.7,231.1h-1.1v-5.8h1.1v0.8c0.2-0.4,0.5-0.6,0.8-0.8c0.3-0.2,0.6-0.2,1-0.2c0.3,0,0.6,0.1,0.9,0.2
		c0.3,0.1,0.5,0.3,0.6,0.5c0.2,0.2,0.3,0.4,0.4,0.7c0.1,0.3,0.1,0.6,0.1,0.9v3.7h-1.1v-3.5c0-0.2,0-0.4-0.1-0.6
		c0-0.2-0.1-0.3-0.2-0.5c-0.1-0.1-0.2-0.2-0.4-0.3c-0.2-0.1-0.4-0.1-0.6-0.1c-0.2,0-0.4,0-0.6,0.1s-0.3,0.2-0.4,0.3
		c-0.1,0.1-0.2,0.3-0.3,0.5c-0.1,0.2-0.1,0.4-0.1,0.6V231.1z"/>
	<path fill="#9013FE" d="M279.3,229.5c-0.1,0.3-0.2,0.5-0.4,0.7c-0.2,0.2-0.3,0.4-0.6,0.6c-0.2,0.2-0.5,0.3-0.8,0.4
		c-0.3,0.1-0.6,0.1-0.9,0.1c-0.4,0-0.8-0.1-1.1-0.2c-0.4-0.1-0.7-0.3-0.9-0.6c-0.3-0.3-0.5-0.6-0.6-1c-0.2-0.4-0.2-0.8-0.2-1.3
		c0-0.5,0.1-0.9,0.2-1.2c0.2-0.4,0.4-0.7,0.6-1c0.3-0.3,0.5-0.5,0.9-0.6c0.3-0.1,0.7-0.2,1-0.2c0.4,0,0.8,0.1,1.2,0.2
		c0.3,0.1,0.6,0.4,0.9,0.6c0.2,0.3,0.4,0.6,0.5,1s0.2,0.8,0.2,1.2c0,0.1,0,0.1,0,0.2c0,0.1,0,0.1,0,0.2H275c0,0.3,0.1,0.5,0.1,0.7
		c0.1,0.2,0.2,0.4,0.4,0.6c0.2,0.2,0.3,0.3,0.6,0.4s0.4,0.1,0.7,0.1c0.5,0,0.8-0.1,1.1-0.3c0.2-0.2,0.4-0.5,0.5-0.8L279.3,229.5z
		 M278.2,227.7c0-0.4-0.2-0.8-0.4-1c-0.3-0.3-0.7-0.4-1.2-0.4c-0.2,0-0.5,0-0.6,0.1c-0.2,0.1-0.3,0.2-0.5,0.3
		c-0.1,0.1-0.2,0.3-0.3,0.5c-0.1,0.2-0.1,0.4-0.1,0.5H278.2z"/>
</g>
<g>
	<path fill-rule="evenodd" clip-rule="evenodd" fill="#9013FE" d="M175.4,220c-0.4,0-0.8,0.2-1.1,0.5c-0.3,0.3-0.5,0.7-0.5,1.1
		c0,0.4,0.2,0.8,0.5,1.1c0.3,0.3,0.7,0.5,1.1,0.5c0.4,0,0.8-0.2,1.1-0.5c0.3-0.3,0.5-0.7,0.5-1.1c0-0.4-0.2-0.8-0.5-1.1
		C176.3,220.2,175.8,220,175.4,220z"/>
	<path fill-rule="evenodd" clip-rule="evenodd" fill="#9013FE" d="M174.4,216h-10.7c-3.6,0-6.6,3-6.6,6.6v10.7c0,3.6,3,6.6,6.6,6.6
		h10.7c3.6,0,6.6-3,6.6-6.6v-10.7C181,219,178,216,174.4,216z M178.9,233.4c0,2.5-2,4.5-4.5,4.5h-10.7c-2.5,0-4.5-2-4.5-4.5v-10.7
		c0-2.5,2-4.5,4.5-4.5h10.7c2.5,0,4.5,2,4.5,4.5V233.4z"/>
	<path fill-rule="evenodd" clip-rule="evenodd" fill="#9013FE" d="M169,221.8c-3.4,0-6.2,2.8-6.2,6.2c0,3.4,2.8,6.2,6.2,6.2
		c3.4,0,6.2-2.8,6.2-6.2C175.2,224.6,172.4,221.8,169,221.8z M169,232.1c-2.2,0-4.1-1.8-4.1-4.1s1.8-4.1,4.1-4.1
		c2.2,0,4.1,1.8,4.1,4.1S171.2,232.1,169,232.1z"/>
</g>
<g>
	<circle fill="#4577FF" cx="234" cy="60" r="60"/>
	<rect x="170" y="-4" fill="none" width="128" height="128"/>
	<g>
		<defs>
			<circle id="SVGID_1_" cx="234" cy="60" r="60"/>
		</defs>
		<clipPath id="SVGID_2_">
			<use xlink:href="#SVGID_1_"  overflow="visible"/>
		</clipPath>
		<path clip-path="url(#SVGID_2_)" fill="#FFAA00" d="M212,72L212,72c6.6,0,12-5.4,12-12V36c0-2.2-1.8-4-4-4h-8c-6.6,0-12,5.4-12,12
			v16C200,66.6,205.4,72,212,72z"/>
		<path clip-path="url(#SVGID_2_)" fill="#FFC036" d="M268,124h-64V52c0-17.6,14.4-32,32-32h0c17.6,0,32,14.4,32,32V124z"/>
		<path clip-path="url(#SVGID_2_)" fill="#FFE09E" d="M256,132h-48v0c0-13.3,10.7-24,24-24h0C245.3,108,256,118.7,256,132L256,132z"
			/>
	</g>
	<circle fill="#603535" cx="240" cy="52" r="4"/>
	<path fill="#FFE09E" d="M244,40L244,40c0,1.1-0.9,2-2,2h-4c-1.1,0-2-0.9-2-2v0c0-1.1,0.9-2,2-2h4C243.1,38,244,38.9,244,40z"/>
	<path fill="#FFE09E" d="M228,40L228,40c0,1.1-0.9,2-2,2h-4c-1.1,0-2-0.9-2-2v0c0-1.1,0.9-2,2-2h4C227.1,38,228,38.9,228,40z"/>
	<circle fill="#603535" cx="224" cy="52" r="4"/>
	<path fill="#F5463A" d="M230,88h12c1.1,0,2,0.9,2,2v6c0,4.4-3.6,8-8,8h0c-4.4,0-8-3.6-8-8v-6C228,88.9,228.9,88,230,88z"/>
	<g>
		<path fill="#ED2F21" d="M236,98c-1.1,0-2-0.9-2-2v-8c0-1.1,0.9-2,2-2s2,0.9,2,2v8C238,97.1,237.1,98,236,98z"/>
	</g>
	<path fill="#FFE09E" d="M228,96h-12c-13.2,0-24-10.8-24-24v-8c0-4.4,3.6-8,8-8l44,0c4.4,0,8,3.6,8,8v8C252,85.2,241.2,96,228,96z"
		/>
	<path fill="#603535" d="M198,56h12c1.1,0,2,0.9,2,2v2c0,4.4-3.6,8-8,8h0c-4.4,0-8-3.6-8-8v-2C196,56.9,196.9,56,198,56z"/>
	<circle fill="#FFC036" cx="220" cy="64" r="2"/>
	<circle fill="#301B1B" cx="208" cy="62" r="2"/>
	<circle fill="#301B1B" cx="200" cy="62" r="2"/>
	<circle fill="#FFC036" cx="228" cy="64" r="2"/>
	<circle fill="#FFC036" cx="224" cy="72" r="2"/>
	<path fill="#FFAA00" d="M268,72L268,72c-6.6,0-12-5.4-12-12V36c0-2.2,1.8-4,4-4h8c6.6,0,12,5.4,12,12v16C280,66.6,274.6,72,268,72z
		"/>
</g>
<g>
	<circle fill="#F5463A" cx="409" cy="-108" r="60"/>
	<rect x="345" y="-172" fill="none" width="128" height="128"/>
	<g>
		<defs>
			<circle id="SVGID_3_" cx="409" cy="-108" r="60"/>
		</defs>
		<clipPath id="SVGID_4_">
			<use xlink:href="#SVGID_3_"  overflow="visible"/>
		</clipPath>
		<path clip-path="url(#SVGID_4_)" fill="#2BD665" d="M441-32h-64v-16c0-17.7,14.3-32,32-32h0c17.7,0,32,14.3,32,32V-32z"/>
		<path clip-path="url(#SVGID_4_)" fill="#1FC258" d="M409-64c6.6,0,12-5.4,12-12v-1.7c-3.7-1.5-7.8-2.3-12-2.3l0,0
			c-4.2,0-8.3,0.8-12,2.3v1.7C397-69.4,402.4-64,409-64z"/>
	</g>
	<path fill="#FFA47A" d="M409-68L409-68c-4.4,0-8-3.6-8-8v-8c0-4.4,3.6-8,8-8h0c4.4,0,8,3.6,8,8v8C417-71.6,413.4-68,409-68z"/>
	<path fill="#FFBB9B" d="M409-78L409-78c-16.6,0-30-13.4-30-30v-8c0-16.6,13.4-30,30-30h0c16.6,0,30,13.4,30,30v8
		C439-91.4,425.6-78,409-78z"/>
	<circle fill="#603535" cx="413" cy="-116" r="4"/>
	<circle fill="#603535" cx="397" cy="-116" r="4"/>
	<path fill="#FFFFFF" d="M405-92L405-92c-7.7,0-14-6.3-14-14v-2h28v2C419-98.3,412.7-92,405-92z"/>
	<path fill="#FFBB9B" d="M439-106h-2v-12h2c3.3,0,6,2.7,6,6v0C445-108.7,442.3-106,439-106z"/>
	<path fill="#643536" d="M437-118h4v-16c0-4.4-3.6-8-8-8l0,0v20C433-119.8,434.8-118,437-118z"/>
	<path fill="#643536" d="M437-128h-48c-8.8,0-16-7.2-16-16v0l56,0c4.4,0,8,3.6,8,8V-128z"/>
	<path fill="#643536" d="M437-140l-44,0c-8.8,0-16-7.2-16-16v0h44C429.8-156,437-148.8,437-140L437-140z"/>
</g>
<g>
	<circle fill="#1D1433" cx="234" cy="-108" r="60"/>
	<g>
		<defs>
			<circle id="SVGID_5_" cx="234" cy="-108" r="60"/>
		</defs>
		<clipPath id="SVGID_6_">
			<use xlink:href="#SVGID_5_"  overflow="visible"/>
		</clipPath>
		<path clip-path="url(#SVGID_6_)" fill="#F0EBFF" d="M270-44h-72v-16c0-17.7,14.3-32,32-32h8c17.7,0,32,14.3,32,32V-44z"/>
		<path clip-path="url(#SVGID_6_)" fill="#DED4FF" d="M252-20h-48v-24c0-13.3,10.7-24,24-24h0c13.3,0,24,10.7,24,24V-20z"/>
	</g>
	<path fill="#F0EBFF" d="M270-80h-72v-36c0-19.8,16.2-36,36-36h0c19.8,0,36,16.2,36,36V-80z"/>
	<path fill="#3E257A" d="M234-96h-20c-11,0-20-9-20-20v0c0-11,9-20,20-20h20c11,0,20,9,20,20v0C254-105,245-96,234-96z"/>
	<path fill="#50338F" d="M202-116c0-11,9-20,20-20h-8c-11,0-20,9-20,20s9,20,20,20h8C211-96,202-105,202-116z"/>
	<path fill="#1D1433" d="M230-88h-2v-4h2c1.1,0,2,0.9,2,2v0C232-88.9,231.1-88,230-88z"/>
	<path fill="#A385FF" d="M270-72h-72c-2.2,0-4-1.8-4-4v0c0-2.2,1.8-4,4-4h72c2.2,0,4,1.8,4,4v0C274-73.8,272.2-72,270-72z"/>
	<circle fill="#1D1433" cx="238" cy="-116" r="4"/>
	<circle fill="#F5463A" cx="258" cy="-64" r="2"/>
	<circle fill="#FFC036" cx="250" cy="-64" r="2"/>
	<circle fill="#1D1433" cx="222" cy="-116" r="4"/>
	<path fill="#A385FF" d="M270-100h-4c-4.4,0-8-3.6-8-8v-8c0-4.4,3.6-8,8-8h4c4.4,0,8,3.6,8,8v8C278-103.6,274.4-100,270-100z"/>
	<path fill="#F0EBFF" d="M270-100L270-100c-4.4,0-8-3.6-8-8v-8c0-4.4,3.6-8,8-8l0,0c4.4,0,8,3.6,8,8v8C278-103.6,274.4-100,270-100z
		"/>
	<g>
		<path fill="#A385FF" d="M270-110c-1.1,0-2-0.9-2-2v-28c0-1.1,0.9-2,2-2s2,0.9,2,2v28C272-110.9,271.1-110,270-110z"/>
	</g>
	<path fill="#DED4FF" d="M270-136L270-136c-2.2,0-4-1.8-4-4l0,0c0-2.2,1.8-4,4-4l0,0c2.2,0,4,1.8,4,4l0,0
		C274-137.8,272.2-136,270-136z"/>
	<rect x="220" y="-92" fill="#1D1433" width="4" height="4"/>
	<path fill="#1D1433" d="M220-88h-2c-1.1,0-2-0.9-2-2v0c0-1.1,0.9-2,2-2h2V-88z"/>
	<rect x="224" y="-92" fill="#1D1433" width="4" height="4"/>
	<rect x="170" y="-172" fill="none" width="128" height="128"/>
</g>
<g>
	<circle fill="#FFCE47" cx="584" cy="-108" r="60"/>
	<g>
		<defs>
			<circle id="SVGID_7_" cx="584" cy="-108" r="60"/>
		</defs>
		<clipPath id="SVGID_8_">
			<use xlink:href="#SVGID_7_"  overflow="visible"/>
		</clipPath>
		<path clip-path="url(#SVGID_8_)" fill="#643536" d="M616-68h-60c-4.4,0-8-3.6-8-8v-56c0-8.8,7.2-16,16-16h24c19.9,0,36,16.1,36,36
			v36C624-71.6,620.4-68,616-68z"/>
		<path clip-path="url(#SVGID_8_)" fill="#CC2996" d="M612-28h-56v-20c0-15.5,12.5-28,28-28h0c15.5,0,28,12.5,28,28V-28z"/>
		<path clip-path="url(#SVGID_8_)" fill="#FFA47A" d="M584-60c6.6,0,12-5.4,12-12v-1.3c-3.6-1.7-7.7-2.7-12-2.7s-8.4,1-12,2.7v1.3
			C572-65.4,577.4-60,584-60z"/>
	</g>
	<path fill="#FFA47A" d="M584-64L584-64c-4.4,0-8-3.6-8-8v-8c0-4.4,3.6-8,8-8l0,0c4.4,0,8,3.6,8,8v8C592-67.6,588.4-64,584-64z"/>
	<path fill="#FFBB9B" d="M584-78L584-78c-16.6,0-30-13.4-30-30v-8c0-16.6,13.4-30,30-30h0c16.6,0,30,13.4,30,30v8
		C614-91.4,600.6-78,584-78z"/>
	<path fill="#643536" d="M592-158h-2h-4h-14c-6.3,0-11.5,4.9-12,11.1c0,0.3,0,0.6,0,0.9c0,13.2,10.8,24,24,24h34h6v-4
		C624-143.6,609.6-158,592-158z"/>
	<circle fill="#603535" cx="588" cy="-116" r="4"/>
	<circle fill="#603535" cx="572" cy="-116" r="4"/>
	<path fill="#FFFFFF" d="M580-92L580-92c-7.7,0-14-6.3-14-14v-2h28v2C594-98.3,587.7-92,580-92z"/>
	<path fill="#FFD8A8" d="M614-106h-2v-12h2c3.3,0,6,2.7,6,6v0C620-108.7,617.3-106,614-106z"/>
	<path fill="#643536" d="M616-68L616-68c4.4,0,8-3.6,8-8v-48h-24v40C600-75.2,607.2-68,616-68z"/>
	<rect x="520" y="-172" fill="none" width="128" height="128"/>
</g>
<g>
	<circle fill="#603535" cx="409" cy="60" r="60"/>
	<path fill="#FF680A" d="M409,40h-20V20c0-2.2,1.8-4,4-4l0,0c8.8,0,16,7.2,16,16V40z"/>
	<g>
		<defs>
			<circle id="SVGID_9_" cx="409" cy="60" r="60"/>
		</defs>
		<clipPath id="SVGID_10_">
			<use xlink:href="#SVGID_9_"  overflow="visible"/>
		</clipPath>
		<path clip-path="url(#SVGID_10_)" fill="#FF7E29" d="M443,132h-64v-8c0-19.8,16.2-36,36-36h28V132z"/>
		<path clip-path="url(#SVGID_10_)" fill="#FF680A" d="M433,128h-48v-4c0-13.3,10.7-24,24-24h0c13.3,0,24,10.7,24,24V128z"/>
	</g>
	<path fill="#FF7E29" d="M443,96h-32c-19.9,0-36-16.1-36-36v0c0-19.8,16.2-36,36-36h16c8.8,0,16,7.2,16,16V96z"/>
	<path fill="#FFE4D1" d="M401,90L401,90c-11,0-20-9-20-20v-4c0-4.4,3.6-8,8-8h24c4.4,0,8,3.6,8,8v4C421,81,412,90,401,90z"/>
	<circle fill="#603535" cx="413" cy="52" r="4"/>
	<circle fill="#603535" cx="397" cy="52" r="4"/>
	<path fill="#603535" d="M393,58h8c1.1,0,2,0.9,2,2v0c0,3.3-2.7,6-6,6l0,0c-3.3,0-6-2.7-6-6v0C391,58.9,391.9,58,393,58z"/>
	<path fill="#FF680A" d="M419,48L419,48c0,1.1-0.9,2-2,2h-8c-1.1,0-2-0.9-2-2v0c0-1.1,0.9-2,2-2h8C418.1,46,419,46.9,419,48z"/>
	<path fill="#FFE4D1" d="M429,66L429,66c0,1.1-0.9,2-2,2h-12c-1.1,0-2-0.9-2-2v0c0-1.1,0.9-2,2-2h12C428.1,64,429,64.9,429,66z"/>
	<path fill="#FFE4D1" d="M429,74L429,74c0,1.1-0.9,2-2,2l-12,0c-1.1,0-2-0.9-2-2v0c0-1.1,0.9-2,2-2l12,0C428.1,72,429,72.9,429,74z"
		/>
	<path fill="#FFE4D1" d="M389,66L389,66c0,1.1-0.9,2-2,2h-12c-1.1,0-2-0.9-2-2v0c0-1.1,0.9-2,2-2h12C388.1,64,389,64.9,389,66z"/>
	<path fill="#FFE4D1" d="M389,74L389,74c0,1.1-0.9,2-2,2l-12,0c-1.1,0-2-0.9-2-2v0c0-1.1,0.9-2,2-2l12,0C388.1,72,389,72.9,389,74z"
		/>
	<path fill="#FF680A" d="M403,48L403,48c0,1.1-0.9,2-2,2h-8c-1.1,0-2-0.9-2-2v0c0-1.1,0.9-2,2-2h8C402.1,46,403,46.9,403,48z"/>
	<path fill="#FF7E29" d="M423,40h20V20c0-2.2-1.8-4-4-4h0c-8.8,0-16,7.2-16,16V40z"/>
	<g>
		<path fill="#F3A9B1" d="M439,32V20c-4,0-7.6,2-9.7,5C433.2,26.3,436.6,28.8,439,32z"/>
	</g>
	<circle fill="#FFBD8F" cx="413" cy="64" r="2"/>
	<circle fill="#FFBD8F" cx="409" cy="72" r="2"/>
	<circle fill="#FFBD8F" cx="385" cy="72" r="2"/>
	<path fill="#FF680A" d="M439,72h4v-8h-4c-2.2,0-4,1.8-4,4v0C435,70.2,436.8,72,439,72z"/>
	<path fill="#FF680A" d="M439,84h4v-8h-4c-2.2,0-4,1.8-4,4v0C435,82.2,436.8,84,439,84z"/>
	<path fill="#FF680A" d="M435,96h8v-8h-8c-2.2,0-4,1.8-4,4v0C431,94.2,432.8,96,435,96z"/>
	<rect x="345" y="-4" fill="none" width="128" height="128"/>
</g>
<g>
	<circle fill="#2BD665" cx="60" cy="60" r="60"/>
	<g>
		<defs>
			<circle id="SVGID_11_" cx="60" cy="60" r="60"/>
		</defs>
		<clipPath id="SVGID_12_">
			<use xlink:href="#SVGID_11_"  overflow="visible"/>
		</clipPath>
		<path clip-path="url(#SVGID_12_)" fill="#C14F3B" d="M52,32L52,32c0,8.8-7.2,16-16,16h0c-8.8,0-16-7.2-16-16v0c0-8.8,7.2-16,16-16
			h0C44.8,16,52,23.2,52,32z"/>
		<path clip-path="url(#SVGID_12_)" fill="#F3A9B1" d="M44.5,34.8l-5.7,5.7c-1.6,1.6-4.1,1.6-5.7,0l-2.8-2.8
			c-3.1-3.1-3.1-8.2,0-11.3l0,0c3.1-3.1,8.2-3.1,11.3,0l2.8,2.8C46,30.7,46,33.3,44.5,34.8z"/>
		<path clip-path="url(#SVGID_12_)" fill="#D76B5A" d="M88,48L88,48c-8.8,0-16-7.2-16-16v0c0-8.8,7.2-16,16-16h0c8.8,0,16,7.2,16,16
			v0C104,40.8,96.8,48,88,48z"/>
		<path clip-path="url(#SVGID_12_)" fill="#F3A9B1" d="M85.2,40.5l-5.7-5.7c-1.6-1.6-1.6-4.1,0-5.7l2.8-2.8c3.1-3.1,8.2-3.1,11.3,0
			l0,0c3.1,3.1,3.1,8.2,0,11.3l-2.8,2.8C89.3,42,86.7,42,85.2,40.5z"/>
		<path clip-path="url(#SVGID_12_)" fill="#D76B5A" d="M96,124H24V52c0-19.8,16.2-36,36-36h0c19.8,0,36,16.2,36,36V124z"/>
		<path clip-path="url(#SVGID_12_)" fill="#C14F3B" d="M92,68L92,68c-1.1,0-2-0.9-2-2v-4c0-1.1,0.9-2,2-2l0,0c1.1,0,2,0.9,2,2v4
			C94,67.1,93.1,68,92,68z"/>
		<path clip-path="url(#SVGID_12_)" fill="#C14F3B" d="M84,80L84,80c-1.1,0-2-0.9-2-2v-4c0-1.1,0.9-2,2-2l0,0c1.1,0,2,0.9,2,2v4
			C86,79.1,85.1,80,84,80z"/>
		<path clip-path="url(#SVGID_12_)" fill="#C14F3B" d="M92,92L92,92c-1.1,0-2-0.9-2-2v-4c0-1.1,0.9-2,2-2l0,0c1.1,0,2,0.9,2,2v4
			C94,91.1,93.1,92,92,92z"/>
		<path clip-path="url(#SVGID_12_)" fill="#C14F3B" d="M84,104L84,104c-1.1,0-2-0.9-2-2v-4c0-1.1,0.9-2,2-2l0,0c1.1,0,2,0.9,2,2v4
			C86,103.1,85.1,104,84,104z"/>
		<path clip-path="url(#SVGID_12_)" fill="#C14F3B" d="M76,116L76,116c-1.1,0-2-0.9-2-2v-4c0-1.1,0.9-2,2-2l0,0c1.1,0,2,0.9,2,2v4
			C78,115.1,77.1,116,76,116z"/>
		<path clip-path="url(#SVGID_12_)" fill="#C14F3B" d="M68,124L68,124c-1.1,0-2-0.9-2-2v-4c0-1.1,0.9-2,2-2l0,0c1.1,0,2,0.9,2,2v4
			C70,123.1,69.1,124,68,124z"/>
		<path clip-path="url(#SVGID_12_)" fill="#C14F3B" d="M36,120L36,120c-1.1,0-2-0.9-2-2v-4c0-1.1,0.9-2,2-2h0c1.1,0,2,0.9,2,2v4
			C38,119.1,37.1,120,36,120z"/>
		<path clip-path="url(#SVGID_12_)" fill="#C14F3B" d="M28,108L28,108c-1.1,0-2-0.9-2-2v-4c0-1.1,0.9-2,2-2h0c1.1,0,2,0.9,2,2v4
			C30,107.1,29.1,108,28,108z"/>
		<path clip-path="url(#SVGID_12_)" fill="#C14F3B" d="M92,116L92,116c-1.1,0-2-0.9-2-2v-4c0-1.1,0.9-2,2-2l0,0c1.1,0,2,0.9,2,2v4
			C94,115.1,93.1,116,92,116z"/>
	</g>
	<path fill="#FFA47A" d="M52,96L52,96c-6.6,0-12-5.4-12-12v-4h24v4C64,90.6,58.6,96,52,96z"/>
	<path fill="#FFBB9B" d="M60,90h-8c-2.2,0-4-1.8-4-4V58h8c8.8,0,16,7.2,16,16v4C72,84.6,66.6,90,60,90z"/>
	<path fill="#FFBB9B" d="M44,90L44,90c2.2,0,4-1.8,4-4V58h0c-8.8,0-16,7.2-16,16v4C32,84.6,37.4,90,44,90z"/>
	<circle fill="#603535" cx="64" cy="52" r="4"/>
	<circle fill="#603535" cx="48" cy="52" r="4"/>
	<path fill="#343A40" d="M46,62h4c2.2,0,4,1.8,4,4v2c0,3.3-2.7,6-6,6h0c-3.3,0-6-2.7-6-6v-2C42,63.8,43.8,62,46,62z"/>
	<path fill="#C14F3B" d="M68,40L68,40c0,1.1-0.9,2-2,2h-4c-1.1,0-2-0.9-2-2v0c0-1.1,0.9-2,2-2h4C67.1,38,68,38.9,68,40z"/>
	<path fill="#C14F3B" d="M52,44L52,44c0,1.1-0.9,2-2,2h-4c-1.1,0-2-0.9-2-2v0c0-1.1,0.9-2,2-2h4C51.1,42,52,42.9,52,44z"/>
	<rect x="-4" y="-4" fill="none" width="128" height="128"/>
</g>
<g>
	<circle fill="#CC2996" cx="60" cy="-108" r="60"/>
	<g>
		<defs>
			<circle id="SVGID_13_" cx="60" cy="-108" r="60"/>
		</defs>
		<use xlink:href="#SVGID_13_"  overflow="visible" fill="#7732D1"/>
		<clipPath id="SVGID_14_">
			<use xlink:href="#SVGID_13_"  overflow="visible"/>
		</clipPath>
		<path clip-path="url(#SVGID_14_)" fill="#FFC74D" d="M84-40H36v-24c0-13.3,10.7-24,24-24h0c13.3,0,24,10.7,24,24V-40z"/>
		<path clip-path="url(#SVGID_14_)" fill="#FFBE33" d="M39.2-76h41.5C76.6-83.2,68.9-88,60-88C51.1-88,43.4-83.2,39.2-76z"/>
	</g>
	<path fill="#C07867" d="M96-80H68v-64h28c2.2,0,4,1.8,4,4v56C100-81.8,98.2-80,96-80z"/>
	<path fill="#F4A568" d="M88-120v-20c0-2.2-1.8-4-4-4h8c2.2,0,4,1.8,4,4v20H88z"/>
	<path fill="#F4A568" d="M80-80H24c-2.2,0-4-1.8-4-4v-56c0-2.2,1.8-4,4-4h56c2.2,0,4,1.8,4,4v56C84-81.8,82.2-80,80-80z"/>
	<path fill="#FFBB9B" d="M68-108H36c-4.4,0-8-3.6-8-8v0c0-4.4,3.6-8,8-8h32c4.4,0,8,3.6,8,8v0C76-111.6,72.4-108,68-108z"/>
	<path fill="#C07867" d="M36-116c0-4.4,3.6-8,8-8h-8c-4.4,0-8,3.6-8,8s3.6,8,8,8h8C39.6-108,36-111.6,36-116z"/>
	<circle fill="#603535" cx="64" cy="-116" r="4"/>
	<circle fill="#603535" cx="48" cy="-116" r="4"/>
	<rect x="-4" y="-172" fill="none" width="128" height="128"/>
</g>
<g>
	<g>
		<defs>
			<circle id="SVGID_15_" cx="584" cy="60" r="60"/>
		</defs>
		<use xlink:href="#SVGID_15_"  overflow="visible" fill="#6521CC"/>
		<clipPath id="SVGID_16_">
			<use xlink:href="#SVGID_15_"  overflow="visible"/>
		</clipPath>
		<path clip-path="url(#SVGID_16_)" fill="#FF85C8" d="M608,96h-12c-4.4,0-8-3.6-8-8V52c0-11,9-20,20-20h0c11,0,20,9,20,20v24
			C628,87,619,96,608,96z"/>
		<path clip-path="url(#SVGID_16_)" fill="#F8F9FA" d="M620,132h-64v-8c0-19.8,16.2-36,36-36h28V132z"/>
		<path clip-path="url(#SVGID_16_)" fill="#DED4FF" d="M612,124h-48v0c0-13.3,10.7-24,24-24h0C601.3,100,612,110.7,612,124L612,124z
			"/>
	</g>
	<path fill="#F8F9FA" d="M620,92h-40c-22,0-40-18-40-40v0c0-6.6,5.4-12,12-12h68V92z"/>
	<g>
		<defs>
			<path id="SVGID_17_" d="M620,92h-40c-22,0-40-18-40-40v0c0-6.6,5.4-12,12-12h68V92z"/>
		</defs>
		<clipPath id="SVGID_18_">
			<use xlink:href="#SVGID_17_"  overflow="visible"/>
		</clipPath>
		<path clip-path="url(#SVGID_18_)" fill="#DED4FF" d="M552,68h-4c-4.4,0-8-3.6-8-8v-8c0-6.6,5.4-12,12-12h0c6.6,0,12,5.4,12,12v4
			C564,62.6,558.6,68,552,68z"/>
	</g>
	<circle fill="#B199FF" cx="554" cy="62" r="2"/>
	<circle fill="#B199FF" cx="546" cy="62" r="2"/>
	<circle fill="#603535" cx="588" cy="52" r="4"/>
	<circle fill="#603535" cx="572" cy="52" r="4"/>
	<path fill="#F8F9FA" d="M608,32v18h12V32c0-3.3-2.7-6-6-6l0,0C610.7,26,608,28.7,608,32z"/>
	<path fill="#FFADDA" d="M612,32v6h4v-6c0-1.1-0.9-2-2-2l0,0C612.9,30,612,30.9,612,32z"/>
	<g>
		<path fill="#FFAA00" d="M592,20h-8v0c0-2.2,1.8-4,4-4l0,0C590.2,16,592,17.8,592,20L592,20z"/>
		<rect x="584" y="20" fill="#FFCE47" width="8" height="4"/>
		<rect x="584" y="24" fill="#FFAA00" width="8" height="4"/>
		<rect x="584" y="28" fill="#FFCE47" width="8" height="4"/>
		<rect x="584" y="32" fill="#FFAA00" width="8" height="4"/>
		<rect x="584" y="36" fill="#FFCE47" width="8" height="4"/>
	</g>
	<rect x="520" y="-4" fill="none" width="128" height="128"/>
</g>
</svg>
