<?xml version="1.0" encoding="utf-8"?>
<!-- Generator: Adobe Illustrator 17.0.0, SVG Export Plug-In . SVG Version: 6.00 Build 0)  -->
<!DOCTYPE svg PUBLIC "-//W3C//DTD SVG 1.0//EN" "http://www.w3.org/TR/2001/REC-SVG-20010904/DTD/svg10.dtd">
<svg version="1.0" id="Layer_1" xmlns="http://www.w3.org/2000/svg" xmlns:xlink="http://www.w3.org/1999/xlink" x="0px" y="0px"
	 width="120.1px" height="120px" viewBox="0 0 120.1 120" enable-background="new 0 0 120.1 120" xml:space="preserve">
<g>
	<path d="M-160.9-249.2h-5.8l-1.2,3.2h-2.9l5.4-14.2h3.2l5.4,14.2h-3L-160.9-249.2z M-165.7-251.7h3.9l-2-5.4L-165.7-251.7z"/>
	<path d="M-150.4-246h-2.7l-4-9.8h2.9l2.4,6.6l2.3-6.6h2.8L-150.4-246z"/>
	<path d="M-145.6-248.7c0-0.4,0.1-0.8,0.2-1.2c0.2-0.3,0.4-0.6,0.6-0.9c0.3-0.3,0.6-0.5,0.9-0.6c0.4-0.1,0.7-0.3,1.1-0.3l2.4-0.4
		c0.3,0,0.5-0.1,0.6-0.3c0.1-0.1,0.2-0.3,0.2-0.5c0-0.3-0.1-0.6-0.4-0.9c-0.3-0.3-0.7-0.4-1.3-0.4c-0.6,0-1,0.2-1.3,0.5
		c-0.3,0.3-0.5,0.7-0.5,1.1l-2.4-0.5c0-0.4,0.2-0.8,0.4-1.2s0.5-0.7,0.8-1c0.3-0.3,0.8-0.6,1.3-0.8c0.5-0.2,1.1-0.3,1.8-0.3
		c0.8,0,1.4,0.1,2,0.3c0.5,0.2,1,0.5,1.3,0.8c0.3,0.3,0.6,0.7,0.7,1.2s0.2,0.9,0.2,1.4v4.8c0,0.3,0,0.6,0,0.9c0,0.3,0.1,0.5,0.1,0.7
		h-2.4c0-0.1,0-0.3-0.1-0.5c0-0.2,0-0.4,0-0.6c-0.3,0.4-0.6,0.7-1.1,1c-0.5,0.3-1.1,0.4-1.8,0.4c-0.5,0-1-0.1-1.4-0.3
		c-0.4-0.2-0.8-0.4-1.1-0.7s-0.5-0.6-0.7-0.9C-145.6-247.9-145.6-248.3-145.6-248.7z M-141.7-247.7c0.3,0,0.5,0,0.8-0.1
		c0.3-0.1,0.5-0.2,0.7-0.4s0.4-0.4,0.5-0.7c0.1-0.3,0.2-0.6,0.2-1.1v-0.4l-2.2,0.3c-0.3,0.1-0.6,0.2-0.9,0.4s-0.3,0.5-0.3,0.9
		c0,0.3,0.1,0.6,0.3,0.8S-142.1-247.7-141.7-247.7z"/>
	<path d="M-131-255.8h2v2.4h-2v4.1c0,0.4,0.1,0.7,0.3,0.9c0.2,0.2,0.5,0.3,0.9,0.3c0.2,0,0.3,0,0.5,0c0.2,0,0.3,0,0.3-0.1v2.2
		c-0.1,0.1-0.3,0.1-0.5,0.2c-0.2,0.1-0.6,0.1-1,0.1c-1,0-1.7-0.3-2.3-0.8c-0.6-0.5-0.8-1.3-0.8-2.2v-4.6h-1.8v-2.4h0.5
		c0.5,0,0.9-0.2,1.1-0.5c0.2-0.3,0.4-0.7,0.4-1.1v-1.4h2.4V-255.8z"/>
	<path d="M-127.3-248.7c0-0.4,0.1-0.8,0.2-1.2c0.2-0.3,0.4-0.6,0.6-0.9c0.3-0.3,0.6-0.5,0.9-0.6c0.4-0.1,0.7-0.3,1.1-0.3l2.4-0.4
		c0.3,0,0.5-0.1,0.6-0.3c0.1-0.1,0.2-0.3,0.2-0.5c0-0.3-0.1-0.6-0.4-0.9c-0.3-0.3-0.7-0.4-1.3-0.4c-0.6,0-1,0.2-1.3,0.5
		c-0.3,0.3-0.5,0.7-0.5,1.1l-2.4-0.5c0-0.4,0.2-0.8,0.4-1.2s0.5-0.7,0.8-1c0.3-0.3,0.8-0.6,1.3-0.8c0.5-0.2,1.1-0.3,1.8-0.3
		c0.8,0,1.4,0.1,2,0.3c0.5,0.2,1,0.5,1.3,0.8c0.3,0.3,0.6,0.7,0.7,1.2s0.2,0.9,0.2,1.4v4.8c0,0.3,0,0.6,0,0.9c0,0.3,0.1,0.5,0.1,0.7
		h-2.4c0-0.1,0-0.3-0.1-0.5c0-0.2,0-0.4,0-0.6c-0.3,0.4-0.6,0.7-1.1,1c-0.5,0.3-1.1,0.4-1.8,0.4c-0.5,0-1-0.1-1.4-0.3
		c-0.4-0.2-0.8-0.4-1.1-0.7s-0.5-0.6-0.7-0.9C-127.3-247.9-127.3-248.3-127.3-248.7z M-123.4-247.7c0.3,0,0.5,0,0.8-0.1
		c0.3-0.1,0.5-0.2,0.7-0.4s0.4-0.4,0.5-0.7c0.1-0.3,0.2-0.6,0.2-1.1v-0.4l-2.2,0.3c-0.3,0.1-0.6,0.2-0.9,0.4s-0.3,0.5-0.3,0.9
		c0,0.3,0.1,0.6,0.3,0.8S-123.8-247.7-123.4-247.7z"/>
	<path d="M-110-253.2c-0.3-0.1-0.5-0.1-0.8-0.1c-0.3,0-0.7,0-1,0.1c-0.3,0.1-0.6,0.2-0.8,0.5c-0.2,0.2-0.4,0.5-0.5,0.9
		c-0.1,0.4-0.2,0.8-0.2,1.3v4.5h-2.7v-9.8h2.6v1.5c0.1-0.3,0.3-0.6,0.6-0.8c0.2-0.2,0.5-0.4,0.7-0.5c0.3-0.1,0.5-0.2,0.8-0.2
		s0.5-0.1,0.7-0.1c0.1,0,0.2,0,0.3,0c0.1,0,0.2,0,0.3,0V-253.2z"/>
	<path d="M-106.6-249.2c0,0.4,0.2,0.7,0.5,1c0.3,0.3,0.7,0.5,1.3,0.5c0.4,0,0.8-0.1,1-0.3c0.2-0.2,0.3-0.4,0.3-0.7
		c0-0.2-0.1-0.4-0.2-0.6c-0.2-0.2-0.4-0.3-0.8-0.4l-1.3-0.3c-1-0.2-1.7-0.6-2.1-1.1s-0.7-1.1-0.7-1.8c0-0.4,0.1-0.9,0.3-1.3
		c0.2-0.4,0.4-0.7,0.8-1c0.3-0.3,0.7-0.5,1.2-0.7s0.9-0.3,1.5-0.3c0.7,0,1.3,0.1,1.8,0.3c0.5,0.2,0.9,0.4,1.2,0.7
		c0.3,0.3,0.5,0.6,0.7,0.9c0.1,0.3,0.2,0.6,0.3,0.9l-2.2,0.5c0-0.1-0.1-0.3-0.1-0.5c-0.1-0.2-0.2-0.3-0.3-0.4
		c-0.1-0.1-0.3-0.2-0.5-0.3s-0.4-0.1-0.7-0.1c-0.3,0-0.6,0.1-0.9,0.3c-0.2,0.2-0.4,0.4-0.4,0.7c0,0.2,0.1,0.4,0.3,0.6
		c0.2,0.1,0.4,0.2,0.6,0.3l1.4,0.3c1,0.2,1.7,0.6,2.2,1.1c0.5,0.5,0.7,1.2,0.7,1.9c0,0.4-0.1,0.8-0.2,1.2s-0.4,0.7-0.7,1
		c-0.3,0.3-0.7,0.6-1.2,0.7c-0.5,0.2-1,0.3-1.7,0.3c-0.7,0-1.4-0.1-1.9-0.3c-0.5-0.2-0.9-0.5-1.2-0.8c-0.3-0.3-0.6-0.6-0.7-1
		c-0.2-0.4-0.2-0.7-0.3-1L-106.6-249.2z"/>
	<path fill="#5C5C5C" d="M-94.1-246v-14.2h2.8v14.2H-94.1z"/>
	<path fill="#5C5C5C" d="M-83.9-253.7c-0.3,0-0.7,0.1-1,0.2s-0.6,0.3-0.8,0.5c-0.2,0.2-0.4,0.5-0.5,0.9c-0.1,0.3-0.2,0.7-0.2,1.2
		s0.1,0.8,0.2,1.2c0.1,0.3,0.3,0.6,0.5,0.9c0.2,0.2,0.5,0.4,0.8,0.5c0.3,0.1,0.6,0.2,1,0.2c0.3,0,0.6,0,0.9-0.1s0.5-0.2,0.7-0.4
		c0.2-0.2,0.3-0.3,0.5-0.5c0.1-0.2,0.2-0.4,0.3-0.6l2.3,0.8c-0.1,0.4-0.3,0.8-0.5,1.2c-0.2,0.4-0.6,0.7-0.9,1.1
		c-0.4,0.3-0.8,0.6-1.4,0.8c-0.5,0.2-1.1,0.3-1.8,0.3c-0.7,0-1.4-0.1-2-0.4c-0.6-0.3-1.2-0.6-1.7-1.1c-0.5-0.5-0.8-1-1.1-1.6
		c-0.3-0.6-0.4-1.3-0.4-2.1c0-0.8,0.1-1.5,0.4-2.1c0.3-0.6,0.6-1.2,1.1-1.6s1-0.8,1.6-1.1c0.6-0.3,1.3-0.4,2-0.4
		c0.7,0,1.3,0.1,1.8,0.3c0.5,0.2,1,0.4,1.4,0.8c0.4,0.3,0.7,0.7,0.9,1.1s0.4,0.8,0.5,1.2l-2.4,0.8c-0.1-0.4-0.3-0.8-0.7-1.1
		C-82.7-253.5-83.2-253.7-83.9-253.7z"/>
	<path fill="#5C5C5C" d="M-73-256.1c0.7,0,1.4,0.1,2,0.4c0.6,0.3,1.2,0.6,1.6,1.1s0.8,1,1.1,1.6c0.3,0.6,0.4,1.3,0.4,2.1
		c0,0.8-0.1,1.5-0.4,2.1c-0.3,0.6-0.6,1.2-1.1,1.6c-0.5,0.5-1,0.8-1.6,1.1c-0.6,0.3-1.3,0.4-2,0.4s-1.4-0.1-2-0.4
		c-0.6-0.3-1.2-0.6-1.6-1.1c-0.5-0.5-0.8-1-1.1-1.6c-0.3-0.6-0.4-1.3-0.4-2.1c0-0.8,0.1-1.5,0.4-2.1c0.3-0.6,0.6-1.2,1.1-1.6
		s1-0.8,1.6-1.1C-74.4-256-73.7-256.1-73-256.1z M-73-248.1c0.3,0,0.6-0.1,0.9-0.2c0.3-0.1,0.6-0.3,0.8-0.5c0.2-0.2,0.4-0.5,0.5-0.9
		c0.1-0.3,0.2-0.8,0.2-1.2s-0.1-0.9-0.2-1.2c-0.1-0.3-0.3-0.6-0.5-0.9s-0.5-0.4-0.8-0.5c-0.3-0.1-0.6-0.2-0.9-0.2s-0.6,0.1-0.9,0.2
		c-0.3,0.1-0.6,0.3-0.8,0.5s-0.4,0.5-0.5,0.9c-0.1,0.3-0.2,0.8-0.2,1.2s0.1,0.9,0.2,1.2c0.1,0.3,0.3,0.6,0.5,0.9
		c0.2,0.2,0.5,0.4,0.8,0.5C-73.6-248.2-73.3-248.1-73-248.1z"/>
	<path fill="#5C5C5C" d="M-63-246h-2.7v-9.8h2.6v1.2c0.3-0.5,0.7-0.9,1.3-1.1c0.5-0.2,1.1-0.4,1.6-0.4c0.6,0,1.1,0.1,1.6,0.3
		c0.4,0.2,0.8,0.5,1.1,0.8c0.3,0.3,0.5,0.8,0.7,1.2c0.1,0.5,0.2,1,0.2,1.5v6.2h-2.7v-5.7c0-0.6-0.1-1-0.4-1.4
		c-0.3-0.4-0.8-0.6-1.4-0.6c-0.6,0-1,0.2-1.4,0.6c-0.3,0.4-0.5,0.9-0.5,1.4V-246z"/>
	<path fill="#5C5C5C" d="M-41.8-256c0-0.2-0.1-0.4-0.2-0.6c-0.1-0.2-0.3-0.5-0.5-0.6c-0.2-0.2-0.5-0.4-0.8-0.5s-0.7-0.2-1.2-0.2
		c-0.3,0-0.6,0-0.9,0.1c-0.3,0.1-0.5,0.2-0.7,0.4c-0.2,0.2-0.3,0.4-0.5,0.6s-0.2,0.4-0.2,0.7c0,0.4,0.1,0.7,0.4,1s0.6,0.5,1.2,0.6
		l2,0.4c0.6,0.1,1.2,0.3,1.7,0.6c0.5,0.3,0.9,0.6,1.2,1s0.6,0.8,0.8,1.2c0.2,0.5,0.3,0.9,0.3,1.4c0,0.5-0.1,1.1-0.3,1.6
		c-0.2,0.5-0.6,1-1,1.4c-0.4,0.4-1,0.7-1.6,1c-0.6,0.3-1.4,0.4-2.2,0.4c-0.9,0-1.8-0.1-2.4-0.4c-0.7-0.3-1.3-0.6-1.7-1.1
		c-0.5-0.4-0.8-0.9-1-1.4s-0.4-1-0.4-1.6l2.6-0.7c0,0.3,0.1,0.7,0.3,1c0.1,0.3,0.3,0.6,0.6,0.8c0.3,0.2,0.6,0.4,0.9,0.6
		c0.4,0.1,0.8,0.2,1.3,0.2c0.7,0,1.3-0.2,1.7-0.5s0.6-0.7,0.6-1.3c0-0.4-0.1-0.8-0.4-1.1c-0.3-0.3-0.7-0.5-1.3-0.6l-2-0.4
		c-1.1-0.2-2-0.7-2.7-1.4c-0.7-0.7-1-1.6-1-2.7c0-0.6,0.1-1.2,0.4-1.8c0.3-0.5,0.6-1,1.1-1.4c0.5-0.4,1-0.7,1.6-0.9
		c0.6-0.2,1.2-0.3,1.9-0.3c0.9,0,1.6,0.1,2.2,0.4c0.6,0.2,1.1,0.5,1.5,0.9c0.4,0.4,0.7,0.8,0.9,1.2s0.4,0.8,0.5,1.3L-41.8-256z"/>
	<path fill="#5C5C5C" d="M-28.3-248.8c-0.1,0.4-0.3,0.8-0.6,1.2c-0.3,0.4-0.6,0.7-1,1c-0.4,0.3-0.8,0.5-1.3,0.7
		c-0.5,0.2-1,0.3-1.7,0.3c-0.7,0-1.3-0.1-1.9-0.3c-0.6-0.2-1.2-0.6-1.6-1c-0.5-0.5-0.8-1-1.1-1.7c-0.3-0.7-0.4-1.4-0.4-2.2
		c0-0.8,0.1-1.5,0.4-2.1s0.6-1.2,1.1-1.6c0.4-0.4,1-0.8,1.5-1c0.6-0.2,1.2-0.4,1.8-0.4c1.5,0,2.7,0.5,3.6,1.4s1.3,2.2,1.3,3.7
		c0,0.2,0,0.4,0,0.5c0,0.2,0,0.3,0,0.3h-7c0,0.3,0.1,0.6,0.2,0.9c0.1,0.3,0.3,0.5,0.5,0.7c0.2,0.2,0.5,0.4,0.8,0.5s0.6,0.2,0.9,0.2
		c0.6,0,1.1-0.1,1.5-0.4c0.4-0.3,0.6-0.6,0.8-1.1L-28.3-248.8z M-30.7-252c0-0.2-0.1-0.5-0.1-0.7c-0.1-0.2-0.2-0.4-0.4-0.6
		c-0.2-0.2-0.4-0.3-0.7-0.4c-0.3-0.1-0.6-0.2-1-0.2c-0.3,0-0.7,0.1-0.9,0.2c-0.3,0.1-0.5,0.3-0.7,0.5s-0.3,0.4-0.4,0.6
		c-0.1,0.2-0.2,0.5-0.2,0.7H-30.7z"/>
	<path fill="#5C5C5C" d="M-22.7-255.8h2v2.4h-2v4.1c0,0.4,0.1,0.7,0.3,0.9c0.2,0.2,0.5,0.3,0.9,0.3c0.2,0,0.3,0,0.5,0
		c0.2,0,0.3,0,0.3-0.1v2.2c-0.1,0.1-0.3,0.1-0.5,0.2c-0.2,0.1-0.6,0.1-1,0.1c-1,0-1.7-0.3-2.3-0.8c-0.6-0.5-0.8-1.3-0.8-2.2v-4.6
		h-1.8v-2.4h0.5c0.5,0,0.9-0.2,1.1-0.5c0.2-0.3,0.4-0.7,0.4-1.1v-1.4h2.4V-255.8z"/>
</g>
<line fill="none" stroke="#EEEEEE" stroke-width="2" stroke-miterlimit="10" x1="-171.9" y1="-226" x2="468.1" y2="-226"/>
<line fill="none" stroke="#EEEEEE" stroke-width="2" stroke-miterlimit="10" x1="-171.9" y1="193" x2="468.1" y2="193"/>
<g opacity="0.6">
	<path fill="#999999" d="M348.8,215.5c0.3,0,0.5,0,0.7,0.1s0.4,0.2,0.5,0.3c0.1,0.1,0.3,0.3,0.3,0.5c0.1,0.2,0.1,0.4,0.1,0.6
		c0,0.3-0.1,0.6-0.2,0.8c-0.2,0.2-0.4,0.4-0.6,0.5c0.2,0,0.3,0.1,0.4,0.2c0.1,0.1,0.2,0.2,0.3,0.3s0.2,0.3,0.2,0.4
		c0,0.1,0.1,0.3,0.1,0.5c0,0.2,0,0.4-0.1,0.6c-0.1,0.2-0.2,0.4-0.4,0.5c-0.2,0.1-0.3,0.2-0.6,0.3c-0.2,0.1-0.5,0.1-0.7,0.1h-2v-5.7
		H348.8z M348.7,218c0.3,0,0.6-0.1,0.7-0.3c0.2-0.2,0.3-0.4,0.3-0.7c0-0.3-0.1-0.5-0.3-0.6c-0.2-0.2-0.4-0.2-0.8-0.2h-0.9v1.8H348.7
		z M348.8,220.5c0.3,0,0.6-0.1,0.8-0.2c0.2-0.2,0.3-0.4,0.3-0.7c0-0.3-0.1-0.5-0.3-0.7c-0.2-0.2-0.4-0.3-0.8-0.3h-1.1v1.8H348.8z"/>
	<path fill="#999999" d="M353.3,217.2c0.3,0,0.6,0.1,0.8,0.2c0.2,0.1,0.4,0.2,0.6,0.4s0.3,0.4,0.4,0.6s0.1,0.5,0.1,0.8
		c0,0.3,0,0.6-0.1,0.8c-0.1,0.3-0.2,0.5-0.4,0.6s-0.4,0.3-0.6,0.4c-0.2,0.1-0.5,0.2-0.8,0.2c-0.3,0-0.6-0.1-0.8-0.2
		c-0.2-0.1-0.4-0.2-0.6-0.4s-0.3-0.4-0.4-0.6c-0.1-0.3-0.1-0.5-0.1-0.8c0-0.3,0-0.6,0.1-0.8s0.2-0.5,0.4-0.6s0.4-0.3,0.6-0.4
		C352.8,217.2,353,217.2,353.3,217.2z M353.3,220.6c0.2,0,0.3,0,0.5-0.1c0.1-0.1,0.3-0.1,0.4-0.3c0.1-0.1,0.2-0.3,0.3-0.4
		c0.1-0.2,0.1-0.4,0.1-0.6c0-0.2,0-0.4-0.1-0.6c-0.1-0.2-0.2-0.3-0.3-0.4c-0.1-0.1-0.2-0.2-0.4-0.3c-0.1-0.1-0.3-0.1-0.5-0.1
		s-0.3,0-0.5,0.1c-0.1,0.1-0.3,0.1-0.4,0.3c-0.1,0.1-0.2,0.3-0.3,0.4s-0.1,0.4-0.1,0.6c0,0.2,0,0.4,0.1,0.6s0.2,0.3,0.3,0.4
		s0.2,0.2,0.4,0.3C353,220.6,353.2,220.6,353.3,220.6z"/>
	<path fill="#999999" d="M357.1,219.2l-1.4-1.9h0.9l0.9,1.4l0.9-1.4h0.9l-1.4,1.9c0,0.1,0.1,0.1,0.2,0.2c0.1,0.1,0.2,0.2,0.3,0.3
		s0.2,0.3,0.3,0.4c0.1,0.1,0.2,0.3,0.3,0.4s0.2,0.2,0.3,0.3c0.1,0.1,0.1,0.2,0.2,0.2h-0.9l-1-1.4l-1,1.4h-0.9L357.1,219.2z"/>
	<path fill="#999999" d="M366.5,221.1l-0.1-0.8c-0.1,0.1-0.2,0.2-0.3,0.3c-0.1,0.1-0.2,0.2-0.4,0.3s-0.3,0.2-0.5,0.2
		c-0.2,0.1-0.4,0.1-0.7,0.1c-0.4,0-0.7-0.1-1-0.2c-0.3-0.1-0.6-0.3-0.9-0.6c-0.3-0.3-0.5-0.6-0.6-0.9c-0.2-0.4-0.2-0.8-0.2-1.3
		c0-0.5,0.1-0.9,0.2-1.3s0.4-0.7,0.6-0.9c0.3-0.2,0.6-0.4,0.9-0.6s0.7-0.2,1-0.2c0.3,0,0.6,0,0.9,0.1s0.5,0.2,0.7,0.3
		s0.4,0.3,0.6,0.5c0.2,0.2,0.3,0.4,0.4,0.7l-0.7,0.3c-0.1-0.4-0.3-0.7-0.7-1c-0.3-0.2-0.7-0.3-1.1-0.3c-0.3,0-0.5,0-0.7,0.1
		c-0.2,0.1-0.5,0.2-0.6,0.4c-0.2,0.2-0.3,0.4-0.5,0.7c-0.1,0.3-0.2,0.6-0.2,1c0,0.4,0.1,0.7,0.2,1c0.1,0.3,0.3,0.5,0.4,0.7
		c0.2,0.2,0.4,0.3,0.6,0.4c0.2,0.1,0.5,0.1,0.7,0.1c0.3,0,0.6,0,0.8-0.1s0.4-0.2,0.5-0.4s0.2-0.3,0.3-0.5c0.1-0.2,0.1-0.3,0.1-0.5
		h-2v-0.7h2.7v2.8H366.5z"/>
	<path fill="#999999" d="M370.7,220.7c-0.1,0.2-0.3,0.4-0.5,0.4c-0.2,0.1-0.4,0.1-0.7,0.1c-0.2,0-0.4,0-0.6-0.1
		c-0.2-0.1-0.3-0.2-0.5-0.3c-0.1-0.1-0.2-0.3-0.3-0.5c-0.1-0.2-0.1-0.4-0.1-0.6v-2.4h0.8v2.3c0,0.1,0,0.3,0,0.4
		c0,0.1,0.1,0.2,0.2,0.3c0.1,0.1,0.2,0.2,0.3,0.2s0.2,0.1,0.4,0.1c0.3,0,0.5-0.1,0.7-0.3c0.2-0.2,0.2-0.4,0.2-0.7v-2.3h0.8v3.1
		c0,0.2,0,0.3,0,0.4c0,0.1,0,0.2,0,0.3h-0.7c0,0,0-0.1,0-0.2C370.7,220.8,370.7,220.8,370.7,220.7z"/>
	<path fill="#999999" d="M372.9,222.8l1-2l-1.7-3.4h0.9l1.2,2.7l1.2-2.7h0.8l-2.5,5.5H372.9z"/>
	<path fill="#999999" d="M375.9,220.6c0-0.1,0.1-0.3,0.2-0.4s0.3-0.2,0.4-0.2c0.2,0,0.3,0.1,0.5,0.2c0.1,0.1,0.2,0.3,0.2,0.6
		c0,0.3,0,0.5-0.1,0.7c-0.1,0.2-0.2,0.3-0.3,0.5c-0.1,0.1-0.2,0.2-0.4,0.3c-0.1,0.1-0.3,0.1-0.4,0.1V222c0.1,0,0.2-0.1,0.3-0.1
		c0.1-0.1,0.2-0.1,0.2-0.2c0.1-0.1,0.1-0.2,0.1-0.3c0-0.1,0.1-0.2,0.1-0.3c0,0,0,0-0.1,0c0,0-0.1,0-0.1,0c-0.2,0-0.3,0-0.4-0.1
		C376,220.9,375.9,220.8,375.9,220.6z"/>
	<path fill="#999999" d="M383.8,219.6h-2.5l-0.6,1.6h-0.8l2.3-5.7h0.9l2.3,5.7h-0.8L383.8,219.6z M381.5,218.8h2l-1-2.5L381.5,218.8
		z"/>
	<path fill="#999999" d="M386.3,219.9c0,0.2,0.1,0.4,0.3,0.5c0.1,0.1,0.4,0.2,0.6,0.2c0.2,0,0.4-0.1,0.5-0.2
		c0.1-0.1,0.2-0.2,0.2-0.4c0-0.1,0-0.2-0.1-0.3c-0.1-0.1-0.2-0.1-0.4-0.2l-0.7-0.1c-0.3-0.1-0.5-0.2-0.7-0.4
		c-0.2-0.2-0.3-0.4-0.3-0.7c0-0.2,0-0.3,0.1-0.5s0.2-0.3,0.3-0.4c0.1-0.1,0.3-0.2,0.4-0.3c0.2-0.1,0.3-0.1,0.5-0.1
		c0.3,0,0.5,0,0.7,0.1c0.2,0.1,0.3,0.2,0.4,0.3c0.1,0.1,0.2,0.2,0.3,0.3c0.1,0.1,0.1,0.2,0.1,0.3l-0.7,0.2c0,0,0-0.1-0.1-0.2
		c0-0.1-0.1-0.1-0.1-0.2s-0.1-0.1-0.2-0.2s-0.2-0.1-0.4-0.1c-0.2,0-0.3,0.1-0.5,0.2c-0.1,0.1-0.2,0.2-0.2,0.4c0,0.2,0.1,0.4,0.4,0.5
		l0.6,0.1c0.4,0.1,0.6,0.2,0.8,0.4c0.2,0.2,0.3,0.4,0.3,0.7c0,0.1,0,0.3-0.1,0.4s-0.1,0.3-0.3,0.4c-0.1,0.1-0.3,0.2-0.4,0.3
		c-0.2,0.1-0.4,0.1-0.6,0.1c-0.3,0-0.5,0-0.7-0.1c-0.2-0.1-0.3-0.2-0.5-0.3c-0.1-0.1-0.2-0.2-0.3-0.4s-0.1-0.3-0.1-0.4L386.3,219.9z
		"/>
	<path fill="#999999" d="M390.6,217.3h0.8v0.7h-0.8v2c0,0.2,0,0.3,0.1,0.4c0.1,0.1,0.2,0.1,0.4,0.1c0,0,0.1,0,0.2,0
		c0.1,0,0.1,0,0.1,0v0.6c0,0-0.1,0-0.2,0c-0.1,0-0.2,0-0.3,0c-0.3,0-0.6-0.1-0.8-0.3c-0.2-0.2-0.3-0.5-0.3-0.8V218h-0.7v-0.7h0.2
		c0.2,0,0.4-0.1,0.5-0.2c0.1-0.1,0.1-0.3,0.1-0.4v-0.6h0.7V217.3z"/>
	<path fill="#999999" d="M394.5,218.1c-0.1,0-0.2,0-0.3,0c-0.3,0-0.6,0.1-0.8,0.3s-0.3,0.5-0.3,0.9v1.9h-0.8v-3.8h0.7v0.7
		c0.1-0.1,0.2-0.3,0.2-0.4c0.1-0.1,0.2-0.2,0.3-0.2c0.1-0.1,0.2-0.1,0.3-0.1c0.1,0,0.2,0,0.3,0c0.1,0,0.1,0,0.1,0c0,0,0.1,0,0.1,0
		V218.1z"/>
	<path fill="#999999" d="M396.9,217.2c0.3,0,0.6,0.1,0.8,0.2c0.2,0.1,0.4,0.2,0.6,0.4s0.3,0.4,0.4,0.6c0.1,0.2,0.1,0.5,0.1,0.8
		c0,0.3,0,0.6-0.1,0.8c-0.1,0.3-0.2,0.5-0.4,0.6s-0.4,0.3-0.6,0.4c-0.2,0.1-0.5,0.2-0.8,0.2c-0.3,0-0.6-0.1-0.8-0.2
		c-0.2-0.1-0.4-0.2-0.6-0.4s-0.3-0.4-0.4-0.6c-0.1-0.3-0.1-0.5-0.1-0.8c0-0.3,0-0.6,0.1-0.8s0.2-0.5,0.4-0.6s0.4-0.3,0.6-0.4
		C396.3,217.2,396.6,217.2,396.9,217.2z M396.9,220.6c0.2,0,0.3,0,0.5-0.1s0.3-0.1,0.4-0.3c0.1-0.1,0.2-0.3,0.3-0.4s0.1-0.4,0.1-0.6
		c0-0.2,0-0.4-0.1-0.6s-0.2-0.3-0.3-0.4c-0.1-0.1-0.2-0.2-0.4-0.3s-0.3-0.1-0.5-0.1s-0.3,0-0.5,0.1c-0.1,0.1-0.3,0.1-0.4,0.3
		c-0.1,0.1-0.2,0.3-0.3,0.4c-0.1,0.2-0.1,0.4-0.1,0.6c0,0.2,0,0.4,0.1,0.6c0.1,0.2,0.2,0.3,0.3,0.4c0.1,0.1,0.2,0.2,0.4,0.3
		C396.6,220.6,396.7,220.6,396.9,220.6z"/>
	<path fill="#999999" d="M400.6,221.1h-0.8v-3.8h0.7v0.6c0.1-0.2,0.3-0.4,0.5-0.5c0.2-0.1,0.4-0.2,0.7-0.2c0.2,0,0.4,0,0.6,0.1
		s0.3,0.2,0.4,0.3c0.1,0.1,0.2,0.3,0.3,0.5c0.1,0.2,0.1,0.4,0.1,0.6v2.4h-0.8v-2.3c0-0.1,0-0.3,0-0.4c0-0.1-0.1-0.2-0.2-0.3
		s-0.2-0.2-0.3-0.2c-0.1-0.1-0.3-0.1-0.4-0.1c-0.2,0-0.3,0-0.4,0.1c-0.1,0.1-0.2,0.1-0.3,0.2c-0.1,0.1-0.1,0.2-0.2,0.3
		c0,0.1-0.1,0.3-0.1,0.4V221.1z"/>
	<path fill="#999999" d="M404.1,220.1c0-0.2,0-0.3,0.1-0.5s0.1-0.3,0.2-0.3s0.2-0.2,0.4-0.2c0.1-0.1,0.3-0.1,0.5-0.1l1-0.2
		c0.1,0,0.2-0.1,0.2-0.1c0-0.1,0.1-0.1,0.1-0.2c0-0.2-0.1-0.3-0.2-0.5s-0.3-0.2-0.6-0.2c-0.3,0-0.5,0.1-0.6,0.2
		c-0.1,0.1-0.2,0.3-0.3,0.6l-0.7-0.2c0-0.2,0.1-0.3,0.2-0.5c0.1-0.2,0.2-0.3,0.3-0.4s0.3-0.2,0.5-0.3s0.4-0.1,0.6-0.1
		c0.3,0,0.5,0,0.7,0.1c0.2,0.1,0.4,0.2,0.5,0.3c0.1,0.1,0.2,0.3,0.3,0.4s0.1,0.3,0.1,0.5v1.9c0,0.2,0,0.3,0,0.4c0,0.1,0,0.2,0,0.2
		h-0.7c0,0,0-0.1,0-0.2c0-0.1,0-0.2,0-0.3c0,0.1-0.1,0.1-0.2,0.2c-0.1,0.1-0.2,0.1-0.3,0.2c-0.1,0.1-0.2,0.1-0.4,0.2
		s-0.3,0.1-0.5,0.1c-0.2,0-0.4,0-0.5-0.1c-0.2-0.1-0.3-0.1-0.4-0.3c-0.1-0.1-0.2-0.2-0.3-0.4C404.1,220.4,404.1,220.3,404.1,220.1z
		 M405.4,220.6c0.2,0,0.3,0,0.4-0.1s0.3-0.1,0.4-0.2c0.1-0.1,0.2-0.2,0.2-0.4s0.1-0.3,0.1-0.5v-0.2l-1.2,0.2c-0.2,0-0.3,0.1-0.4,0.2
		c-0.1,0.1-0.2,0.2-0.2,0.4c0,0.1,0.1,0.3,0.2,0.4C405.1,220.6,405.3,220.6,405.4,220.6z"/>
	<path fill="#999999" d="M410.9,220.7c-0.1,0.2-0.3,0.4-0.5,0.4c-0.2,0.1-0.4,0.1-0.7,0.1c-0.2,0-0.4,0-0.6-0.1
		c-0.2-0.1-0.3-0.2-0.5-0.3s-0.2-0.3-0.3-0.5c-0.1-0.2-0.1-0.4-0.1-0.6v-2.4h0.8v2.3c0,0.1,0,0.3,0,0.4s0.1,0.2,0.2,0.3
		c0.1,0.1,0.2,0.2,0.3,0.2s0.2,0.1,0.4,0.1c0.3,0,0.5-0.1,0.7-0.3c0.2-0.2,0.2-0.4,0.2-0.7v-2.3h0.8v3.1c0,0.2,0,0.3,0,0.4
		s0,0.2,0,0.3H411c0,0,0-0.1,0-0.2C410.9,220.8,410.9,220.8,410.9,220.7z"/>
	<path fill="#999999" d="M413.9,217.3h0.8v0.7h-0.8v2c0,0.2,0,0.3,0.1,0.4c0.1,0.1,0.2,0.1,0.4,0.1c0,0,0.1,0,0.2,0
		c0.1,0,0.1,0,0.1,0v0.6c0,0-0.1,0-0.2,0c-0.1,0-0.2,0-0.3,0c-0.3,0-0.6-0.1-0.8-0.3s-0.3-0.5-0.3-0.8V218h-0.7v-0.7h0.2
		c0.2,0,0.4-0.1,0.5-0.2c0.1-0.1,0.1-0.3,0.1-0.4v-0.6h0.7V217.3z"/>
	<path fill="#999999" d="M415.7,220.6c0-0.1,0.1-0.3,0.2-0.4s0.3-0.2,0.4-0.2c0.2,0,0.3,0.1,0.5,0.2c0.1,0.1,0.2,0.3,0.2,0.6
		c0,0.3,0,0.5-0.1,0.7c-0.1,0.2-0.2,0.3-0.3,0.5c-0.1,0.1-0.2,0.2-0.4,0.3c-0.1,0.1-0.3,0.1-0.4,0.1V222c0.1,0,0.2-0.1,0.3-0.1
		c0.1-0.1,0.2-0.1,0.2-0.2c0.1-0.1,0.1-0.2,0.1-0.3c0-0.1,0.1-0.2,0.1-0.3c0,0,0,0-0.1,0c0,0-0.1,0-0.1,0c-0.2,0-0.3,0-0.4-0.1
		C415.7,220.9,415.7,220.8,415.7,220.6z"/>
	<path fill="#999999" d="M425.6,221.1v-4.4l-1.9,4.4h-0.7l-1.9-4.4v4.4h-0.8v-5.7h1.1l2,4.6l2-4.6h1v5.7H425.6z"/>
	<path fill="#999999" d="M427.4,220.1c0-0.2,0-0.3,0.1-0.5c0.1-0.1,0.1-0.3,0.2-0.3s0.2-0.2,0.4-0.2c0.1-0.1,0.3-0.1,0.5-0.1l1-0.2
		c0.1,0,0.2-0.1,0.2-0.1c0-0.1,0.1-0.1,0.1-0.2c0-0.2-0.1-0.3-0.2-0.5s-0.3-0.2-0.6-0.2c-0.3,0-0.5,0.1-0.6,0.2
		c-0.1,0.1-0.2,0.3-0.3,0.6l-0.7-0.2c0-0.2,0.1-0.3,0.2-0.5c0.1-0.2,0.2-0.3,0.3-0.4s0.3-0.2,0.5-0.3s0.4-0.1,0.6-0.1
		c0.3,0,0.5,0,0.7,0.1c0.2,0.1,0.4,0.2,0.5,0.3c0.1,0.1,0.2,0.3,0.3,0.4s0.1,0.3,0.1,0.5v1.9c0,0.2,0,0.3,0,0.4c0,0.1,0,0.2,0,0.2
		H430c0,0,0-0.1,0-0.2c0-0.1,0-0.2,0-0.3c0,0.1-0.1,0.1-0.2,0.2c-0.1,0.1-0.2,0.1-0.3,0.2c-0.1,0.1-0.2,0.1-0.4,0.2
		s-0.3,0.1-0.5,0.1c-0.2,0-0.4,0-0.5-0.1c-0.2-0.1-0.3-0.1-0.4-0.3c-0.1-0.1-0.2-0.2-0.3-0.4C427.4,220.4,427.4,220.3,427.4,220.1z
		 M428.8,220.6c0.2,0,0.3,0,0.4-0.1s0.3-0.1,0.4-0.2c0.1-0.1,0.2-0.2,0.2-0.4s0.1-0.3,0.1-0.5v-0.2l-1.2,0.2c-0.2,0-0.3,0.1-0.4,0.2
		c-0.1,0.1-0.2,0.2-0.2,0.4c0,0.1,0.1,0.3,0.2,0.4C428.5,220.6,428.6,220.6,428.8,220.6z"/>
	<path fill="#999999" d="M431.8,221.1v-5.8h0.8v5.8H431.8z"/>
	<path fill="#999999" d="M437.2,220c-0.1,0.2-0.1,0.3-0.2,0.5s-0.2,0.3-0.4,0.4s-0.3,0.2-0.5,0.3c-0.2,0.1-0.4,0.1-0.6,0.1
		c-0.3,0-0.5,0-0.7-0.1c-0.2-0.1-0.4-0.2-0.6-0.4c-0.2-0.2-0.3-0.4-0.4-0.6c-0.1-0.3-0.2-0.5-0.2-0.9c0-0.3,0.1-0.6,0.2-0.8
		c0.1-0.2,0.2-0.5,0.4-0.6s0.4-0.3,0.6-0.4c0.2-0.1,0.5-0.1,0.7-0.1c0.3,0,0.6,0,0.8,0.1s0.4,0.2,0.6,0.4s0.3,0.4,0.4,0.6
		c0.1,0.2,0.1,0.5,0.1,0.8c0,0,0,0.1,0,0.1c0,0,0,0.1,0,0.1h-2.9c0,0.2,0,0.3,0.1,0.5c0.1,0.1,0.1,0.3,0.2,0.4
		c0.1,0.1,0.2,0.2,0.4,0.2c0.1,0.1,0.3,0.1,0.5,0.1c0.3,0,0.6-0.1,0.7-0.2c0.2-0.1,0.3-0.3,0.4-0.6L437.2,220z M436.5,218.8
		c0-0.3-0.1-0.5-0.3-0.7c-0.2-0.2-0.4-0.3-0.8-0.3c-0.2,0-0.3,0-0.4,0.1c-0.1,0.1-0.2,0.1-0.3,0.2c-0.1,0.1-0.2,0.2-0.2,0.3
		c-0.1,0.1-0.1,0.2-0.1,0.4H436.5z"/>
	<path fill="#999999" d="M438,220.6c0-0.1,0.1-0.3,0.2-0.4s0.3-0.2,0.4-0.2s0.3,0.1,0.5,0.2c0.1,0.1,0.2,0.3,0.2,0.6
		c0,0.3,0,0.5-0.1,0.7c-0.1,0.2-0.2,0.3-0.3,0.5c-0.1,0.1-0.2,0.2-0.4,0.3c-0.1,0.1-0.3,0.1-0.4,0.1V222c0.1,0,0.2-0.1,0.3-0.1
		c0.1-0.1,0.2-0.1,0.2-0.2c0.1-0.1,0.1-0.2,0.1-0.3c0-0.1,0.1-0.2,0.1-0.3c0,0,0,0-0.1,0c0,0-0.1,0-0.1,0c-0.1,0-0.3,0-0.4-0.1
		C438.1,220.9,438,220.8,438,220.6z"/>
	<path fill="#999999" d="M442.5,221.1v-5.7h3.4v0.7h-2.7v1.8h2.4v0.7h-2.4v2.4H442.5z"/>
	<path fill="#999999" d="M449.9,220c-0.1,0.2-0.1,0.3-0.2,0.5c-0.1,0.1-0.2,0.3-0.4,0.4s-0.3,0.2-0.5,0.3c-0.2,0.1-0.4,0.1-0.6,0.1
		c-0.3,0-0.5,0-0.7-0.1c-0.2-0.1-0.4-0.2-0.6-0.4c-0.2-0.2-0.3-0.4-0.4-0.6c-0.1-0.3-0.2-0.5-0.2-0.9c0-0.3,0.1-0.6,0.2-0.8
		s0.2-0.5,0.4-0.6s0.4-0.3,0.6-0.4s0.5-0.1,0.7-0.1c0.3,0,0.6,0,0.8,0.1s0.4,0.2,0.6,0.4c0.2,0.2,0.3,0.4,0.4,0.6
		c0.1,0.2,0.1,0.5,0.1,0.8c0,0,0,0.1,0,0.1c0,0,0,0.1,0,0.1H447c0,0.2,0,0.3,0.1,0.5c0.1,0.1,0.1,0.3,0.2,0.4
		c0.1,0.1,0.2,0.2,0.4,0.2s0.3,0.1,0.5,0.1c0.3,0,0.6-0.1,0.7-0.2s0.3-0.3,0.4-0.6L449.9,220z M449.2,218.8c0-0.3-0.1-0.5-0.3-0.7
		c-0.2-0.2-0.4-0.3-0.8-0.3c-0.2,0-0.3,0-0.4,0.1c-0.1,0.1-0.2,0.1-0.3,0.2c-0.1,0.1-0.2,0.2-0.2,0.3s-0.1,0.2-0.1,0.4H449.2z"/>
	<path fill="#999999" d="M450.9,221.1v-3.8h0.7v0.5c0.1-0.2,0.3-0.4,0.5-0.5c0.2-0.1,0.4-0.2,0.7-0.2c0.2,0,0.5,0.1,0.7,0.2
		s0.4,0.3,0.5,0.6c0.2-0.3,0.3-0.5,0.6-0.6c0.2-0.1,0.5-0.2,0.7-0.2c0.2,0,0.3,0,0.5,0.1s0.3,0.1,0.4,0.3c0.1,0.1,0.2,0.3,0.3,0.5
		c0.1,0.2,0.1,0.4,0.1,0.7v2.5h-0.7v-2.4c0-0.3-0.1-0.5-0.2-0.6c-0.1-0.2-0.3-0.3-0.6-0.3c-0.3,0-0.5,0.1-0.6,0.3
		c-0.2,0.2-0.2,0.4-0.2,0.7v2.3h-0.8v-2.4c0-0.3-0.1-0.5-0.2-0.6c-0.1-0.2-0.3-0.3-0.6-0.3c-0.3,0-0.5,0.1-0.7,0.3
		c-0.2,0.2-0.2,0.4-0.2,0.7v2.3H450.9z"/>
	<path fill="#999999" d="M457.5,220.1c0-0.2,0-0.3,0.1-0.5s0.1-0.3,0.2-0.3s0.2-0.2,0.4-0.2c0.1-0.1,0.3-0.1,0.5-0.1l1-0.2
		c0.1,0,0.2-0.1,0.2-0.1c0-0.1,0.1-0.1,0.1-0.2c0-0.2-0.1-0.3-0.2-0.5s-0.3-0.2-0.6-0.2c-0.3,0-0.5,0.1-0.6,0.2
		c-0.1,0.1-0.2,0.3-0.3,0.6l-0.7-0.2c0-0.2,0.1-0.3,0.2-0.5c0.1-0.2,0.2-0.3,0.3-0.4s0.3-0.2,0.5-0.3s0.4-0.1,0.6-0.1
		c0.3,0,0.5,0,0.7,0.1c0.2,0.1,0.4,0.2,0.5,0.3c0.1,0.1,0.2,0.3,0.3,0.4s0.1,0.3,0.1,0.5v1.9c0,0.2,0,0.3,0,0.4c0,0.1,0,0.2,0,0.2
		h-0.7c0,0,0-0.1,0-0.2c0-0.1,0-0.2,0-0.3c0,0.1-0.1,0.1-0.2,0.2c-0.1,0.1-0.2,0.1-0.3,0.2c-0.1,0.1-0.2,0.1-0.4,0.2
		s-0.3,0.1-0.5,0.1c-0.2,0-0.4,0-0.5-0.1c-0.2-0.1-0.3-0.1-0.4-0.3c-0.1-0.1-0.2-0.2-0.3-0.4C457.5,220.4,457.5,220.3,457.5,220.1z
		 M458.9,220.6c0.2,0,0.3,0,0.4-0.1s0.3-0.1,0.4-0.2c0.1-0.1,0.2-0.2,0.2-0.4s0.1-0.3,0.1-0.5v-0.2l-1.2,0.2c-0.2,0-0.3,0.1-0.4,0.2
		c-0.1,0.1-0.2,0.2-0.2,0.4c0,0.1,0.1,0.3,0.2,0.4C458.6,220.6,458.7,220.6,458.9,220.6z"/>
	<path fill="#999999" d="M461.9,221.1v-5.8h0.8v5.8H461.9z"/>
	<path fill="#999999" d="M467.3,220c-0.1,0.2-0.1,0.3-0.2,0.5c-0.1,0.1-0.2,0.3-0.4,0.4s-0.3,0.2-0.5,0.3c-0.2,0.1-0.4,0.1-0.6,0.1
		c-0.3,0-0.5,0-0.7-0.1c-0.2-0.1-0.4-0.2-0.6-0.4c-0.2-0.2-0.3-0.4-0.4-0.6c-0.1-0.3-0.2-0.5-0.2-0.9c0-0.3,0.1-0.6,0.2-0.8
		c0.1-0.2,0.2-0.5,0.4-0.6s0.4-0.3,0.6-0.4c0.2-0.1,0.5-0.1,0.7-0.1c0.3,0,0.6,0,0.8,0.1s0.4,0.2,0.6,0.4s0.3,0.4,0.4,0.6
		c0.1,0.2,0.1,0.5,0.1,0.8c0,0,0,0.1,0,0.1c0,0,0,0.1,0,0.1h-2.9c0,0.2,0,0.3,0.1,0.5c0.1,0.1,0.1,0.3,0.2,0.4
		c0.1,0.1,0.2,0.2,0.4,0.2c0.1,0.1,0.3,0.1,0.5,0.1c0.3,0,0.6-0.1,0.7-0.2c0.2-0.1,0.3-0.3,0.4-0.6L467.3,220z M466.6,218.8
		c0-0.3-0.1-0.5-0.3-0.7c-0.2-0.2-0.4-0.3-0.8-0.3c-0.2,0-0.3,0-0.4,0.1c-0.1,0.1-0.2,0.1-0.3,0.2c-0.1,0.1-0.2,0.2-0.2,0.3
		c-0.1,0.1-0.1,0.2-0.1,0.4H466.6z"/>
	<path fill="#999999" d="M385.7,225.5c0.3,0,0.5,0,0.7,0.1s0.4,0.2,0.5,0.3c0.1,0.1,0.3,0.3,0.3,0.5c0.1,0.2,0.1,0.4,0.1,0.6
		c0,0.3-0.1,0.6-0.2,0.8c-0.2,0.2-0.4,0.4-0.6,0.5c0.2,0,0.3,0.1,0.4,0.2c0.1,0.1,0.2,0.2,0.3,0.3s0.2,0.3,0.2,0.4
		c0,0.1,0.1,0.3,0.1,0.5c0,0.2,0,0.4-0.1,0.6c-0.1,0.2-0.2,0.4-0.4,0.5c-0.2,0.1-0.3,0.2-0.6,0.3c-0.2,0.1-0.5,0.1-0.7,0.1h-2v-5.7
		H385.7z M385.6,228c0.3,0,0.6-0.1,0.7-0.3c0.2-0.2,0.3-0.4,0.3-0.7c0-0.3-0.1-0.5-0.3-0.6c-0.2-0.2-0.4-0.2-0.8-0.2h-0.9v1.8H385.6
		z M385.7,230.5c0.3,0,0.6-0.1,0.8-0.2c0.2-0.2,0.3-0.4,0.3-0.7c0-0.3-0.1-0.5-0.3-0.7c-0.2-0.2-0.4-0.3-0.8-0.3h-1.1v1.8H385.7z"/>
	<path fill="#999999" d="M392,230c-0.1,0.2-0.1,0.3-0.2,0.5s-0.2,0.3-0.4,0.4s-0.3,0.2-0.5,0.3c-0.2,0.1-0.4,0.1-0.6,0.1
		c-0.3,0-0.5,0-0.7-0.1c-0.2-0.1-0.4-0.2-0.6-0.4c-0.2-0.2-0.3-0.4-0.4-0.6c-0.1-0.3-0.2-0.5-0.2-0.9c0-0.3,0.1-0.6,0.2-0.8
		c0.1-0.2,0.2-0.5,0.4-0.6s0.4-0.3,0.6-0.4c0.2-0.1,0.5-0.1,0.7-0.1c0.3,0,0.6,0,0.8,0.1c0.2,0.1,0.4,0.2,0.6,0.4s0.3,0.4,0.4,0.6
		c0.1,0.2,0.1,0.5,0.1,0.8c0,0,0,0.1,0,0.1c0,0,0,0.1,0,0.1h-2.9c0,0.2,0,0.3,0.1,0.5c0.1,0.1,0.1,0.3,0.2,0.4
		c0.1,0.1,0.2,0.2,0.4,0.2c0.1,0.1,0.3,0.1,0.5,0.1c0.3,0,0.6-0.1,0.7-0.2c0.2-0.1,0.3-0.3,0.4-0.6L392,230z M391.2,228.8
		c0-0.3-0.1-0.5-0.3-0.7c-0.2-0.2-0.4-0.3-0.8-0.3c-0.2,0-0.3,0-0.4,0.1c-0.1,0.1-0.2,0.1-0.3,0.2c-0.1,0.1-0.2,0.2-0.2,0.3
		c-0.1,0.1-0.1,0.2-0.1,0.4H391.2z"/>
	<path fill="#999999" d="M392.7,230.1c0-0.2,0-0.3,0.1-0.5s0.1-0.3,0.2-0.3c0.1-0.1,0.2-0.2,0.4-0.2s0.3-0.1,0.5-0.1l1-0.2
		c0.1,0,0.2-0.1,0.2-0.1c0-0.1,0.1-0.1,0.1-0.2c0-0.2-0.1-0.3-0.2-0.5s-0.3-0.2-0.6-0.2c-0.3,0-0.5,0.1-0.6,0.2
		c-0.1,0.1-0.2,0.3-0.3,0.6l-0.7-0.2c0-0.2,0.1-0.3,0.2-0.5c0.1-0.2,0.2-0.3,0.3-0.4s0.3-0.2,0.5-0.3c0.2-0.1,0.4-0.1,0.6-0.1
		c0.3,0,0.5,0,0.7,0.1c0.2,0.1,0.4,0.2,0.5,0.3c0.1,0.1,0.2,0.3,0.3,0.4c0.1,0.2,0.1,0.3,0.1,0.5v1.9c0,0.2,0,0.3,0,0.4
		c0,0.1,0,0.2,0,0.2h-0.7c0,0,0-0.1,0-0.2s0-0.2,0-0.3c0,0.1-0.1,0.1-0.2,0.2c-0.1,0.1-0.2,0.1-0.3,0.2c-0.1,0.1-0.2,0.1-0.4,0.2
		c-0.1,0-0.3,0.1-0.5,0.1c-0.2,0-0.4,0-0.5-0.1c-0.2-0.1-0.3-0.1-0.4-0.3c-0.1-0.1-0.2-0.2-0.3-0.4
		C392.8,230.4,392.7,230.3,392.7,230.1z M394.1,230.6c0.2,0,0.3,0,0.4-0.1c0.1,0,0.3-0.1,0.4-0.2c0.1-0.1,0.2-0.2,0.2-0.4
		c0.1-0.1,0.1-0.3,0.1-0.5v-0.2l-1.2,0.2c-0.2,0-0.3,0.1-0.4,0.2c-0.1,0.1-0.2,0.2-0.2,0.4c0,0.1,0.1,0.3,0.2,0.4
		C393.8,230.6,393.9,230.6,394.1,230.6z"/>
	<path fill="#999999" d="M399.3,228.1c-0.1,0-0.2,0-0.3,0c-0.3,0-0.6,0.1-0.8,0.3c-0.2,0.2-0.3,0.5-0.3,0.9v1.9h-0.8v-3.8h0.7v0.7
		c0.1-0.1,0.2-0.3,0.2-0.4c0.1-0.1,0.2-0.2,0.3-0.2c0.1-0.1,0.2-0.1,0.3-0.1s0.2,0,0.3,0c0.1,0,0.1,0,0.1,0c0,0,0.1,0,0.1,0V228.1z"
		/>
	<path fill="#999999" d="M399.3,230.6c0-0.1,0.1-0.3,0.2-0.4s0.3-0.2,0.4-0.2c0.2,0,0.3,0.1,0.5,0.2c0.1,0.1,0.2,0.3,0.2,0.6
		c0,0.3,0,0.5-0.1,0.7c-0.1,0.2-0.2,0.3-0.3,0.5c-0.1,0.1-0.2,0.2-0.4,0.3c-0.1,0.1-0.3,0.1-0.4,0.1V232c0.1,0,0.2-0.1,0.3-0.1
		c0.1-0.1,0.2-0.1,0.2-0.2c0.1-0.1,0.1-0.2,0.1-0.3c0-0.1,0.1-0.2,0.1-0.3c0,0,0,0-0.1,0c0,0-0.1,0-0.1,0c-0.2,0-0.3,0-0.4-0.1
		C399.3,230.9,399.3,230.8,399.3,230.6z"/>
	<path fill="#999999" d="M403.8,231.1v-5.7h2c0.4,0,0.7,0.1,1,0.2c0.3,0.1,0.6,0.3,0.9,0.5c0.2,0.2,0.4,0.5,0.6,0.9s0.2,0.8,0.2,1.2
		s-0.1,0.9-0.2,1.2c-0.1,0.4-0.3,0.6-0.6,0.9c-0.3,0.2-0.5,0.4-0.9,0.5s-0.7,0.2-1,0.2H403.8z M405.7,230.4c0.3,0,0.5,0,0.7-0.1
		c0.2-0.1,0.4-0.2,0.6-0.4c0.2-0.2,0.3-0.4,0.4-0.7s0.2-0.6,0.2-0.9s-0.1-0.7-0.2-0.9s-0.2-0.5-0.4-0.7s-0.4-0.3-0.6-0.4
		s-0.5-0.1-0.7-0.1h-1.2v4.3H405.7z"/>
	<path fill="#999999" d="M411.1,227.2c0.3,0,0.6,0.1,0.8,0.2c0.2,0.1,0.4,0.2,0.6,0.4s0.3,0.4,0.4,0.6s0.1,0.5,0.1,0.8
		c0,0.3,0,0.6-0.1,0.8c-0.1,0.3-0.2,0.5-0.4,0.6s-0.4,0.3-0.6,0.4c-0.2,0.1-0.5,0.2-0.8,0.2c-0.3,0-0.6-0.1-0.8-0.2
		c-0.2-0.1-0.4-0.2-0.6-0.4s-0.3-0.4-0.4-0.6c-0.1-0.3-0.1-0.5-0.1-0.8c0-0.3,0-0.6,0.1-0.8s0.2-0.5,0.4-0.6s0.4-0.3,0.6-0.4
		C410.6,227.2,410.8,227.2,411.1,227.2z M411.1,230.6c0.2,0,0.3,0,0.5-0.1c0.1-0.1,0.3-0.1,0.4-0.3c0.1-0.1,0.2-0.3,0.3-0.4
		c0.1-0.2,0.1-0.4,0.1-0.6c0-0.2,0-0.4-0.1-0.6c-0.1-0.2-0.2-0.3-0.3-0.4c-0.1-0.1-0.2-0.2-0.4-0.3c-0.1-0.1-0.3-0.1-0.5-0.1
		s-0.3,0-0.5,0.1c-0.1,0.1-0.3,0.1-0.4,0.3c-0.1,0.1-0.2,0.3-0.3,0.4s-0.1,0.4-0.1,0.6c0,0.2,0,0.4,0.1,0.6s0.2,0.3,0.3,0.4
		s0.2,0.2,0.4,0.3C410.8,230.6,411,230.6,411.1,230.6z"/>
	<path fill="#999999" d="M414.5,231.2c0,0.3,0.1,0.5,0.3,0.7s0.4,0.3,0.7,0.3c0.4,0,0.7-0.1,0.9-0.3s0.3-0.5,0.3-0.9v-0.6
		c-0.1,0.2-0.2,0.3-0.4,0.4c-0.2,0.1-0.4,0.2-0.7,0.2c-0.3,0-0.5,0-0.7-0.1c-0.2-0.1-0.4-0.2-0.6-0.4c-0.2-0.2-0.3-0.4-0.4-0.6
		s-0.1-0.5-0.1-0.8c0-0.3,0-0.5,0.1-0.7c0.1-0.2,0.2-0.4,0.4-0.6s0.3-0.3,0.6-0.4c0.2-0.1,0.5-0.1,0.7-0.1c0.3,0,0.5,0.1,0.7,0.2
		s0.3,0.3,0.4,0.4v-0.5h0.7v3.6c0,0.2,0,0.5-0.1,0.7c-0.1,0.2-0.2,0.4-0.3,0.6c-0.2,0.2-0.3,0.3-0.6,0.4c-0.2,0.1-0.5,0.2-0.9,0.2
		c-0.2,0-0.5,0-0.7-0.1c-0.2-0.1-0.4-0.2-0.5-0.3c-0.2-0.1-0.3-0.3-0.4-0.5c-0.1-0.2-0.2-0.4-0.2-0.6L414.5,231.2z M415.7,230.3
		c0.3,0,0.6-0.1,0.8-0.3c0.2-0.2,0.3-0.5,0.3-0.9s-0.1-0.7-0.3-0.9c-0.2-0.2-0.5-0.3-0.8-0.3c-0.3,0-0.6,0.1-0.8,0.3
		c-0.2,0.2-0.3,0.5-0.3,0.9c0,0.4,0.1,0.7,0.3,0.9C415.1,230.2,415.3,230.3,415.7,230.3z"/>
	<path fill="#999999" d="M418.6,230.6c0-0.1,0.1-0.3,0.2-0.4s0.3-0.2,0.4-0.2s0.3,0.1,0.5,0.2c0.1,0.1,0.2,0.3,0.2,0.6
		c0,0.3,0,0.5-0.1,0.7c-0.1,0.2-0.2,0.3-0.3,0.5c-0.1,0.1-0.2,0.2-0.4,0.3c-0.1,0.1-0.3,0.1-0.4,0.1V232c0.1,0,0.2-0.1,0.3-0.1
		c0.1-0.1,0.2-0.1,0.2-0.2c0.1-0.1,0.1-0.2,0.1-0.3c0-0.1,0.1-0.2,0.1-0.3c0,0,0,0-0.1,0c0,0-0.1,0-0.1,0c-0.1,0-0.3,0-0.4-0.1
		C418.7,230.9,418.6,230.8,418.6,230.6z"/>
	<path fill="#999999" d="M425.6,231.3c-0.4,0-0.7-0.1-1.1-0.2c-0.3-0.1-0.6-0.3-0.9-0.6c-0.3-0.3-0.5-0.6-0.6-0.9
		c-0.2-0.4-0.2-0.8-0.2-1.3s0.1-0.9,0.2-1.3c0.2-0.4,0.4-0.7,0.6-0.9c0.3-0.3,0.6-0.4,0.9-0.6c0.3-0.1,0.7-0.2,1-0.2
		c0.3,0,0.6,0,0.9,0.1s0.5,0.2,0.7,0.4c0.2,0.2,0.4,0.3,0.5,0.6c0.1,0.2,0.3,0.5,0.3,0.7l-0.7,0.3c-0.1-0.4-0.3-0.8-0.6-1
		c-0.3-0.2-0.7-0.3-1.2-0.3c-0.3,0-0.5,0-0.7,0.1c-0.2,0.1-0.5,0.2-0.6,0.4s-0.3,0.4-0.5,0.7c-0.1,0.3-0.2,0.6-0.2,1s0.1,0.7,0.2,1
		c0.1,0.3,0.3,0.5,0.5,0.7s0.4,0.3,0.6,0.4c0.2,0.1,0.5,0.1,0.7,0.1c0.2,0,0.5,0,0.7-0.1s0.4-0.2,0.5-0.3c0.2-0.1,0.3-0.3,0.4-0.4
		s0.2-0.3,0.2-0.5l0.7,0.3c-0.1,0.3-0.2,0.5-0.3,0.7c-0.1,0.2-0.3,0.4-0.5,0.6c-0.2,0.2-0.5,0.3-0.7,0.4
		C426.2,231.2,425.9,231.3,425.6,231.3z"/>
	<path fill="#999999" d="M428.6,230.1c0-0.2,0-0.3,0.1-0.5s0.1-0.3,0.2-0.3c0.1-0.1,0.2-0.2,0.4-0.2s0.3-0.1,0.5-0.1l1-0.2
		c0.1,0,0.2-0.1,0.2-0.1c0-0.1,0.1-0.1,0.1-0.2c0-0.2-0.1-0.3-0.2-0.5s-0.3-0.2-0.6-0.2c-0.3,0-0.5,0.1-0.6,0.2
		c-0.1,0.1-0.2,0.3-0.3,0.6l-0.7-0.2c0-0.2,0.1-0.3,0.2-0.5c0.1-0.2,0.2-0.3,0.3-0.4s0.3-0.2,0.5-0.3c0.2-0.1,0.4-0.1,0.6-0.1
		c0.3,0,0.5,0,0.7,0.1c0.2,0.1,0.4,0.2,0.5,0.3c0.1,0.1,0.2,0.3,0.3,0.4c0.1,0.2,0.1,0.3,0.1,0.5v1.9c0,0.2,0,0.3,0,0.4
		c0,0.1,0,0.2,0,0.2h-0.7c0,0,0-0.1,0-0.2c0-0.1,0-0.2,0-0.3c0,0.1-0.1,0.1-0.2,0.2c-0.1,0.1-0.2,0.1-0.3,0.2
		c-0.1,0.1-0.2,0.1-0.4,0.2c-0.1,0-0.3,0.1-0.5,0.1c-0.2,0-0.4,0-0.5-0.1c-0.2-0.1-0.3-0.1-0.4-0.3c-0.1-0.1-0.2-0.2-0.3-0.4
		C428.7,230.4,428.6,230.3,428.6,230.1z M430,230.6c0.2,0,0.3,0,0.4-0.1c0.1,0,0.3-0.1,0.4-0.2c0.1-0.1,0.2-0.2,0.2-0.4
		c0.1-0.1,0.1-0.3,0.1-0.5v-0.2l-1.2,0.2c-0.2,0-0.3,0.1-0.4,0.2c-0.1,0.1-0.2,0.2-0.2,0.4c0,0.1,0.1,0.3,0.2,0.4
		C429.7,230.6,429.8,230.6,430,230.6z"/>
	<path fill="#999999" d="M434.1,227.3h0.8v0.7h-0.8v2c0,0.2,0,0.3,0.1,0.4c0.1,0.1,0.2,0.1,0.4,0.1c0,0,0.1,0,0.2,0
		c0.1,0,0.1,0,0.1,0v0.6c0,0-0.1,0-0.2,0c-0.1,0-0.2,0-0.3,0c-0.3,0-0.6-0.1-0.8-0.3s-0.3-0.5-0.3-0.8V228h-0.7v-0.7h0.2
		c0.2,0,0.4-0.1,0.5-0.2c0.1-0.1,0.1-0.3,0.1-0.4v-0.6h0.7V227.3z"/>
	<path fill="#999999" d="M435.8,230.6c0-0.1,0.1-0.3,0.2-0.4s0.3-0.2,0.4-0.2c0.2,0,0.3,0.1,0.5,0.2c0.1,0.1,0.2,0.3,0.2,0.6
		c0,0.3,0,0.5-0.1,0.7c-0.1,0.2-0.2,0.3-0.3,0.5c-0.1,0.1-0.2,0.2-0.4,0.3c-0.1,0.1-0.3,0.1-0.4,0.1V232c0.1,0,0.2-0.1,0.3-0.1
		c0.1-0.1,0.2-0.1,0.2-0.2c0.1-0.1,0.1-0.2,0.1-0.3c0-0.1,0.1-0.2,0.1-0.3c0,0,0,0-0.1,0c0,0-0.1,0-0.1,0c-0.2,0-0.3,0-0.4-0.1
		C435.9,230.9,435.8,230.8,435.8,230.6z"/>
	<path fill="#999999" d="M442.3,231.3c-0.3,0-0.6,0-0.8-0.1s-0.5-0.2-0.6-0.4c-0.2-0.2-0.3-0.4-0.4-0.6c-0.1-0.3-0.2-0.6-0.2-0.9
		v-3.7h0.8v3.7c0,0.4,0.1,0.8,0.3,1c0.2,0.2,0.5,0.4,0.9,0.4s0.7-0.1,0.9-0.4s0.3-0.6,0.3-1v-3.7h0.8v3.7c0,0.3-0.1,0.6-0.2,0.9
		c-0.1,0.3-0.2,0.5-0.4,0.6c-0.2,0.2-0.4,0.3-0.6,0.4S442.6,231.3,442.3,231.3z"/>
	<path fill="#999999" d="M446.3,231.1h-0.8v-3.8h0.7v0.6c0.1-0.2,0.3-0.4,0.5-0.5c0.2-0.1,0.4-0.2,0.7-0.2c0.2,0,0.4,0,0.6,0.1
		c0.2,0.1,0.3,0.2,0.4,0.3c0.1,0.1,0.2,0.3,0.3,0.5s0.1,0.4,0.1,0.6v2.4h-0.8v-2.3c0-0.1,0-0.3,0-0.4c0-0.1-0.1-0.2-0.2-0.3
		c-0.1-0.1-0.2-0.2-0.3-0.2s-0.3-0.1-0.4-0.1c-0.1,0-0.3,0-0.4,0.1c-0.1,0.1-0.2,0.1-0.3,0.2c-0.1,0.1-0.1,0.2-0.2,0.3
		s-0.1,0.3-0.1,0.4V231.1z"/>
	<path fill="#999999" d="M449.9,225.8c0-0.2,0.1-0.3,0.2-0.4c0.1-0.1,0.2-0.2,0.4-0.2c0.2,0,0.3,0.1,0.4,0.2
		c0.1,0.1,0.2,0.2,0.2,0.4c0,0.1-0.1,0.3-0.2,0.4c-0.1,0.1-0.2,0.2-0.4,0.2c-0.2,0-0.3-0.1-0.4-0.2C450,226.1,449.9,226,449.9,225.8
		z M450.1,231.1v-3.8h0.7v3.8H450.1z"/>
	<path fill="#999999" d="M453.7,227.9c-0.2,0-0.3,0-0.4,0.1c-0.1,0.1-0.3,0.1-0.4,0.3c-0.1,0.1-0.2,0.3-0.3,0.4
		c-0.1,0.2-0.1,0.4-0.1,0.6c0,0.2,0,0.4,0.1,0.6c0.1,0.2,0.2,0.3,0.3,0.4c0.1,0.1,0.2,0.2,0.4,0.3s0.3,0.1,0.4,0.1
		c0.2,0,0.3,0,0.5-0.1c0.1-0.1,0.2-0.1,0.3-0.2c0.1-0.1,0.1-0.2,0.2-0.3c0-0.1,0.1-0.2,0.1-0.3l0.7,0.3c0,0.1-0.1,0.3-0.2,0.4
		c-0.1,0.1-0.2,0.3-0.4,0.4c-0.1,0.1-0.3,0.2-0.5,0.3c-0.2,0.1-0.4,0.1-0.7,0.1c-0.3,0-0.5-0.1-0.8-0.2c-0.2-0.1-0.4-0.2-0.6-0.4
		c-0.2-0.2-0.3-0.4-0.4-0.6c-0.1-0.2-0.1-0.5-0.1-0.8c0-0.3,0-0.6,0.1-0.8c0.1-0.3,0.2-0.5,0.4-0.6c0.2-0.2,0.4-0.3,0.6-0.4
		c0.2-0.1,0.5-0.2,0.8-0.2c0.3,0,0.5,0,0.7,0.1c0.2,0.1,0.4,0.2,0.5,0.3c0.1,0.1,0.3,0.3,0.3,0.4c0.1,0.1,0.1,0.3,0.2,0.4l-0.7,0.3
		c0-0.1-0.1-0.2-0.1-0.3c0-0.1-0.1-0.2-0.2-0.3s-0.2-0.1-0.3-0.2S453.9,227.9,453.7,227.9z"/>
	<path fill="#999999" d="M457.9,227.2c0.3,0,0.6,0.1,0.8,0.2c0.2,0.1,0.4,0.2,0.6,0.4s0.3,0.4,0.4,0.6s0.1,0.5,0.1,0.8
		c0,0.3,0,0.6-0.1,0.8c-0.1,0.3-0.2,0.5-0.4,0.6s-0.4,0.3-0.6,0.4c-0.2,0.1-0.5,0.2-0.8,0.2c-0.3,0-0.6-0.1-0.8-0.2
		c-0.2-0.1-0.4-0.2-0.6-0.4s-0.3-0.4-0.4-0.6c-0.1-0.3-0.1-0.5-0.1-0.8c0-0.3,0-0.6,0.1-0.8s0.2-0.5,0.4-0.6s0.4-0.3,0.6-0.4
		C457.4,227.2,457.7,227.2,457.9,227.2z M457.9,230.6c0.2,0,0.3,0,0.5-0.1c0.1-0.1,0.3-0.1,0.4-0.3c0.1-0.1,0.2-0.3,0.3-0.4
		c0.1-0.2,0.1-0.4,0.1-0.6c0-0.2,0-0.4-0.1-0.6c-0.1-0.2-0.2-0.3-0.3-0.4c-0.1-0.1-0.2-0.2-0.4-0.3c-0.1-0.1-0.3-0.1-0.5-0.1
		s-0.3,0-0.5,0.1c-0.1,0.1-0.3,0.1-0.4,0.3c-0.1,0.1-0.2,0.3-0.3,0.4s-0.1,0.4-0.1,0.6c0,0.2,0,0.4,0.1,0.6s0.2,0.3,0.3,0.4
		s0.2,0.2,0.4,0.3C457.6,230.6,457.8,230.6,457.9,230.6z"/>
	<path fill="#999999" d="M463,228.1c-0.1,0-0.2,0-0.3,0c-0.3,0-0.6,0.1-0.8,0.3c-0.2,0.2-0.3,0.5-0.3,0.9v1.9h-0.8v-3.8h0.7v0.7
		c0.1-0.1,0.2-0.3,0.2-0.4c0.1-0.1,0.2-0.2,0.3-0.2c0.1-0.1,0.2-0.1,0.3-0.1c0.1,0,0.2,0,0.3,0c0.1,0,0.1,0,0.1,0c0,0,0.1,0,0.1,0
		V228.1z"/>
	<path fill="#999999" d="M464.6,231.1h-0.8v-3.8h0.7v0.6c0.1-0.2,0.3-0.4,0.5-0.5c0.2-0.1,0.4-0.2,0.7-0.2c0.2,0,0.4,0,0.6,0.1
		c0.2,0.1,0.3,0.2,0.4,0.3c0.1,0.1,0.2,0.3,0.3,0.5s0.1,0.4,0.1,0.6v2.4h-0.8v-2.3c0-0.1,0-0.3,0-0.4c0-0.1-0.1-0.2-0.2-0.3
		c-0.1-0.1-0.2-0.2-0.3-0.2s-0.3-0.1-0.4-0.1c-0.1,0-0.3,0-0.4,0.1c-0.1,0.1-0.2,0.1-0.3,0.2c-0.1,0.1-0.1,0.2-0.2,0.3
		s-0.1,0.3-0.1,0.4V231.1z"/>
</g>
<g>
	<path fill="#9013FE" d="M-140.2,231.1h-1.1l4.1-8.5h1.1L-140.2,231.1z"/>
	<path fill="#9013FE" d="M-135.9,231.1v-5.8h1.1v0.8c0.2-0.3,0.4-0.6,0.8-0.7s0.7-0.2,1-0.2c0.4,0,0.7,0.1,1,0.3
		c0.3,0.2,0.6,0.5,0.7,0.8c0.2-0.4,0.5-0.7,0.9-0.9s0.7-0.2,1.1-0.2c0.2,0,0.5,0,0.7,0.1c0.2,0.1,0.5,0.2,0.6,0.4
		c0.2,0.2,0.3,0.4,0.5,0.7c0.1,0.3,0.2,0.6,0.2,1v3.7h-1.1v-3.6c0-0.4-0.1-0.7-0.3-0.9c-0.2-0.3-0.5-0.4-0.9-0.4
		c-0.4,0-0.7,0.1-1,0.4c-0.2,0.3-0.4,0.6-0.4,1v3.5h-1.1v-3.6c0-0.4-0.1-0.7-0.3-0.9c-0.2-0.3-0.5-0.4-0.9-0.4c-0.4,0-0.7,0.1-1,0.4
		c-0.2,0.3-0.4,0.6-0.4,1.1v3.5H-135.9z"/>
	<path fill="#9013FE" d="M-126,229.6c0-0.3,0-0.5,0.1-0.7c0.1-0.2,0.2-0.4,0.4-0.5c0.2-0.1,0.3-0.3,0.6-0.3c0.2-0.1,0.4-0.2,0.7-0.2
		l1.6-0.2c0.2,0,0.3-0.1,0.4-0.2c0.1-0.1,0.1-0.2,0.1-0.3c0-0.3-0.1-0.5-0.3-0.7c-0.2-0.2-0.5-0.3-1-0.3c-0.4,0-0.7,0.1-0.9,0.3
		c-0.2,0.2-0.3,0.5-0.4,0.8l-1.1-0.3c0-0.3,0.1-0.5,0.2-0.8s0.3-0.4,0.5-0.6s0.5-0.3,0.7-0.4c0.3-0.1,0.6-0.1,0.9-0.1
		c0.4,0,0.8,0.1,1.1,0.2c0.3,0.1,0.6,0.3,0.7,0.5c0.2,0.2,0.3,0.4,0.4,0.7c0.1,0.3,0.1,0.5,0.1,0.8v2.9c0,0.3,0,0.5,0,0.6
		c0,0.2,0,0.3,0,0.3h-1.1c0-0.1,0-0.2,0-0.3s0-0.3,0-0.5c-0.1,0.1-0.1,0.2-0.3,0.3c-0.1,0.1-0.2,0.2-0.4,0.3
		c-0.2,0.1-0.3,0.2-0.5,0.2c-0.2,0.1-0.4,0.1-0.7,0.1c-0.3,0-0.6,0-0.8-0.1c-0.2-0.1-0.4-0.2-0.6-0.4s-0.3-0.3-0.4-0.5
		C-125.9,230-126,229.8-126,229.6z M-123.9,230.4c0.2,0,0.4,0,0.7-0.1c0.2-0.1,0.4-0.2,0.5-0.3c0.1-0.1,0.3-0.3,0.4-0.5
		s0.1-0.5,0.1-0.8v-0.3l-1.8,0.3c-0.2,0-0.4,0.1-0.6,0.3c-0.2,0.1-0.2,0.3-0.2,0.6c0,0.2,0.1,0.4,0.3,0.6
		C-124.4,230.3-124.2,230.4-123.9,230.4z"/>
	<path fill="#9013FE" d="M-119.2,233.6l1.4-3l-2.5-5.1h1.3l1.8,4l1.7-4h1.2l-3.8,8.2H-119.2z"/>
	<path fill="#9013FE" d="M-113.7,229.6c0-0.3,0-0.5,0.1-0.7c0.1-0.2,0.2-0.4,0.4-0.5c0.2-0.1,0.3-0.3,0.6-0.3
		c0.2-0.1,0.4-0.2,0.7-0.2l1.6-0.2c0.2,0,0.3-0.1,0.4-0.2c0.1-0.1,0.1-0.2,0.1-0.3c0-0.3-0.1-0.5-0.3-0.7c-0.2-0.2-0.5-0.3-1-0.3
		c-0.4,0-0.7,0.1-0.9,0.3c-0.2,0.2-0.3,0.5-0.4,0.8l-1.1-0.3c0-0.3,0.1-0.5,0.2-0.8s0.3-0.4,0.5-0.6s0.5-0.3,0.7-0.4
		c0.3-0.1,0.6-0.1,0.9-0.1c0.4,0,0.8,0.1,1.1,0.2c0.3,0.1,0.6,0.3,0.7,0.5c0.2,0.2,0.3,0.4,0.4,0.7c0.1,0.3,0.1,0.5,0.1,0.8v2.9
		c0,0.3,0,0.5,0,0.6c0,0.2,0,0.3,0,0.3h-1.1c0-0.1,0-0.2,0-0.3s0-0.3,0-0.5c-0.1,0.1-0.1,0.2-0.3,0.3c-0.1,0.1-0.2,0.2-0.4,0.3
		c-0.2,0.1-0.3,0.2-0.5,0.2c-0.2,0.1-0.4,0.1-0.7,0.1c-0.3,0-0.6,0-0.8-0.1c-0.2-0.1-0.4-0.2-0.6-0.4s-0.3-0.3-0.4-0.5
		C-113.7,230-113.7,229.8-113.7,229.6z M-111.6,230.4c0.2,0,0.4,0,0.7-0.1c0.2-0.1,0.4-0.2,0.5-0.3c0.1-0.1,0.3-0.3,0.4-0.5
		s0.1-0.5,0.1-0.8v-0.3l-1.8,0.3c-0.2,0-0.4,0.1-0.6,0.3c-0.2,0.1-0.2,0.3-0.2,0.6c0,0.2,0.1,0.4,0.3,0.6
		C-112.1,230.3-111.9,230.4-111.6,230.4z"/>
	<path fill="#9013FE" d="M-106,231.1h-1.1v-5.8h1.1v0.8c0.2-0.4,0.5-0.6,0.8-0.8c0.3-0.2,0.6-0.2,1-0.2c0.3,0,0.6,0.1,0.9,0.2
		c0.3,0.1,0.5,0.3,0.6,0.5c0.2,0.2,0.3,0.4,0.4,0.7c0.1,0.3,0.1,0.6,0.1,0.9v3.7h-1.1v-3.5c0-0.2,0-0.4-0.1-0.6
		c0-0.2-0.1-0.3-0.2-0.5c-0.1-0.1-0.2-0.2-0.4-0.3c-0.2-0.1-0.4-0.1-0.6-0.1c-0.2,0-0.4,0-0.6,0.1s-0.3,0.2-0.4,0.3
		c-0.1,0.1-0.2,0.3-0.3,0.5c-0.1,0.2-0.1,0.4-0.1,0.6V231.1z"/>
	<path fill="#9013FE" d="M-97.6,227.8l2.5,3.3h-1.4l-1.9-2.5l-0.8,0.8v1.7h-1.1v-8.7h1.1v5.5l2.5-2.6h1.6L-97.6,227.8z"/>
	<path fill="#9013FE" d="M-90.3,230.3c-0.1,0.3-0.4,0.5-0.7,0.7c-0.3,0.2-0.7,0.3-1.1,0.3c-0.4,0-0.8-0.1-1.1-0.2s-0.6-0.4-0.9-0.6
		c-0.2-0.3-0.4-0.6-0.5-1s-0.2-0.8-0.2-1.2c0-0.4,0.1-0.8,0.2-1.2c0.1-0.4,0.3-0.7,0.6-1c0.2-0.3,0.5-0.5,0.9-0.7s0.7-0.2,1.1-0.2
		c0.3,0,0.5,0,0.7,0.1c0.2,0.1,0.4,0.1,0.5,0.2c0.1,0.1,0.3,0.2,0.4,0.3c0.1,0.1,0.2,0.2,0.2,0.4v-3.7h1.1v7.6c0,0.3,0,0.5,0,0.7
		c0,0.2,0,0.3,0,0.4h-1.1c0-0.1,0-0.2,0-0.3C-90.3,230.7-90.3,230.5-90.3,230.3L-90.3,230.3z M-93.7,228.2c0,0.3,0,0.6,0.1,0.8
		s0.2,0.5,0.3,0.7c0.1,0.2,0.3,0.3,0.5,0.4c0.2,0.1,0.4,0.2,0.7,0.2c0.3,0,0.5-0.1,0.7-0.2s0.4-0.3,0.5-0.4c0.1-0.2,0.3-0.4,0.3-0.7
		s0.1-0.5,0.1-0.8c0-0.6-0.1-1.1-0.4-1.5s-0.7-0.6-1.2-0.6c-0.3,0-0.5,0-0.7,0.1c-0.2,0.1-0.4,0.2-0.5,0.4c-0.1,0.2-0.3,0.4-0.3,0.6
		S-93.7,227.9-93.7,228.2z"/>
	<path fill="#9013FE" d="M-86.2,231.1h-1.1v-8.7h1.1v3.6c0.2-0.3,0.5-0.5,0.8-0.6c0.3-0.1,0.6-0.2,1-0.2c0.3,0,0.6,0.1,0.9,0.2
		c0.3,0.1,0.5,0.3,0.6,0.5c0.2,0.2,0.3,0.4,0.4,0.7c0.1,0.3,0.1,0.6,0.1,0.9v3.7h-1.1v-3.5c0-0.2,0-0.4-0.1-0.6
		c0-0.2-0.1-0.3-0.2-0.5c-0.1-0.1-0.2-0.2-0.4-0.3c-0.2-0.1-0.4-0.1-0.6-0.1c-0.2,0-0.4,0-0.6,0.1c-0.2,0.1-0.3,0.2-0.4,0.3
		c-0.1,0.1-0.2,0.3-0.3,0.5c-0.1,0.2-0.1,0.4-0.1,0.6V231.1z"/>
	<path fill="#9013FE" d="M-80.9,229.6c0-0.3,0-0.5,0.1-0.7c0.1-0.2,0.2-0.4,0.4-0.5c0.2-0.1,0.3-0.3,0.6-0.3
		c0.2-0.1,0.4-0.2,0.7-0.2l1.6-0.2c0.2,0,0.3-0.1,0.4-0.2c0.1-0.1,0.1-0.2,0.1-0.3c0-0.3-0.1-0.5-0.3-0.7c-0.2-0.2-0.5-0.3-1-0.3
		c-0.4,0-0.7,0.1-0.9,0.3c-0.2,0.2-0.3,0.5-0.4,0.8l-1.1-0.3c0-0.3,0.1-0.5,0.2-0.8s0.3-0.4,0.5-0.6s0.5-0.3,0.7-0.4
		c0.3-0.1,0.6-0.1,0.9-0.1c0.4,0,0.8,0.1,1.1,0.2c0.3,0.1,0.6,0.3,0.7,0.5c0.2,0.2,0.3,0.4,0.4,0.7c0.1,0.3,0.1,0.5,0.1,0.8v2.9
		c0,0.3,0,0.5,0,0.6c0,0.2,0,0.3,0,0.3H-77c0-0.1,0-0.2,0-0.3s0-0.3,0-0.5c-0.1,0.1-0.1,0.2-0.3,0.3c-0.1,0.1-0.2,0.2-0.4,0.3
		c-0.2,0.1-0.3,0.2-0.5,0.2c-0.2,0.1-0.4,0.1-0.7,0.1c-0.3,0-0.6,0-0.8-0.1c-0.2-0.1-0.4-0.2-0.6-0.4s-0.3-0.3-0.4-0.5
		C-80.8,230-80.9,229.8-80.9,229.6z M-78.8,230.4c0.2,0,0.4,0,0.7-0.1c0.2-0.1,0.4-0.2,0.5-0.3c0.1-0.1,0.3-0.3,0.4-0.5
		s0.1-0.5,0.1-0.8v-0.3l-1.8,0.3c-0.2,0-0.4,0.1-0.6,0.3c-0.2,0.1-0.2,0.3-0.2,0.6c0,0.2,0.1,0.4,0.3,0.6
		C-79.3,230.3-79.1,230.4-78.8,230.4z"/>
	<path fill="#9013FE" d="M-69.8,225.4l1.5,4.3l1.3-4.3h1.2l-1.9,5.8h-1.2l-1.5-4.4l-1.5,4.4h-1.2l-1.9-5.8h1.2l1.3,4.3l1.5-4.3
		H-69.8z"/>
	<path fill="#9013FE" d="M-65.2,229.6c0-0.3,0-0.5,0.1-0.7c0.1-0.2,0.2-0.4,0.4-0.5c0.2-0.1,0.3-0.3,0.6-0.3
		c0.2-0.1,0.4-0.2,0.7-0.2l1.6-0.2c0.2,0,0.3-0.1,0.4-0.2c0.1-0.1,0.1-0.2,0.1-0.3c0-0.3-0.1-0.5-0.3-0.7c-0.2-0.2-0.5-0.3-1-0.3
		c-0.4,0-0.7,0.1-0.9,0.3c-0.2,0.2-0.3,0.5-0.4,0.8l-1.1-0.3c0-0.3,0.1-0.5,0.2-0.8s0.3-0.4,0.5-0.6s0.5-0.3,0.7-0.4
		c0.3-0.1,0.6-0.1,0.9-0.1c0.4,0,0.8,0.1,1.1,0.2c0.3,0.1,0.6,0.3,0.7,0.5c0.2,0.2,0.3,0.4,0.4,0.7c0.1,0.3,0.1,0.5,0.1,0.8v2.9
		c0,0.3,0,0.5,0,0.6c0,0.2,0,0.3,0,0.3h-1.1c0-0.1,0-0.2,0-0.3s0-0.3,0-0.5c-0.1,0.1-0.1,0.2-0.3,0.3c-0.1,0.1-0.2,0.2-0.4,0.3
		c-0.2,0.1-0.3,0.2-0.5,0.2c-0.2,0.1-0.4,0.1-0.7,0.1c-0.3,0-0.6,0-0.8-0.1c-0.2-0.1-0.4-0.2-0.6-0.4s-0.3-0.3-0.4-0.5
		C-65.1,230-65.2,229.8-65.2,229.6z M-63.1,230.4c0.2,0,0.4,0,0.7-0.1c0.2-0.1,0.4-0.2,0.5-0.3c0.1-0.1,0.3-0.3,0.4-0.5
		s0.1-0.5,0.1-0.8v-0.3l-1.8,0.3c-0.2,0-0.4,0.1-0.6,0.3c-0.2,0.1-0.2,0.3-0.2,0.6c0,0.2,0.1,0.4,0.3,0.6
		C-63.6,230.3-63.4,230.4-63.1,230.4z"/>
	<path fill="#9013FE" d="M-57.4,231.1h-1.1v-5.8h1.1v0.8c0.2-0.4,0.5-0.6,0.8-0.8c0.3-0.2,0.6-0.2,1-0.2c0.3,0,0.6,0.1,0.9,0.2
		c0.3,0.1,0.5,0.3,0.6,0.5c0.2,0.2,0.3,0.4,0.4,0.7c0.1,0.3,0.1,0.6,0.1,0.9v3.7h-1.1v-3.5c0-0.2,0-0.4-0.1-0.6
		c0-0.2-0.1-0.3-0.2-0.5c-0.1-0.1-0.2-0.2-0.4-0.3c-0.2-0.1-0.4-0.1-0.6-0.1c-0.2,0-0.4,0-0.6,0.1s-0.3,0.2-0.4,0.3
		c-0.1,0.1-0.2,0.3-0.3,0.5c-0.1,0.2-0.1,0.4-0.1,0.6V231.1z"/>
</g>
<path fill-rule="evenodd" clip-rule="evenodd" fill="#9013FE" d="M-153.9,236.5c-0.4-2.4-1.1-4.6-1.9-6.7c1.9-0.3,3.9-0.3,5.9,0.2
	C-150.4,232.7-151.9,235-153.9,236.5z M-166.2,236.3c0.7-0.9,2.1-2.5,4.1-3.9c1.4-0.9,2.8-1.6,4.3-2.1c0.9,2.2,1.6,4.7,2,7.3
	c-1.3,0.6-2.7,0.9-4.2,0.9C-162.3,238.5-164.4,237.7-166.2,236.3z M-169.9,228C-169.9,228-169.9,228-169.9,228
	c1.3,0,3.5-0.1,6.2-0.6c1.5-0.3,2.9-0.6,4.3-1.1c0.3,0.7,0.7,1.4,1,2.2c-1.9,0.6-3.5,1.5-4.7,2.3c-2.1,1.4-3.6,3.1-4.4,4
	c-1.5-1.8-2.4-4-2.4-6.5C-170,228.3-169.9,228.1-169.9,228z M-163.9,219.2c0.6,0.8,2,2.7,3.5,5.4c-3.8,1.2-7.5,1.4-9.3,1.5
	C-168.9,223-166.8,220.4-163.9,219.2z M-153.4,220.7c-1.5,1.4-3.3,2.4-5.2,3.2c-1.3-2.5-2.6-4.3-3.4-5.4c0.7-0.1,1.4-0.2,2.1-0.2
	C-157.4,218.3-155.2,219.2-153.4,220.7z M-152.1,222.1c1.3,1.7,2.2,3.8,2.2,6c-2.5-0.5-4.8-0.5-6.7-0.1c-0.4-0.8-0.7-1.6-1.1-2.4
	C-155.5,224.7-153.6,223.5-152.1,222.1z M-159.9,216.4c-6.6,0-12,5.4-12,12s5.4,12,12,12c6.6,0,12-5.4,12-12
	S-153.3,216.4-159.9,216.4z"/>
<g>
	<path fill="#9013FE" d="M14.6,231.1v-5.8h1.1v0.8c0.2-0.3,0.4-0.6,0.8-0.7s0.7-0.2,1-0.2c0.4,0,0.7,0.1,1,0.3
		c0.3,0.2,0.6,0.5,0.7,0.8c0.2-0.4,0.5-0.7,0.9-0.9s0.7-0.2,1.1-0.2c0.2,0,0.5,0,0.7,0.1c0.2,0.1,0.5,0.2,0.6,0.4
		c0.2,0.2,0.3,0.4,0.5,0.7c0.1,0.3,0.2,0.6,0.2,1v3.7H22v-3.6c0-0.4-0.1-0.7-0.3-0.9c-0.2-0.3-0.5-0.4-0.9-0.4c-0.4,0-0.7,0.1-1,0.4
		c-0.2,0.3-0.4,0.6-0.4,1v3.5h-1.1v-3.6c0-0.4-0.1-0.7-0.3-0.9c-0.2-0.3-0.5-0.4-0.9-0.4c-0.4,0-0.7,0.1-1,0.4
		c-0.2,0.3-0.4,0.6-0.4,1.1v3.5H14.6z"/>
	<path fill="#9013FE" d="M24.5,229.6c0-0.3,0-0.5,0.1-0.7c0.1-0.2,0.2-0.4,0.4-0.5c0.2-0.1,0.3-0.3,0.6-0.3c0.2-0.1,0.4-0.2,0.7-0.2
		l1.6-0.2c0.2,0,0.3-0.1,0.4-0.2c0.1-0.1,0.1-0.2,0.1-0.3c0-0.3-0.1-0.5-0.3-0.7c-0.2-0.2-0.5-0.3-1-0.3c-0.4,0-0.7,0.1-0.9,0.3
		c-0.2,0.2-0.3,0.5-0.4,0.8l-1.1-0.3c0-0.3,0.1-0.5,0.2-0.8s0.3-0.4,0.5-0.6s0.5-0.3,0.7-0.4c0.3-0.1,0.6-0.1,0.9-0.1
		c0.4,0,0.8,0.1,1.1,0.2c0.3,0.1,0.6,0.3,0.7,0.5c0.2,0.2,0.3,0.4,0.4,0.7c0.1,0.3,0.1,0.5,0.1,0.8v2.9c0,0.3,0,0.5,0,0.6
		c0,0.2,0,0.3,0,0.3h-1.1c0-0.1,0-0.2,0-0.3s0-0.3,0-0.5c-0.1,0.1-0.1,0.2-0.3,0.3c-0.1,0.1-0.2,0.2-0.4,0.3
		c-0.2,0.1-0.3,0.2-0.5,0.2c-0.2,0.1-0.4,0.1-0.7,0.1c-0.3,0-0.6,0-0.8-0.1c-0.2-0.1-0.4-0.2-0.6-0.4s-0.3-0.3-0.4-0.5
		C24.6,230,24.5,229.8,24.5,229.6z M26.6,230.4c0.2,0,0.4,0,0.7-0.1c0.2-0.1,0.4-0.2,0.5-0.3c0.1-0.1,0.3-0.3,0.4-0.5
		s0.1-0.5,0.1-0.8v-0.3l-1.8,0.3c-0.2,0-0.4,0.1-0.6,0.3c-0.2,0.1-0.2,0.3-0.2,0.6c0,0.2,0.1,0.4,0.3,0.6
		C26.1,230.3,26.3,230.4,26.6,230.4z"/>
	<path fill="#9013FE" d="M31.3,233.6l1.4-3l-2.5-5.1h1.3l1.8,4l1.7-4h1.2l-3.8,8.2H31.3z"/>
	<path fill="#9013FE" d="M36.8,229.6c0-0.3,0-0.5,0.1-0.7c0.1-0.2,0.2-0.4,0.4-0.5c0.2-0.1,0.3-0.3,0.6-0.3c0.2-0.1,0.4-0.2,0.7-0.2
		l1.6-0.2c0.2,0,0.3-0.1,0.4-0.2c0.1-0.1,0.1-0.2,0.1-0.3c0-0.3-0.1-0.5-0.3-0.7c-0.2-0.2-0.5-0.3-1-0.3c-0.4,0-0.7,0.1-0.9,0.3
		c-0.2,0.2-0.3,0.5-0.4,0.8l-1.1-0.3c0-0.3,0.1-0.5,0.2-0.8s0.3-0.4,0.5-0.6s0.5-0.3,0.7-0.4c0.3-0.1,0.6-0.1,0.9-0.1
		c0.4,0,0.8,0.1,1.1,0.2c0.3,0.1,0.6,0.3,0.7,0.5c0.2,0.2,0.3,0.4,0.4,0.7c0.1,0.3,0.1,0.5,0.1,0.8v2.9c0,0.3,0,0.5,0,0.6
		c0,0.2,0,0.3,0,0.3h-1.1c0-0.1,0-0.2,0-0.3s0-0.3,0-0.5c-0.1,0.1-0.1,0.2-0.3,0.3c-0.1,0.1-0.2,0.2-0.4,0.3
		c-0.2,0.1-0.3,0.2-0.5,0.2c-0.2,0.1-0.4,0.1-0.7,0.1c-0.3,0-0.6,0-0.8-0.1c-0.2-0.1-0.4-0.2-0.6-0.4s-0.3-0.3-0.4-0.5
		C36.8,230,36.8,229.8,36.8,229.6z M38.9,230.4c0.2,0,0.4,0,0.7-0.1c0.2-0.1,0.4-0.2,0.5-0.3c0.1-0.1,0.3-0.3,0.4-0.5
		s0.1-0.5,0.1-0.8v-0.3l-1.8,0.3c-0.2,0-0.4,0.1-0.6,0.3c-0.2,0.1-0.2,0.3-0.2,0.6c0,0.2,0.1,0.4,0.3,0.6
		C38.4,230.3,38.6,230.4,38.9,230.4z"/>
	<path fill="#9013FE" d="M44.6,231.1h-1.1v-5.8h1.1v0.8c0.2-0.4,0.5-0.6,0.8-0.8c0.3-0.2,0.6-0.2,1-0.2c0.3,0,0.6,0.1,0.9,0.2
		c0.3,0.1,0.5,0.3,0.6,0.5c0.2,0.2,0.3,0.4,0.4,0.7c0.1,0.3,0.1,0.6,0.1,0.9v3.7h-1.1v-3.5c0-0.2,0-0.4-0.1-0.6
		c0-0.2-0.1-0.3-0.2-0.5c-0.1-0.1-0.2-0.2-0.4-0.3c-0.2-0.1-0.4-0.1-0.6-0.1c-0.2,0-0.4,0-0.6,0.1s-0.3,0.2-0.4,0.3
		c-0.1,0.1-0.2,0.3-0.3,0.5c-0.1,0.2-0.1,0.4-0.1,0.6V231.1z"/>
	<path fill="#9013FE" d="M52.9,227.8l2.5,3.3H54l-1.9-2.5l-0.8,0.8v1.7h-1.1v-8.7h1.1v5.5l2.5-2.6h1.6L52.9,227.8z"/>
	<path fill="#9013FE" d="M56.1,232.1v-0.9h6.1v0.9H56.1z"/>
	<path fill="#9013FE" d="M64.7,225.4h1.2v1h-1.2v3c0,0.3,0.1,0.5,0.2,0.6s0.3,0.2,0.6,0.2c0.1,0,0.2,0,0.2,0s0.2,0,0.2,0v1
		c0,0-0.1,0-0.3,0.1c-0.1,0-0.3,0-0.5,0c-0.5,0-0.9-0.1-1.2-0.4c-0.3-0.3-0.4-0.7-0.4-1.2v-3.2h-1.1v-1h0.3c0.3,0,0.5-0.1,0.7-0.3
		c0.1-0.2,0.2-0.4,0.2-0.6v-0.9h1V225.4z"/>
	<path fill="#9013FE" d="M68.5,231.1h-1.1v-8.7h1.1v3.6c0.2-0.3,0.5-0.5,0.8-0.6c0.3-0.1,0.6-0.2,1-0.2c0.3,0,0.6,0.1,0.9,0.2
		c0.3,0.1,0.5,0.3,0.6,0.5c0.2,0.2,0.3,0.4,0.4,0.7c0.1,0.3,0.1,0.6,0.1,0.9v3.7h-1.1v-3.5c0-0.2,0-0.4-0.1-0.6
		c0-0.2-0.1-0.3-0.2-0.5c-0.1-0.1-0.2-0.2-0.4-0.3c-0.2-0.1-0.4-0.1-0.6-0.1c-0.2,0-0.4,0-0.6,0.1c-0.2,0.1-0.3,0.2-0.4,0.3
		c-0.1,0.1-0.2,0.3-0.3,0.5c-0.1,0.2-0.1,0.4-0.1,0.6V231.1z"/>
	<path fill="#9013FE" d="M79.2,229.5c-0.1,0.3-0.2,0.5-0.4,0.7c-0.2,0.2-0.3,0.4-0.6,0.6c-0.2,0.2-0.5,0.3-0.8,0.4
		c-0.3,0.1-0.6,0.1-0.9,0.1c-0.4,0-0.8-0.1-1.1-0.2c-0.4-0.1-0.7-0.3-0.9-0.6c-0.3-0.3-0.5-0.6-0.6-1c-0.2-0.4-0.2-0.8-0.2-1.3
		c0-0.5,0.1-0.9,0.2-1.2c0.2-0.4,0.4-0.7,0.6-1c0.3-0.3,0.5-0.5,0.9-0.6c0.3-0.1,0.7-0.2,1-0.2c0.4,0,0.8,0.1,1.2,0.2
		c0.3,0.1,0.6,0.4,0.9,0.6c0.2,0.3,0.4,0.6,0.5,1s0.2,0.8,0.2,1.2c0,0.1,0,0.1,0,0.2c0,0.1,0,0.1,0,0.2h-4.3c0,0.3,0.1,0.5,0.1,0.7
		c0.1,0.2,0.2,0.4,0.4,0.6c0.2,0.2,0.3,0.3,0.6,0.4s0.4,0.1,0.7,0.1c0.5,0,0.8-0.1,1.1-0.3c0.2-0.2,0.4-0.5,0.5-0.8L79.2,229.5z
		 M78.1,227.7c0-0.4-0.2-0.8-0.4-1c-0.3-0.3-0.7-0.4-1.2-0.4c-0.2,0-0.5,0-0.6,0.1c-0.2,0.1-0.3,0.2-0.5,0.3
		c-0.1,0.1-0.2,0.3-0.3,0.5c-0.1,0.2-0.1,0.4-0.1,0.5H78.1z"/>
	<path fill="#9013FE" d="M79.8,232.1v-0.9h6.1v0.9H79.8z"/>
	<path fill="#9013FE" d="M89.3,225.2c0.4,0,0.8,0.1,1.2,0.2s0.7,0.4,0.9,0.6c0.3,0.3,0.5,0.6,0.6,1s0.2,0.8,0.2,1.2
		c0,0.4-0.1,0.8-0.2,1.2s-0.3,0.7-0.6,1c-0.3,0.3-0.6,0.5-0.9,0.6c-0.4,0.2-0.8,0.2-1.2,0.2c-0.4,0-0.8-0.1-1.2-0.2
		c-0.4-0.2-0.7-0.4-0.9-0.6c-0.3-0.3-0.5-0.6-0.6-1c-0.1-0.4-0.2-0.8-0.2-1.2c0-0.4,0.1-0.8,0.2-1.2c0.1-0.4,0.3-0.7,0.6-1
		c0.3-0.3,0.6-0.5,0.9-0.6C88.5,225.3,88.9,225.2,89.3,225.2z M89.3,230.3c0.2,0,0.5,0,0.7-0.1s0.4-0.2,0.6-0.4
		c0.2-0.2,0.3-0.4,0.4-0.6s0.1-0.6,0.1-0.9s0-0.6-0.1-0.9s-0.2-0.5-0.4-0.6s-0.4-0.3-0.6-0.4c-0.2-0.1-0.4-0.1-0.7-0.1
		c-0.2,0-0.5,0-0.7,0.1c-0.2,0.1-0.4,0.2-0.6,0.4s-0.3,0.4-0.4,0.6c-0.1,0.3-0.1,0.5-0.1,0.9s0,0.6,0.1,0.9c0.1,0.3,0.2,0.5,0.4,0.6
		c0.2,0.2,0.4,0.3,0.6,0.4S89,230.3,89.3,230.3z"/>
	<path fill="#9013FE" d="M94.8,231.1h-1.1v-5.8h1.1v0.8c0.2-0.4,0.5-0.6,0.8-0.8c0.3-0.2,0.6-0.2,1-0.2c0.3,0,0.6,0.1,0.9,0.2
		c0.3,0.1,0.5,0.3,0.6,0.5c0.2,0.2,0.3,0.4,0.4,0.7c0.1,0.3,0.1,0.6,0.1,0.9v3.7h-1.1v-3.5c0-0.2,0-0.4-0.1-0.6
		c0-0.2-0.1-0.3-0.2-0.5c-0.1-0.1-0.2-0.2-0.4-0.3c-0.2-0.1-0.4-0.1-0.6-0.1c-0.2,0-0.4,0-0.6,0.1s-0.3,0.2-0.4,0.3
		c-0.1,0.1-0.2,0.3-0.3,0.5c-0.1,0.2-0.1,0.4-0.1,0.6V231.1z"/>
	<path fill="#9013FE" d="M105.4,229.5c-0.1,0.3-0.2,0.5-0.4,0.7c-0.2,0.2-0.3,0.4-0.6,0.6c-0.2,0.2-0.5,0.3-0.8,0.4
		c-0.3,0.1-0.6,0.1-0.9,0.1c-0.4,0-0.8-0.1-1.1-0.2c-0.4-0.1-0.7-0.3-0.9-0.6c-0.3-0.3-0.5-0.6-0.6-1c-0.2-0.4-0.2-0.8-0.2-1.3
		c0-0.5,0.1-0.9,0.2-1.2c0.2-0.4,0.4-0.7,0.6-1c0.3-0.3,0.5-0.5,0.9-0.6c0.3-0.1,0.7-0.2,1-0.2c0.4,0,0.8,0.1,1.2,0.2
		c0.3,0.1,0.6,0.4,0.9,0.6c0.2,0.3,0.4,0.6,0.5,1s0.2,0.8,0.2,1.2c0,0.1,0,0.1,0,0.2c0,0.1,0,0.1,0,0.2h-4.3c0,0.3,0.1,0.5,0.1,0.7
		c0.1,0.2,0.2,0.4,0.4,0.6c0.2,0.2,0.3,0.3,0.6,0.4s0.4,0.1,0.7,0.1c0.5,0,0.8-0.1,1.1-0.3c0.2-0.2,0.4-0.5,0.5-0.8L105.4,229.5z
		 M104.3,227.7c0-0.4-0.2-0.8-0.4-1c-0.3-0.3-0.7-0.4-1.2-0.4c-0.2,0-0.5,0-0.6,0.1c-0.2,0.1-0.3,0.2-0.5,0.3
		c-0.1,0.1-0.2,0.3-0.3,0.5c-0.1,0.2-0.1,0.4-0.1,0.5H104.3z"/>
</g>
<g>
	<path fill-rule="evenodd" clip-rule="evenodd" fill="#9013FE" d="M1.6,220c-0.4,0-0.8,0.2-1.1,0.5c-0.3,0.3-0.5,0.7-0.5,1.1
		c0,0.4,0.2,0.8,0.5,1.1c0.3,0.3,0.7,0.5,1.1,0.5c0.4,0,0.8-0.2,1.1-0.5c0.3-0.3,0.5-0.7,0.5-1.1c0-0.4-0.2-0.8-0.5-1.1
		C2.4,220.2,2,220,1.6,220z"/>
	<path fill-rule="evenodd" clip-rule="evenodd" fill="#9013FE" d="M0.5,216h-10.7c-3.6,0-6.6,3-6.6,6.6v10.7c0,3.6,3,6.6,6.6,6.6
		H0.5c3.6,0,6.6-3,6.6-6.6v-10.7C7.1,219,4.1,216,0.5,216z M5,233.4c0,2.5-2,4.5-4.5,4.5h-10.7c-2.5,0-4.5-2-4.5-4.5v-10.7
		c0-2.5,2-4.5,4.5-4.5H0.5c2.5,0,4.5,2,4.5,4.5V233.4z"/>
	<path fill-rule="evenodd" clip-rule="evenodd" fill="#9013FE" d="M-4.9,221.8c-3.4,0-6.2,2.8-6.2,6.2c0,3.4,2.8,6.2,6.2,6.2
		c3.4,0,6.2-2.8,6.2-6.2C1.3,224.6-1.5,221.8-4.9,221.8z M-4.9,232.1c-2.2,0-4.1-1.8-4.1-4.1s1.8-4.1,4.1-4.1c2.2,0,4.1,1.8,4.1,4.1
		S-2.6,232.1-4.9,232.1z"/>
</g>
<g>
	<circle fill="#4577FF" cx="60.1" cy="60" r="60"/>
	<rect x="-3.9" y="-4" fill="none" width="128" height="128"/>
	<g>
		<defs>
			<circle id="SVGID_1_" cx="60.1" cy="60" r="60"/>
		</defs>
		<clipPath id="SVGID_2_">
			<use xlink:href="#SVGID_1_"  overflow="visible"/>
		</clipPath>
		<path clip-path="url(#SVGID_2_)" fill="#FFAA00" d="M38.1,72L38.1,72c6.6,0,12-5.4,12-12V36c0-2.2-1.8-4-4-4h-8
			c-6.6,0-12,5.4-12,12v16C26.1,66.6,31.5,72,38.1,72z"/>
		<path clip-path="url(#SVGID_2_)" fill="#FFC036" d="M94.1,124h-64V52c0-17.6,14.4-32,32-32h0c17.6,0,32,14.4,32,32V124z"/>
		<path clip-path="url(#SVGID_2_)" fill="#FFE09E" d="M82.1,132h-48v0c0-13.3,10.7-24,24-24h0C71.4,108,82.1,118.7,82.1,132
			L82.1,132z"/>
	</g>
	<circle fill="#603535" cx="66.1" cy="52" r="4"/>
	<path fill="#FFE09E" d="M70.1,40L70.1,40c0,1.1-0.9,2-2,2h-4c-1.1,0-2-0.9-2-2v0c0-1.1,0.9-2,2-2h4C69.2,38,70.1,38.9,70.1,40z"/>
	<path fill="#FFE09E" d="M54.1,40L54.1,40c0,1.1-0.9,2-2,2h-4c-1.1,0-2-0.9-2-2v0c0-1.1,0.9-2,2-2h4C53.2,38,54.1,38.9,54.1,40z"/>
	<circle fill="#603535" cx="50.1" cy="52" r="4"/>
	<path fill="#F5463A" d="M56.1,88h12c1.1,0,2,0.9,2,2v6c0,4.4-3.6,8-8,8h0c-4.4,0-8-3.6-8-8v-6C54.1,88.9,55,88,56.1,88z"/>
	<g>
		<path fill="#ED2F21" d="M62.1,98c-1.1,0-2-0.9-2-2v-8c0-1.1,0.9-2,2-2s2,0.9,2,2v8C64.1,97.1,63.2,98,62.1,98z"/>
	</g>
	<path fill="#FFE09E" d="M54.1,96h-12c-13.2,0-24-10.8-24-24v-8c0-4.4,3.6-8,8-8l44,0c4.4,0,8,3.6,8,8v8C78.1,85.2,67.3,96,54.1,96z
		"/>
	<path fill="#603535" d="M24.1,56h12c1.1,0,2,0.9,2,2v2c0,4.4-3.6,8-8,8h0c-4.4,0-8-3.6-8-8v-2C22.1,56.9,23,56,24.1,56z"/>
	<circle fill="#FFC036" cx="46.1" cy="64" r="2"/>
	<circle fill="#301B1B" cx="34.1" cy="62" r="2"/>
	<circle fill="#301B1B" cx="26.1" cy="62" r="2"/>
	<circle fill="#FFC036" cx="54.1" cy="64" r="2"/>
	<circle fill="#FFC036" cx="50.1" cy="72" r="2"/>
	<path fill="#FFAA00" d="M94.1,72L94.1,72c-6.6,0-12-5.4-12-12V36c0-2.2,1.8-4,4-4h8c6.6,0,12,5.4,12,12v16
		C106.1,66.6,100.7,72,94.1,72z"/>
</g>
<g>
	<circle fill="#F5463A" cx="235.1" cy="-108" r="60"/>
	<rect x="171.1" y="-172" fill="none" width="128" height="128"/>
	<g>
		<defs>
			<circle id="SVGID_3_" cx="235.1" cy="-108" r="60"/>
		</defs>
		<clipPath id="SVGID_4_">
			<use xlink:href="#SVGID_3_"  overflow="visible"/>
		</clipPath>
		<path clip-path="url(#SVGID_4_)" fill="#2BD665" d="M267.1-32h-64v-16c0-17.7,14.3-32,32-32h0c17.7,0,32,14.3,32,32V-32z"/>
		<path clip-path="url(#SVGID_4_)" fill="#1FC258" d="M235.1-64c6.6,0,12-5.4,12-12v-1.7c-3.7-1.5-7.8-2.3-12-2.3l0,0
			c-4.2,0-8.3,0.8-12,2.3v1.7C223.1-69.4,228.5-64,235.1-64z"/>
	</g>
	<path fill="#FFA47A" d="M235.1-68L235.1-68c-4.4,0-8-3.6-8-8v-8c0-4.4,3.6-8,8-8h0c4.4,0,8,3.6,8,8v8C243.1-71.6,239.5-68,235.1-68
		z"/>
	<path fill="#FFBB9B" d="M235.1-78L235.1-78c-16.6,0-30-13.4-30-30v-8c0-16.6,13.4-30,30-30h0c16.6,0,30,13.4,30,30v8
		C265.1-91.4,251.7-78,235.1-78z"/>
	<circle fill="#603535" cx="239.1" cy="-116" r="4"/>
	<circle fill="#603535" cx="223.1" cy="-116" r="4"/>
	<path fill="#FFFFFF" d="M231.1-92L231.1-92c-7.7,0-14-6.3-14-14v-2h28v2C245.1-98.3,238.8-92,231.1-92z"/>
	<path fill="#FFBB9B" d="M265.1-106h-2v-12h2c3.3,0,6,2.7,6,6v0C271.1-108.7,268.4-106,265.1-106z"/>
	<path fill="#643536" d="M263.1-118h4v-16c0-4.4-3.6-8-8-8l0,0v20C259.1-119.8,260.9-118,263.1-118z"/>
	<path fill="#643536" d="M263.1-128h-48c-8.8,0-16-7.2-16-16v0l56,0c4.4,0,8,3.6,8,8V-128z"/>
	<path fill="#643536" d="M263.1-140l-44,0c-8.8,0-16-7.2-16-16v0h44C256-156,263.1-148.8,263.1-140L263.1-140z"/>
</g>
<g>
	<circle fill="#1D1433" cx="60.1" cy="-108" r="60"/>
	<g>
		<defs>
			<circle id="SVGID_5_" cx="60.1" cy="-108" r="60"/>
		</defs>
		<clipPath id="SVGID_6_">
			<use xlink:href="#SVGID_5_"  overflow="visible"/>
		</clipPath>
		<path clip-path="url(#SVGID_6_)" fill="#F0EBFF" d="M96.1-44h-72v-16c0-17.7,14.3-32,32-32h8c17.7,0,32,14.3,32,32V-44z"/>
		<path clip-path="url(#SVGID_6_)" fill="#DED4FF" d="M78.1-20h-48v-24c0-13.3,10.7-24,24-24h0c13.3,0,24,10.7,24,24V-20z"/>
	</g>
	<path fill="#F0EBFF" d="M96.1-80h-72v-36c0-19.8,16.2-36,36-36h0c19.8,0,36,16.2,36,36V-80z"/>
	<path fill="#3E257A" d="M60.1-96h-20c-11,0-20-9-20-20v0c0-11,9-20,20-20h20c11,0,20,9,20,20v0C80.1-105,71.1-96,60.1-96z"/>
	<path fill="#50338F" d="M28.1-116c0-11,9-20,20-20h-8c-11,0-20,9-20,20s9,20,20,20h8C37.1-96,28.1-105,28.1-116z"/>
	<path fill="#1D1433" d="M56.1-88h-2v-4h2c1.1,0,2,0.9,2,2v0C58.1-88.9,57.2-88,56.1-88z"/>
	<path fill="#A385FF" d="M96.1-72h-72c-2.2,0-4-1.8-4-4v0c0-2.2,1.8-4,4-4h72c2.2,0,4,1.8,4,4v0C100.1-73.8,98.3-72,96.1-72z"/>
	<circle fill="#1D1433" cx="64.1" cy="-116" r="4"/>
	<circle fill="#F5463A" cx="84.1" cy="-64" r="2"/>
	<circle fill="#FFC036" cx="76.1" cy="-64" r="2"/>
	<circle fill="#1D1433" cx="48.1" cy="-116" r="4"/>
	<path fill="#A385FF" d="M96.1-100h-4c-4.4,0-8-3.6-8-8v-8c0-4.4,3.6-8,8-8h4c4.4,0,8,3.6,8,8v8C104.1-103.6,100.5-100,96.1-100z"/>
	<path fill="#F0EBFF" d="M96.1-100L96.1-100c-4.4,0-8-3.6-8-8v-8c0-4.4,3.6-8,8-8h0c4.4,0,8,3.6,8,8v8
		C104.1-103.6,100.5-100,96.1-100z"/>
	<g>
		<path fill="#A385FF" d="M96.1-110c-1.1,0-2-0.9-2-2v-28c0-1.1,0.9-2,2-2s2,0.9,2,2v28C98.1-110.9,97.2-110,96.1-110z"/>
	</g>
	<path fill="#DED4FF" d="M96.1-136L96.1-136c-2.2,0-4-1.8-4-4l0,0c0-2.2,1.8-4,4-4h0c2.2,0,4,1.8,4,4l0,0
		C100.1-137.8,98.3-136,96.1-136z"/>
	<rect x="46.1" y="-92" fill="#1D1433" width="4" height="4"/>
	<path fill="#1D1433" d="M46.1-88h-2c-1.1,0-2-0.9-2-2v0c0-1.1,0.9-2,2-2h2V-88z"/>
	<rect x="50.1" y="-92" fill="#1D1433" width="4" height="4"/>
	<rect x="-3.9" y="-172" fill="none" width="128" height="128"/>
</g>
<g>
	<circle fill="#FFCE47" cx="410.1" cy="-108" r="60"/>
	<g>
		<defs>
			<circle id="SVGID_7_" cx="410.1" cy="-108" r="60"/>
		</defs>
		<clipPath id="SVGID_8_">
			<use xlink:href="#SVGID_7_"  overflow="visible"/>
		</clipPath>
		<path clip-path="url(#SVGID_8_)" fill="#643536" d="M442.1-68h-60c-4.4,0-8-3.6-8-8v-56c0-8.8,7.2-16,16-16h24
			c19.9,0,36,16.1,36,36v36C450.1-71.6,446.5-68,442.1-68z"/>
		<path clip-path="url(#SVGID_8_)" fill="#CC2996" d="M438.1-28h-56v-20c0-15.5,12.5-28,28-28h0c15.5,0,28,12.5,28,28V-28z"/>
		<path clip-path="url(#SVGID_8_)" fill="#FFA47A" d="M410.1-60c6.6,0,12-5.4,12-12v-1.3c-3.6-1.7-7.7-2.7-12-2.7s-8.4,1-12,2.7v1.3
			C398.1-65.4,403.5-60,410.1-60z"/>
	</g>
	<path fill="#FFA47A" d="M410.1-64L410.1-64c-4.4,0-8-3.6-8-8v-8c0-4.4,3.6-8,8-8h0c4.4,0,8,3.6,8,8v8C418.1-67.6,414.5-64,410.1-64
		z"/>
	<path fill="#FFBB9B" d="M410.1-78L410.1-78c-16.6,0-30-13.4-30-30v-8c0-16.6,13.4-30,30-30h0c16.6,0,30,13.4,30,30v8
		C440.1-91.4,426.7-78,410.1-78z"/>
	<path fill="#643536" d="M418.1-158h-2h-4h-14c-6.3,0-11.5,4.9-12,11.1c0,0.3,0,0.6,0,0.9c0,13.2,10.8,24,24,24h34h6v-4
		C450.1-143.6,435.7-158,418.1-158z"/>
	<circle fill="#603535" cx="414.1" cy="-116" r="4"/>
	<circle fill="#603535" cx="398.1" cy="-116" r="4"/>
	<path fill="#FFFFFF" d="M406.1-92L406.1-92c-7.7,0-14-6.3-14-14v-2h28v2C420.1-98.3,413.8-92,406.1-92z"/>
	<path fill="#FFD8A8" d="M440.1-106h-2v-12h2c3.3,0,6,2.7,6,6v0C446.1-108.7,443.4-106,440.1-106z"/>
	<path fill="#643536" d="M442.1-68L442.1-68c4.4,0,8-3.6,8-8v-48h-24v40C426.1-75.2,433.3-68,442.1-68z"/>
	<rect x="346.1" y="-172" fill="none" width="128" height="128"/>
</g>
<g>
	<circle fill="#603535" cx="235.1" cy="60" r="60"/>
	<path fill="#FF680A" d="M235.1,40h-20V20c0-2.2,1.8-4,4-4h0c8.8,0,16,7.2,16,16V40z"/>
	<g>
		<defs>
			<circle id="SVGID_9_" cx="235.1" cy="60" r="60"/>
		</defs>
		<clipPath id="SVGID_10_">
			<use xlink:href="#SVGID_9_"  overflow="visible"/>
		</clipPath>
		<path clip-path="url(#SVGID_10_)" fill="#FF7E29" d="M269.1,132h-64v-8c0-19.8,16.2-36,36-36h28V132z"/>
		<path clip-path="url(#SVGID_10_)" fill="#FF680A" d="M259.1,128h-48v-4c0-13.3,10.7-24,24-24h0c13.3,0,24,10.7,24,24V128z"/>
	</g>
	<path fill="#FF7E29" d="M269.1,96h-32c-19.9,0-36-16.1-36-36v0c0-19.8,16.2-36,36-36h16c8.8,0,16,7.2,16,16V96z"/>
	<path fill="#FFE4D1" d="M227.1,90L227.1,90c-11,0-20-9-20-20v-4c0-4.4,3.6-8,8-8h24c4.4,0,8,3.6,8,8v4C247.1,81,238.2,90,227.1,90z
		"/>
	<circle fill="#603535" cx="239.1" cy="52" r="4"/>
	<circle fill="#603535" cx="223.1" cy="52" r="4"/>
	<path fill="#603535" d="M219.1,58h8c1.1,0,2,0.9,2,2v0c0,3.3-2.7,6-6,6h0c-3.3,0-6-2.7-6-6v0C217.1,58.9,218,58,219.1,58z"/>
	<path fill="#FF680A" d="M245.1,48L245.1,48c0,1.1-0.9,2-2,2h-8c-1.1,0-2-0.9-2-2v0c0-1.1,0.9-2,2-2h8C244.2,46,245.1,46.9,245.1,48
		z"/>
	<path fill="#FFE4D1" d="M255.1,66L255.1,66c0,1.1-0.9,2-2,2h-12c-1.1,0-2-0.9-2-2v0c0-1.1,0.9-2,2-2h12
		C254.2,64,255.1,64.9,255.1,66z"/>
	<path fill="#FFE4D1" d="M255.1,74L255.1,74c0,1.1-0.9,2-2,2l-12,0c-1.1,0-2-0.9-2-2v0c0-1.1,0.9-2,2-2l12,0
		C254.2,72,255.1,72.9,255.1,74z"/>
	<path fill="#FFE4D1" d="M215.1,66L215.1,66c0,1.1-0.9,2-2,2h-12c-1.1,0-2-0.9-2-2v0c0-1.1,0.9-2,2-2h12
		C214.2,64,215.1,64.9,215.1,66z"/>
	<path fill="#FFE4D1" d="M215.1,74L215.1,74c0,1.1-0.9,2-2,2l-12,0c-1.1,0-2-0.9-2-2v0c0-1.1,0.9-2,2-2l12,0
		C214.2,72,215.1,72.9,215.1,74z"/>
	<path fill="#FF680A" d="M229.1,48L229.1,48c0,1.1-0.9,2-2,2h-8c-1.1,0-2-0.9-2-2v0c0-1.1,0.9-2,2-2h8C228.2,46,229.1,46.9,229.1,48
		z"/>
	<path fill="#FF7E29" d="M249.1,40h20V20c0-2.2-1.8-4-4-4h0c-8.8,0-16,7.2-16,16V40z"/>
	<g>
		<path fill="#F3A9B1" d="M265.1,32V20c-4,0-7.6,2-9.7,5C259.3,26.3,262.7,28.8,265.1,32z"/>
	</g>
	<circle fill="#FFBD8F" cx="239.1" cy="64" r="2"/>
	<circle fill="#FFBD8F" cx="235.1" cy="72" r="2"/>
	<circle fill="#FFBD8F" cx="211.1" cy="72" r="2"/>
	<path fill="#FF680A" d="M265.1,72h4v-8h-4c-2.2,0-4,1.8-4,4v0C261.1,70.2,262.9,72,265.1,72z"/>
	<path fill="#FF680A" d="M265.1,84h4v-8h-4c-2.2,0-4,1.8-4,4v0C261.1,82.2,262.9,84,265.1,84z"/>
	<path fill="#FF680A" d="M261.1,96h8v-8h-8c-2.2,0-4,1.8-4,4v0C257.1,94.2,258.9,96,261.1,96z"/>
	<rect x="171.1" y="-4" fill="none" width="128" height="128"/>
</g>
<g>
	<circle fill="#2BD665" cx="-113.9" cy="60" r="60"/>
	<g>
		<defs>
			<circle id="SVGID_11_" cx="-113.9" cy="60" r="60"/>
		</defs>
		<clipPath id="SVGID_12_">
			<use xlink:href="#SVGID_11_"  overflow="visible"/>
		</clipPath>
		<path clip-path="url(#SVGID_12_)" fill="#C14F3B" d="M-121.9,32L-121.9,32c0,8.8-7.2,16-16,16h0c-8.8,0-16-7.2-16-16v0
			c0-8.8,7.2-16,16-16h0C-129.1,16-121.9,23.2-121.9,32z"/>
		<path clip-path="url(#SVGID_12_)" fill="#F3A9B1" d="M-129.4,34.8l-5.7,5.7c-1.6,1.6-4.1,1.6-5.7,0l-2.8-2.8
			c-3.1-3.1-3.1-8.2,0-11.3l0,0c3.1-3.1,8.2-3.1,11.3,0l2.8,2.8C-127.8,30.7-127.8,33.3-129.4,34.8z"/>
		<path clip-path="url(#SVGID_12_)" fill="#D76B5A" d="M-85.9,48L-85.9,48c-8.8,0-16-7.2-16-16v0c0-8.8,7.2-16,16-16h0
			c8.8,0,16,7.2,16,16v0C-69.9,40.8-77.1,48-85.9,48z"/>
		<path clip-path="url(#SVGID_12_)" fill="#F3A9B1" d="M-88.7,40.5l-5.7-5.7c-1.6-1.6-1.6-4.1,0-5.7l2.8-2.8c3.1-3.1,8.2-3.1,11.3,0
			l0,0c3.1,3.1,3.1,8.2,0,11.3l-2.8,2.8C-84.6,42-87.1,42-88.7,40.5z"/>
		<path clip-path="url(#SVGID_12_)" fill="#D76B5A" d="M-77.9,124h-72V52c0-19.8,16.2-36,36-36h0c19.8,0,36,16.2,36,36V124z"/>
		<path clip-path="url(#SVGID_12_)" fill="#C14F3B" d="M-81.9,68L-81.9,68c-1.1,0-2-0.9-2-2v-4c0-1.1,0.9-2,2-2l0,0c1.1,0,2,0.9,2,2
			v4C-79.9,67.1-80.8,68-81.9,68z"/>
		<path clip-path="url(#SVGID_12_)" fill="#C14F3B" d="M-89.9,80L-89.9,80c-1.1,0-2-0.9-2-2v-4c0-1.1,0.9-2,2-2l0,0c1.1,0,2,0.9,2,2
			v4C-87.9,79.1-88.8,80-89.9,80z"/>
		<path clip-path="url(#SVGID_12_)" fill="#C14F3B" d="M-81.9,92L-81.9,92c-1.1,0-2-0.9-2-2v-4c0-1.1,0.9-2,2-2l0,0c1.1,0,2,0.9,2,2
			v4C-79.9,91.1-80.8,92-81.9,92z"/>
		<path clip-path="url(#SVGID_12_)" fill="#C14F3B" d="M-89.9,104L-89.9,104c-1.1,0-2-0.9-2-2v-4c0-1.1,0.9-2,2-2l0,0
			c1.1,0,2,0.9,2,2v4C-87.9,103.1-88.8,104-89.9,104z"/>
		<path clip-path="url(#SVGID_12_)" fill="#C14F3B" d="M-97.9,116L-97.9,116c-1.1,0-2-0.9-2-2v-4c0-1.1,0.9-2,2-2l0,0
			c1.1,0,2,0.9,2,2v4C-95.9,115.1-96.8,116-97.9,116z"/>
		<path clip-path="url(#SVGID_12_)" fill="#C14F3B" d="M-105.9,124L-105.9,124c-1.1,0-2-0.9-2-2v-4c0-1.1,0.9-2,2-2l0,0
			c1.1,0,2,0.9,2,2v4C-103.9,123.1-104.8,124-105.9,124z"/>
		<path clip-path="url(#SVGID_12_)" fill="#C14F3B" d="M-137.9,120L-137.9,120c-1.1,0-2-0.9-2-2v-4c0-1.1,0.9-2,2-2l0,0
			c1.1,0,2,0.9,2,2v4C-135.9,119.1-136.8,120-137.9,120z"/>
		<path clip-path="url(#SVGID_12_)" fill="#C14F3B" d="M-145.9,108L-145.9,108c-1.1,0-2-0.9-2-2v-4c0-1.1,0.9-2,2-2l0,0
			c1.1,0,2,0.9,2,2v4C-143.9,107.1-144.8,108-145.9,108z"/>
		<path clip-path="url(#SVGID_12_)" fill="#C14F3B" d="M-81.9,116L-81.9,116c-1.1,0-2-0.9-2-2v-4c0-1.1,0.9-2,2-2l0,0
			c1.1,0,2,0.9,2,2v4C-79.9,115.1-80.8,116-81.9,116z"/>
	</g>
	<path fill="#FFA47A" d="M-121.9,96L-121.9,96c-6.6,0-12-5.4-12-12v-4h24v4C-109.9,90.6-115.3,96-121.9,96z"/>
	<path fill="#FFBB9B" d="M-113.9,90h-8c-2.2,0-4-1.8-4-4V58h8c8.8,0,16,7.2,16,16v4C-101.9,84.6-107.2,90-113.9,90z"/>
	<path fill="#FFBB9B" d="M-129.9,90L-129.9,90c2.2,0,4-1.8,4-4V58h0c-8.8,0-16,7.2-16,16v4C-141.9,84.6-136.5,90-129.9,90z"/>
	<circle fill="#603535" cx="-109.9" cy="52" r="4"/>
	<circle fill="#603535" cx="-125.9" cy="52" r="4"/>
	<path fill="#343A40" d="M-127.9,62h4c2.2,0,4,1.8,4,4v2c0,3.3-2.7,6-6,6h0c-3.3,0-6-2.7-6-6v-2C-131.9,63.8-130.1,62-127.9,62z"/>
	<path fill="#C14F3B" d="M-105.9,40L-105.9,40c0,1.1-0.9,2-2,2h-4c-1.1,0-2-0.9-2-2v0c0-1.1,0.9-2,2-2h4
		C-106.8,38-105.9,38.9-105.9,40z"/>
	<path fill="#C14F3B" d="M-121.9,44L-121.9,44c0,1.1-0.9,2-2,2h-4c-1.1,0-2-0.9-2-2v0c0-1.1,0.9-2,2-2h4
		C-122.8,42-121.9,42.9-121.9,44z"/>
	<rect x="-177.9" y="-4" fill="none" width="128" height="128"/>
</g>
<g>
	<circle fill="#CC2996" cx="-113.9" cy="-108" r="60"/>
	<g>
		<defs>
			<circle id="SVGID_13_" cx="-113.9" cy="-108" r="60"/>
		</defs>
		<use xlink:href="#SVGID_13_"  overflow="visible" fill="#7732D1"/>
		<clipPath id="SVGID_14_">
			<use xlink:href="#SVGID_13_"  overflow="visible"/>
		</clipPath>
		<path clip-path="url(#SVGID_14_)" fill="#FFC74D" d="M-89.9-40h-48v-24c0-13.3,10.7-24,24-24h0c13.3,0,24,10.7,24,24V-40z"/>
		<path clip-path="url(#SVGID_14_)" fill="#FFBE33" d="M-134.6-76h41.5c-4.2-7.2-11.9-12-20.8-12C-122.8-88-130.5-83.2-134.6-76z"/>
	</g>
	<path fill="#C07867" d="M-77.9-80h-28v-64h28c2.2,0,4,1.8,4,4v56C-73.9-81.8-75.7-80-77.9-80z"/>
	<path fill="#F4A568" d="M-85.9-120v-20c0-2.2-1.8-4-4-4h8c2.2,0,4,1.8,4,4v20H-85.9z"/>
	<path fill="#F4A568" d="M-93.9-80h-56c-2.2,0-4-1.8-4-4v-56c0-2.2,1.8-4,4-4h56c2.2,0,4,1.8,4,4v56C-89.9-81.8-91.7-80-93.9-80z"/>
	<path fill="#FFBB9B" d="M-105.9-108h-32c-4.4,0-8-3.6-8-8v0c0-4.4,3.6-8,8-8h32c4.4,0,8,3.6,8,8v0C-97.9-111.6-101.5-108-105.9-108
		z"/>
	<path fill="#C07867" d="M-137.9-116c0-4.4,3.6-8,8-8h-8c-4.4,0-8,3.6-8,8s3.6,8,8,8h8C-134.3-108-137.9-111.6-137.9-116z"/>
	<circle fill="#603535" cx="-109.9" cy="-116" r="4"/>
	<circle fill="#603535" cx="-125.9" cy="-116" r="4"/>
	<rect x="-177.9" y="-172" fill="none" width="128" height="128"/>
</g>
<g>
	<g>
		<defs>
			<circle id="SVGID_15_" cx="410.1" cy="60" r="60"/>
		</defs>
		<use xlink:href="#SVGID_15_"  overflow="visible" fill="#6521CC"/>
		<clipPath id="SVGID_16_">
			<use xlink:href="#SVGID_15_"  overflow="visible"/>
		</clipPath>
		<path clip-path="url(#SVGID_16_)" fill="#FF85C8" d="M434.1,96h-12c-4.4,0-8-3.6-8-8V52c0-11,9-20,20-20h0c11,0,20,9,20,20v24
			C454.1,87,445.1,96,434.1,96z"/>
		<path clip-path="url(#SVGID_16_)" fill="#F8F9FA" d="M446.1,132h-64v-8c0-19.8,16.2-36,36-36h28V132z"/>
		<path clip-path="url(#SVGID_16_)" fill="#DED4FF" d="M438.1,124h-48v0c0-13.3,10.7-24,24-24h0C427.4,100,438.1,110.7,438.1,124
			L438.1,124z"/>
	</g>
	<path fill="#F8F9FA" d="M446.1,92h-40c-22,0-40-18-40-40v0c0-6.6,5.4-12,12-12h68V92z"/>
	<g>
		<defs>
			<path id="SVGID_17_" d="M446.1,92h-40c-22,0-40-18-40-40v0c0-6.6,5.4-12,12-12h68V92z"/>
		</defs>
		<clipPath id="SVGID_18_">
			<use xlink:href="#SVGID_17_"  overflow="visible"/>
		</clipPath>
		<path clip-path="url(#SVGID_18_)" fill="#DED4FF" d="M378.1,68h-4c-4.4,0-8-3.6-8-8v-8c0-6.6,5.4-12,12-12l0,0c6.6,0,12,5.4,12,12
			v4C390.1,62.6,384.7,68,378.1,68z"/>
	</g>
	<circle fill="#B199FF" cx="380.1" cy="62" r="2"/>
	<circle fill="#B199FF" cx="372.1" cy="62" r="2"/>
	<circle fill="#603535" cx="414.1" cy="52" r="4"/>
	<circle fill="#603535" cx="398.1" cy="52" r="4"/>
	<path fill="#F8F9FA" d="M434.1,32v18h12V32c0-3.3-2.7-6-6-6l0,0C436.8,26,434.1,28.7,434.1,32z"/>
	<path fill="#FFADDA" d="M438.1,32v6h4v-6c0-1.1-0.9-2-2-2l0,0C439,30,438.1,30.9,438.1,32z"/>
	<g>
		<path fill="#FFAA00" d="M418.1,20h-8v0c0-2.2,1.8-4,4-4l0,0C416.3,16,418.1,17.8,418.1,20L418.1,20z"/>
		<rect x="410.1" y="20" fill="#FFCE47" width="8" height="4"/>
		<rect x="410.1" y="24" fill="#FFAA00" width="8" height="4"/>
		<rect x="410.1" y="28" fill="#FFCE47" width="8" height="4"/>
		<rect x="410.1" y="32" fill="#FFAA00" width="8" height="4"/>
		<rect x="410.1" y="36" fill="#FFCE47" width="8" height="4"/>
	</g>
	<rect x="346.1" y="-4" fill="none" width="128" height="128"/>
</g>
</svg>
