<?xml version="1.0" encoding="utf-8"?>
<!-- Generator: Adobe Illustrator 17.0.0, SVG Export Plug-In . SVG Version: 6.00 Build 0)  -->
<!DOCTYPE svg PUBLIC "-//W3C//DTD SVG 1.1//EN" "http://www.w3.org/Graphics/SVG/1.1/DTD/svg11.dtd">
<svg version="1.1" id="Layer_1" xmlns="http://www.w3.org/2000/svg" xmlns:xlink="http://www.w3.org/1999/xlink" x="0px" y="0px"
	 width="120px" height="120px" viewBox="0 0 120 120" enable-background="new 0 0 120 120" xml:space="preserve">
<g>
	<path d="M-510.978-249.215h-5.76l-1.18,3.24h-2.92l5.439-14.18h3.2l5.4,14.18h-3L-510.978-249.215z M-515.818-251.735h3.92
		l-1.96-5.36L-515.818-251.735z"/>
	<path d="M-500.558-245.975h-2.66l-4.02-9.84h2.92l2.439,6.6l2.341-6.6h2.8L-500.558-245.975z"/>
	<path d="M-495.757-248.655c0-0.44,0.076-0.83,0.229-1.17c0.153-0.34,0.363-0.636,0.63-0.89c0.267-0.253,0.577-0.453,0.931-0.6
		c0.353-0.146,0.736-0.253,1.149-0.32l2.42-0.36c0.28-0.04,0.474-0.123,0.58-0.25c0.106-0.126,0.16-0.276,0.16-0.45
		c0-0.346-0.137-0.646-0.41-0.9c-0.273-0.253-0.689-0.38-1.25-0.38c-0.587,0-1.037,0.16-1.35,0.48c-0.313,0.32-0.49,0.693-0.53,1.12
		l-2.36-0.5c0.04-0.387,0.16-0.773,0.36-1.16s0.474-0.733,0.82-1.04c0.347-0.307,0.772-0.557,1.28-0.75
		c0.506-0.193,1.093-0.29,1.76-0.29c0.772,0,1.433,0.104,1.979,0.31c0.547,0.207,0.99,0.48,1.33,0.82
		c0.34,0.34,0.587,0.737,0.74,1.19s0.229,0.927,0.229,1.42v4.84c0,0.267,0.014,0.55,0.04,0.85c0.027,0.3,0.054,0.537,0.08,0.71
		h-2.439c-0.027-0.133-0.05-0.316-0.07-0.55c-0.02-0.233-0.03-0.443-0.03-0.63c-0.253,0.387-0.616,0.727-1.09,1.02
		c-0.474,0.293-1.076,0.44-1.81,0.44c-0.521,0-0.99-0.083-1.41-0.25c-0.42-0.167-0.777-0.386-1.07-0.66s-0.517-0.587-0.67-0.94
		C-495.681-247.898-495.757-248.268-495.757-248.655z M-491.818-247.675c0.28,0,0.55-0.036,0.811-0.11
		c0.26-0.073,0.489-0.2,0.689-0.38s0.36-0.413,0.48-0.7c0.12-0.287,0.18-0.65,0.18-1.09v-0.44l-2.22,0.34
		c-0.347,0.054-0.637,0.177-0.87,0.37s-0.35,0.483-0.35,0.87c0,0.293,0.106,0.557,0.319,0.79S-492.245-247.675-491.818-247.675z"/>
	<path d="M-481.158-255.815h1.979v2.36h-1.979v4.12c0,0.427,0.097,0.723,0.29,0.89c0.193,0.167,0.482,0.25,0.87,0.25
		c0.159,0,0.319-0.006,0.479-0.02c0.16-0.013,0.273-0.033,0.34-0.06v2.2c-0.12,0.054-0.303,0.106-0.55,0.16
		c-0.247,0.053-0.563,0.08-0.95,0.08c-0.96,0-1.72-0.267-2.279-0.8c-0.561-0.533-0.841-1.28-0.841-2.24v-4.58h-1.779v-2.36h0.5
		c0.52,0,0.903-0.15,1.149-0.45c0.247-0.3,0.37-0.67,0.37-1.11v-1.38h2.4V-255.815z"/>
	<path d="M-477.458-248.655c0-0.44,0.076-0.83,0.229-1.17c0.153-0.34,0.363-0.636,0.63-0.89c0.267-0.253,0.577-0.453,0.931-0.6
		c0.353-0.146,0.736-0.253,1.149-0.32l2.42-0.36c0.28-0.04,0.474-0.123,0.58-0.25c0.106-0.126,0.16-0.276,0.16-0.45
		c0-0.346-0.137-0.646-0.41-0.9c-0.273-0.253-0.689-0.38-1.25-0.38c-0.587,0-1.037,0.16-1.35,0.48c-0.313,0.32-0.49,0.693-0.53,1.12
		l-2.36-0.5c0.04-0.387,0.16-0.773,0.36-1.16s0.474-0.733,0.82-1.04c0.347-0.307,0.772-0.557,1.28-0.75
		c0.506-0.193,1.093-0.29,1.76-0.29c0.772,0,1.433,0.104,1.979,0.31c0.547,0.207,0.99,0.48,1.33,0.82
		c0.34,0.34,0.587,0.737,0.74,1.19s0.229,0.927,0.229,1.42v4.84c0,0.267,0.014,0.55,0.04,0.85c0.027,0.3,0.054,0.537,0.08,0.71
		h-2.439c-0.027-0.133-0.05-0.316-0.07-0.55c-0.02-0.233-0.03-0.443-0.03-0.63c-0.253,0.387-0.616,0.727-1.09,1.02
		c-0.474,0.293-1.076,0.44-1.81,0.44c-0.521,0-0.99-0.083-1.41-0.25c-0.42-0.167-0.777-0.386-1.07-0.66s-0.517-0.587-0.67-0.94
		C-477.381-247.898-477.458-248.268-477.458-248.655z M-473.518-247.675c0.28,0,0.55-0.036,0.811-0.11
		c0.26-0.073,0.489-0.2,0.689-0.38s0.36-0.413,0.48-0.7c0.12-0.287,0.18-0.65,0.18-1.09v-0.44l-2.22,0.34
		c-0.347,0.054-0.637,0.177-0.87,0.37s-0.35,0.483-0.35,0.87c0,0.293,0.106,0.557,0.319,0.79S-473.945-247.675-473.518-247.675z"/>
	<path d="M-460.079-253.175c-0.267-0.053-0.533-0.08-0.8-0.08c-0.347,0-0.674,0.047-0.98,0.14c-0.307,0.094-0.573,0.247-0.8,0.46
		c-0.227,0.213-0.41,0.497-0.55,0.85c-0.14,0.354-0.21,0.797-0.21,1.33v4.5h-2.66v-9.84h2.58v1.46c0.146-0.32,0.337-0.583,0.57-0.79
		c0.232-0.207,0.479-0.363,0.739-0.47c0.261-0.106,0.521-0.18,0.78-0.22s0.497-0.06,0.71-0.06c0.106,0,0.21,0.003,0.311,0.01
		c0.1,0.007,0.203,0.017,0.31,0.03V-253.175z"/>
	<path d="M-456.699-249.215c0.026,0.387,0.187,0.734,0.479,1.04c0.293,0.307,0.733,0.46,1.32,0.46c0.439,0,0.767-0.096,0.979-0.29
		c0.214-0.193,0.32-0.423,0.32-0.69c0-0.227-0.08-0.423-0.24-0.59c-0.16-0.167-0.434-0.29-0.819-0.37l-1.301-0.3
		c-0.96-0.213-1.659-0.583-2.1-1.11s-0.66-1.137-0.66-1.83c0-0.44,0.094-0.856,0.28-1.25c0.187-0.393,0.443-0.733,0.77-1.02
		c0.327-0.287,0.714-0.517,1.16-0.69s0.937-0.26,1.47-0.26c0.693,0,1.28,0.097,1.761,0.29c0.479,0.193,0.87,0.437,1.17,0.73
		c0.3,0.293,0.522,0.604,0.67,0.93c0.146,0.327,0.233,0.624,0.26,0.89l-2.22,0.5c-0.027-0.147-0.07-0.297-0.13-0.45
		c-0.061-0.153-0.157-0.296-0.29-0.43c-0.134-0.133-0.297-0.24-0.49-0.32s-0.43-0.12-0.71-0.12c-0.347,0-0.644,0.094-0.89,0.28
		c-0.247,0.187-0.37,0.42-0.37,0.7c0,0.24,0.083,0.434,0.25,0.58c0.166,0.147,0.383,0.247,0.649,0.3l1.4,0.3
		c0.973,0.2,1.703,0.573,2.189,1.12c0.487,0.547,0.73,1.18,0.73,1.9c0,0.4-0.077,0.793-0.23,1.18s-0.39,0.733-0.71,1.04
		c-0.319,0.307-0.72,0.554-1.199,0.74c-0.48,0.187-1.04,0.28-1.681,0.28c-0.746,0-1.373-0.106-1.88-0.32
		c-0.507-0.213-0.92-0.473-1.24-0.78c-0.319-0.307-0.557-0.637-0.71-0.99c-0.153-0.353-0.243-0.67-0.27-0.95L-456.699-249.215z"/>
	<path fill="#5C5C5C" d="M-444.179-245.975v-14.18h2.8v14.18H-444.179z"/>
	<path fill="#5C5C5C" d="M-433.979-253.655c-0.347,0-0.67,0.06-0.97,0.18s-0.563,0.297-0.79,0.53
		c-0.227,0.234-0.407,0.523-0.54,0.87c-0.134,0.347-0.2,0.74-0.2,1.18s0.066,0.833,0.2,1.18c0.133,0.347,0.316,0.64,0.55,0.88
		c0.233,0.24,0.5,0.42,0.8,0.54c0.301,0.12,0.623,0.18,0.971,0.18c0.333,0,0.63-0.05,0.89-0.15s0.483-0.23,0.67-0.39
		c0.187-0.16,0.337-0.34,0.45-0.54c0.113-0.2,0.196-0.393,0.25-0.58l2.34,0.78c-0.106,0.414-0.283,0.817-0.53,1.21
		c-0.246,0.394-0.563,0.747-0.949,1.06c-0.388,0.313-0.841,0.567-1.36,0.76c-0.521,0.193-1.107,0.29-1.76,0.29
		c-0.721,0-1.397-0.13-2.03-0.39c-0.634-0.26-1.184-0.623-1.65-1.09c-0.467-0.466-0.833-1.017-1.1-1.65
		c-0.267-0.633-0.4-1.33-0.4-2.09c0-0.76,0.13-1.46,0.391-2.1c0.26-0.64,0.62-1.19,1.08-1.65s1-0.82,1.619-1.08
		c0.62-0.26,1.29-0.39,2.011-0.39c0.666,0,1.263,0.097,1.79,0.29c0.526,0.193,0.982,0.443,1.37,0.75
		c0.386,0.307,0.699,0.66,0.939,1.06s0.413,0.807,0.521,1.22l-2.381,0.8c-0.119-0.413-0.35-0.793-0.689-1.14
		C-432.829-253.481-433.326-253.655-433.979-253.655z"/>
	<path fill="#5C5C5C" d="M-423.08-256.115c0.733,0,1.417,0.13,2.05,0.39c0.634,0.26,1.181,0.62,1.641,1.08s0.819,1.01,1.08,1.65
		c0.26,0.64,0.39,1.34,0.39,2.1c0,0.76-0.13,1.457-0.39,2.09c-0.261,0.633-0.62,1.184-1.08,1.65c-0.46,0.467-1.007,0.83-1.641,1.09
		c-0.633,0.26-1.316,0.39-2.05,0.39s-1.417-0.13-2.05-0.39c-0.634-0.26-1.18-0.623-1.64-1.09c-0.46-0.466-0.82-1.017-1.08-1.65
		c-0.261-0.633-0.391-1.33-0.391-2.09c0-0.76,0.13-1.46,0.391-2.1c0.26-0.64,0.62-1.19,1.08-1.65s1.006-0.82,1.64-1.08
		C-424.497-255.985-423.813-256.115-423.08-256.115z M-423.08-248.095c0.32,0,0.633-0.06,0.94-0.18c0.307-0.12,0.573-0.297,0.8-0.53
		c0.227-0.233,0.41-0.523,0.55-0.87c0.14-0.346,0.21-0.753,0.21-1.22s-0.07-0.873-0.21-1.22c-0.14-0.346-0.323-0.636-0.55-0.87
		s-0.493-0.41-0.8-0.53c-0.308-0.12-0.62-0.18-0.94-0.18s-0.633,0.06-0.939,0.18c-0.308,0.12-0.574,0.297-0.801,0.53
		s-0.409,0.523-0.55,0.87c-0.14,0.347-0.21,0.753-0.21,1.22s0.07,0.874,0.21,1.22c0.141,0.347,0.323,0.637,0.55,0.87
		c0.227,0.233,0.493,0.41,0.801,0.53C-423.712-248.155-423.4-248.095-423.08-248.095z"/>
	<path fill="#5C5C5C" d="M-413.159-245.975h-2.66v-9.84h2.58v1.22c0.307-0.506,0.723-0.88,1.25-1.12
		c0.526-0.24,1.057-0.36,1.59-0.36c0.613,0,1.144,0.104,1.59,0.31c0.447,0.207,0.816,0.483,1.11,0.83
		c0.293,0.347,0.51,0.76,0.65,1.24c0.14,0.48,0.21,0.987,0.21,1.52v6.2h-2.66v-5.74c0-0.56-0.144-1.026-0.431-1.4
		c-0.286-0.373-0.75-0.56-1.39-0.56c-0.587,0-1.04,0.197-1.36,0.59c-0.319,0.393-0.479,0.877-0.479,1.45V-245.975z"/>
	<path fill="#5C5C5C" d="M-391.939-256.015c-0.04-0.2-0.109-0.417-0.21-0.65c-0.1-0.233-0.25-0.45-0.45-0.65
		c-0.199-0.2-0.456-0.367-0.77-0.5s-0.697-0.2-1.15-0.2c-0.333,0-0.637,0.05-0.909,0.15c-0.273,0.1-0.507,0.233-0.7,0.4
		c-0.193,0.167-0.344,0.357-0.45,0.57s-0.16,0.44-0.16,0.68c0,0.387,0.127,0.724,0.38,1.01s0.641,0.483,1.16,0.59l1.98,0.38
		c0.64,0.12,1.206,0.313,1.699,0.58c0.493,0.267,0.907,0.583,1.24,0.95s0.587,0.777,0.76,1.23c0.174,0.454,0.261,0.927,0.261,1.42
		c0,0.547-0.114,1.083-0.341,1.61c-0.227,0.527-0.557,0.994-0.989,1.4c-0.434,0.407-0.967,0.737-1.601,0.99
		c-0.633,0.253-1.363,0.38-2.189,0.38c-0.947,0-1.76-0.137-2.44-0.41c-0.68-0.273-1.25-0.623-1.71-1.05
		c-0.46-0.426-0.81-0.903-1.05-1.43s-0.387-1.043-0.44-1.55l2.561-0.68c0.026,0.347,0.109,0.68,0.25,1
		c0.14,0.32,0.336,0.603,0.59,0.85c0.253,0.247,0.566,0.444,0.94,0.59c0.373,0.147,0.813,0.22,1.319,0.22
		c0.747,0,1.316-0.163,1.71-0.49s0.59-0.743,0.59-1.25c0-0.413-0.146-0.77-0.439-1.07c-0.294-0.3-0.72-0.503-1.28-0.61l-1.979-0.4
		c-1.134-0.227-2.037-0.69-2.71-1.39c-0.674-0.7-1.011-1.59-1.011-2.67c0-0.626,0.13-1.21,0.391-1.75
		c0.26-0.54,0.616-1.01,1.069-1.41c0.453-0.4,0.98-0.713,1.58-0.94c0.601-0.227,1.233-0.34,1.9-0.34c0.854,0,1.583,0.117,2.189,0.35
		c0.607,0.233,1.11,0.53,1.511,0.89c0.399,0.36,0.71,0.757,0.93,1.19s0.37,0.85,0.45,1.25L-391.939-256.015z"/>
	<path fill="#5C5C5C" d="M-378.379-248.795c-0.12,0.427-0.311,0.83-0.57,1.21c-0.26,0.38-0.577,0.71-0.95,0.99
		c-0.373,0.28-0.81,0.503-1.31,0.67c-0.5,0.167-1.05,0.25-1.65,0.25c-0.68,0-1.326-0.117-1.939-0.35
		c-0.613-0.233-1.153-0.577-1.62-1.03c-0.467-0.453-0.837-1.006-1.11-1.66c-0.273-0.653-0.41-1.393-0.41-2.22
		c0-0.787,0.134-1.5,0.4-2.14s0.623-1.183,1.07-1.63c0.446-0.447,0.963-0.793,1.55-1.04c0.586-0.247,1.193-0.37,1.819-0.37
		c1.533,0,2.727,0.454,3.58,1.36s1.28,2.153,1.28,3.74c0,0.187-0.007,0.363-0.02,0.53c-0.014,0.167-0.021,0.263-0.021,0.29h-7.04
		c0.014,0.32,0.09,0.617,0.23,0.89c0.14,0.273,0.319,0.51,0.54,0.71c0.22,0.2,0.477,0.357,0.77,0.47s0.606,0.17,0.94,0.17
		c0.626,0,1.116-0.14,1.47-0.42c0.354-0.28,0.61-0.64,0.77-1.08L-378.379-248.795z M-380.86-252.015
		c-0.014-0.24-0.063-0.477-0.149-0.71c-0.087-0.233-0.221-0.44-0.4-0.62c-0.18-0.18-0.407-0.327-0.68-0.44
		c-0.273-0.113-0.597-0.17-0.971-0.17c-0.347,0-0.653,0.06-0.92,0.18c-0.267,0.12-0.493,0.273-0.68,0.46s-0.33,0.393-0.43,0.62
		c-0.101,0.227-0.157,0.454-0.17,0.68H-380.86z"/>
	<path fill="#5C5C5C" d="M-372.859-255.815h1.979v2.36h-1.979v4.12c0,0.427,0.097,0.723,0.29,0.89c0.193,0.167,0.482,0.25,0.87,0.25
		c0.159,0,0.319-0.006,0.479-0.02c0.16-0.013,0.273-0.033,0.34-0.06v2.2c-0.12,0.054-0.303,0.106-0.55,0.16
		c-0.247,0.053-0.563,0.08-0.95,0.08c-0.96,0-1.72-0.267-2.279-0.8c-0.561-0.533-0.841-1.28-0.841-2.24v-4.58h-1.779v-2.36h0.5
		c0.52,0,0.903-0.15,1.149-0.45c0.247-0.3,0.37-0.67,0.37-1.11v-1.38h2.4V-255.815z"/>
</g>
<line fill="none" stroke="#EEEEEE" stroke-width="2" stroke-miterlimit="10" x1="-522" y1="-226" x2="118" y2="-226"/>
<line fill="none" stroke="#EEEEEE" stroke-width="2" stroke-miterlimit="10" x1="-522" y1="193" x2="118" y2="193"/>
<g opacity="0.6">
	<path fill="#999999" d="M-1.363,215.472c0.271,0,0.512,0.039,0.723,0.116s0.391,0.184,0.537,0.319
		c0.146,0.137,0.258,0.298,0.336,0.484c0.076,0.187,0.115,0.392,0.115,0.616c0,0.304-0.078,0.562-0.236,0.771
		c-0.156,0.211-0.361,0.361-0.611,0.452c0.16,0.043,0.305,0.108,0.432,0.196c0.129,0.088,0.236,0.191,0.324,0.312
		s0.154,0.254,0.199,0.4c0.047,0.146,0.068,0.3,0.068,0.46c0,0.224-0.043,0.431-0.127,0.62c-0.086,0.189-0.205,0.352-0.361,0.488
		c-0.154,0.136-0.338,0.242-0.551,0.319c-0.215,0.077-0.451,0.116-0.713,0.116h-1.984v-5.672H-1.363z M-1.451,217.951
		c0.318,0,0.566-0.084,0.742-0.252c0.178-0.168,0.266-0.385,0.266-0.651c0-0.272-0.092-0.488-0.277-0.648
		c-0.184-0.16-0.438-0.24-0.764-0.24h-0.943v1.792H-1.451z M-1.34,220.455c0.32,0,0.576-0.081,0.771-0.243
		c0.195-0.163,0.293-0.383,0.293-0.66c0-0.272-0.086-0.495-0.256-0.668c-0.172-0.174-0.43-0.26-0.777-0.26h-1.119v1.831H-1.34z"/>
	<path fill="#999999" d="M3.211,217.176c0.289,0,0.553,0.052,0.793,0.156c0.24,0.104,0.447,0.246,0.623,0.428
		s0.313,0.396,0.408,0.644s0.145,0.519,0.145,0.813c0,0.293-0.049,0.565-0.145,0.815c-0.096,0.251-0.232,0.467-0.408,0.648
		s-0.383,0.324-0.623,0.428c-0.24,0.104-0.504,0.156-0.793,0.156c-0.287,0-0.551-0.052-0.791-0.156
		c-0.24-0.104-0.449-0.246-0.625-0.428s-0.313-0.397-0.408-0.648c-0.096-0.25-0.143-0.522-0.143-0.815
		c0-0.294,0.047-0.564,0.143-0.813s0.232-0.462,0.408-0.644s0.385-0.324,0.625-0.428C2.66,217.228,2.924,217.176,3.211,217.176z
		 M3.211,220.592c0.16,0,0.313-0.029,0.457-0.088c0.143-0.059,0.271-0.147,0.383-0.265c0.113-0.117,0.201-0.261,0.264-0.432
		c0.064-0.171,0.098-0.368,0.098-0.592c0-0.225-0.033-0.42-0.098-0.588c-0.063-0.168-0.15-0.311-0.264-0.429
		c-0.111-0.117-0.24-0.205-0.383-0.264c-0.145-0.059-0.297-0.088-0.457-0.088s-0.313,0.029-0.455,0.088
		c-0.145,0.059-0.273,0.146-0.385,0.264c-0.111,0.118-0.199,0.261-0.264,0.429s-0.096,0.363-0.096,0.588
		c0,0.224,0.031,0.421,0.096,0.592s0.152,0.314,0.264,0.432s0.24,0.206,0.385,0.265C2.898,220.563,3.051,220.592,3.211,220.592z"/>
	<path fill="#999999" d="M6.932,219.184l-1.385-1.888h0.912l0.945,1.352l0.928-1.352h0.887l-1.367,1.888
		c0.037,0.054,0.094,0.131,0.168,0.232c0.074,0.101,0.158,0.216,0.252,0.344s0.189,0.263,0.287,0.403
		c0.1,0.142,0.195,0.276,0.289,0.404s0.178,0.243,0.252,0.344c0.074,0.102,0.131,0.179,0.168,0.232H8.363l-0.992-1.416l-0.977,1.416
		H5.5L6.932,219.184z"/>
	<path fill="#999999" d="M16.348,221.144l-0.072-0.8c-0.064,0.111-0.15,0.223-0.256,0.332c-0.107,0.109-0.236,0.208-0.389,0.296
		s-0.324,0.158-0.52,0.212c-0.195,0.053-0.412,0.08-0.652,0.08c-0.357,0-0.701-0.064-1.031-0.192
		c-0.332-0.128-0.625-0.317-0.881-0.567c-0.256-0.251-0.459-0.561-0.611-0.929c-0.152-0.367-0.229-0.792-0.229-1.271
		c0-0.48,0.08-0.904,0.24-1.272s0.371-0.676,0.637-0.924c0.264-0.248,0.563-0.436,0.898-0.563s0.682-0.192,1.033-0.192
		c0.309,0,0.598,0.041,0.867,0.124s0.512,0.198,0.729,0.348s0.402,0.33,0.561,0.54c0.156,0.211,0.275,0.444,0.355,0.7l-0.713,0.304
		c-0.127-0.41-0.35-0.729-0.664-0.956c-0.314-0.227-0.693-0.34-1.135-0.34c-0.256,0-0.504,0.046-0.744,0.137
		c-0.24,0.09-0.453,0.229-0.641,0.416c-0.186,0.187-0.338,0.42-0.451,0.699c-0.115,0.28-0.172,0.607-0.172,0.98
		c0,0.379,0.055,0.708,0.164,0.988c0.109,0.279,0.256,0.513,0.439,0.699c0.184,0.188,0.395,0.327,0.633,0.42
		c0.236,0.094,0.482,0.141,0.738,0.141c0.314,0,0.582-0.05,0.801-0.148s0.396-0.223,0.535-0.372s0.24-0.311,0.305-0.483
		c0.064-0.174,0.102-0.332,0.111-0.477h-1.967v-0.704h2.711v2.776H16.348z"/>
	<path fill="#999999" d="M20.604,220.68c-0.107,0.202-0.268,0.351-0.48,0.444c-0.213,0.093-0.432,0.14-0.656,0.14
		c-0.223,0-0.426-0.04-0.604-0.12c-0.18-0.08-0.33-0.189-0.451-0.328c-0.123-0.139-0.219-0.301-0.285-0.488
		c-0.066-0.187-0.1-0.389-0.1-0.607v-2.424h0.752v2.312c0,0.134,0.016,0.26,0.049,0.38c0.031,0.12,0.082,0.226,0.15,0.316
		c0.07,0.091,0.16,0.162,0.27,0.216s0.244,0.08,0.402,0.08c0.305,0,0.533-0.091,0.686-0.272c0.15-0.181,0.227-0.418,0.227-0.712
		v-2.319h0.752v3.136c0,0.154,0.004,0.295,0.014,0.42c0.008,0.125,0.016,0.223,0.027,0.292h-0.721
		c-0.01-0.043-0.018-0.11-0.023-0.204C20.605,220.847,20.604,220.76,20.604,220.68z"/>
	<path fill="#999999" d="M22.732,222.752l0.959-2.032l-1.656-3.424H22.9l1.199,2.655l1.152-2.655h0.807l-2.504,5.456H22.732z"/>
	<path fill="#999999" d="M25.818,220.632c0-0.145,0.055-0.27,0.164-0.376s0.25-0.16,0.42-0.16c0.172,0,0.322,0.063,0.453,0.188
		c0.131,0.126,0.195,0.316,0.195,0.572c0,0.267-0.039,0.495-0.115,0.685c-0.078,0.188-0.176,0.345-0.293,0.468
		c-0.117,0.122-0.244,0.217-0.383,0.284c-0.139,0.066-0.27,0.107-0.393,0.124V222c0.096-0.021,0.186-0.061,0.268-0.116
		c0.084-0.057,0.152-0.124,0.209-0.204c0.055-0.08,0.102-0.167,0.135-0.26c0.035-0.094,0.053-0.188,0.053-0.284
		c-0.01,0.011-0.031,0.02-0.064,0.027c-0.031,0.009-0.068,0.013-0.111,0.013c-0.15,0-0.275-0.048-0.381-0.145
		C25.871,220.936,25.818,220.803,25.818,220.632z"/>
	<path fill="#999999" d="M33.645,219.56h-2.514l-0.6,1.584h-0.84l2.256-5.672h0.904l2.256,5.672H34.26L33.645,219.56z
		 M31.412,218.832h1.951l-0.984-2.545L31.412,218.832z"/>
	<path fill="#999999" d="M36.148,219.903c0.025,0.203,0.113,0.374,0.264,0.513c0.148,0.139,0.359,0.208,0.633,0.208
		c0.213,0,0.375-0.051,0.486-0.152c0.113-0.102,0.168-0.222,0.168-0.36c0-0.122-0.041-0.227-0.127-0.312
		c-0.086-0.086-0.209-0.146-0.369-0.185l-0.654-0.144c-0.305-0.064-0.541-0.192-0.709-0.384c-0.168-0.192-0.252-0.425-0.252-0.696
		c0-0.165,0.035-0.321,0.107-0.468s0.17-0.276,0.293-0.389c0.123-0.111,0.268-0.199,0.436-0.264
		c0.168-0.063,0.346-0.096,0.531-0.096c0.262,0,0.482,0.037,0.66,0.111c0.18,0.075,0.324,0.167,0.438,0.276
		c0.111,0.109,0.195,0.223,0.252,0.34c0.055,0.117,0.094,0.219,0.115,0.305l-0.664,0.247c-0.01-0.048-0.029-0.108-0.057-0.184
		c-0.025-0.074-0.068-0.146-0.127-0.212s-0.139-0.124-0.24-0.172s-0.227-0.072-0.377-0.072c-0.191,0-0.346,0.052-0.463,0.156
		c-0.117,0.104-0.176,0.223-0.176,0.355c0,0.246,0.146,0.4,0.439,0.465l0.625,0.136c0.352,0.074,0.617,0.212,0.795,0.412
		c0.18,0.2,0.268,0.443,0.268,0.731c0,0.139-0.029,0.277-0.088,0.416s-0.145,0.267-0.26,0.384c-0.115,0.118-0.26,0.213-0.436,0.284
		c-0.176,0.072-0.385,0.108-0.625,0.108c-0.266,0-0.494-0.037-0.684-0.112c-0.189-0.074-0.346-0.168-0.471-0.28
		c-0.127-0.111-0.223-0.232-0.289-0.363s-0.107-0.252-0.123-0.364L36.148,219.903z"/>
	<path fill="#999999" d="M40.451,217.296h0.832v0.68h-0.832v2c0,0.176,0.041,0.308,0.119,0.396c0.08,0.089,0.219,0.133,0.416,0.133
		c0.049,0,0.102-0.003,0.16-0.009c0.059-0.005,0.105-0.013,0.137-0.023v0.64c-0.031,0.011-0.094,0.025-0.184,0.044
		c-0.092,0.019-0.201,0.028-0.328,0.028c-0.33,0-0.592-0.095-0.785-0.284c-0.191-0.189-0.287-0.46-0.287-0.812v-2.112h-0.736v-0.68
		h0.209c0.207,0,0.357-0.057,0.451-0.168c0.094-0.112,0.141-0.254,0.141-0.425v-0.624h0.688V217.296z"/>
	<path fill="#999999" d="M44.34,218.056c-0.111-0.016-0.221-0.024-0.328-0.024c-0.314,0-0.568,0.093-0.764,0.276
		s-0.293,0.486-0.293,0.908v1.928h-0.752v-3.848h0.736v0.672c0.07-0.149,0.15-0.271,0.244-0.364
		c0.094-0.093,0.191-0.168,0.293-0.224c0.102-0.057,0.205-0.095,0.311-0.116c0.107-0.021,0.209-0.032,0.305-0.032
		c0.053,0,0.104,0.003,0.148,0.008c0.045,0.006,0.078,0.011,0.1,0.017V218.056z"/>
	<path fill="#999999" d="M46.748,217.176c0.287,0,0.551,0.052,0.791,0.156c0.24,0.104,0.449,0.246,0.625,0.428
		s0.311,0.396,0.408,0.644c0.096,0.248,0.143,0.519,0.143,0.813c0,0.293-0.047,0.565-0.143,0.815
		c-0.098,0.251-0.232,0.467-0.408,0.648s-0.385,0.324-0.625,0.428c-0.24,0.104-0.504,0.156-0.791,0.156
		c-0.289,0-0.553-0.052-0.793-0.156c-0.24-0.104-0.447-0.246-0.623-0.428s-0.313-0.397-0.408-0.648
		c-0.096-0.25-0.145-0.522-0.145-0.815c0-0.294,0.049-0.564,0.145-0.813s0.232-0.462,0.408-0.644s0.383-0.324,0.623-0.428
		C46.195,217.228,46.459,217.176,46.748,217.176z M46.748,220.592c0.16,0,0.311-0.029,0.455-0.088s0.271-0.147,0.385-0.265
		c0.111-0.117,0.199-0.261,0.264-0.432s0.096-0.368,0.096-0.592c0-0.225-0.031-0.42-0.096-0.588s-0.152-0.311-0.264-0.429
		c-0.113-0.117-0.24-0.205-0.385-0.264s-0.295-0.088-0.455-0.088s-0.313,0.029-0.457,0.088c-0.143,0.059-0.271,0.146-0.383,0.264
		c-0.113,0.118-0.201,0.261-0.266,0.429c-0.063,0.168-0.096,0.363-0.096,0.588c0,0.224,0.033,0.421,0.096,0.592
		c0.064,0.171,0.152,0.314,0.266,0.432c0.111,0.117,0.24,0.206,0.383,0.265C46.436,220.563,46.588,220.592,46.748,220.592z"/>
	<path fill="#999999" d="M50.428,221.144h-0.752v-3.848h0.736v0.552c0.139-0.24,0.314-0.411,0.527-0.512
		c0.213-0.102,0.432-0.152,0.656-0.152c0.229,0,0.43,0.039,0.604,0.116s0.318,0.184,0.432,0.319
		c0.115,0.137,0.201,0.298,0.256,0.484c0.057,0.187,0.084,0.387,0.084,0.6v2.44h-0.752v-2.312c0-0.134-0.014-0.259-0.043-0.377
		c-0.029-0.117-0.08-0.22-0.152-0.308s-0.166-0.157-0.279-0.208c-0.115-0.051-0.256-0.076-0.42-0.076
		c-0.15,0-0.281,0.028-0.393,0.084c-0.111,0.057-0.205,0.132-0.279,0.229c-0.076,0.096-0.131,0.208-0.168,0.336
		c-0.039,0.128-0.057,0.264-0.057,0.408V221.144z"/>
	<path fill="#999999" d="M53.932,220.111c0-0.17,0.029-0.324,0.088-0.46s0.141-0.252,0.244-0.348s0.229-0.174,0.371-0.232
		c0.145-0.059,0.299-0.101,0.465-0.128l1.041-0.151c0.117-0.017,0.195-0.051,0.234-0.104c0.041-0.053,0.061-0.114,0.061-0.184
		c0-0.187-0.064-0.349-0.195-0.484s-0.344-0.204-0.637-0.204c-0.266,0-0.473,0.073-0.615,0.22c-0.145,0.147-0.23,0.332-0.256,0.557
		l-0.721-0.168c0.021-0.182,0.076-0.35,0.164-0.504c0.088-0.155,0.201-0.287,0.34-0.396s0.301-0.194,0.484-0.256
		s0.379-0.092,0.588-0.092c0.287,0,0.533,0.038,0.736,0.116c0.201,0.077,0.367,0.18,0.496,0.308
		c0.127,0.128,0.221,0.277,0.279,0.448s0.088,0.349,0.088,0.536v1.928c0,0.171,0.006,0.307,0.016,0.408
		c0.012,0.101,0.021,0.176,0.033,0.224H56.5c-0.012-0.048-0.02-0.112-0.027-0.192c-0.01-0.08-0.014-0.188-0.014-0.327
		c-0.043,0.069-0.098,0.141-0.168,0.216c-0.068,0.074-0.154,0.144-0.256,0.208c-0.102,0.063-0.219,0.115-0.355,0.155
		s-0.289,0.061-0.459,0.061c-0.199,0-0.375-0.032-0.533-0.096c-0.156-0.064-0.291-0.148-0.404-0.252
		c-0.111-0.104-0.197-0.226-0.26-0.364C53.963,220.413,53.932,220.267,53.932,220.111z M55.324,220.632
		c0.154,0,0.299-0.021,0.436-0.061s0.254-0.104,0.352-0.191c0.1-0.088,0.178-0.206,0.236-0.353s0.088-0.324,0.088-0.532v-0.176
		l-1.176,0.176c-0.16,0.027-0.293,0.087-0.4,0.181c-0.105,0.093-0.16,0.226-0.16,0.396c0,0.145,0.057,0.273,0.168,0.389
		C54.98,220.574,55.131,220.632,55.324,220.632z"/>
	<path fill="#999999" d="M60.811,220.68c-0.105,0.202-0.266,0.351-0.479,0.444c-0.215,0.093-0.434,0.14-0.656,0.14
		c-0.225,0-0.426-0.04-0.605-0.12c-0.178-0.08-0.328-0.189-0.451-0.328s-0.217-0.301-0.283-0.488
		c-0.068-0.187-0.102-0.389-0.102-0.607v-2.424h0.752v2.312c0,0.134,0.018,0.26,0.049,0.38s0.082,0.226,0.152,0.316
		c0.068,0.091,0.158,0.162,0.268,0.216s0.244,0.08,0.404,0.08c0.305,0,0.531-0.091,0.684-0.272c0.152-0.181,0.229-0.418,0.229-0.712
		v-2.319h0.752v3.136c0,0.154,0.004,0.295,0.012,0.42s0.018,0.223,0.027,0.292h-0.719c-0.012-0.043-0.02-0.11-0.025-0.204
		C60.814,220.847,60.811,220.76,60.811,220.68z"/>
	<path fill="#999999" d="M63.812,217.296h0.832v0.68h-0.832v2c0,0.176,0.039,0.308,0.119,0.396c0.08,0.089,0.219,0.133,0.416,0.133
		c0.049,0,0.102-0.003,0.16-0.009c0.059-0.005,0.104-0.013,0.137-0.023v0.64c-0.033,0.011-0.094,0.025-0.186,0.044
		c-0.09,0.019-0.199,0.028-0.328,0.028c-0.33,0-0.592-0.095-0.783-0.284s-0.287-0.46-0.287-0.812v-2.112h-0.736v-0.68h0.207
		c0.209,0,0.359-0.057,0.453-0.168c0.092-0.112,0.139-0.254,0.139-0.425v-0.624h0.689V217.296z"/>
	<path fill="#999999" d="M65.562,220.632c0-0.145,0.055-0.27,0.164-0.376s0.25-0.16,0.42-0.16c0.172,0,0.322,0.063,0.453,0.188
		c0.131,0.126,0.195,0.316,0.195,0.572c0,0.267-0.039,0.495-0.115,0.685c-0.078,0.188-0.176,0.345-0.293,0.468
		c-0.117,0.122-0.244,0.217-0.383,0.284c-0.139,0.066-0.27,0.107-0.393,0.124V222c0.096-0.021,0.186-0.061,0.268-0.116
		c0.084-0.057,0.152-0.124,0.209-0.204c0.055-0.08,0.102-0.167,0.135-0.26c0.035-0.094,0.053-0.188,0.053-0.284
		c-0.01,0.011-0.031,0.02-0.064,0.027c-0.031,0.009-0.068,0.013-0.111,0.013c-0.15,0-0.275-0.048-0.381-0.145
		C65.615,220.936,65.562,220.803,65.562,220.632z"/>
	<path fill="#999999" d="M75.428,221.144v-4.416l-1.938,4.416h-0.719l-1.92-4.416v4.416h-0.777v-5.672h1.064l2,4.616l2.016-4.616
		h1.049v5.672H75.428z"/>
	<path fill="#999999" d="M77.283,220.111c0-0.17,0.029-0.324,0.088-0.46c0.059-0.136,0.141-0.252,0.244-0.348
		s0.229-0.174,0.371-0.232c0.145-0.059,0.299-0.101,0.465-0.128l1.041-0.151c0.117-0.017,0.195-0.051,0.234-0.104
		c0.041-0.053,0.061-0.114,0.061-0.184c0-0.187-0.064-0.349-0.195-0.484s-0.344-0.204-0.637-0.204c-0.266,0-0.473,0.073-0.615,0.22
		c-0.145,0.147-0.23,0.332-0.256,0.557l-0.721-0.168c0.021-0.182,0.076-0.35,0.164-0.504c0.088-0.155,0.201-0.287,0.34-0.396
		s0.301-0.194,0.484-0.256s0.379-0.092,0.588-0.092c0.287,0,0.533,0.038,0.736,0.116c0.201,0.077,0.367,0.18,0.496,0.308
		c0.127,0.128,0.221,0.277,0.279,0.448s0.088,0.349,0.088,0.536v1.928c0,0.171,0.006,0.307,0.016,0.408
		c0.012,0.101,0.021,0.176,0.033,0.224h-0.736c-0.012-0.048-0.02-0.112-0.027-0.192c-0.01-0.08-0.014-0.188-0.014-0.327
		c-0.043,0.069-0.098,0.141-0.168,0.216c-0.068,0.074-0.154,0.144-0.256,0.208c-0.102,0.063-0.219,0.115-0.355,0.155
		s-0.289,0.061-0.459,0.061c-0.199,0-0.375-0.032-0.533-0.096c-0.156-0.064-0.291-0.148-0.404-0.252
		c-0.111-0.104-0.197-0.226-0.26-0.364C77.314,220.413,77.283,220.267,77.283,220.111z M78.676,220.632
		c0.154,0,0.299-0.021,0.436-0.061s0.254-0.104,0.352-0.191c0.1-0.088,0.178-0.206,0.236-0.353s0.088-0.324,0.088-0.532v-0.176
		l-1.176,0.176c-0.16,0.027-0.293,0.087-0.4,0.181c-0.105,0.093-0.16,0.226-0.16,0.396c0,0.145,0.057,0.273,0.168,0.389
		C78.332,220.574,78.482,220.632,78.676,220.632z"/>
	<path fill="#999999" d="M81.707,221.144v-5.792h0.752v5.792H81.707z"/>
	<path fill="#999999" d="M87.092,220.048c-0.055,0.171-0.133,0.329-0.236,0.476s-0.23,0.274-0.377,0.384s-0.313,0.196-0.5,0.261
		c-0.186,0.063-0.391,0.096-0.615,0.096c-0.256,0-0.502-0.046-0.736-0.136c-0.234-0.091-0.441-0.225-0.619-0.4
		c-0.18-0.176-0.32-0.392-0.424-0.648c-0.105-0.256-0.156-0.546-0.156-0.871c0-0.305,0.051-0.58,0.152-0.828
		c0.1-0.248,0.234-0.462,0.402-0.641s0.365-0.317,0.588-0.416c0.225-0.099,0.457-0.147,0.697-0.147c0.293,0,0.555,0.049,0.787,0.147
		s0.426,0.236,0.58,0.412s0.273,0.389,0.355,0.636c0.084,0.248,0.125,0.521,0.125,0.82c0,0.048-0.002,0.094-0.004,0.136
		c-0.004,0.043-0.008,0.078-0.012,0.104h-2.896c0.006,0.171,0.037,0.328,0.096,0.472c0.059,0.145,0.141,0.269,0.244,0.372
		c0.104,0.104,0.227,0.185,0.367,0.24c0.143,0.056,0.293,0.084,0.453,0.084c0.314,0,0.555-0.074,0.721-0.224
		c0.164-0.149,0.285-0.334,0.359-0.553L87.092,220.048z M86.332,218.823c-0.012-0.277-0.105-0.511-0.281-0.699
		c-0.176-0.189-0.434-0.284-0.775-0.284c-0.16,0-0.303,0.027-0.428,0.084c-0.125,0.056-0.232,0.131-0.32,0.224
		c-0.088,0.094-0.158,0.199-0.213,0.316c-0.053,0.117-0.082,0.237-0.088,0.359H86.332z"/>
	<path fill="#999999" d="M87.875,220.632c0-0.145,0.055-0.27,0.164-0.376s0.25-0.16,0.42-0.16s0.32,0.063,0.451,0.188
		c0.131,0.126,0.197,0.316,0.197,0.572c0,0.267-0.039,0.495-0.117,0.685c-0.076,0.188-0.174,0.345-0.291,0.468
		c-0.117,0.122-0.246,0.217-0.385,0.284c-0.139,0.066-0.27,0.107-0.391,0.124V222c0.096-0.021,0.184-0.061,0.268-0.116
		c0.082-0.057,0.152-0.124,0.207-0.204c0.057-0.08,0.102-0.167,0.137-0.26c0.035-0.094,0.053-0.188,0.053-0.284
		c-0.012,0.011-0.033,0.02-0.064,0.027c-0.033,0.009-0.07,0.013-0.113,0.013c-0.148,0-0.275-0.048-0.379-0.145
		C87.928,220.936,87.875,220.803,87.875,220.632z"/>
	<path fill="#999999" d="M92.387,221.144v-5.672h3.449v0.728h-2.664v1.824h2.416v0.736h-2.416v2.384H92.387z"/>
	<path fill="#999999" d="M99.787,220.048c-0.053,0.171-0.131,0.329-0.236,0.476c-0.104,0.146-0.229,0.274-0.375,0.384
		s-0.314,0.196-0.5,0.261c-0.188,0.063-0.393,0.096-0.617,0.096c-0.256,0-0.5-0.046-0.734-0.136c-0.236-0.091-0.441-0.225-0.621-0.4
		c-0.178-0.176-0.32-0.392-0.424-0.648c-0.104-0.256-0.156-0.546-0.156-0.871c0-0.305,0.051-0.58,0.152-0.828
		s0.236-0.462,0.404-0.641s0.363-0.317,0.588-0.416s0.455-0.147,0.695-0.147c0.293,0,0.557,0.049,0.789,0.147
		s0.424,0.236,0.58,0.412c0.154,0.176,0.273,0.389,0.355,0.636c0.082,0.248,0.123,0.521,0.123,0.82c0,0.048,0,0.094-0.004,0.136
		c-0.002,0.043-0.006,0.078-0.012,0.104h-2.896c0.006,0.171,0.039,0.328,0.098,0.472c0.059,0.145,0.139,0.269,0.244,0.372
		c0.104,0.104,0.227,0.185,0.367,0.24s0.291,0.084,0.451,0.084c0.316,0,0.555-0.074,0.721-0.224s0.285-0.334,0.359-0.553
		L99.787,220.048z M99.027,218.823c-0.01-0.277-0.104-0.511-0.279-0.699c-0.176-0.189-0.436-0.284-0.777-0.284
		c-0.16,0-0.303,0.027-0.428,0.084c-0.125,0.056-0.232,0.131-0.32,0.224c-0.088,0.094-0.158,0.199-0.211,0.316
		s-0.084,0.237-0.088,0.359H99.027z"/>
	<path fill="#999999" d="M100.771,221.144v-3.848h0.721v0.512c0.121-0.213,0.291-0.371,0.508-0.472
		c0.215-0.102,0.436-0.152,0.66-0.152c0.238,0,0.465,0.059,0.676,0.176s0.369,0.302,0.475,0.552
		c0.156-0.276,0.348-0.468,0.576-0.571c0.23-0.104,0.467-0.156,0.713-0.156c0.164,0,0.328,0.029,0.488,0.088
		s0.303,0.148,0.428,0.269c0.125,0.119,0.225,0.271,0.299,0.455c0.076,0.185,0.113,0.401,0.113,0.652v2.496h-0.744v-2.416
		c0-0.251-0.066-0.46-0.195-0.628c-0.131-0.168-0.338-0.252-0.621-0.252c-0.266,0-0.48,0.092-0.645,0.276
		c-0.162,0.184-0.244,0.414-0.244,0.691v2.328h-0.752v-2.416c0-0.251-0.063-0.46-0.191-0.628c-0.127-0.168-0.336-0.252-0.623-0.252
		c-0.273,0-0.49,0.091-0.652,0.271c-0.164,0.182-0.244,0.416-0.244,0.704v2.32H100.771z"/>
	<path fill="#999999" d="M107.387,220.111c0-0.17,0.029-0.324,0.088-0.46s0.141-0.252,0.244-0.348s0.229-0.174,0.371-0.232
		c0.145-0.059,0.299-0.101,0.465-0.128l1.041-0.151c0.117-0.017,0.195-0.051,0.234-0.104c0.041-0.053,0.061-0.114,0.061-0.184
		c0-0.187-0.064-0.349-0.195-0.484s-0.344-0.204-0.637-0.204c-0.266,0-0.473,0.073-0.615,0.22c-0.145,0.147-0.23,0.332-0.256,0.557
		l-0.721-0.168c0.021-0.182,0.076-0.35,0.164-0.504c0.088-0.155,0.201-0.287,0.34-0.396s0.301-0.194,0.484-0.256
		s0.379-0.092,0.588-0.092c0.287,0,0.533,0.038,0.736,0.116c0.201,0.077,0.367,0.18,0.496,0.308
		c0.127,0.128,0.221,0.277,0.279,0.448s0.088,0.349,0.088,0.536v1.928c0,0.171,0.006,0.307,0.016,0.408
		c0.012,0.101,0.021,0.176,0.033,0.224h-0.736c-0.012-0.048-0.02-0.112-0.027-0.192c-0.01-0.08-0.014-0.188-0.014-0.327
		c-0.043,0.069-0.098,0.141-0.168,0.216c-0.068,0.074-0.154,0.144-0.256,0.208c-0.102,0.063-0.219,0.115-0.355,0.155
		s-0.289,0.061-0.459,0.061c-0.199,0-0.375-0.032-0.533-0.096c-0.156-0.064-0.291-0.148-0.404-0.252
		c-0.111-0.104-0.197-0.226-0.26-0.364C107.418,220.413,107.387,220.267,107.387,220.111z M108.779,220.632
		c0.154,0,0.299-0.021,0.436-0.061s0.254-0.104,0.352-0.191c0.1-0.088,0.178-0.206,0.236-0.353s0.088-0.324,0.088-0.532v-0.176
		l-1.176,0.176c-0.16,0.027-0.293,0.087-0.4,0.181c-0.105,0.093-0.16,0.226-0.16,0.396c0,0.145,0.057,0.273,0.168,0.389
		C108.436,220.574,108.586,220.632,108.779,220.632z"/>
	<path fill="#999999" d="M111.811,221.144v-5.792h0.752v5.792H111.811z"/>
	<path fill="#999999" d="M117.195,220.048c-0.055,0.171-0.133,0.329-0.236,0.476c-0.104,0.146-0.23,0.274-0.377,0.384
		s-0.313,0.196-0.5,0.261c-0.186,0.063-0.391,0.096-0.615,0.096c-0.256,0-0.502-0.046-0.736-0.136
		c-0.234-0.091-0.441-0.225-0.619-0.4c-0.18-0.176-0.32-0.392-0.424-0.648c-0.105-0.256-0.156-0.546-0.156-0.871
		c0-0.305,0.051-0.58,0.152-0.828c0.1-0.248,0.234-0.462,0.402-0.641s0.365-0.317,0.588-0.416c0.225-0.099,0.457-0.147,0.697-0.147
		c0.293,0,0.555,0.049,0.787,0.147s0.426,0.236,0.58,0.412s0.273,0.389,0.355,0.636c0.084,0.248,0.125,0.521,0.125,0.82
		c0,0.048-0.002,0.094-0.004,0.136c-0.004,0.043-0.008,0.078-0.012,0.104h-2.896c0.006,0.171,0.037,0.328,0.096,0.472
		c0.059,0.145,0.141,0.269,0.244,0.372c0.104,0.104,0.227,0.185,0.367,0.24c0.143,0.056,0.293,0.084,0.453,0.084
		c0.314,0,0.555-0.074,0.721-0.224c0.164-0.149,0.285-0.334,0.359-0.553L117.195,220.048z M116.436,218.823
		c-0.012-0.277-0.105-0.511-0.281-0.699c-0.176-0.189-0.434-0.284-0.775-0.284c-0.16,0-0.303,0.027-0.428,0.084
		c-0.125,0.056-0.232,0.131-0.32,0.224c-0.088,0.094-0.158,0.199-0.213,0.316c-0.053,0.117-0.082,0.237-0.088,0.359H116.436z"/>
	<path fill="#999999" d="M35.588,225.472c0.271,0,0.512,0.039,0.723,0.116s0.391,0.184,0.537,0.319
		c0.146,0.137,0.258,0.298,0.336,0.484c0.076,0.187,0.115,0.392,0.115,0.616c0,0.304-0.078,0.562-0.236,0.771
		c-0.156,0.211-0.361,0.361-0.611,0.452c0.16,0.043,0.305,0.108,0.432,0.196c0.129,0.088,0.236,0.191,0.324,0.312
		s0.154,0.254,0.199,0.4c0.047,0.146,0.068,0.3,0.068,0.46c0,0.224-0.043,0.431-0.127,0.62c-0.086,0.189-0.205,0.352-0.361,0.488
		c-0.154,0.136-0.338,0.242-0.551,0.319c-0.215,0.077-0.451,0.116-0.713,0.116h-1.984v-5.672H35.588z M35.5,227.951
		c0.318,0,0.566-0.084,0.742-0.252c0.178-0.168,0.266-0.385,0.266-0.651c0-0.272-0.092-0.488-0.277-0.648
		c-0.184-0.16-0.438-0.24-0.764-0.24h-0.943v1.792H35.5z M35.611,230.455c0.32,0,0.576-0.081,0.771-0.243
		c0.195-0.163,0.293-0.383,0.293-0.66c0-0.272-0.086-0.495-0.256-0.668c-0.172-0.174-0.43-0.26-0.777-0.26h-1.119v1.831H35.611z"/>
	<path fill="#999999" d="M41.867,230.048c-0.055,0.171-0.133,0.329-0.236,0.476s-0.23,0.274-0.377,0.384s-0.313,0.196-0.5,0.261
		c-0.186,0.063-0.391,0.096-0.615,0.096c-0.256,0-0.502-0.046-0.736-0.136c-0.234-0.091-0.441-0.225-0.619-0.4
		c-0.18-0.176-0.32-0.392-0.424-0.648c-0.105-0.256-0.156-0.546-0.156-0.871c0-0.305,0.051-0.58,0.152-0.828
		c0.1-0.248,0.234-0.462,0.402-0.641s0.365-0.317,0.588-0.416c0.225-0.099,0.457-0.147,0.697-0.147c0.293,0,0.555,0.049,0.787,0.147
		c0.232,0.099,0.426,0.236,0.58,0.412s0.273,0.389,0.355,0.636c0.084,0.248,0.125,0.521,0.125,0.82c0,0.048-0.002,0.094-0.004,0.136
		c-0.004,0.043-0.008,0.078-0.012,0.104h-2.896c0.006,0.171,0.037,0.328,0.096,0.472c0.059,0.145,0.141,0.269,0.244,0.372
		c0.104,0.104,0.227,0.185,0.367,0.24c0.143,0.056,0.293,0.084,0.453,0.084c0.314,0,0.555-0.074,0.721-0.224
		c0.164-0.149,0.285-0.334,0.359-0.553L41.867,230.048z M41.107,228.823c-0.012-0.277-0.105-0.511-0.281-0.699
		c-0.176-0.189-0.434-0.284-0.775-0.284c-0.16,0-0.303,0.027-0.428,0.084c-0.125,0.056-0.232,0.131-0.32,0.224
		c-0.088,0.094-0.158,0.199-0.213,0.316c-0.053,0.117-0.082,0.237-0.088,0.359H41.107z"/>
	<path fill="#999999" d="M42.611,230.111c0-0.17,0.029-0.324,0.088-0.46s0.139-0.252,0.244-0.348
		c0.104-0.096,0.227-0.174,0.371-0.232s0.299-0.101,0.465-0.128l1.039-0.151c0.117-0.017,0.195-0.051,0.236-0.104
		c0.039-0.053,0.061-0.114,0.061-0.184c0-0.187-0.066-0.349-0.197-0.484s-0.342-0.204-0.635-0.204c-0.268,0-0.473,0.073-0.617,0.22
		c-0.145,0.147-0.229,0.332-0.256,0.557l-0.719-0.168c0.02-0.182,0.074-0.35,0.162-0.504c0.09-0.155,0.203-0.287,0.342-0.396
		s0.299-0.194,0.482-0.256c0.186-0.062,0.381-0.092,0.588-0.092c0.289,0,0.533,0.038,0.736,0.116
		c0.203,0.077,0.369,0.18,0.496,0.308c0.129,0.128,0.221,0.277,0.281,0.448c0.059,0.171,0.088,0.349,0.088,0.536v1.928
		c0,0.171,0.004,0.307,0.016,0.408c0.01,0.101,0.021,0.176,0.031,0.224h-0.736c-0.01-0.048-0.02-0.112-0.027-0.192
		s-0.012-0.188-0.012-0.327c-0.043,0.069-0.1,0.141-0.168,0.216c-0.07,0.074-0.154,0.144-0.256,0.208
		c-0.102,0.063-0.221,0.115-0.355,0.155c-0.137,0.04-0.291,0.061-0.461,0.061c-0.197,0-0.375-0.032-0.531-0.096
		c-0.158-0.064-0.293-0.148-0.404-0.252c-0.113-0.104-0.199-0.226-0.26-0.364C42.641,230.413,42.611,230.267,42.611,230.111z
		 M44.002,230.632c0.154,0,0.301-0.021,0.436-0.061c0.137-0.04,0.254-0.104,0.354-0.191c0.098-0.088,0.176-0.206,0.236-0.353
		c0.059-0.146,0.088-0.324,0.088-0.532v-0.176l-1.178,0.176c-0.158,0.027-0.293,0.087-0.398,0.181
		c-0.107,0.093-0.16,0.226-0.16,0.396c0,0.145,0.055,0.273,0.168,0.389C43.658,230.574,43.811,230.632,44.002,230.632z"/>
	<path fill="#999999" d="M49.172,228.056c-0.113-0.016-0.223-0.024-0.328-0.024c-0.316,0-0.57,0.093-0.766,0.276
		c-0.193,0.184-0.291,0.486-0.291,0.908v1.928h-0.752v-3.848h0.736v0.672c0.068-0.149,0.15-0.271,0.244-0.364
		c0.092-0.093,0.189-0.168,0.291-0.224c0.102-0.057,0.205-0.095,0.313-0.116s0.207-0.032,0.305-0.032
		c0.053,0,0.102,0.003,0.146,0.008c0.047,0.006,0.08,0.011,0.102,0.017V228.056z"/>
	<path fill="#999999" d="M49.17,230.632c0-0.145,0.055-0.27,0.164-0.376s0.25-0.16,0.42-0.16c0.172,0,0.322,0.063,0.453,0.188
		c0.131,0.126,0.195,0.316,0.195,0.572c0,0.267-0.039,0.495-0.115,0.685c-0.078,0.188-0.176,0.345-0.293,0.468
		c-0.117,0.122-0.244,0.217-0.383,0.284c-0.139,0.066-0.27,0.107-0.393,0.124V232c0.096-0.021,0.186-0.061,0.268-0.116
		c0.084-0.057,0.152-0.124,0.209-0.204c0.055-0.08,0.102-0.167,0.135-0.26c0.035-0.094,0.053-0.188,0.053-0.284
		c-0.01,0.011-0.031,0.02-0.064,0.027c-0.031,0.009-0.068,0.013-0.111,0.013c-0.15,0-0.275-0.048-0.381-0.145
		C49.223,230.936,49.17,230.803,49.17,230.632z"/>
	<path fill="#999999" d="M53.682,231.144v-5.672h1.984c0.357,0,0.701,0.062,1.029,0.184c0.326,0.123,0.613,0.305,0.859,0.544
		c0.244,0.24,0.441,0.538,0.588,0.893s0.221,0.764,0.221,1.228s-0.074,0.872-0.221,1.225c-0.146,0.352-0.346,0.646-0.596,0.884
		c-0.252,0.237-0.541,0.416-0.869,0.536s-0.67,0.18-1.027,0.18H53.682z M55.627,230.447c0.26,0,0.508-0.044,0.744-0.132
		c0.234-0.088,0.439-0.22,0.615-0.396c0.176-0.177,0.314-0.397,0.416-0.664s0.152-0.579,0.152-0.937s-0.051-0.67-0.152-0.939
		s-0.238-0.493-0.412-0.672s-0.375-0.313-0.607-0.404s-0.479-0.136-0.74-0.136h-1.176v4.279H55.627z"/>
	<path fill="#999999" d="M61.01,227.176c0.289,0,0.553,0.052,0.793,0.156c0.24,0.104,0.447,0.246,0.623,0.428
		s0.313,0.396,0.408,0.644s0.145,0.519,0.145,0.813c0,0.293-0.049,0.565-0.145,0.815c-0.096,0.251-0.232,0.467-0.408,0.648
		s-0.383,0.324-0.623,0.428c-0.24,0.104-0.504,0.156-0.793,0.156c-0.287,0-0.551-0.052-0.791-0.156
		c-0.24-0.104-0.449-0.246-0.625-0.428s-0.313-0.397-0.408-0.648c-0.096-0.25-0.143-0.522-0.143-0.815
		c0-0.294,0.047-0.564,0.143-0.813s0.232-0.462,0.408-0.644s0.385-0.324,0.625-0.428C60.459,227.228,60.723,227.176,61.01,227.176z
		 M61.01,230.592c0.16,0,0.313-0.029,0.457-0.088c0.143-0.059,0.271-0.147,0.383-0.265c0.113-0.117,0.201-0.261,0.264-0.432
		c0.064-0.171,0.098-0.368,0.098-0.592c0-0.225-0.033-0.42-0.098-0.588c-0.063-0.168-0.15-0.311-0.264-0.429
		c-0.111-0.117-0.24-0.205-0.383-0.264c-0.145-0.059-0.297-0.088-0.457-0.088s-0.313,0.029-0.455,0.088
		c-0.145,0.059-0.273,0.146-0.385,0.264c-0.111,0.118-0.199,0.261-0.264,0.429s-0.096,0.363-0.096,0.588
		c0,0.224,0.031,0.421,0.096,0.592s0.152,0.314,0.264,0.432s0.24,0.206,0.385,0.265C60.697,230.563,60.85,230.592,61.01,230.592z"/>
	<path fill="#999999" d="M64.387,231.184c0.025,0.271,0.135,0.497,0.324,0.676s0.43,0.269,0.723,0.269
		c0.406,0,0.703-0.104,0.893-0.313s0.283-0.52,0.283-0.936v-0.553c-0.09,0.177-0.236,0.326-0.439,0.448
		c-0.203,0.123-0.447,0.185-0.736,0.185c-0.256,0-0.492-0.047-0.707-0.141c-0.217-0.093-0.402-0.221-0.561-0.384
		c-0.156-0.163-0.279-0.358-0.367-0.588s-0.133-0.48-0.133-0.752c0-0.262,0.043-0.506,0.129-0.732
		c0.084-0.227,0.205-0.424,0.359-0.592s0.34-0.301,0.557-0.4c0.215-0.099,0.457-0.147,0.723-0.147c0.299,0,0.547,0.054,0.744,0.16
		s0.344,0.256,0.441,0.448v-0.536h0.744v3.56c0,0.245-0.033,0.484-0.098,0.716c-0.063,0.232-0.172,0.438-0.324,0.616
		c-0.15,0.179-0.35,0.322-0.596,0.432c-0.244,0.109-0.549,0.164-0.912,0.164c-0.238,0-0.463-0.036-0.668-0.107
		c-0.205-0.072-0.387-0.172-0.543-0.3c-0.158-0.129-0.285-0.279-0.385-0.452c-0.098-0.174-0.158-0.364-0.18-0.572L64.387,231.184z
		 M65.547,230.327c0.324,0,0.588-0.111,0.791-0.336c0.203-0.224,0.305-0.522,0.305-0.896s-0.102-0.672-0.305-0.896
		c-0.203-0.224-0.467-0.336-0.791-0.336c-0.336,0-0.605,0.112-0.809,0.336c-0.203,0.225-0.305,0.523-0.305,0.896
		c0,0.379,0.102,0.679,0.301,0.899C64.934,230.217,65.205,230.327,65.547,230.327z"/>
	<path fill="#999999" d="M68.482,230.632c0-0.145,0.055-0.27,0.164-0.376s0.25-0.16,0.42-0.16s0.32,0.063,0.451,0.188
		c0.131,0.126,0.197,0.316,0.197,0.572c0,0.267-0.039,0.495-0.117,0.685c-0.076,0.188-0.174,0.345-0.291,0.468
		c-0.117,0.122-0.246,0.217-0.385,0.284c-0.139,0.066-0.27,0.107-0.391,0.124V232c0.096-0.021,0.184-0.061,0.268-0.116
		c0.082-0.057,0.152-0.124,0.207-0.204c0.057-0.08,0.102-0.167,0.137-0.26c0.035-0.094,0.053-0.188,0.053-0.284
		c-0.012,0.011-0.033,0.02-0.064,0.027c-0.033,0.009-0.07,0.013-0.113,0.013c-0.148,0-0.275-0.048-0.379-0.145
		C68.535,230.936,68.482,230.803,68.482,230.632z"/>
	<path fill="#999999" d="M75.449,231.264c-0.367,0-0.721-0.065-1.059-0.196c-0.34-0.131-0.639-0.321-0.896-0.572
		c-0.26-0.25-0.467-0.56-0.625-0.928c-0.156-0.368-0.234-0.789-0.234-1.264s0.08-0.895,0.238-1.26
		c0.16-0.365,0.373-0.674,0.637-0.925c0.264-0.25,0.564-0.44,0.904-0.571c0.338-0.131,0.684-0.196,1.035-0.196
		c0.326,0,0.625,0.043,0.896,0.128s0.516,0.205,0.729,0.36c0.213,0.154,0.393,0.344,0.539,0.567
		c0.146,0.225,0.258,0.473,0.332,0.744l-0.727,0.256c-0.107-0.432-0.313-0.763-0.613-0.991c-0.301-0.229-0.686-0.345-1.156-0.345
		c-0.256,0-0.504,0.047-0.748,0.141c-0.242,0.093-0.457,0.233-0.646,0.42s-0.34,0.42-0.453,0.7
		c-0.111,0.279-0.168,0.604-0.168,0.972s0.057,0.691,0.168,0.972c0.113,0.28,0.264,0.515,0.453,0.704s0.404,0.331,0.646,0.424
		c0.244,0.094,0.492,0.141,0.748,0.141c0.24,0,0.459-0.035,0.656-0.104s0.373-0.164,0.525-0.284c0.15-0.12,0.279-0.264,0.383-0.432
		s0.186-0.348,0.244-0.54l0.695,0.256c-0.074,0.267-0.186,0.512-0.336,0.736c-0.148,0.224-0.328,0.416-0.539,0.576
		c-0.211,0.159-0.453,0.285-0.729,0.376C76.074,231.218,75.775,231.264,75.449,231.264z"/>
	<path fill="#999999" d="M78.516,230.111c0-0.17,0.029-0.324,0.088-0.46s0.139-0.252,0.244-0.348
		c0.104-0.096,0.227-0.174,0.371-0.232s0.299-0.101,0.465-0.128l1.039-0.151c0.117-0.017,0.195-0.051,0.236-0.104
		c0.039-0.053,0.061-0.114,0.061-0.184c0-0.187-0.066-0.349-0.197-0.484s-0.342-0.204-0.635-0.204c-0.268,0-0.473,0.073-0.617,0.22
		c-0.145,0.147-0.229,0.332-0.256,0.557l-0.719-0.168c0.02-0.182,0.074-0.35,0.162-0.504c0.09-0.155,0.203-0.287,0.342-0.396
		s0.299-0.194,0.482-0.256c0.186-0.062,0.381-0.092,0.588-0.092c0.289,0,0.533,0.038,0.736,0.116
		c0.203,0.077,0.369,0.18,0.496,0.308c0.129,0.128,0.221,0.277,0.281,0.448c0.059,0.171,0.088,0.349,0.088,0.536v1.928
		c0,0.171,0.004,0.307,0.016,0.408c0.01,0.101,0.021,0.176,0.031,0.224h-0.736c-0.01-0.048-0.02-0.112-0.027-0.192
		c-0.008-0.08-0.012-0.188-0.012-0.327c-0.043,0.069-0.1,0.141-0.168,0.216c-0.07,0.074-0.154,0.144-0.256,0.208
		c-0.102,0.063-0.221,0.115-0.355,0.155c-0.137,0.04-0.291,0.061-0.461,0.061c-0.197,0-0.375-0.032-0.531-0.096
		c-0.158-0.064-0.293-0.148-0.404-0.252c-0.113-0.104-0.199-0.226-0.26-0.364C78.545,230.413,78.516,230.267,78.516,230.111z
		 M79.906,230.632c0.154,0,0.301-0.021,0.436-0.061c0.137-0.04,0.254-0.104,0.354-0.191c0.098-0.088,0.176-0.206,0.236-0.353
		c0.059-0.146,0.088-0.324,0.088-0.532v-0.176l-1.178,0.176c-0.158,0.027-0.293,0.087-0.398,0.181
		c-0.107,0.093-0.16,0.226-0.16,0.396c0,0.145,0.055,0.273,0.168,0.389C79.562,230.574,79.715,230.632,79.906,230.632z"/>
	<path fill="#999999" d="M83.947,227.296h0.832v0.68h-0.832v2c0,0.176,0.039,0.308,0.119,0.396c0.08,0.089,0.219,0.133,0.416,0.133
		c0.049,0,0.102-0.003,0.16-0.009c0.059-0.005,0.104-0.013,0.137-0.023v0.64c-0.033,0.011-0.094,0.025-0.186,0.044
		c-0.09,0.019-0.199,0.028-0.328,0.028c-0.33,0-0.592-0.095-0.783-0.284s-0.287-0.46-0.287-0.812v-2.112h-0.736v-0.68h0.207
		c0.209,0,0.359-0.057,0.453-0.168c0.092-0.112,0.139-0.254,0.139-0.425v-0.624h0.689V227.296z"/>
	<path fill="#999999" d="M85.697,230.632c0-0.145,0.055-0.27,0.164-0.376s0.25-0.16,0.42-0.16c0.172,0,0.322,0.063,0.453,0.188
		c0.131,0.126,0.195,0.316,0.195,0.572c0,0.267-0.039,0.495-0.115,0.685c-0.078,0.188-0.176,0.345-0.293,0.468
		c-0.117,0.122-0.244,0.217-0.383,0.284c-0.139,0.066-0.27,0.107-0.393,0.124V232c0.096-0.021,0.186-0.061,0.268-0.116
		c0.084-0.057,0.152-0.124,0.209-0.204c0.055-0.08,0.102-0.167,0.135-0.26c0.035-0.094,0.053-0.188,0.053-0.284
		c-0.01,0.011-0.031,0.02-0.064,0.027c-0.031,0.009-0.068,0.013-0.111,0.013c-0.15,0-0.275-0.048-0.381-0.145
		C85.75,230.936,85.697,230.803,85.697,230.632z"/>
	<path fill="#999999" d="M92.17,231.264c-0.289,0-0.557-0.044-0.805-0.132s-0.463-0.219-0.648-0.393
		c-0.184-0.173-0.326-0.388-0.432-0.644c-0.104-0.256-0.156-0.552-0.156-0.888v-3.736h0.777v3.712c0,0.432,0.109,0.766,0.332,1
		c0.221,0.234,0.531,0.352,0.932,0.352s0.709-0.117,0.928-0.352s0.328-0.568,0.328-1v-3.712h0.783v3.736
		c0,0.336-0.051,0.632-0.154,0.888c-0.105,0.256-0.248,0.471-0.434,0.644c-0.184,0.174-0.398,0.305-0.646,0.393
		S92.457,231.264,92.17,231.264z"/>
	<path fill="#999999" d="M96.201,231.144h-0.752v-3.848h0.736v0.552c0.139-0.24,0.314-0.411,0.529-0.512
		c0.213-0.102,0.432-0.152,0.654-0.152c0.23,0,0.432,0.039,0.605,0.116c0.172,0.077,0.316,0.184,0.432,0.319
		c0.115,0.137,0.199,0.298,0.256,0.484s0.084,0.387,0.084,0.6v2.44h-0.752v-2.312c0-0.134-0.016-0.259-0.045-0.377
		c-0.029-0.117-0.08-0.22-0.15-0.308c-0.072-0.088-0.166-0.157-0.281-0.208s-0.254-0.076-0.42-0.076
		c-0.148,0-0.279,0.028-0.391,0.084c-0.113,0.057-0.207,0.132-0.281,0.229c-0.074,0.096-0.131,0.208-0.168,0.336
		s-0.057,0.264-0.057,0.408V231.144z"/>
	<path fill="#999999" d="M99.777,225.84c0-0.155,0.053-0.284,0.156-0.389c0.105-0.104,0.23-0.155,0.381-0.155
		c0.154,0,0.283,0.052,0.389,0.155c0.104,0.104,0.154,0.233,0.154,0.389c0,0.149-0.051,0.275-0.154,0.38
		c-0.105,0.104-0.234,0.156-0.389,0.156c-0.15,0-0.275-0.053-0.381-0.156C99.83,226.115,99.777,225.989,99.777,225.84z
		 M99.945,231.144v-3.848h0.744v3.848H99.945z"/>
	<path fill="#999999" d="M103.586,227.871c-0.154,0-0.301,0.028-0.439,0.084c-0.139,0.057-0.262,0.141-0.371,0.253
		c-0.109,0.111-0.197,0.252-0.262,0.42c-0.063,0.168-0.096,0.363-0.096,0.588c0,0.219,0.033,0.412,0.096,0.58
		c0.064,0.168,0.15,0.309,0.258,0.424c0.105,0.114,0.23,0.201,0.375,0.26s0.293,0.088,0.447,0.088c0.182,0,0.336-0.026,0.461-0.08
		c0.125-0.053,0.229-0.12,0.313-0.2c0.082-0.079,0.146-0.166,0.195-0.26c0.049-0.093,0.082-0.177,0.104-0.252l0.664,0.288
		c-0.047,0.139-0.117,0.279-0.207,0.42c-0.092,0.142-0.209,0.271-0.352,0.388c-0.145,0.118-0.314,0.213-0.51,0.284
		c-0.193,0.072-0.416,0.108-0.668,0.108c-0.281,0-0.541-0.052-0.779-0.156c-0.236-0.104-0.441-0.248-0.611-0.432
		c-0.172-0.185-0.307-0.4-0.404-0.648c-0.1-0.248-0.148-0.519-0.148-0.812c0-0.299,0.049-0.573,0.148-0.824
		c0.098-0.251,0.234-0.465,0.408-0.645c0.172-0.178,0.379-0.318,0.615-0.42c0.238-0.101,0.492-0.151,0.764-0.151
		c0.256,0,0.482,0.036,0.676,0.107c0.195,0.072,0.363,0.167,0.504,0.284c0.143,0.117,0.256,0.25,0.342,0.396
		c0.084,0.146,0.148,0.292,0.191,0.436l-0.68,0.288c-0.027-0.096-0.064-0.192-0.113-0.288c-0.047-0.096-0.113-0.183-0.195-0.26
		s-0.184-0.142-0.301-0.192S103.752,227.871,103.586,227.871z"/>
	<path fill="#999999" d="M107.818,227.176c0.289,0,0.553,0.052,0.793,0.156c0.24,0.104,0.447,0.246,0.623,0.428
		s0.313,0.396,0.408,0.644s0.145,0.519,0.145,0.813c0,0.293-0.049,0.565-0.145,0.815c-0.096,0.251-0.232,0.467-0.408,0.648
		s-0.383,0.324-0.623,0.428c-0.24,0.104-0.504,0.156-0.793,0.156c-0.287,0-0.551-0.052-0.791-0.156
		c-0.24-0.104-0.449-0.246-0.625-0.428s-0.313-0.397-0.408-0.648c-0.096-0.25-0.143-0.522-0.143-0.815
		c0-0.294,0.047-0.564,0.143-0.813s0.232-0.462,0.408-0.644s0.385-0.324,0.625-0.428
		C107.268,227.228,107.531,227.176,107.818,227.176z M107.818,230.592c0.16,0,0.313-0.029,0.457-0.088
		c0.143-0.059,0.271-0.147,0.383-0.265c0.113-0.117,0.201-0.261,0.264-0.432c0.064-0.171,0.098-0.368,0.098-0.592
		c0-0.225-0.033-0.42-0.098-0.588c-0.063-0.168-0.15-0.311-0.264-0.429c-0.111-0.117-0.24-0.205-0.383-0.264
		c-0.145-0.059-0.297-0.088-0.457-0.088s-0.313,0.029-0.455,0.088c-0.145,0.059-0.273,0.146-0.385,0.264
		c-0.111,0.118-0.199,0.261-0.264,0.429s-0.096,0.363-0.096,0.588c0,0.224,0.031,0.421,0.096,0.592s0.152,0.314,0.264,0.432
		s0.24,0.206,0.385,0.265C107.506,230.563,107.658,230.592,107.818,230.592z"/>
	<path fill="#999999" d="M112.883,228.056c-0.113-0.016-0.223-0.024-0.328-0.024c-0.316,0-0.57,0.093-0.766,0.276
		c-0.193,0.184-0.291,0.486-0.291,0.908v1.928h-0.752v-3.848h0.736v0.672c0.068-0.149,0.15-0.271,0.244-0.364
		c0.092-0.093,0.189-0.168,0.291-0.224c0.102-0.057,0.205-0.095,0.313-0.116c0.107-0.021,0.207-0.032,0.305-0.032
		c0.053,0,0.102,0.003,0.146,0.008c0.047,0.006,0.08,0.011,0.102,0.017V228.056z"/>
	<path fill="#999999" d="M114.434,231.144h-0.752v-3.848h0.736v0.552c0.139-0.24,0.314-0.411,0.529-0.512
		c0.213-0.102,0.432-0.152,0.654-0.152c0.23,0,0.432,0.039,0.605,0.116c0.172,0.077,0.316,0.184,0.432,0.319
		c0.115,0.137,0.199,0.298,0.256,0.484s0.084,0.387,0.084,0.6v2.44h-0.752v-2.312c0-0.134-0.016-0.259-0.045-0.377
		c-0.029-0.117-0.08-0.22-0.15-0.308c-0.072-0.088-0.166-0.157-0.281-0.208s-0.254-0.076-0.42-0.076
		c-0.148,0-0.279,0.028-0.391,0.084c-0.113,0.057-0.207,0.132-0.281,0.229c-0.074,0.096-0.131,0.208-0.168,0.336
		s-0.057,0.264-0.057,0.408V231.144z"/>
</g>
<g>
	<path fill="#9013FE" d="M-490.37,231.144h-1.092l4.116-8.508h1.092L-490.37,231.144z"/>
	<path fill="#9013FE" d="M-486.013,231.144v-5.772h1.08v0.769c0.184-0.32,0.438-0.556,0.762-0.708s0.654-0.229,0.99-0.229
		c0.36,0,0.698,0.089,1.014,0.265c0.316,0.176,0.555,0.452,0.714,0.828c0.232-0.416,0.521-0.702,0.864-0.858s0.7-0.234,1.068-0.234
		c0.248,0,0.492,0.045,0.731,0.133c0.24,0.088,0.454,0.222,0.643,0.401c0.188,0.181,0.338,0.408,0.45,0.685
		c0.111,0.275,0.168,0.602,0.168,0.978v3.744h-1.116v-3.624c0-0.376-0.099-0.69-0.294-0.942c-0.196-0.252-0.506-0.378-0.931-0.378
		c-0.399,0-0.722,0.139-0.966,0.414c-0.244,0.276-0.365,0.622-0.365,1.038v3.492h-1.129v-3.624c0-0.376-0.096-0.69-0.287-0.942
		c-0.192-0.252-0.505-0.378-0.937-0.378c-0.408,0-0.734,0.137-0.978,0.408c-0.244,0.272-0.366,0.624-0.366,1.056v3.48H-486.013z"/>
	<path fill="#9013FE" d="M-476.09,229.596c0-0.256,0.044-0.486,0.133-0.69c0.088-0.204,0.21-0.378,0.365-0.521
		c0.156-0.145,0.343-0.26,0.559-0.349c0.216-0.088,0.447-0.151,0.695-0.191l1.561-0.229c0.176-0.023,0.294-0.075,0.354-0.155
		c0.061-0.08,0.091-0.172,0.091-0.276c0-0.28-0.099-0.522-0.295-0.726c-0.195-0.204-0.514-0.307-0.953-0.307
		c-0.4,0-0.708,0.11-0.925,0.33c-0.216,0.221-0.344,0.498-0.384,0.834l-1.08-0.252c0.032-0.271,0.114-0.523,0.246-0.756
		s0.302-0.43,0.51-0.594s0.45-0.292,0.727-0.385c0.275-0.092,0.57-0.138,0.882-0.138c0.432,0,0.8,0.059,1.104,0.174
		c0.304,0.116,0.552,0.271,0.743,0.462c0.192,0.192,0.332,0.416,0.42,0.673c0.088,0.256,0.133,0.523,0.133,0.804v2.892
		c0,0.257,0.008,0.46,0.023,0.612c0.017,0.152,0.032,0.264,0.048,0.336h-1.104c-0.017-0.072-0.03-0.168-0.042-0.288
		s-0.019-0.284-0.019-0.492c-0.063,0.104-0.147,0.212-0.252,0.324c-0.104,0.112-0.231,0.216-0.384,0.313
		c-0.152,0.096-0.33,0.174-0.534,0.233c-0.204,0.061-0.434,0.09-0.689,0.09c-0.296,0-0.563-0.048-0.798-0.144
		c-0.236-0.096-0.438-0.222-0.606-0.378s-0.298-0.338-0.39-0.546C-476.044,230.048-476.09,229.828-476.09,229.596z
		 M-474.001,230.376c0.231,0,0.449-0.03,0.653-0.091c0.204-0.06,0.38-0.155,0.528-0.288c0.147-0.132,0.266-0.308,0.354-0.527
		s0.133-0.486,0.133-0.798v-0.265l-1.765,0.265c-0.24,0.04-0.439,0.13-0.6,0.27c-0.16,0.141-0.24,0.338-0.24,0.594
		c0,0.217,0.084,0.41,0.252,0.582C-474.518,230.29-474.29,230.376-474.001,230.376z"/>
	<path fill="#9013FE" d="M-469.37,233.556l1.439-3.048l-2.483-5.137h1.296l1.8,3.984l1.729-3.984h1.212l-3.756,8.185H-469.37z"/>
	<path fill="#9013FE" d="M-463.838,229.596c0-0.256,0.044-0.486,0.133-0.69c0.088-0.204,0.21-0.378,0.365-0.521
		c0.156-0.145,0.343-0.26,0.559-0.349c0.216-0.088,0.447-0.151,0.695-0.191l1.561-0.229c0.176-0.023,0.294-0.075,0.354-0.155
		c0.061-0.08,0.091-0.172,0.091-0.276c0-0.28-0.099-0.522-0.295-0.726c-0.195-0.204-0.514-0.307-0.953-0.307
		c-0.4,0-0.708,0.11-0.925,0.33c-0.216,0.221-0.344,0.498-0.384,0.834l-1.08-0.252c0.032-0.271,0.114-0.523,0.246-0.756
		s0.302-0.43,0.51-0.594s0.45-0.292,0.727-0.385c0.275-0.092,0.57-0.138,0.882-0.138c0.432,0,0.8,0.059,1.104,0.174
		c0.304,0.116,0.552,0.271,0.743,0.462c0.192,0.192,0.332,0.416,0.42,0.673c0.088,0.256,0.133,0.523,0.133,0.804v2.892
		c0,0.257,0.008,0.46,0.023,0.612c0.017,0.152,0.032,0.264,0.048,0.336h-1.104c-0.017-0.072-0.03-0.168-0.042-0.288
		s-0.019-0.284-0.019-0.492c-0.063,0.104-0.147,0.212-0.252,0.324c-0.104,0.112-0.231,0.216-0.384,0.313
		c-0.152,0.096-0.33,0.174-0.534,0.233c-0.204,0.061-0.434,0.09-0.689,0.09c-0.296,0-0.563-0.048-0.798-0.144
		c-0.236-0.096-0.438-0.222-0.606-0.378s-0.298-0.338-0.39-0.546C-463.792,230.048-463.838,229.828-463.838,229.596z
		 M-461.75,230.376c0.231,0,0.449-0.03,0.653-0.091c0.204-0.06,0.38-0.155,0.528-0.288c0.147-0.132,0.266-0.308,0.354-0.527
		s0.133-0.486,0.133-0.798v-0.265l-1.765,0.265c-0.24,0.04-0.439,0.13-0.6,0.27c-0.16,0.141-0.24,0.338-0.24,0.594
		c0,0.217,0.084,0.41,0.252,0.582C-462.266,230.29-462.038,230.376-461.75,230.376z"/>
	<path fill="#9013FE" d="M-456.074,231.144h-1.128v-5.772h1.104v0.828c0.207-0.359,0.472-0.615,0.792-0.768
		c0.319-0.152,0.647-0.229,0.983-0.229c0.344,0,0.646,0.059,0.906,0.175c0.26,0.115,0.476,0.275,0.647,0.479
		c0.173,0.204,0.301,0.446,0.385,0.727c0.084,0.279,0.126,0.58,0.126,0.899v3.66h-1.128v-3.468c0-0.2-0.022-0.388-0.066-0.564
		c-0.044-0.176-0.12-0.33-0.228-0.462c-0.108-0.132-0.248-0.235-0.421-0.312c-0.172-0.076-0.382-0.114-0.63-0.114
		c-0.224,0-0.42,0.042-0.588,0.126s-0.308,0.198-0.42,0.342c-0.112,0.145-0.196,0.313-0.252,0.504
		c-0.056,0.192-0.084,0.396-0.084,0.612V231.144z"/>
	<path fill="#9013FE" d="M-447.746,227.808l2.508,3.336h-1.416l-1.884-2.544l-0.804,0.804v1.74h-1.116v-8.688h1.116v5.473
		l2.496-2.557h1.56L-447.746,227.808z"/>
	<path fill="#9013FE" d="M-440.414,230.268c-0.136,0.28-0.354,0.522-0.654,0.726c-0.3,0.204-0.678,0.307-1.134,0.307
		c-0.424,0-0.804-0.078-1.14-0.234s-0.622-0.372-0.858-0.647c-0.235-0.276-0.418-0.601-0.546-0.973s-0.191-0.773-0.191-1.206
		c0-0.407,0.065-0.794,0.197-1.157c0.132-0.364,0.318-0.685,0.559-0.961c0.239-0.275,0.527-0.495,0.863-0.659
		s0.708-0.246,1.116-0.246c0.256,0,0.482,0.028,0.678,0.084c0.196,0.056,0.366,0.13,0.511,0.222
		c0.144,0.092,0.264,0.196,0.359,0.313c0.097,0.115,0.168,0.233,0.217,0.354v-3.732h1.115v7.62c0,0.28,0.008,0.517,0.024,0.708
		c0.016,0.192,0.027,0.313,0.036,0.36h-1.092c-0.017-0.063-0.03-0.166-0.042-0.306c-0.013-0.141-0.019-0.298-0.019-0.475V230.268z
		 M-443.786,228.239c0,0.296,0.038,0.57,0.114,0.822s0.186,0.47,0.33,0.654c0.144,0.184,0.319,0.328,0.527,0.432
		c0.208,0.104,0.448,0.156,0.721,0.156c0.256,0,0.487-0.054,0.695-0.162s0.385-0.254,0.528-0.438
		c0.145-0.184,0.254-0.403,0.33-0.659s0.114-0.532,0.114-0.828c0-0.601-0.146-1.084-0.438-1.452s-0.698-0.552-1.218-0.552
		c-0.256,0-0.49,0.05-0.702,0.149c-0.212,0.101-0.392,0.24-0.54,0.42c-0.147,0.181-0.262,0.395-0.342,0.643
		S-443.786,227.943-443.786,228.239z"/>
	<path fill="#9013FE" d="M-436.274,231.144h-1.128v-8.688h1.128v3.589c0.208-0.305,0.468-0.521,0.78-0.648
		c0.312-0.128,0.636-0.192,0.972-0.192c0.344,0,0.646,0.059,0.906,0.175c0.26,0.115,0.476,0.275,0.647,0.479
		c0.173,0.204,0.301,0.446,0.385,0.727c0.084,0.279,0.126,0.58,0.126,0.899v3.66h-1.128v-3.468c0-0.2-0.022-0.388-0.066-0.564
		c-0.044-0.176-0.12-0.33-0.228-0.462c-0.108-0.132-0.248-0.235-0.421-0.312c-0.172-0.076-0.382-0.114-0.63-0.114
		c-0.216,0-0.406,0.04-0.569,0.12c-0.164,0.08-0.303,0.188-0.414,0.324c-0.112,0.136-0.198,0.296-0.258,0.479
		c-0.061,0.185-0.095,0.384-0.103,0.6V231.144z"/>
	<path fill="#9013FE" d="M-431.018,229.596c0-0.256,0.044-0.486,0.133-0.69c0.088-0.204,0.21-0.378,0.365-0.521
		c0.156-0.145,0.343-0.26,0.559-0.349c0.216-0.088,0.447-0.151,0.695-0.191l1.561-0.229c0.176-0.023,0.294-0.075,0.354-0.155
		c0.061-0.08,0.091-0.172,0.091-0.276c0-0.28-0.099-0.522-0.295-0.726c-0.195-0.204-0.514-0.307-0.953-0.307
		c-0.4,0-0.708,0.11-0.925,0.33c-0.216,0.221-0.344,0.498-0.384,0.834l-1.08-0.252c0.032-0.271,0.114-0.523,0.246-0.756
		s0.302-0.43,0.51-0.594s0.45-0.292,0.727-0.385c0.275-0.092,0.57-0.138,0.882-0.138c0.432,0,0.8,0.059,1.104,0.174
		c0.304,0.116,0.552,0.271,0.743,0.462c0.192,0.192,0.332,0.416,0.42,0.673c0.088,0.256,0.133,0.523,0.133,0.804v2.892
		c0,0.257,0.008,0.46,0.023,0.612c0.017,0.152,0.032,0.264,0.048,0.336h-1.104c-0.017-0.072-0.03-0.168-0.042-0.288
		s-0.019-0.284-0.019-0.492c-0.063,0.104-0.147,0.212-0.252,0.324c-0.104,0.112-0.231,0.216-0.384,0.313
		c-0.152,0.096-0.33,0.174-0.534,0.233c-0.204,0.061-0.434,0.09-0.689,0.09c-0.296,0-0.563-0.048-0.798-0.144
		c-0.236-0.096-0.438-0.222-0.606-0.378s-0.298-0.338-0.39-0.546C-430.972,230.048-431.018,229.828-431.018,229.596z
		 M-428.929,230.376c0.231,0,0.449-0.03,0.653-0.091c0.204-0.06,0.38-0.155,0.528-0.288c0.147-0.132,0.266-0.308,0.354-0.527
		s0.133-0.486,0.133-0.798v-0.265l-1.765,0.265c-0.24,0.04-0.439,0.13-0.6,0.27c-0.16,0.141-0.24,0.338-0.24,0.594
		c0,0.217,0.084,0.41,0.252,0.582C-429.446,230.29-429.217,230.376-428.929,230.376z"/>
	<path fill="#9013FE" d="M-419.966,225.371l1.5,4.345l1.272-4.345h1.188l-1.872,5.772h-1.164l-1.536-4.392l-1.5,4.392h-1.188
		l-1.896-5.772h1.236l1.296,4.345l1.5-4.345H-419.966z"/>
	<path fill="#9013FE" d="M-415.286,229.596c0-0.256,0.044-0.486,0.133-0.69c0.088-0.204,0.21-0.378,0.365-0.521
		c0.156-0.145,0.343-0.26,0.559-0.349c0.216-0.088,0.447-0.151,0.695-0.191l1.561-0.229c0.176-0.023,0.294-0.075,0.354-0.155
		c0.061-0.08,0.091-0.172,0.091-0.276c0-0.28-0.099-0.522-0.295-0.726c-0.195-0.204-0.514-0.307-0.953-0.307
		c-0.4,0-0.708,0.11-0.925,0.33c-0.216,0.221-0.344,0.498-0.384,0.834l-1.08-0.252c0.032-0.271,0.114-0.523,0.246-0.756
		s0.302-0.43,0.51-0.594s0.45-0.292,0.727-0.385c0.275-0.092,0.57-0.138,0.882-0.138c0.432,0,0.8,0.059,1.104,0.174
		c0.304,0.116,0.552,0.271,0.743,0.462c0.192,0.192,0.332,0.416,0.42,0.673c0.088,0.256,0.133,0.523,0.133,0.804v2.892
		c0,0.257,0.008,0.46,0.023,0.612c0.017,0.152,0.032,0.264,0.048,0.336h-1.104c-0.017-0.072-0.03-0.168-0.042-0.288
		s-0.019-0.284-0.019-0.492c-0.063,0.104-0.147,0.212-0.252,0.324c-0.104,0.112-0.231,0.216-0.384,0.313
		c-0.152,0.096-0.33,0.174-0.534,0.233c-0.204,0.061-0.434,0.09-0.689,0.09c-0.296,0-0.563-0.048-0.798-0.144
		c-0.236-0.096-0.438-0.222-0.606-0.378s-0.298-0.338-0.39-0.546C-415.24,230.048-415.286,229.828-415.286,229.596z
		 M-413.197,230.376c0.231,0,0.449-0.03,0.653-0.091c0.204-0.06,0.38-0.155,0.528-0.288c0.147-0.132,0.266-0.308,0.354-0.527
		s0.133-0.486,0.133-0.798v-0.265l-1.765,0.265c-0.24,0.04-0.439,0.13-0.6,0.27c-0.16,0.141-0.24,0.338-0.24,0.594
		c0,0.217,0.084,0.41,0.252,0.582C-413.713,230.29-413.485,230.376-413.197,230.376z"/>
	<path fill="#9013FE" d="M-407.522,231.144h-1.128v-5.772h1.104v0.828c0.207-0.359,0.472-0.615,0.792-0.768
		c0.319-0.152,0.647-0.229,0.983-0.229c0.344,0,0.646,0.059,0.906,0.175c0.26,0.115,0.476,0.275,0.647,0.479
		c0.173,0.204,0.301,0.446,0.385,0.727c0.084,0.279,0.126,0.58,0.126,0.899v3.66h-1.128v-3.468c0-0.2-0.022-0.388-0.066-0.564
		c-0.044-0.176-0.12-0.33-0.228-0.462c-0.108-0.132-0.248-0.235-0.421-0.312c-0.172-0.076-0.382-0.114-0.63-0.114
		c-0.224,0-0.42,0.042-0.588,0.126s-0.308,0.198-0.42,0.342c-0.112,0.145-0.196,0.313-0.252,0.504
		c-0.056,0.192-0.084,0.396-0.084,0.612V231.144z"/>
</g>
<path fill-rule="evenodd" clip-rule="evenodd" fill="#9013FE" d="M-504.064,236.544c-0.449-2.391-1.119-4.64-1.893-6.695
	c1.905-0.321,3.874-0.255,5.896,0.199C-500.498,232.706-501.976,235.016-504.064,236.544z M-516.295,236.269
	c0.693-0.872,2.102-2.459,4.141-3.851c1.385-0.946,2.819-1.65,4.295-2.111c0.856,2.219,1.587,4.672,2.023,7.276
	c-1.27,0.579-2.679,0.905-4.164,0.905C-512.38,238.486-514.569,237.655-516.295,236.269z M-520.063,228c0.019,0,0.037,0,0.057,0
	c1.224,0,3.468-0.082,6.108-0.564c1.507-0.275,2.935-0.645,4.276-1.103c0.349,0.696,0.696,1.429,1.032,2.198
	c-1.877,0.604-3.46,1.474-4.714,2.337c-2.103,1.448-3.576,3.054-4.38,4.048c-1.489-1.756-2.39-4.026-2.39-6.504
	C-520.073,228.274-520.068,228.137-520.063,228z M-514.046,219.191c0.591,0.766,1.999,2.683,3.511,5.412
	c-3.8,1.238-7.488,1.447-9.26,1.466C-519.056,222.983-516.896,220.446-514.046,219.191z M-503.532,220.699
	c-1.542,1.407-3.328,2.449-5.158,3.219c-1.343-2.456-2.628-4.305-3.41-5.356c0.678-0.144,1.38-0.222,2.1-0.222
	C-507.539,218.34-505.283,219.228-503.532,220.699z M-502.18,222.072c1.347,1.658,2.176,3.751,2.245,6.033
	c-2.495-0.517-4.755-0.456-6.75-0.065c-0.361-0.845-0.735-1.649-1.112-2.41C-505.625,224.695-503.733,223.499-502.18,222.072z
	 M-510,216.413c-6.617,0-12,5.383-12,12s5.383,12,12,12c6.617,0,12-5.383,12-12S-503.383,216.413-510,216.413z"/>
<g>
	<path fill="#9013FE" d="M-335.501,231.144v-5.772h1.08v0.769c0.184-0.32,0.438-0.556,0.762-0.708s0.654-0.229,0.99-0.229
		c0.36,0,0.698,0.089,1.014,0.265c0.316,0.176,0.555,0.452,0.714,0.828c0.232-0.416,0.521-0.702,0.864-0.858s0.7-0.234,1.068-0.234
		c0.248,0,0.492,0.045,0.731,0.133c0.24,0.088,0.454,0.222,0.643,0.401c0.188,0.181,0.338,0.408,0.45,0.685
		c0.111,0.275,0.168,0.602,0.168,0.978v3.744h-1.116v-3.624c0-0.376-0.099-0.69-0.294-0.942c-0.196-0.252-0.506-0.378-0.931-0.378
		c-0.399,0-0.722,0.139-0.966,0.414c-0.244,0.276-0.365,0.622-0.365,1.038v3.492h-1.129v-3.624c0-0.376-0.096-0.69-0.287-0.942
		c-0.192-0.252-0.505-0.378-0.937-0.378c-0.408,0-0.734,0.137-0.978,0.408c-0.244,0.272-0.366,0.624-0.366,1.056v3.48H-335.501z"/>
	<path fill="#9013FE" d="M-325.578,229.596c0-0.256,0.044-0.486,0.133-0.69c0.088-0.204,0.21-0.378,0.365-0.521
		c0.156-0.145,0.343-0.26,0.559-0.349c0.216-0.088,0.447-0.151,0.695-0.191l1.561-0.229c0.176-0.023,0.294-0.075,0.354-0.155
		c0.061-0.08,0.091-0.172,0.091-0.276c0-0.28-0.099-0.522-0.295-0.726c-0.195-0.204-0.514-0.307-0.953-0.307
		c-0.4,0-0.708,0.11-0.925,0.33c-0.216,0.221-0.344,0.498-0.384,0.834l-1.08-0.252c0.032-0.271,0.114-0.523,0.246-0.756
		s0.302-0.43,0.51-0.594s0.45-0.292,0.727-0.385c0.275-0.092,0.57-0.138,0.882-0.138c0.432,0,0.8,0.059,1.104,0.174
		c0.304,0.116,0.552,0.271,0.743,0.462c0.192,0.192,0.332,0.416,0.42,0.673c0.088,0.256,0.133,0.523,0.133,0.804v2.892
		c0,0.257,0.008,0.46,0.023,0.612c0.017,0.152,0.032,0.264,0.048,0.336h-1.104c-0.017-0.072-0.03-0.168-0.042-0.288
		s-0.019-0.284-0.019-0.492c-0.063,0.104-0.147,0.212-0.252,0.324c-0.104,0.112-0.231,0.216-0.384,0.313
		c-0.152,0.096-0.33,0.174-0.534,0.233c-0.204,0.061-0.434,0.09-0.689,0.09c-0.296,0-0.563-0.048-0.798-0.144
		c-0.236-0.096-0.438-0.222-0.606-0.378s-0.298-0.338-0.39-0.546C-325.532,230.048-325.578,229.828-325.578,229.596z
		 M-323.489,230.376c0.231,0,0.449-0.03,0.653-0.091c0.204-0.06,0.38-0.155,0.528-0.288c0.147-0.132,0.266-0.308,0.354-0.527
		s0.133-0.486,0.133-0.798v-0.265l-1.765,0.265c-0.24,0.04-0.439,0.13-0.6,0.27c-0.16,0.141-0.24,0.338-0.24,0.594
		c0,0.217,0.084,0.41,0.252,0.582C-324.005,230.29-323.777,230.376-323.489,230.376z"/>
	<path fill="#9013FE" d="M-318.858,233.556l1.439-3.048l-2.483-5.137h1.296l1.8,3.984l1.729-3.984h1.212l-3.756,8.185H-318.858z"/>
	<path fill="#9013FE" d="M-313.326,229.596c0-0.256,0.044-0.486,0.133-0.69c0.088-0.204,0.21-0.378,0.365-0.521
		c0.156-0.145,0.343-0.26,0.559-0.349c0.216-0.088,0.447-0.151,0.695-0.191l1.561-0.229c0.176-0.023,0.294-0.075,0.354-0.155
		c0.061-0.08,0.091-0.172,0.091-0.276c0-0.28-0.099-0.522-0.295-0.726c-0.195-0.204-0.514-0.307-0.953-0.307
		c-0.4,0-0.708,0.11-0.925,0.33c-0.216,0.221-0.344,0.498-0.384,0.834l-1.08-0.252c0.032-0.271,0.114-0.523,0.246-0.756
		s0.302-0.43,0.51-0.594s0.45-0.292,0.727-0.385c0.275-0.092,0.57-0.138,0.882-0.138c0.432,0,0.8,0.059,1.104,0.174
		c0.304,0.116,0.552,0.271,0.743,0.462c0.192,0.192,0.332,0.416,0.42,0.673c0.088,0.256,0.133,0.523,0.133,0.804v2.892
		c0,0.257,0.008,0.46,0.023,0.612c0.017,0.152,0.032,0.264,0.048,0.336h-1.104c-0.017-0.072-0.03-0.168-0.042-0.288
		s-0.019-0.284-0.019-0.492c-0.063,0.104-0.147,0.212-0.252,0.324c-0.104,0.112-0.231,0.216-0.384,0.313
		c-0.152,0.096-0.33,0.174-0.534,0.233c-0.204,0.061-0.434,0.09-0.689,0.09c-0.296,0-0.563-0.048-0.798-0.144
		c-0.236-0.096-0.438-0.222-0.606-0.378s-0.298-0.338-0.39-0.546C-313.28,230.048-313.326,229.828-313.326,229.596z
		 M-311.237,230.376c0.231,0,0.449-0.03,0.653-0.091c0.204-0.06,0.38-0.155,0.528-0.288c0.147-0.132,0.266-0.308,0.354-0.527
		s0.133-0.486,0.133-0.798v-0.265l-1.765,0.265c-0.24,0.04-0.439,0.13-0.6,0.27c-0.16,0.141-0.24,0.338-0.24,0.594
		c0,0.217,0.084,0.41,0.252,0.582C-311.753,230.29-311.525,230.376-311.237,230.376z"/>
	<path fill="#9013FE" d="M-305.562,231.144h-1.128v-5.772h1.104v0.828c0.207-0.359,0.472-0.615,0.792-0.768
		c0.319-0.152,0.647-0.229,0.983-0.229c0.344,0,0.646,0.059,0.906,0.175c0.26,0.115,0.476,0.275,0.647,0.479
		c0.173,0.204,0.301,0.446,0.385,0.727c0.084,0.279,0.126,0.58,0.126,0.899v3.66h-1.128v-3.468c0-0.2-0.022-0.388-0.066-0.564
		c-0.044-0.176-0.12-0.33-0.228-0.462c-0.108-0.132-0.248-0.235-0.421-0.312c-0.172-0.076-0.382-0.114-0.63-0.114
		c-0.224,0-0.42,0.042-0.588,0.126s-0.308,0.198-0.42,0.342c-0.112,0.145-0.196,0.313-0.252,0.504
		c-0.056,0.192-0.084,0.396-0.084,0.612V231.144z"/>
	<path fill="#9013FE" d="M-297.234,227.808l2.508,3.336h-1.416l-1.884-2.544l-0.804,0.804v1.74h-1.116v-8.688h1.116v5.473
		l2.496-2.557h1.56L-297.234,227.808z"/>
	<path fill="#9013FE" d="M-294.066,232.092v-0.948h6.145v0.948H-294.066z"/>
	<path fill="#9013FE" d="M-285.45,225.371h1.248v1.021h-1.248v3c0,0.264,0.061,0.462,0.181,0.594s0.327,0.198,0.624,0.198
		c0.071,0,0.151-0.004,0.239-0.012s0.156-0.021,0.204-0.036v0.96c-0.048,0.016-0.14,0.038-0.275,0.065
		c-0.137,0.028-0.301,0.042-0.492,0.042c-0.496,0-0.888-0.142-1.176-0.426c-0.288-0.283-0.433-0.689-0.433-1.218v-3.168h-1.104
		v-1.021h0.312c0.313,0,0.538-0.084,0.679-0.252c0.14-0.168,0.21-0.38,0.21-0.636v-0.936h1.031V225.371z"/>
	<path fill="#9013FE" d="M-281.574,231.144h-1.128v-8.688h1.128v3.589c0.208-0.305,0.468-0.521,0.78-0.648
		c0.312-0.128,0.636-0.192,0.972-0.192c0.344,0,0.646,0.059,0.906,0.175c0.26,0.115,0.476,0.275,0.647,0.479
		c0.173,0.204,0.301,0.446,0.385,0.727c0.084,0.279,0.126,0.58,0.126,0.899v3.66h-1.128v-3.468c0-0.2-0.022-0.388-0.066-0.564
		c-0.044-0.176-0.12-0.33-0.228-0.462c-0.108-0.132-0.248-0.235-0.421-0.312c-0.172-0.076-0.382-0.114-0.63-0.114
		c-0.216,0-0.406,0.04-0.569,0.12c-0.164,0.08-0.303,0.188-0.414,0.324c-0.112,0.136-0.198,0.296-0.258,0.479
		c-0.061,0.185-0.095,0.384-0.103,0.6V231.144z"/>
	<path fill="#9013FE" d="M-270.929,229.5c-0.08,0.256-0.198,0.493-0.354,0.714c-0.156,0.22-0.344,0.412-0.563,0.576
		c-0.221,0.164-0.471,0.294-0.75,0.39c-0.28,0.096-0.588,0.144-0.924,0.144c-0.385,0-0.753-0.067-1.104-0.204
		c-0.353-0.136-0.662-0.336-0.93-0.6c-0.269-0.264-0.48-0.588-0.637-0.972c-0.155-0.385-0.233-0.82-0.233-1.309
		c0-0.456,0.076-0.87,0.228-1.242c0.152-0.371,0.354-0.691,0.606-0.96c0.252-0.268,0.546-0.476,0.882-0.624
		c0.336-0.147,0.684-0.222,1.044-0.222c0.439,0,0.834,0.074,1.182,0.222c0.349,0.148,0.639,0.354,0.87,0.618
		c0.232,0.265,0.41,0.582,0.534,0.954s0.187,0.782,0.187,1.23c0,0.071-0.003,0.14-0.007,0.204c-0.004,0.063-0.01,0.115-0.018,0.155
		h-4.344c0.008,0.257,0.056,0.492,0.144,0.708c0.088,0.217,0.21,0.402,0.366,0.559c0.156,0.155,0.34,0.275,0.552,0.359
		s0.438,0.126,0.679,0.126c0.472,0,0.831-0.111,1.079-0.336c0.248-0.224,0.429-0.5,0.54-0.828L-270.929,229.5z M-272.07,227.663
		c-0.016-0.415-0.155-0.766-0.42-1.05c-0.264-0.283-0.652-0.426-1.164-0.426c-0.239,0-0.454,0.042-0.642,0.126
		c-0.188,0.084-0.348,0.196-0.48,0.336c-0.132,0.141-0.237,0.298-0.317,0.475c-0.08,0.176-0.124,0.355-0.132,0.539H-272.07z"/>
	<path fill="#9013FE" d="M-270.354,232.092v-0.948h6.145v0.948H-270.354z"/>
	<path fill="#9013FE" d="M-260.838,225.191c0.433,0,0.828,0.078,1.188,0.234s0.672,0.37,0.936,0.642
		c0.265,0.272,0.469,0.594,0.612,0.966s0.216,0.778,0.216,1.219c0,0.439-0.072,0.848-0.216,1.224s-0.348,0.7-0.612,0.972
		c-0.264,0.272-0.575,0.486-0.936,0.643c-0.36,0.155-0.756,0.233-1.188,0.233c-0.432,0-0.828-0.078-1.188-0.233
		c-0.36-0.156-0.672-0.37-0.937-0.643c-0.264-0.271-0.468-0.596-0.611-0.972c-0.145-0.376-0.216-0.784-0.216-1.224
		c0-0.44,0.071-0.847,0.216-1.219c0.144-0.372,0.348-0.693,0.611-0.966c0.265-0.271,0.576-0.485,0.937-0.642
		C-261.667,225.27-261.27,225.191-260.838,225.191z M-260.838,230.315c0.24,0,0.469-0.044,0.685-0.132s0.408-0.22,0.576-0.396
		c0.168-0.176,0.3-0.392,0.396-0.647s0.145-0.552,0.145-0.888s-0.049-0.631-0.145-0.883s-0.228-0.466-0.396-0.642
		s-0.36-0.308-0.576-0.396c-0.216-0.089-0.444-0.133-0.685-0.133c-0.239,0-0.468,0.044-0.684,0.133
		c-0.216,0.088-0.408,0.22-0.576,0.396s-0.3,0.39-0.396,0.642c-0.097,0.252-0.145,0.547-0.145,0.883s0.048,0.632,0.145,0.888
		c0.096,0.256,0.228,0.472,0.396,0.647c0.168,0.177,0.36,0.309,0.576,0.396S-261.078,230.315-260.838,230.315z"/>
	<path fill="#9013FE" d="M-255.318,231.144h-1.128v-5.772h1.104v0.828c0.207-0.359,0.472-0.615,0.792-0.768
		c0.319-0.152,0.647-0.229,0.983-0.229c0.344,0,0.646,0.059,0.906,0.175c0.26,0.115,0.476,0.275,0.647,0.479
		c0.173,0.204,0.301,0.446,0.385,0.727c0.084,0.279,0.126,0.58,0.126,0.899v3.66h-1.128v-3.468c0-0.2-0.022-0.388-0.066-0.564
		c-0.044-0.176-0.12-0.33-0.228-0.462c-0.108-0.132-0.248-0.235-0.421-0.312c-0.172-0.076-0.382-0.114-0.63-0.114
		c-0.224,0-0.42,0.042-0.588,0.126s-0.308,0.198-0.42,0.342c-0.112,0.145-0.196,0.313-0.252,0.504
		c-0.056,0.192-0.084,0.396-0.084,0.612V231.144z"/>
	<path fill="#9013FE" d="M-244.673,229.5c-0.08,0.256-0.198,0.493-0.354,0.714c-0.156,0.22-0.344,0.412-0.563,0.576
		c-0.221,0.164-0.471,0.294-0.75,0.39c-0.28,0.096-0.588,0.144-0.924,0.144c-0.385,0-0.753-0.067-1.104-0.204
		c-0.353-0.136-0.662-0.336-0.93-0.6c-0.269-0.264-0.48-0.588-0.637-0.972c-0.155-0.385-0.233-0.82-0.233-1.309
		c0-0.456,0.076-0.87,0.228-1.242c0.152-0.371,0.354-0.691,0.606-0.96c0.252-0.268,0.546-0.476,0.882-0.624
		c0.336-0.147,0.684-0.222,1.044-0.222c0.439,0,0.834,0.074,1.182,0.222c0.349,0.148,0.639,0.354,0.87,0.618
		c0.232,0.265,0.41,0.582,0.534,0.954s0.187,0.782,0.187,1.23c0,0.071-0.003,0.14-0.007,0.204c-0.004,0.063-0.01,0.115-0.018,0.155
		h-4.344c0.008,0.257,0.056,0.492,0.144,0.708c0.088,0.217,0.21,0.402,0.366,0.559c0.156,0.155,0.34,0.275,0.552,0.359
		s0.438,0.126,0.679,0.126c0.472,0,0.831-0.111,1.079-0.336c0.248-0.224,0.429-0.5,0.54-0.828L-244.673,229.5z M-245.814,227.663
		c-0.016-0.415-0.155-0.766-0.42-1.05c-0.264-0.283-0.652-0.426-1.164-0.426c-0.239,0-0.454,0.042-0.642,0.126
		c-0.188,0.084-0.348,0.196-0.48,0.336c-0.132,0.141-0.237,0.298-0.317,0.475c-0.08,0.176-0.124,0.355-0.132,0.539H-245.814z"/>
</g>
<g>
	<path fill-rule="evenodd" clip-rule="evenodd" fill="#9013FE" d="M-348.563,220.03c-0.41,0-0.813,0.166-1.102,0.457
		c-0.291,0.289-0.458,0.692-0.458,1.103c0,0.41,0.167,0.812,0.458,1.103c0.29,0.289,0.692,0.457,1.102,0.457
		c0.411,0,0.813-0.167,1.103-0.457c0.291-0.291,0.457-0.694,0.457-1.103c0-0.411-0.166-0.814-0.457-1.103
		C-347.749,220.196-348.152,220.03-348.563,220.03z"/>
	<path fill-rule="evenodd" clip-rule="evenodd" fill="#9013FE" d="M-349.629,216.023h-10.743c-3.648,0-6.616,2.968-6.616,6.617
		v10.743c0,3.648,2.968,6.617,6.616,6.617h10.743c3.649,0,6.617-2.968,6.617-6.617V222.64
		C-343.012,218.992-345.98,216.023-349.629,216.023z M-345.139,233.383c0,2.475-2.014,4.489-4.49,4.489h-10.743
		c-2.475,0-4.489-2.014-4.489-4.489V222.64c0-2.475,2.014-4.49,4.489-4.49h10.743c2.475,0,4.49,2.014,4.49,4.49V233.383z"/>
	<path fill-rule="evenodd" clip-rule="evenodd" fill="#9013FE" d="M-355,221.834c-3.406,0-6.178,2.771-6.178,6.178
		c0,3.407,2.771,6.178,6.178,6.178c3.407,0,6.178-2.771,6.178-6.178C-348.822,224.605-351.593,221.834-355,221.834z M-355,232.062
		c-2.233,0-4.051-1.817-4.051-4.051s1.817-4.051,4.051-4.051c2.234,0,4.051,1.817,4.051,4.051S-352.767,232.062-355,232.062z"/>
</g>
<g>
	<circle fill="#4577FF" cx="-290" cy="60" r="60"/>
	<rect x="-354" y="-4" fill="none" width="128" height="128"/>
	<g>
		<defs>
			<circle id="SVGID_1_" cx="-290" cy="60" r="60"/>
		</defs>
		<clipPath id="SVGID_2_">
			<use xlink:href="#SVGID_1_"  overflow="visible"/>
		</clipPath>
		<path clip-path="url(#SVGID_2_)" fill="#FFAA00" d="M-312,72L-312,72c6.6,0,12-5.4,12-12V36c0-2.2-1.8-4-4-4h-8
			c-6.6,0-12,5.4-12,12v16C-324,66.6-318.6,72-312,72z"/>
		<path clip-path="url(#SVGID_2_)" fill="#FFC036" d="M-256,124h-64V52c0-17.6,14.4-32,32-32h0c17.6,0,32,14.4,32,32V124z"/>
		<path clip-path="url(#SVGID_2_)" fill="#FFE09E" d="M-268,132h-48v0c0-13.255,10.745-24,24-24h0C-278.745,108-268,118.745-268,132
			L-268,132z"/>
	</g>
	<circle fill="#603535" cx="-284" cy="52" r="4"/>
	<path fill="#FFE09E" d="M-280,40L-280,40c0,1.1-0.9,2-2,2h-4c-1.1,0-2-0.9-2-2v0c0-1.1,0.9-2,2-2h4C-280.9,38-280,38.9-280,40z"/>
	<path fill="#FFE09E" d="M-296,40L-296,40c0,1.1-0.9,2-2,2h-4c-1.1,0-2-0.9-2-2v0c0-1.1,0.9-2,2-2h4C-296.9,38-296,38.9-296,40z"/>
	<circle fill="#603535" cx="-300" cy="52" r="4"/>
	<path fill="#F5463A" d="M-294,88h12c1.1,0,2,0.9,2,2v6c0,4.4-3.6,8-8,8h0c-4.4,0-8-3.6-8-8v-6C-296,88.9-295.1,88-294,88z"/>
	<g>
		<path fill="#ED2F21" d="M-288,98c-1.105,0-2-0.896-2-2v-8c0-1.104,0.895-2,2-2s2,0.896,2,2v8C-286,97.104-286.895,98-288,98z"/>
	</g>
	<path fill="#FFE09E" d="M-296,96h-12c-13.2,0-24-10.8-24-24v-8c0-4.418,3.582-8,8-8l44,0c4.4,0,8,3.6,8,8v8
		C-272,85.2-282.8,96-296,96z"/>
	<path fill="#603535" d="M-326,56h12c1.1,0,2,0.9,2,2v2c0,4.4-3.6,8-8,8h0c-4.4,0-8-3.6-8-8v-2C-328,56.9-327.1,56-326,56z"/>
	<circle fill="#FFC036" cx="-304" cy="64" r="2"/>
	<circle fill="#301B1B" cx="-316" cy="62" r="2"/>
	<circle fill="#301B1B" cx="-324" cy="62" r="2"/>
	<circle fill="#FFC036" cx="-296" cy="64" r="2"/>
	<circle fill="#FFC036" cx="-300" cy="72" r="2"/>
	<path fill="#FFAA00" d="M-256,72L-256,72c-6.6,0-12-5.4-12-12V36c0-2.2,1.8-4,4-4h8c6.6,0,12,5.4,12,12v16
		C-244,66.6-249.4,72-256,72z"/>
</g>
<g>
	<circle fill="#F5463A" cx="-115" cy="-108" r="60"/>
	<rect x="-179" y="-172" fill="none" width="128" height="128"/>
	<g>
		<defs>
			<circle id="SVGID_3_" cx="-115" cy="-108" r="60"/>
		</defs>
		<clipPath id="SVGID_4_">
			<use xlink:href="#SVGID_3_"  overflow="visible"/>
		</clipPath>
		<path clip-path="url(#SVGID_4_)" fill="#2BD665" d="M-83-32h-64v-16c0-17.673,14.327-32,32-32h0c17.673,0,32,14.327,32,32V-32z"/>
		<path clip-path="url(#SVGID_4_)" fill="#1FC258" d="M-115-64c6.617,0,12-5.383,12-12v-1.652c-3.708-1.502-7.753-2.348-12-2.348
			l0,0c-4.247,0-8.292,0.845-12,2.348V-76C-127-69.383-121.617-64-115-64z"/>
	</g>
	<path fill="#FFA47A" d="M-115-68L-115-68c-4.418,0-8-3.582-8-8v-8c0-4.418,3.582-8,8-8h0c4.418,0,8,3.582,8,8v8
		C-107-71.582-110.582-68-115-68z"/>
	<path fill="#FFBB9B" d="M-115-78L-115-78c-16.569,0-30-13.431-30-30v-8c0-16.569,13.431-30,30-30h0c16.569,0,30,13.431,30,30v8
		C-85-91.431-98.431-78-115-78z"/>
	<circle fill="#603535" cx="-111" cy="-116" r="4"/>
	<circle fill="#603535" cx="-127" cy="-116" r="4"/>
	<path fill="#FFFFFF" d="M-119-92L-119-92c-7.7,0-14-6.3-14-14v-2h28v2C-105-98.3-111.3-92-119-92z"/>
	<path fill="#FFBB9B" d="M-85-106h-2v-12h2c3.314,0,6,2.686,6,6v0C-79-108.7-81.7-106-85-106z"/>
	<path fill="#643536" d="M-87-118h4v-16c0-4.418-3.582-8-8-8h0v20C-91-119.791-89.209-118-87-118z"/>
	<path fill="#643536" d="M-87-128h-48c-8.837,0-16-7.163-16-16v0l56,0c4.418,0,8,3.582,8,8V-128z"/>
	<path fill="#643536" d="M-87-140l-44,0c-8.837,0-16-7.163-16-16v0h44C-94.163-156-87-148.837-87-140L-87-140z"/>
</g>
<g>
	<circle fill="#1D1433" cx="-290" cy="-108" r="60"/>
	<g>
		<defs>
			<circle id="SVGID_5_" cx="-290" cy="-108" r="60"/>
		</defs>
		<clipPath id="SVGID_6_">
			<use xlink:href="#SVGID_5_"  overflow="visible"/>
		</clipPath>
		<path clip-path="url(#SVGID_6_)" fill="#F0EBFF" d="M-254-44h-72v-16c0-17.673,14.327-32,32-32h8c17.673,0,32,14.327,32,32V-44z"
			/>
		<path clip-path="url(#SVGID_6_)" fill="#DED4FF" d="M-272-20h-48v-24c0-13.255,10.745-24,24-24h0c13.255,0,24,10.745,24,24V-20z"
			/>
	</g>
	<path fill="#F0EBFF" d="M-254-80h-72v-36c0-19.8,16.2-36,36-36h0c19.8,0,36,16.2,36,36L-254-80z"/>
	<path fill="#3E257A" d="M-290-96h-20c-11,0-20-9-20-20v0c0-11,9-20,20-20h20c11,0,20,9,20,20v0C-270-105-279-96-290-96z"/>
	<path fill="#50338F" d="M-322-116c0-11,9-20,20-20h-8c-11,0-20,9-20,20s9,20,20,20h8C-313-96-322-105-322-116z"/>
	<path fill="#1D1433" d="M-294-88h-2v-4h2c1.1,0,2,0.9,2,2v0C-292-88.9-292.9-88-294-88z"/>
	<path fill="#A385FF" d="M-254-72h-72c-2.2,0-4-1.8-4-4v0c0-2.2,1.8-4,4-4h72c2.2,0,4,1.8,4,4v0C-250-73.8-251.8-72-254-72z"/>
	<circle fill="#1D1433" cx="-286" cy="-116" r="4"/>
	<circle fill="#F5463A" cx="-266" cy="-64" r="2"/>
	<circle fill="#FFC036" cx="-274" cy="-64" r="2"/>
	<circle fill="#1D1433" cx="-302" cy="-116" r="4"/>
	<path fill="#A385FF" d="M-254-100h-4c-4.4,0-8-3.6-8-8v-8c0-4.4,3.6-8,8-8h4c4.4,0,8,3.6,8,8v8C-246-103.6-249.6-100-254-100z"/>
	<path fill="#F0EBFF" d="M-254-100L-254-100c-4.4,0-8-3.6-8-8v-8c0-4.4,3.6-8,8-8h0c4.4,0,8,3.6,8,8v8C-246-103.6-249.6-100-254-100
		z"/>
	<g>
		<path fill="#A385FF" d="M-254-110c-1.105,0-2-0.896-2-2v-28c0-1.104,0.895-2,2-2s2,0.896,2,2v28C-252-110.896-252.895-110-254-110
			z"/>
	</g>
	<path fill="#DED4FF" d="M-254-136L-254-136c-2.2,0-4-1.8-4-4l0,0c0-2.2,1.8-4,4-4l0,0c2.2,0,4,1.8,4,4l0,0
		C-250-137.8-251.8-136-254-136z"/>
	<rect x="-304" y="-92" fill="#1D1433" width="4" height="4"/>
	<path fill="#1D1433" d="M-304-88h-2c-1.105,0-2-0.895-2-2v0c0-1.105,0.895-2,2-2h2V-88z"/>
	<rect x="-300" y="-92" fill="#1D1433" width="4" height="4"/>
	<rect x="-354" y="-172" fill="none" width="128" height="128"/>
</g>
<g>
	<circle fill="#FFCE47" cx="60" cy="-108" r="60"/>
	<g>
		<defs>
			<circle id="SVGID_7_" cx="60" cy="-108" r="60"/>
		</defs>
		<clipPath id="SVGID_8_">
			<use xlink:href="#SVGID_7_"  overflow="visible"/>
		</clipPath>
		<path clip-path="url(#SVGID_8_)" fill="#643536" d="M92-68H32c-4.418,0-8-3.582-8-8v-56c0-8.837,7.163-16,16-16h24
			c19.882,0,36,16.118,36,36v36C100-71.582,96.418-68,92-68z"/>
		<path clip-path="url(#SVGID_8_)" fill="#CC2996" d="M88-28H32v-20c0-15.464,12.536-28,28-28h0c15.464,0,28,12.536,28,28V-28z"/>
		<path clip-path="url(#SVGID_8_)" fill="#FFA47A" d="M60-60c6.617,0,12-5.383,12-12v-1.269C68.359-75.002,64.301-76,60-76
			s-8.359,0.998-12,2.731V-72C48-65.383,53.383-60,60-60z"/>
	</g>
	<path fill="#FFA47A" d="M60-64L60-64c-4.418,0-8-3.582-8-8v-8c0-4.418,3.582-8,8-8h0c4.418,0,8,3.582,8,8v8
		C68-67.582,64.418-64,60-64z"/>
	<path fill="#FFBB9B" d="M60-78L60-78c-16.569,0-30-13.431-30-30v-8c0-16.569,13.431-30,30-30h0c16.569,0,30,13.431,30,30v8
		C90-91.431,76.569-78,60-78z"/>
	<path fill="#643536" d="M68-158h-2h-4H48c-6.293,0-11.484,4.913-11.954,11.092C36.023-146.607,36-146.306,36-146
		c0,13.2,10.8,24,24,24h34h6v-4C100-143.6,85.6-158,68-158z"/>
	<circle fill="#603535" cx="64" cy="-116" r="4"/>
	<circle fill="#603535" cx="48" cy="-116" r="4"/>
	<path fill="#FFFFFF" d="M56-92L56-92c-7.7,0-14-6.3-14-14v-2h28v2C70-98.3,63.7-92,56-92z"/>
	<path fill="#FFD8A8" d="M90-106h-2v-12h2c3.314,0,6,2.686,6,6v0C96-108.7,93.3-106,90-106z"/>
	<path fill="#643536" d="M92-68L92-68c4.418,0,8-3.582,8-8v-48H76v40C76-75.163,83.163-68,92-68z"/>
	<rect x="-4" y="-172" fill="none" width="128" height="128"/>
</g>
<g>
	<circle fill="#603535" cx="-115" cy="60" r="60"/>
	<path fill="#FF680A" d="M-115,40h-20V20c0-2.2,1.8-4,4-4h0c8.8,0,16,7.2,16,16V40z"/>
	<g>
		<defs>
			<circle id="SVGID_9_" cx="-115" cy="60" r="60"/>
		</defs>
		<clipPath id="SVGID_10_">
			<use xlink:href="#SVGID_9_"  overflow="visible"/>
		</clipPath>
		<path clip-path="url(#SVGID_10_)" fill="#FF7E29" d="M-81,132h-64v-8c0-19.8,16.2-36,36-36h28V132z"/>
		<path clip-path="url(#SVGID_10_)" fill="#FF680A" d="M-91,128h-48v-4c0-13.255,10.745-24,24-24h0c13.255,0,24,10.745,24,24V128z"
			/>
	</g>
	<path fill="#FF7E29" d="M-81,96h-32c-19.882,0-36-16.118-36-36v0c0-19.8,16.2-36,36-36h16c8.837,0,16,7.163,16,16V96z"/>
	<path fill="#FFE4D1" d="M-123,90L-123,90c-11.046,0-20-8.954-20-20v-4c0-4.418,3.582-8,8-8h24c4.4,0,8,3.6,8,8v4
		C-103,81.046-111.954,90-123,90z"/>
	<circle fill="#603535" cx="-111" cy="52" r="4"/>
	<circle fill="#603535" cx="-127" cy="52" r="4"/>
	<path fill="#603535" d="M-131,58h8c1.1,0,2,0.9,2,2v0c0,3.3-2.7,6-6,6h0c-3.3,0-6-2.7-6-6v0C-133,58.9-132.1,58-131,58z"/>
	<path fill="#FF680A" d="M-105,48L-105,48c0,1.1-0.9,2-2,2h-8c-1.1,0-2-0.9-2-2v0c0-1.1,0.9-2,2-2h8C-105.9,46-105,46.9-105,48z"/>
	<path fill="#FFE4D1" d="M-95,66L-95,66c0,1.1-0.9,2-2,2h-12c-1.1,0-2-0.9-2-2v0c0-1.1,0.9-2,2-2h12C-95.9,64-95,64.9-95,66z"/>
	<path fill="#FFE4D1" d="M-95,74L-95,74c0,1.1-0.9,2-2,2l-12,0c-1.1,0-2-0.9-2-2v0c0-1.1,0.9-2,2-2l12,0C-95.9,72-95,72.9-95,74z"/>
	<path fill="#FFE4D1" d="M-135,66L-135,66c0,1.1-0.9,2-2,2h-12c-1.1,0-2-0.9-2-2v0c0-1.1,0.9-2,2-2h12C-135.9,64-135,64.9-135,66z"
		/>
	<path fill="#FFE4D1" d="M-135,74L-135,74c0,1.1-0.9,2-2,2l-12,0c-1.1,0-2-0.9-2-2v0c0-1.1,0.9-2,2-2l12,0
		C-135.9,72-135,72.9-135,74z"/>
	<path fill="#FF680A" d="M-121,48L-121,48c0,1.1-0.9,2-2,2h-8c-1.1,0-2-0.9-2-2v0c0-1.1,0.9-2,2-2h8C-121.9,46-121,46.9-121,48z"/>
	<path fill="#FF7E29" d="M-101,40h20V20c0-2.2-1.8-4-4-4h0c-8.8,0-16,7.2-16,16V40z"/>
	<g>
		<path fill="#F3A9B1" d="M-85,32.036V20c-4.01,0-7.558,1.984-9.738,5.014C-90.808,26.31-87.429,28.793-85,32.036z"/>
	</g>
	<circle fill="#FFBD8F" cx="-111" cy="64" r="2"/>
	<circle fill="#FFBD8F" cx="-115" cy="72" r="2"/>
	<circle fill="#FFBD8F" cx="-139" cy="72" r="2"/>
	<path fill="#FF680A" d="M-85,72h4v-8h-4c-2.2,0-4,1.8-4,4v0C-89,70.2-87.2,72-85,72z"/>
	<path fill="#FF680A" d="M-85,84h4v-8h-4c-2.2,0-4,1.8-4,4v0C-89,82.2-87.2,84-85,84z"/>
	<path fill="#FF680A" d="M-89,96h8v-8h-8c-2.2,0-4,1.8-4,4v0C-93,94.2-91.2,96-89,96z"/>
	<rect x="-179" y="-4" fill="none" width="128" height="128"/>
</g>
<g>
	<circle fill="#2BD665" cx="-464" cy="60" r="60"/>
	<g>
		<defs>
			<circle id="SVGID_11_" cx="-464" cy="60" r="60"/>
		</defs>
		<clipPath id="SVGID_12_">
			<use xlink:href="#SVGID_11_"  overflow="visible"/>
		</clipPath>
		<path clip-path="url(#SVGID_12_)" fill="#C14F3B" d="M-472,32L-472,32c0,8.8-7.2,16-16,16h0c-8.8,0-16-7.2-16-16v0
			c0-8.8,7.2-16,16-16h0C-479.2,16-472,23.2-472,32z"/>
		<path clip-path="url(#SVGID_12_)" fill="#F3A9B1" d="M-479.515,34.828l-5.657,5.657c-1.556,1.556-4.101,1.556-5.657,0
			l-2.828-2.828c-3.111-3.111-3.111-8.202,0-11.314v0c3.111-3.111,8.202-3.111,11.314,0l2.828,2.828
			C-477.959,30.727-477.959,33.273-479.515,34.828z"/>
		<path clip-path="url(#SVGID_12_)" fill="#D76B5A" d="M-436,48L-436,48c-8.8,0-16-7.2-16-16v0c0-8.8,7.2-16,16-16h0
			c8.8,0,16,7.2,16,16v0C-420,40.8-427.2,48-436,48z"/>
		<path clip-path="url(#SVGID_12_)" fill="#F3A9B1" d="M-438.828,40.485l-5.657-5.657c-1.556-1.556-1.556-4.101,0-5.657l2.828-2.828
			c3.111-3.111,8.202-3.111,11.314,0v0c3.111,3.111,3.111,8.202,0,11.314l-2.828,2.828
			C-434.727,42.041-437.273,42.041-438.828,40.485z"/>
		<path clip-path="url(#SVGID_12_)" fill="#D76B5A" d="M-428,124h-72V52c0-19.8,16.2-36,36-36h0c19.8,0,36,16.2,36,36V124z"/>
		<path clip-path="url(#SVGID_12_)" fill="#C14F3B" d="M-432,68L-432,68c-1.1,0-2-0.9-2-2v-4c0-1.1,0.9-2,2-2l0,0c1.1,0,2,0.9,2,2v4
			C-430,67.1-430.9,68-432,68z"/>
		<path clip-path="url(#SVGID_12_)" fill="#C14F3B" d="M-440,80L-440,80c-1.1,0-2-0.9-2-2v-4c0-1.1,0.9-2,2-2l0,0c1.1,0,2,0.9,2,2v4
			C-438,79.1-438.9,80-440,80z"/>
		<path clip-path="url(#SVGID_12_)" fill="#C14F3B" d="M-432,92L-432,92c-1.1,0-2-0.9-2-2v-4c0-1.1,0.9-2,2-2l0,0c1.1,0,2,0.9,2,2v4
			C-430,91.1-430.9,92-432,92z"/>
		<path clip-path="url(#SVGID_12_)" fill="#C14F3B" d="M-440,104L-440,104c-1.1,0-2-0.9-2-2v-4c0-1.1,0.9-2,2-2l0,0c1.1,0,2,0.9,2,2
			v4C-438,103.1-438.9,104-440,104z"/>
		<path clip-path="url(#SVGID_12_)" fill="#C14F3B" d="M-448,116L-448,116c-1.1,0-2-0.9-2-2v-4c0-1.1,0.9-2,2-2l0,0c1.1,0,2,0.9,2,2
			v4C-446,115.1-446.9,116-448,116z"/>
		<path clip-path="url(#SVGID_12_)" fill="#C14F3B" d="M-456,124L-456,124c-1.1,0-2-0.9-2-2v-4c0-1.1,0.9-2,2-2l0,0c1.1,0,2,0.9,2,2
			v4C-454,123.1-454.9,124-456,124z"/>
		<path clip-path="url(#SVGID_12_)" fill="#C14F3B" d="M-488,120L-488,120c-1.1,0-2-0.9-2-2v-4c0-1.1,0.9-2,2-2l0,0c1.1,0,2,0.9,2,2
			v4C-486,119.1-486.9,120-488,120z"/>
		<path clip-path="url(#SVGID_12_)" fill="#C14F3B" d="M-496,108L-496,108c-1.1,0-2-0.9-2-2v-4c0-1.1,0.9-2,2-2l0,0c1.1,0,2,0.9,2,2
			v4C-494,107.1-494.9,108-496,108z"/>
		<path clip-path="url(#SVGID_12_)" fill="#C14F3B" d="M-432,116L-432,116c-1.1,0-2-0.9-2-2v-4c0-1.1,0.9-2,2-2l0,0c1.1,0,2,0.9,2,2
			v4C-430,115.1-430.9,116-432,116z"/>
	</g>
	<path fill="#FFA47A" d="M-472,96L-472,96c-6.6,0-12-5.4-12-12v-4h24v4C-460,90.6-465.4,96-472,96z"/>
	<path fill="#FFBB9B" d="M-464,90h-8c-2.209,0-4-1.791-4-4V58h8c8.8,0,16,7.2,16,16v4C-452,84.627-457.373,90-464,90z"/>
	<path fill="#FFBB9B" d="M-480,90L-480,90c2.209,0,4-1.791,4-4V58l0,0c-8.8,0-16,7.2-16,16v4C-492,84.627-486.627,90-480,90z"/>
	<circle fill="#603535" cx="-460" cy="52" r="4"/>
	<circle fill="#603535" cx="-476" cy="52" r="4"/>
	<path fill="#343A40" d="M-478,62h4c2.2,0,4,1.8,4,4v2c0,3.3-2.7,6-6,6l0,0c-3.3,0-6-2.7-6-6v-2C-482,63.8-480.2,62-478,62z"/>
	<path fill="#C14F3B" d="M-456,40L-456,40c0,1.1-0.9,2-2,2h-4c-1.1,0-2-0.9-2-2v0c0-1.1,0.9-2,2-2h4C-456.9,38-456,38.9-456,40z"/>
	<path fill="#C14F3B" d="M-472,44L-472,44c0,1.1-0.9,2-2,2h-4c-1.1,0-2-0.9-2-2v0c0-1.1,0.9-2,2-2h4C-472.9,42-472,42.9-472,44z"/>
	<rect x="-528" y="-4" fill="none" width="128" height="128"/>
</g>
<g>
	<circle fill="#CC2996" cx="-464" cy="-108" r="60"/>
	<g>
		<defs>
			<circle id="SVGID_13_" cx="-464" cy="-108" r="60"/>
		</defs>
		<use xlink:href="#SVGID_13_"  overflow="visible" fill="#7732D1"/>
		<clipPath id="SVGID_14_">
			<use xlink:href="#SVGID_13_"  overflow="visible"/>
		</clipPath>
		<path clip-path="url(#SVGID_14_)" fill="#FFC74D" d="M-440-40h-48v-24c0-13.255,10.745-24,24-24h0c13.255,0,24,10.745,24,24V-40z"
			/>
		<path clip-path="url(#SVGID_14_)" fill="#FFBE33" d="M-484.763-76h41.526c-4.151-7.167-11.885-12-20.763-12
			C-472.878-88-480.612-83.167-484.763-76z"/>
	</g>
	<path fill="#C07867" d="M-428-80h-28v-64h28c2.209,0,4,1.791,4,4v56C-424-81.791-425.791-80-428-80z"/>
	<path fill="#F4A568" d="M-436-120v-20c0-2.209-1.791-4-4-4h8c2.209,0,4,1.791,4,4v20H-436z"/>
	<path fill="#F4A568" d="M-444-80h-56c-2.209,0-4-1.791-4-4v-56c0-2.209,1.791-4,4-4h56c2.209,0,4,1.791,4,4v56
		C-440-81.791-441.791-80-444-80z"/>
	<path fill="#FFBB9B" d="M-456-108h-32c-4.4,0-8-3.6-8-8v0c0-4.4,3.6-8,8-8h32c4.4,0,8,3.6,8,8v0C-448-111.6-451.6-108-456-108z"/>
	<path fill="#C07867" d="M-488-116c0-4.4,3.6-8,8-8h-8c-4.4,0-8,3.6-8,8s3.6,8,8,8h8C-484.4-108-488-111.6-488-116z"/>
	<circle fill="#603535" cx="-460" cy="-116" r="4"/>
	<circle fill="#603535" cx="-476" cy="-116" r="4"/>
	<rect x="-528" y="-172" fill="none" width="128" height="128"/>
</g>
<g>
	<g>
		<defs>
			<circle id="SVGID_15_" cx="60" cy="60" r="60"/>
		</defs>
		<use xlink:href="#SVGID_15_"  overflow="visible" fill="#6521CC"/>
		<clipPath id="SVGID_16_">
			<use xlink:href="#SVGID_15_"  overflow="visible"/>
		</clipPath>
		<path clip-path="url(#SVGID_16_)" fill="#FF85C8" d="M84,96H72c-4.418,0-8-3.582-8-8V52c0-11,9-20,20-20h0c11,0,20,9,20,20v24
			C104,87,95,96,84,96z"/>
		<path clip-path="url(#SVGID_16_)" fill="#F8F9FA" d="M96,132H32v-8c0-19.8,16.2-36,36-36h28L96,132z"/>
		<path clip-path="url(#SVGID_16_)" fill="#DED4FF" d="M88,124H40v0c0-13.255,10.745-24,24-24h0C77.255,100,88,110.745,88,124
			L88,124z"/>
	</g>
	<path fill="#F8F9FA" d="M96,92H56c-22,0-40-18-40-40v0c0-6.627,5.373-12,12-12h68V92z"/>
	<g>
		<defs>
			<path id="SVGID_17_" d="M96,92H56c-22,0-40-18-40-40v0c0-6.627,5.373-12,12-12h68V92z"/>
		</defs>
		<clipPath id="SVGID_18_">
			<use xlink:href="#SVGID_17_"  overflow="visible"/>
		</clipPath>
		<path clip-path="url(#SVGID_18_)" fill="#DED4FF" d="M28,68h-4c-4.418,0-8-3.582-8-8l0-8c0-6.627,5.373-12,12-12h0
			c6.627,0,12,5.373,12,12v4C40,62.627,34.627,68,28,68z"/>
	</g>
	<circle fill="#B199FF" cx="30" cy="62" r="2"/>
	<circle fill="#B199FF" cx="22" cy="62" r="2"/>
	<circle fill="#603535" cx="64" cy="52" r="4"/>
	<circle fill="#603535" cx="48" cy="52" r="4"/>
	<path fill="#F8F9FA" d="M84,32v18h12V32c0-3.314-2.686-6-6-6h0C86.686,26,84,28.686,84,32z"/>
	<path fill="#FFADDA" d="M88,32v6h4v-6c0-1.105-0.895-2-2-2h0C88.895,30,88,30.895,88,32z"/>
	<g>
		<path fill="#FFAA00" d="M68,20h-8v0c0-2.2,1.8-4,4-4h0C66.2,16,68,17.8,68,20L68,20z"/>
		<rect x="60" y="20" fill="#FFCE47" width="8" height="4"/>
		<rect x="60" y="24" fill="#FFAA00" width="8" height="4"/>
		<rect x="60" y="28" fill="#FFCE47" width="8" height="4"/>
		<rect x="60" y="32" fill="#FFAA00" width="8" height="4"/>
		<rect x="60" y="36" fill="#FFCE47" width="8" height="4"/>
	</g>
	<rect x="-4" y="-4" fill="none" width="128" height="128"/>
</g>
</svg>
