<?xml version="1.0" encoding="utf-8"?>
<!-- Generator: Adobe Illustrator 17.0.0, SVG Export Plug-In . SVG Version: 6.00 Build 0)  -->
<!DOCTYPE svg PUBLIC "-//W3C//DTD SVG 1.0//EN" "http://www.w3.org/TR/2001/REC-SVG-20010904/DTD/svg10.dtd">
<svg version="1.0" id="Layer_1" xmlns="http://www.w3.org/2000/svg" xmlns:xlink="http://www.w3.org/1999/xlink" x="0px" y="0px"
	 width="120px" height="120px" viewBox="0 0 120 120" enable-background="new 0 0 120 120" xml:space="preserve">
<g>
	<path d="M-336-249.2h-5.8l-1.2,3.2h-2.9l5.4-14.2h3.2l5.4,14.2h-3L-336-249.2z M-340.8-251.7h3.9l-2-5.4L-340.8-251.7z"/>
	<path d="M-325.6-246h-2.7l-4-9.8h2.9l2.4,6.6l2.3-6.6h2.8L-325.6-246z"/>
	<path d="M-320.8-248.7c0-0.4,0.1-0.8,0.2-1.2c0.2-0.3,0.4-0.6,0.6-0.9c0.3-0.3,0.6-0.5,0.9-0.6c0.4-0.1,0.7-0.3,1.1-0.3l2.4-0.4
		c0.3,0,0.5-0.1,0.6-0.3c0.1-0.1,0.2-0.3,0.2-0.5c0-0.3-0.1-0.6-0.4-0.9c-0.3-0.3-0.7-0.4-1.3-0.4c-0.6,0-1,0.2-1.3,0.5
		c-0.3,0.3-0.5,0.7-0.5,1.1l-2.4-0.5c0-0.4,0.2-0.8,0.4-1.2s0.5-0.7,0.8-1c0.3-0.3,0.8-0.6,1.3-0.8c0.5-0.2,1.1-0.3,1.8-0.3
		c0.8,0,1.4,0.1,2,0.3c0.5,0.2,1,0.5,1.3,0.8c0.3,0.3,0.6,0.7,0.7,1.2s0.2,0.9,0.2,1.4v4.8c0,0.3,0,0.6,0,0.9c0,0.3,0.1,0.5,0.1,0.7
		h-2.4c0-0.1,0-0.3-0.1-0.5c0-0.2,0-0.4,0-0.6c-0.3,0.4-0.6,0.7-1.1,1c-0.5,0.3-1.1,0.4-1.8,0.4c-0.5,0-1-0.1-1.4-0.3
		c-0.4-0.2-0.8-0.4-1.1-0.7s-0.5-0.6-0.7-0.9C-320.7-247.9-320.8-248.3-320.8-248.7z M-316.8-247.7c0.3,0,0.5,0,0.8-0.1
		c0.3-0.1,0.5-0.2,0.7-0.4s0.4-0.4,0.5-0.7c0.1-0.3,0.2-0.6,0.2-1.1v-0.4l-2.2,0.3c-0.3,0.1-0.6,0.2-0.9,0.4s-0.3,0.5-0.3,0.9
		c0,0.3,0.1,0.6,0.3,0.8S-317.2-247.7-316.8-247.7z"/>
	<path d="M-306.2-255.8h2v2.4h-2v4.1c0,0.4,0.1,0.7,0.3,0.9c0.2,0.2,0.5,0.3,0.9,0.3c0.2,0,0.3,0,0.5,0c0.2,0,0.3,0,0.3-0.1v2.2
		c-0.1,0.1-0.3,0.1-0.5,0.2c-0.2,0.1-0.6,0.1-1,0.1c-1,0-1.7-0.3-2.3-0.8c-0.6-0.5-0.8-1.3-0.8-2.2v-4.6h-1.8v-2.4h0.5
		c0.5,0,0.9-0.2,1.1-0.5c0.2-0.3,0.4-0.7,0.4-1.1v-1.4h2.4V-255.8z"/>
	<path d="M-302.5-248.7c0-0.4,0.1-0.8,0.2-1.2c0.2-0.3,0.4-0.6,0.6-0.9c0.3-0.3,0.6-0.5,0.9-0.6c0.4-0.1,0.7-0.3,1.1-0.3l2.4-0.4
		c0.3,0,0.5-0.1,0.6-0.3c0.1-0.1,0.2-0.3,0.2-0.5c0-0.3-0.1-0.6-0.4-0.9c-0.3-0.3-0.7-0.4-1.3-0.4c-0.6,0-1,0.2-1.3,0.5
		c-0.3,0.3-0.5,0.7-0.5,1.1l-2.4-0.5c0-0.4,0.2-0.8,0.4-1.2s0.5-0.7,0.8-1c0.3-0.3,0.8-0.6,1.3-0.8c0.5-0.2,1.1-0.3,1.8-0.3
		c0.8,0,1.4,0.1,2,0.3c0.5,0.2,1,0.5,1.3,0.8c0.3,0.3,0.6,0.7,0.7,1.2s0.2,0.9,0.2,1.4v4.8c0,0.3,0,0.6,0,0.9c0,0.3,0.1,0.5,0.1,0.7
		h-2.4c0-0.1,0-0.3-0.1-0.5c0-0.2,0-0.4,0-0.6c-0.3,0.4-0.6,0.7-1.1,1c-0.5,0.3-1.1,0.4-1.8,0.4c-0.5,0-1-0.1-1.4-0.3
		c-0.4-0.2-0.8-0.4-1.1-0.7s-0.5-0.6-0.7-0.9C-302.4-247.9-302.5-248.3-302.5-248.7z M-298.5-247.7c0.3,0,0.5,0,0.8-0.1
		c0.3-0.1,0.5-0.2,0.7-0.4s0.4-0.4,0.5-0.7c0.1-0.3,0.2-0.6,0.2-1.1v-0.4l-2.2,0.3c-0.3,0.1-0.6,0.2-0.9,0.4s-0.3,0.5-0.3,0.9
		c0,0.3,0.1,0.6,0.3,0.8S-298.9-247.7-298.5-247.7z"/>
	<path d="M-285.1-253.2c-0.3-0.1-0.5-0.1-0.8-0.1c-0.3,0-0.7,0-1,0.1c-0.3,0.1-0.6,0.2-0.8,0.5c-0.2,0.2-0.4,0.5-0.5,0.9
		c-0.1,0.4-0.2,0.8-0.2,1.3v4.5h-2.7v-9.8h2.6v1.5c0.1-0.3,0.3-0.6,0.6-0.8c0.2-0.2,0.5-0.4,0.7-0.5c0.3-0.1,0.5-0.2,0.8-0.2
		s0.5-0.1,0.7-0.1c0.1,0,0.2,0,0.3,0c0.1,0,0.2,0,0.3,0V-253.2z"/>
	<path d="M-281.7-249.2c0,0.4,0.2,0.7,0.5,1c0.3,0.3,0.7,0.5,1.3,0.5c0.4,0,0.8-0.1,1-0.3c0.2-0.2,0.3-0.4,0.3-0.7
		c0-0.2-0.1-0.4-0.2-0.6c-0.2-0.2-0.4-0.3-0.8-0.4l-1.3-0.3c-1-0.2-1.7-0.6-2.1-1.1s-0.7-1.1-0.7-1.8c0-0.4,0.1-0.9,0.3-1.3
		c0.2-0.4,0.4-0.7,0.8-1c0.3-0.3,0.7-0.5,1.2-0.7s0.9-0.3,1.5-0.3c0.7,0,1.3,0.1,1.8,0.3c0.5,0.2,0.9,0.4,1.2,0.7
		c0.3,0.3,0.5,0.6,0.7,0.9c0.1,0.3,0.2,0.6,0.3,0.9l-2.2,0.5c0-0.1-0.1-0.3-0.1-0.5c-0.1-0.2-0.2-0.3-0.3-0.4
		c-0.1-0.1-0.3-0.2-0.5-0.3s-0.4-0.1-0.7-0.1c-0.3,0-0.6,0.1-0.9,0.3c-0.2,0.2-0.4,0.4-0.4,0.7c0,0.2,0.1,0.4,0.3,0.6
		c0.2,0.1,0.4,0.2,0.6,0.3l1.4,0.3c1,0.2,1.7,0.6,2.2,1.1c0.5,0.5,0.7,1.2,0.7,1.9c0,0.4-0.1,0.8-0.2,1.2s-0.4,0.7-0.7,1
		c-0.3,0.3-0.7,0.6-1.2,0.7c-0.5,0.2-1,0.3-1.7,0.3c-0.7,0-1.4-0.1-1.9-0.3c-0.5-0.2-0.9-0.5-1.2-0.8c-0.3-0.3-0.6-0.6-0.7-1
		c-0.2-0.4-0.2-0.7-0.3-1L-281.7-249.2z"/>
	<path fill="#5C5C5C" d="M-269.2-246v-14.2h2.8v14.2H-269.2z"/>
	<path fill="#5C5C5C" d="M-259-253.7c-0.3,0-0.7,0.1-1,0.2s-0.6,0.3-0.8,0.5c-0.2,0.2-0.4,0.5-0.5,0.9c-0.1,0.3-0.2,0.7-0.2,1.2
		s0.1,0.8,0.2,1.2c0.1,0.3,0.3,0.6,0.5,0.9c0.2,0.2,0.5,0.4,0.8,0.5c0.3,0.1,0.6,0.2,1,0.2c0.3,0,0.6,0,0.9-0.1s0.5-0.2,0.7-0.4
		c0.2-0.2,0.3-0.3,0.5-0.5c0.1-0.2,0.2-0.4,0.3-0.6l2.3,0.8c-0.1,0.4-0.3,0.8-0.5,1.2c-0.2,0.4-0.6,0.7-0.9,1.1
		c-0.4,0.3-0.8,0.6-1.4,0.8c-0.5,0.2-1.1,0.3-1.8,0.3c-0.7,0-1.4-0.1-2-0.4c-0.6-0.3-1.2-0.6-1.7-1.1c-0.5-0.5-0.8-1-1.1-1.6
		c-0.3-0.6-0.4-1.3-0.4-2.1c0-0.8,0.1-1.5,0.4-2.1c0.3-0.6,0.6-1.2,1.1-1.6s1-0.8,1.6-1.1c0.6-0.3,1.3-0.4,2-0.4
		c0.7,0,1.3,0.1,1.8,0.3c0.5,0.2,1,0.4,1.4,0.8c0.4,0.3,0.7,0.7,0.9,1.1s0.4,0.8,0.5,1.2l-2.4,0.8c-0.1-0.4-0.3-0.8-0.7-1.1
		C-257.8-253.5-258.3-253.7-259-253.7z"/>
	<path fill="#5C5C5C" d="M-248.1-256.1c0.7,0,1.4,0.1,2,0.4c0.6,0.3,1.2,0.6,1.6,1.1s0.8,1,1.1,1.6c0.3,0.6,0.4,1.3,0.4,2.1
		c0,0.8-0.1,1.5-0.4,2.1c-0.3,0.6-0.6,1.2-1.1,1.6c-0.5,0.5-1,0.8-1.6,1.1c-0.6,0.3-1.3,0.4-2,0.4s-1.4-0.1-2-0.4
		c-0.6-0.3-1.2-0.6-1.6-1.1c-0.5-0.5-0.8-1-1.1-1.6c-0.3-0.6-0.4-1.3-0.4-2.1c0-0.8,0.1-1.5,0.4-2.1c0.3-0.6,0.6-1.2,1.1-1.6
		s1-0.8,1.6-1.1C-249.5-256-248.8-256.1-248.1-256.1z M-248.1-248.1c0.3,0,0.6-0.1,0.9-0.2c0.3-0.1,0.6-0.3,0.8-0.5
		c0.2-0.2,0.4-0.5,0.5-0.9c0.1-0.3,0.2-0.8,0.2-1.2s-0.1-0.9-0.2-1.2c-0.1-0.3-0.3-0.6-0.5-0.9s-0.5-0.4-0.8-0.5
		c-0.3-0.1-0.6-0.2-0.9-0.2s-0.6,0.1-0.9,0.2c-0.3,0.1-0.6,0.3-0.8,0.5s-0.4,0.5-0.5,0.9c-0.1,0.3-0.2,0.8-0.2,1.2s0.1,0.9,0.2,1.2
		c0.1,0.3,0.3,0.6,0.5,0.9c0.2,0.2,0.5,0.4,0.8,0.5C-248.7-248.2-248.4-248.1-248.1-248.1z"/>
	<path fill="#5C5C5C" d="M-238.2-246h-2.7v-9.8h2.6v1.2c0.3-0.5,0.7-0.9,1.3-1.1c0.5-0.2,1.1-0.4,1.6-0.4c0.6,0,1.1,0.1,1.6,0.3
		c0.4,0.2,0.8,0.5,1.1,0.8c0.3,0.3,0.5,0.8,0.7,1.2c0.1,0.5,0.2,1,0.2,1.5v6.2h-2.7v-5.7c0-0.6-0.1-1-0.4-1.4
		c-0.3-0.4-0.8-0.6-1.4-0.6c-0.6,0-1,0.2-1.4,0.6c-0.3,0.4-0.5,0.9-0.5,1.4V-246z"/>
	<path fill="#5C5C5C" d="M-216.9-256c0-0.2-0.1-0.4-0.2-0.6c-0.1-0.2-0.3-0.5-0.5-0.6c-0.2-0.2-0.5-0.4-0.8-0.5s-0.7-0.2-1.2-0.2
		c-0.3,0-0.6,0-0.9,0.1c-0.3,0.1-0.5,0.2-0.7,0.4c-0.2,0.2-0.3,0.4-0.5,0.6s-0.2,0.4-0.2,0.7c0,0.4,0.1,0.7,0.4,1s0.6,0.5,1.2,0.6
		l2,0.4c0.6,0.1,1.2,0.3,1.7,0.6c0.5,0.3,0.9,0.6,1.2,1s0.6,0.8,0.8,1.2c0.2,0.5,0.3,0.9,0.3,1.4c0,0.5-0.1,1.1-0.3,1.6
		c-0.2,0.5-0.6,1-1,1.4c-0.4,0.4-1,0.7-1.6,1c-0.6,0.3-1.4,0.4-2.2,0.4c-0.9,0-1.8-0.1-2.4-0.4c-0.7-0.3-1.3-0.6-1.7-1.1
		c-0.5-0.4-0.8-0.9-1-1.4s-0.4-1-0.4-1.6l2.6-0.7c0,0.3,0.1,0.7,0.3,1c0.1,0.3,0.3,0.6,0.6,0.8c0.3,0.2,0.6,0.4,0.9,0.6
		c0.4,0.1,0.8,0.2,1.3,0.2c0.7,0,1.3-0.2,1.7-0.5s0.6-0.7,0.6-1.3c0-0.4-0.1-0.8-0.4-1.1c-0.3-0.3-0.7-0.5-1.3-0.6l-2-0.4
		c-1.1-0.2-2-0.7-2.7-1.4c-0.7-0.7-1-1.6-1-2.7c0-0.6,0.1-1.2,0.4-1.8c0.3-0.5,0.6-1,1.1-1.4c0.5-0.4,1-0.7,1.6-0.9
		c0.6-0.2,1.2-0.3,1.9-0.3c0.9,0,1.6,0.1,2.2,0.4c0.6,0.2,1.1,0.5,1.5,0.9c0.4,0.4,0.7,0.8,0.9,1.2s0.4,0.8,0.5,1.3L-216.9-256z"/>
	<path fill="#5C5C5C" d="M-203.4-248.8c-0.1,0.4-0.3,0.8-0.6,1.2c-0.3,0.4-0.6,0.7-1,1c-0.4,0.3-0.8,0.5-1.3,0.7
		c-0.5,0.2-1,0.3-1.7,0.3c-0.7,0-1.3-0.1-1.9-0.3c-0.6-0.2-1.2-0.6-1.6-1c-0.5-0.5-0.8-1-1.1-1.7c-0.3-0.7-0.4-1.4-0.4-2.2
		c0-0.8,0.1-1.5,0.4-2.1s0.6-1.2,1.1-1.6c0.4-0.4,1-0.8,1.5-1c0.6-0.2,1.2-0.4,1.8-0.4c1.5,0,2.7,0.5,3.6,1.4s1.3,2.2,1.3,3.7
		c0,0.2,0,0.4,0,0.5c0,0.2,0,0.3,0,0.3h-7c0,0.3,0.1,0.6,0.2,0.9c0.1,0.3,0.3,0.5,0.5,0.7c0.2,0.2,0.5,0.4,0.8,0.5s0.6,0.2,0.9,0.2
		c0.6,0,1.1-0.1,1.5-0.4c0.4-0.3,0.6-0.6,0.8-1.1L-203.4-248.8z M-205.9-252c0-0.2-0.1-0.5-0.1-0.7c-0.1-0.2-0.2-0.4-0.4-0.6
		c-0.2-0.2-0.4-0.3-0.7-0.4c-0.3-0.1-0.6-0.2-1-0.2c-0.3,0-0.7,0.1-0.9,0.2c-0.3,0.1-0.5,0.3-0.7,0.5s-0.3,0.4-0.4,0.6
		c-0.1,0.2-0.2,0.5-0.2,0.7H-205.9z"/>
	<path fill="#5C5C5C" d="M-197.9-255.8h2v2.4h-2v4.1c0,0.4,0.1,0.7,0.3,0.9c0.2,0.2,0.5,0.3,0.9,0.3c0.2,0,0.3,0,0.5,0
		c0.2,0,0.3,0,0.3-0.1v2.2c-0.1,0.1-0.3,0.1-0.5,0.2c-0.2,0.1-0.6,0.1-1,0.1c-1,0-1.7-0.3-2.3-0.8c-0.6-0.5-0.8-1.3-0.8-2.2v-4.6
		h-1.8v-2.4h0.5c0.5,0,0.9-0.2,1.1-0.5c0.2-0.3,0.4-0.7,0.4-1.1v-1.4h2.4V-255.8z"/>
</g>
<line fill="none" stroke="#EEEEEE" stroke-width="2" stroke-miterlimit="10" x1="-347" y1="-226" x2="293" y2="-226"/>
<line fill="none" stroke="#EEEEEE" stroke-width="2" stroke-miterlimit="10" x1="-347" y1="193" x2="293" y2="193"/>
<g opacity="0.6">
	<path fill="#999999" d="M173.6,215.5c0.3,0,0.5,0,0.7,0.1s0.4,0.2,0.5,0.3c0.1,0.1,0.3,0.3,0.3,0.5c0.1,0.2,0.1,0.4,0.1,0.6
		c0,0.3-0.1,0.6-0.2,0.8c-0.2,0.2-0.4,0.4-0.6,0.5c0.2,0,0.3,0.1,0.4,0.2c0.1,0.1,0.2,0.2,0.3,0.3s0.2,0.3,0.2,0.4
		c0,0.1,0.1,0.3,0.1,0.5c0,0.2,0,0.4-0.1,0.6c-0.1,0.2-0.2,0.4-0.4,0.5c-0.2,0.1-0.3,0.2-0.6,0.3c-0.2,0.1-0.5,0.1-0.7,0.1h-2v-5.7
		H173.6z M173.5,218c0.3,0,0.6-0.1,0.7-0.3c0.2-0.2,0.3-0.4,0.3-0.7c0-0.3-0.1-0.5-0.3-0.6c-0.2-0.2-0.4-0.2-0.8-0.2h-0.9v1.8H173.5
		z M173.7,220.5c0.3,0,0.6-0.1,0.8-0.2c0.2-0.2,0.3-0.4,0.3-0.7c0-0.3-0.1-0.5-0.3-0.7c-0.2-0.2-0.4-0.3-0.8-0.3h-1.1v1.8H173.7z"/>
	<path fill="#999999" d="M178.2,217.2c0.3,0,0.6,0.1,0.8,0.2c0.2,0.1,0.4,0.2,0.6,0.4s0.3,0.4,0.4,0.6s0.1,0.5,0.1,0.8
		c0,0.3,0,0.6-0.1,0.8c-0.1,0.3-0.2,0.5-0.4,0.6s-0.4,0.3-0.6,0.4c-0.2,0.1-0.5,0.2-0.8,0.2c-0.3,0-0.6-0.1-0.8-0.2
		c-0.2-0.1-0.4-0.2-0.6-0.4s-0.3-0.4-0.4-0.6c-0.1-0.3-0.1-0.5-0.1-0.8c0-0.3,0-0.6,0.1-0.8s0.2-0.5,0.4-0.6s0.4-0.3,0.6-0.4
		C177.7,217.2,177.9,217.2,178.2,217.2z M178.2,220.6c0.2,0,0.3,0,0.5-0.1c0.1-0.1,0.3-0.1,0.4-0.3c0.1-0.1,0.2-0.3,0.3-0.4
		c0.1-0.2,0.1-0.4,0.1-0.6c0-0.2,0-0.4-0.1-0.6c-0.1-0.2-0.2-0.3-0.3-0.4c-0.1-0.1-0.2-0.2-0.4-0.3c-0.1-0.1-0.3-0.1-0.5-0.1
		s-0.3,0-0.5,0.1c-0.1,0.1-0.3,0.1-0.4,0.3c-0.1,0.1-0.2,0.3-0.3,0.4s-0.1,0.4-0.1,0.6c0,0.2,0,0.4,0.1,0.6s0.2,0.3,0.3,0.4
		s0.2,0.2,0.4,0.3C177.9,220.6,178.1,220.6,178.2,220.6z"/>
	<path fill="#999999" d="M181.9,219.2l-1.4-1.9h0.9l0.9,1.4l0.9-1.4h0.9l-1.4,1.9c0,0.1,0.1,0.1,0.2,0.2c0.1,0.1,0.2,0.2,0.3,0.3
		s0.2,0.3,0.3,0.4c0.1,0.1,0.2,0.3,0.3,0.4s0.2,0.2,0.3,0.3c0.1,0.1,0.1,0.2,0.2,0.2h-0.9l-1-1.4l-1,1.4h-0.9L181.9,219.2z"/>
	<path fill="#999999" d="M191.3,221.1l-0.1-0.8c-0.1,0.1-0.2,0.2-0.3,0.3c-0.1,0.1-0.2,0.2-0.4,0.3s-0.3,0.2-0.5,0.2
		c-0.2,0.1-0.4,0.1-0.7,0.1c-0.4,0-0.7-0.1-1-0.2c-0.3-0.1-0.6-0.3-0.9-0.6c-0.3-0.3-0.5-0.6-0.6-0.9c-0.2-0.4-0.2-0.8-0.2-1.3
		c0-0.5,0.1-0.9,0.2-1.3s0.4-0.7,0.6-0.9c0.3-0.2,0.6-0.4,0.9-0.6s0.7-0.2,1-0.2c0.3,0,0.6,0,0.9,0.1s0.5,0.2,0.7,0.3
		s0.4,0.3,0.6,0.5c0.2,0.2,0.3,0.4,0.4,0.7l-0.7,0.3c-0.1-0.4-0.3-0.7-0.7-1c-0.3-0.2-0.7-0.3-1.1-0.3c-0.3,0-0.5,0-0.7,0.1
		c-0.2,0.1-0.5,0.2-0.6,0.4c-0.2,0.2-0.3,0.4-0.5,0.7c-0.1,0.3-0.2,0.6-0.2,1c0,0.4,0.1,0.7,0.2,1c0.1,0.3,0.3,0.5,0.4,0.7
		c0.2,0.2,0.4,0.3,0.6,0.4c0.2,0.1,0.5,0.1,0.7,0.1c0.3,0,0.6,0,0.8-0.1s0.4-0.2,0.5-0.4s0.2-0.3,0.3-0.5c0.1-0.2,0.1-0.3,0.1-0.5
		h-2v-0.7h2.7v2.8H191.3z"/>
	<path fill="#999999" d="M195.6,220.7c-0.1,0.2-0.3,0.4-0.5,0.4c-0.2,0.1-0.4,0.1-0.7,0.1c-0.2,0-0.4,0-0.6-0.1
		c-0.2-0.1-0.3-0.2-0.5-0.3c-0.1-0.1-0.2-0.3-0.3-0.5c-0.1-0.2-0.1-0.4-0.1-0.6v-2.4h0.8v2.3c0,0.1,0,0.3,0,0.4
		c0,0.1,0.1,0.2,0.2,0.3c0.1,0.1,0.2,0.2,0.3,0.2s0.2,0.1,0.4,0.1c0.3,0,0.5-0.1,0.7-0.3c0.2-0.2,0.2-0.4,0.2-0.7v-2.3h0.8v3.1
		c0,0.2,0,0.3,0,0.4c0,0.1,0,0.2,0,0.3h-0.7c0,0,0-0.1,0-0.2C195.6,220.8,195.6,220.8,195.6,220.7z"/>
	<path fill="#999999" d="M197.7,222.8l1-2l-1.7-3.4h0.9l1.2,2.7l1.2-2.7h0.8l-2.5,5.5H197.7z"/>
	<path fill="#999999" d="M200.8,220.6c0-0.1,0.1-0.3,0.2-0.4s0.3-0.2,0.4-0.2c0.2,0,0.3,0.1,0.5,0.2c0.1,0.1,0.2,0.3,0.2,0.6
		c0,0.3,0,0.5-0.1,0.7c-0.1,0.2-0.2,0.3-0.3,0.5c-0.1,0.1-0.2,0.2-0.4,0.3c-0.1,0.1-0.3,0.1-0.4,0.1V222c0.1,0,0.2-0.1,0.3-0.1
		c0.1-0.1,0.2-0.1,0.2-0.2c0.1-0.1,0.1-0.2,0.1-0.3c0-0.1,0.1-0.2,0.1-0.3c0,0,0,0-0.1,0c0,0-0.1,0-0.1,0c-0.2,0-0.3,0-0.4-0.1
		C200.9,220.9,200.8,220.8,200.8,220.6z"/>
	<path fill="#999999" d="M208.6,219.6h-2.5l-0.6,1.6h-0.8l2.3-5.7h0.9l2.3,5.7h-0.8L208.6,219.6z M206.4,218.8h2l-1-2.5L206.4,218.8
		z"/>
	<path fill="#999999" d="M211.1,219.9c0,0.2,0.1,0.4,0.3,0.5c0.1,0.1,0.4,0.2,0.6,0.2c0.2,0,0.4-0.1,0.5-0.2
		c0.1-0.1,0.2-0.2,0.2-0.4c0-0.1,0-0.2-0.1-0.3c-0.1-0.1-0.2-0.1-0.4-0.2l-0.7-0.1c-0.3-0.1-0.5-0.2-0.7-0.4
		c-0.2-0.2-0.3-0.4-0.3-0.7c0-0.2,0-0.3,0.1-0.5s0.2-0.3,0.3-0.4c0.1-0.1,0.3-0.2,0.4-0.3c0.2-0.1,0.3-0.1,0.5-0.1
		c0.3,0,0.5,0,0.7,0.1c0.2,0.1,0.3,0.2,0.4,0.3c0.1,0.1,0.2,0.2,0.3,0.3c0.1,0.1,0.1,0.2,0.1,0.3l-0.7,0.2c0,0,0-0.1-0.1-0.2
		c0-0.1-0.1-0.1-0.1-0.2s-0.1-0.1-0.2-0.2s-0.2-0.1-0.4-0.1c-0.2,0-0.3,0.1-0.5,0.2c-0.1,0.1-0.2,0.2-0.2,0.4c0,0.2,0.1,0.4,0.4,0.5
		l0.6,0.1c0.4,0.1,0.6,0.2,0.8,0.4c0.2,0.2,0.3,0.4,0.3,0.7c0,0.1,0,0.3-0.1,0.4s-0.1,0.3-0.3,0.4c-0.1,0.1-0.3,0.2-0.4,0.3
		c-0.2,0.1-0.4,0.1-0.6,0.1c-0.3,0-0.5,0-0.7-0.1c-0.2-0.1-0.3-0.2-0.5-0.3c-0.1-0.1-0.2-0.2-0.3-0.4s-0.1-0.3-0.1-0.4L211.1,219.9z
		"/>
	<path fill="#999999" d="M215.5,217.3h0.8v0.7h-0.8v2c0,0.2,0,0.3,0.1,0.4c0.1,0.1,0.2,0.1,0.4,0.1c0,0,0.1,0,0.2,0
		c0.1,0,0.1,0,0.1,0v0.6c0,0-0.1,0-0.2,0c-0.1,0-0.2,0-0.3,0c-0.3,0-0.6-0.1-0.8-0.3c-0.2-0.2-0.3-0.5-0.3-0.8V218H214v-0.7h0.2
		c0.2,0,0.4-0.1,0.5-0.2c0.1-0.1,0.1-0.3,0.1-0.4v-0.6h0.7V217.3z"/>
	<path fill="#999999" d="M219.3,218.1c-0.1,0-0.2,0-0.3,0c-0.3,0-0.6,0.1-0.8,0.3s-0.3,0.5-0.3,0.9v1.9h-0.8v-3.8h0.7v0.7
		c0.1-0.1,0.2-0.3,0.2-0.4c0.1-0.1,0.2-0.2,0.3-0.2c0.1-0.1,0.2-0.1,0.3-0.1c0.1,0,0.2,0,0.3,0c0.1,0,0.1,0,0.1,0c0,0,0.1,0,0.1,0
		V218.1z"/>
	<path fill="#999999" d="M221.7,217.2c0.3,0,0.6,0.1,0.8,0.2c0.2,0.1,0.4,0.2,0.6,0.4s0.3,0.4,0.4,0.6c0.1,0.2,0.1,0.5,0.1,0.8
		c0,0.3,0,0.6-0.1,0.8c-0.1,0.3-0.2,0.5-0.4,0.6s-0.4,0.3-0.6,0.4c-0.2,0.1-0.5,0.2-0.8,0.2c-0.3,0-0.6-0.1-0.8-0.2
		c-0.2-0.1-0.4-0.2-0.6-0.4s-0.3-0.4-0.4-0.6c-0.1-0.3-0.1-0.5-0.1-0.8c0-0.3,0-0.6,0.1-0.8s0.2-0.5,0.4-0.6s0.4-0.3,0.6-0.4
		C221.2,217.2,221.5,217.2,221.7,217.2z M221.7,220.6c0.2,0,0.3,0,0.5-0.1s0.3-0.1,0.4-0.3c0.1-0.1,0.2-0.3,0.3-0.4s0.1-0.4,0.1-0.6
		c0-0.2,0-0.4-0.1-0.6s-0.2-0.3-0.3-0.4c-0.1-0.1-0.2-0.2-0.4-0.3s-0.3-0.1-0.5-0.1s-0.3,0-0.5,0.1c-0.1,0.1-0.3,0.1-0.4,0.3
		c-0.1,0.1-0.2,0.3-0.3,0.4c-0.1,0.2-0.1,0.4-0.1,0.6c0,0.2,0,0.4,0.1,0.6c0.1,0.2,0.2,0.3,0.3,0.4c0.1,0.1,0.2,0.2,0.4,0.3
		C221.4,220.6,221.6,220.6,221.7,220.6z"/>
	<path fill="#999999" d="M225.4,221.1h-0.8v-3.8h0.7v0.6c0.1-0.2,0.3-0.4,0.5-0.5c0.2-0.1,0.4-0.2,0.7-0.2c0.2,0,0.4,0,0.6,0.1
		s0.3,0.2,0.4,0.3c0.1,0.1,0.2,0.3,0.3,0.5c0.1,0.2,0.1,0.4,0.1,0.6v2.4h-0.8v-2.3c0-0.1,0-0.3,0-0.4c0-0.1-0.1-0.2-0.2-0.3
		s-0.2-0.2-0.3-0.2c-0.1-0.1-0.3-0.1-0.4-0.1c-0.2,0-0.3,0-0.4,0.1c-0.1,0.1-0.2,0.1-0.3,0.2c-0.1,0.1-0.1,0.2-0.2,0.3
		c0,0.1-0.1,0.3-0.1,0.4V221.1z"/>
	<path fill="#999999" d="M228.9,220.1c0-0.2,0-0.3,0.1-0.5s0.1-0.3,0.2-0.3s0.2-0.2,0.4-0.2c0.1-0.1,0.3-0.1,0.5-0.1l1-0.2
		c0.1,0,0.2-0.1,0.2-0.1c0-0.1,0.1-0.1,0.1-0.2c0-0.2-0.1-0.3-0.2-0.5s-0.3-0.2-0.6-0.2c-0.3,0-0.5,0.1-0.6,0.2
		c-0.1,0.1-0.2,0.3-0.3,0.6l-0.7-0.2c0-0.2,0.1-0.3,0.2-0.5c0.1-0.2,0.2-0.3,0.3-0.4s0.3-0.2,0.5-0.3s0.4-0.1,0.6-0.1
		c0.3,0,0.5,0,0.7,0.1c0.2,0.1,0.4,0.2,0.5,0.3c0.1,0.1,0.2,0.3,0.3,0.4s0.1,0.3,0.1,0.5v1.9c0,0.2,0,0.3,0,0.4c0,0.1,0,0.2,0,0.2
		h-0.7c0,0,0-0.1,0-0.2c0-0.1,0-0.2,0-0.3c0,0.1-0.1,0.1-0.2,0.2c-0.1,0.1-0.2,0.1-0.3,0.2c-0.1,0.1-0.2,0.1-0.4,0.2
		s-0.3,0.1-0.5,0.1c-0.2,0-0.4,0-0.5-0.1c-0.2-0.1-0.3-0.1-0.4-0.3c-0.1-0.1-0.2-0.2-0.3-0.4C229,220.4,228.9,220.3,228.9,220.1z
		 M230.3,220.6c0.2,0,0.3,0,0.4-0.1s0.3-0.1,0.4-0.2c0.1-0.1,0.2-0.2,0.2-0.4s0.1-0.3,0.1-0.5v-0.2l-1.2,0.2c-0.2,0-0.3,0.1-0.4,0.2
		c-0.1,0.1-0.2,0.2-0.2,0.4c0,0.1,0.1,0.3,0.2,0.4C230,220.6,230.1,220.6,230.3,220.6z"/>
	<path fill="#999999" d="M235.8,220.7c-0.1,0.2-0.3,0.4-0.5,0.4c-0.2,0.1-0.4,0.1-0.7,0.1c-0.2,0-0.4,0-0.6-0.1
		c-0.2-0.1-0.3-0.2-0.5-0.3s-0.2-0.3-0.3-0.5c-0.1-0.2-0.1-0.4-0.1-0.6v-2.4h0.8v2.3c0,0.1,0,0.3,0,0.4s0.1,0.2,0.2,0.3
		c0.1,0.1,0.2,0.2,0.3,0.2s0.2,0.1,0.4,0.1c0.3,0,0.5-0.1,0.7-0.3c0.2-0.2,0.2-0.4,0.2-0.7v-2.3h0.8v3.1c0,0.2,0,0.3,0,0.4
		s0,0.2,0,0.3h-0.7c0,0,0-0.1,0-0.2C235.8,220.8,235.8,220.8,235.8,220.7z"/>
	<path fill="#999999" d="M238.8,217.3h0.8v0.7h-0.8v2c0,0.2,0,0.3,0.1,0.4c0.1,0.1,0.2,0.1,0.4,0.1c0,0,0.1,0,0.2,0
		c0.1,0,0.1,0,0.1,0v0.6c0,0-0.1,0-0.2,0c-0.1,0-0.2,0-0.3,0c-0.3,0-0.6-0.1-0.8-0.3s-0.3-0.5-0.3-0.8V218h-0.7v-0.7h0.2
		c0.2,0,0.4-0.1,0.5-0.2c0.1-0.1,0.1-0.3,0.1-0.4v-0.6h0.7V217.3z"/>
	<path fill="#999999" d="M240.6,220.6c0-0.1,0.1-0.3,0.2-0.4s0.3-0.2,0.4-0.2c0.2,0,0.3,0.1,0.5,0.2c0.1,0.1,0.2,0.3,0.2,0.6
		c0,0.3,0,0.5-0.1,0.7c-0.1,0.2-0.2,0.3-0.3,0.5c-0.1,0.1-0.2,0.2-0.4,0.3c-0.1,0.1-0.3,0.1-0.4,0.1V222c0.1,0,0.2-0.1,0.3-0.1
		c0.1-0.1,0.2-0.1,0.2-0.2c0.1-0.1,0.1-0.2,0.1-0.3c0-0.1,0.1-0.2,0.1-0.3c0,0,0,0-0.1,0c0,0-0.1,0-0.1,0c-0.2,0-0.3,0-0.4-0.1
		C240.6,220.9,240.6,220.8,240.6,220.6z"/>
	<path fill="#999999" d="M250.4,221.1v-4.4l-1.9,4.4h-0.7l-1.9-4.4v4.4h-0.8v-5.7h1.1l2,4.6l2-4.6h1v5.7H250.4z"/>
	<path fill="#999999" d="M252.3,220.1c0-0.2,0-0.3,0.1-0.5c0.1-0.1,0.1-0.3,0.2-0.3s0.2-0.2,0.4-0.2c0.1-0.1,0.3-0.1,0.5-0.1l1-0.2
		c0.1,0,0.2-0.1,0.2-0.1c0-0.1,0.1-0.1,0.1-0.2c0-0.2-0.1-0.3-0.2-0.5s-0.3-0.2-0.6-0.2c-0.3,0-0.5,0.1-0.6,0.2
		c-0.1,0.1-0.2,0.3-0.3,0.6l-0.7-0.2c0-0.2,0.1-0.3,0.2-0.5c0.1-0.2,0.2-0.3,0.3-0.4s0.3-0.2,0.5-0.3s0.4-0.1,0.6-0.1
		c0.3,0,0.5,0,0.7,0.1c0.2,0.1,0.4,0.2,0.5,0.3c0.1,0.1,0.2,0.3,0.3,0.4s0.1,0.3,0.1,0.5v1.9c0,0.2,0,0.3,0,0.4c0,0.1,0,0.2,0,0.2
		h-0.7c0,0,0-0.1,0-0.2c0-0.1,0-0.2,0-0.3c0,0.1-0.1,0.1-0.2,0.2c-0.1,0.1-0.2,0.1-0.3,0.2c-0.1,0.1-0.2,0.1-0.4,0.2
		s-0.3,0.1-0.5,0.1c-0.2,0-0.4,0-0.5-0.1c-0.2-0.1-0.3-0.1-0.4-0.3c-0.1-0.1-0.2-0.2-0.3-0.4C252.3,220.4,252.3,220.3,252.3,220.1z
		 M253.7,220.6c0.2,0,0.3,0,0.4-0.1s0.3-0.1,0.4-0.2c0.1-0.1,0.2-0.2,0.2-0.4s0.1-0.3,0.1-0.5v-0.2l-1.2,0.2c-0.2,0-0.3,0.1-0.4,0.2
		c-0.1,0.1-0.2,0.2-0.2,0.4c0,0.1,0.1,0.3,0.2,0.4C253.3,220.6,253.5,220.6,253.7,220.6z"/>
	<path fill="#999999" d="M256.7,221.1v-5.8h0.8v5.8H256.7z"/>
	<path fill="#999999" d="M262.1,220c-0.1,0.2-0.1,0.3-0.2,0.5s-0.2,0.3-0.4,0.4s-0.3,0.2-0.5,0.3c-0.2,0.1-0.4,0.1-0.6,0.1
		c-0.3,0-0.5,0-0.7-0.1c-0.2-0.1-0.4-0.2-0.6-0.4c-0.2-0.2-0.3-0.4-0.4-0.6c-0.1-0.3-0.2-0.5-0.2-0.9c0-0.3,0.1-0.6,0.2-0.8
		c0.1-0.2,0.2-0.5,0.4-0.6s0.4-0.3,0.6-0.4c0.2-0.1,0.5-0.1,0.7-0.1c0.3,0,0.6,0,0.8,0.1s0.4,0.2,0.6,0.4s0.3,0.4,0.4,0.6
		c0.1,0.2,0.1,0.5,0.1,0.8c0,0,0,0.1,0,0.1c0,0,0,0.1,0,0.1h-2.9c0,0.2,0,0.3,0.1,0.5c0.1,0.1,0.1,0.3,0.2,0.4
		c0.1,0.1,0.2,0.2,0.4,0.2c0.1,0.1,0.3,0.1,0.5,0.1c0.3,0,0.6-0.1,0.7-0.2c0.2-0.1,0.3-0.3,0.4-0.6L262.1,220z M261.3,218.8
		c0-0.3-0.1-0.5-0.3-0.7c-0.2-0.2-0.4-0.3-0.8-0.3c-0.2,0-0.3,0-0.4,0.1c-0.1,0.1-0.2,0.1-0.3,0.2c-0.1,0.1-0.2,0.2-0.2,0.3
		c-0.1,0.1-0.1,0.2-0.1,0.4H261.3z"/>
	<path fill="#999999" d="M262.9,220.6c0-0.1,0.1-0.3,0.2-0.4s0.3-0.2,0.4-0.2s0.3,0.1,0.5,0.2c0.1,0.1,0.2,0.3,0.2,0.6
		c0,0.3,0,0.5-0.1,0.7c-0.1,0.2-0.2,0.3-0.3,0.5c-0.1,0.1-0.2,0.2-0.4,0.3c-0.1,0.1-0.3,0.1-0.4,0.1V222c0.1,0,0.2-0.1,0.3-0.1
		c0.1-0.1,0.2-0.1,0.2-0.2c0.1-0.1,0.1-0.2,0.1-0.3c0-0.1,0.1-0.2,0.1-0.3c0,0,0,0-0.1,0c0,0-0.1,0-0.1,0c-0.1,0-0.3,0-0.4-0.1
		C262.9,220.9,262.9,220.8,262.9,220.6z"/>
	<path fill="#999999" d="M267.4,221.1v-5.7h3.4v0.7h-2.7v1.8h2.4v0.7h-2.4v2.4H267.4z"/>
	<path fill="#999999" d="M274.8,220c-0.1,0.2-0.1,0.3-0.2,0.5c-0.1,0.1-0.2,0.3-0.4,0.4s-0.3,0.2-0.5,0.3c-0.2,0.1-0.4,0.1-0.6,0.1
		c-0.3,0-0.5,0-0.7-0.1c-0.2-0.1-0.4-0.2-0.6-0.4c-0.2-0.2-0.3-0.4-0.4-0.6c-0.1-0.3-0.2-0.5-0.2-0.9c0-0.3,0.1-0.6,0.2-0.8
		s0.2-0.5,0.4-0.6s0.4-0.3,0.6-0.4s0.5-0.1,0.7-0.1c0.3,0,0.6,0,0.8,0.1s0.4,0.2,0.6,0.4c0.2,0.2,0.3,0.4,0.4,0.6
		c0.1,0.2,0.1,0.5,0.1,0.8c0,0,0,0.1,0,0.1c0,0,0,0.1,0,0.1h-2.9c0,0.2,0,0.3,0.1,0.5c0.1,0.1,0.1,0.3,0.2,0.4
		c0.1,0.1,0.2,0.2,0.4,0.2s0.3,0.1,0.5,0.1c0.3,0,0.6-0.1,0.7-0.2s0.3-0.3,0.4-0.6L274.8,220z M274,218.8c0-0.3-0.1-0.5-0.3-0.7
		c-0.2-0.2-0.4-0.3-0.8-0.3c-0.2,0-0.3,0-0.4,0.1c-0.1,0.1-0.2,0.1-0.3,0.2c-0.1,0.1-0.2,0.2-0.2,0.3s-0.1,0.2-0.1,0.4H274z"/>
	<path fill="#999999" d="M275.8,221.1v-3.8h0.7v0.5c0.1-0.2,0.3-0.4,0.5-0.5c0.2-0.1,0.4-0.2,0.7-0.2c0.2,0,0.5,0.1,0.7,0.2
		s0.4,0.3,0.5,0.6c0.2-0.3,0.3-0.5,0.6-0.6c0.2-0.1,0.5-0.2,0.7-0.2c0.2,0,0.3,0,0.5,0.1s0.3,0.1,0.4,0.3c0.1,0.1,0.2,0.3,0.3,0.5
		c0.1,0.2,0.1,0.4,0.1,0.7v2.5h-0.7v-2.4c0-0.3-0.1-0.5-0.2-0.6c-0.1-0.2-0.3-0.3-0.6-0.3c-0.3,0-0.5,0.1-0.6,0.3
		c-0.2,0.2-0.2,0.4-0.2,0.7v2.3h-0.8v-2.4c0-0.3-0.1-0.5-0.2-0.6c-0.1-0.2-0.3-0.3-0.6-0.3c-0.3,0-0.5,0.1-0.7,0.3
		c-0.2,0.2-0.2,0.4-0.2,0.7v2.3H275.8z"/>
	<path fill="#999999" d="M282.4,220.1c0-0.2,0-0.3,0.1-0.5s0.1-0.3,0.2-0.3s0.2-0.2,0.4-0.2c0.1-0.1,0.3-0.1,0.5-0.1l1-0.2
		c0.1,0,0.2-0.1,0.2-0.1c0-0.1,0.1-0.1,0.1-0.2c0-0.2-0.1-0.3-0.2-0.5s-0.3-0.2-0.6-0.2c-0.3,0-0.5,0.1-0.6,0.2
		c-0.1,0.1-0.2,0.3-0.3,0.6l-0.7-0.2c0-0.2,0.1-0.3,0.2-0.5c0.1-0.2,0.2-0.3,0.3-0.4s0.3-0.2,0.5-0.3s0.4-0.1,0.6-0.1
		c0.3,0,0.5,0,0.7,0.1c0.2,0.1,0.4,0.2,0.5,0.3c0.1,0.1,0.2,0.3,0.3,0.4s0.1,0.3,0.1,0.5v1.9c0,0.2,0,0.3,0,0.4c0,0.1,0,0.2,0,0.2
		H285c0,0,0-0.1,0-0.2c0-0.1,0-0.2,0-0.3c0,0.1-0.1,0.1-0.2,0.2c-0.1,0.1-0.2,0.1-0.3,0.2c-0.1,0.1-0.2,0.1-0.4,0.2
		s-0.3,0.1-0.5,0.1c-0.2,0-0.4,0-0.5-0.1c-0.2-0.1-0.3-0.1-0.4-0.3c-0.1-0.1-0.2-0.2-0.3-0.4C282.4,220.4,282.4,220.3,282.4,220.1z
		 M283.8,220.6c0.2,0,0.3,0,0.4-0.1s0.3-0.1,0.4-0.2c0.1-0.1,0.2-0.2,0.2-0.4s0.1-0.3,0.1-0.5v-0.2l-1.2,0.2c-0.2,0-0.3,0.1-0.4,0.2
		c-0.1,0.1-0.2,0.2-0.2,0.4c0,0.1,0.1,0.3,0.2,0.4C283.4,220.6,283.6,220.6,283.8,220.6z"/>
	<path fill="#999999" d="M286.8,221.1v-5.8h0.8v5.8H286.8z"/>
	<path fill="#999999" d="M292.2,220c-0.1,0.2-0.1,0.3-0.2,0.5c-0.1,0.1-0.2,0.3-0.4,0.4s-0.3,0.2-0.5,0.3c-0.2,0.1-0.4,0.1-0.6,0.1
		c-0.3,0-0.5,0-0.7-0.1c-0.2-0.1-0.4-0.2-0.6-0.4c-0.2-0.2-0.3-0.4-0.4-0.6c-0.1-0.3-0.2-0.5-0.2-0.9c0-0.3,0.1-0.6,0.2-0.8
		c0.1-0.2,0.2-0.5,0.4-0.6s0.4-0.3,0.6-0.4c0.2-0.1,0.5-0.1,0.7-0.1c0.3,0,0.6,0,0.8,0.1s0.4,0.2,0.6,0.4s0.3,0.4,0.4,0.6
		c0.1,0.2,0.1,0.5,0.1,0.8c0,0,0,0.1,0,0.1c0,0,0,0.1,0,0.1h-2.9c0,0.2,0,0.3,0.1,0.5c0.1,0.1,0.1,0.3,0.2,0.4
		c0.1,0.1,0.2,0.2,0.4,0.2c0.1,0.1,0.3,0.1,0.5,0.1c0.3,0,0.6-0.1,0.7-0.2c0.2-0.1,0.3-0.3,0.4-0.6L292.2,220z M291.4,218.8
		c0-0.3-0.1-0.5-0.3-0.7c-0.2-0.2-0.4-0.3-0.8-0.3c-0.2,0-0.3,0-0.4,0.1c-0.1,0.1-0.2,0.1-0.3,0.2c-0.1,0.1-0.2,0.2-0.2,0.3
		c-0.1,0.1-0.1,0.2-0.1,0.4H291.4z"/>
	<path fill="#999999" d="M210.6,225.5c0.3,0,0.5,0,0.7,0.1s0.4,0.2,0.5,0.3c0.1,0.1,0.3,0.3,0.3,0.5c0.1,0.2,0.1,0.4,0.1,0.6
		c0,0.3-0.1,0.6-0.2,0.8c-0.2,0.2-0.4,0.4-0.6,0.5c0.2,0,0.3,0.1,0.4,0.2c0.1,0.1,0.2,0.2,0.3,0.3s0.2,0.3,0.2,0.4
		c0,0.1,0.1,0.3,0.1,0.5c0,0.2,0,0.4-0.1,0.6c-0.1,0.2-0.2,0.4-0.4,0.5c-0.2,0.1-0.3,0.2-0.6,0.3c-0.2,0.1-0.5,0.1-0.7,0.1h-2v-5.7
		H210.6z M210.5,228c0.3,0,0.6-0.1,0.7-0.3c0.2-0.2,0.3-0.4,0.3-0.7c0-0.3-0.1-0.5-0.3-0.6c-0.2-0.2-0.4-0.2-0.8-0.2h-0.9v1.8H210.5
		z M210.6,230.5c0.3,0,0.6-0.1,0.8-0.2c0.2-0.2,0.3-0.4,0.3-0.7c0-0.3-0.1-0.5-0.3-0.7c-0.2-0.2-0.4-0.3-0.8-0.3h-1.1v1.8H210.6z"/>
	<path fill="#999999" d="M216.9,230c-0.1,0.2-0.1,0.3-0.2,0.5s-0.2,0.3-0.4,0.4s-0.3,0.2-0.5,0.3c-0.2,0.1-0.4,0.1-0.6,0.1
		c-0.3,0-0.5,0-0.7-0.1c-0.2-0.1-0.4-0.2-0.6-0.4c-0.2-0.2-0.3-0.4-0.4-0.6c-0.1-0.3-0.2-0.5-0.2-0.9c0-0.3,0.1-0.6,0.2-0.8
		c0.1-0.2,0.2-0.5,0.4-0.6s0.4-0.3,0.6-0.4c0.2-0.1,0.5-0.1,0.7-0.1c0.3,0,0.6,0,0.8,0.1c0.2,0.1,0.4,0.2,0.6,0.4s0.3,0.4,0.4,0.6
		c0.1,0.2,0.1,0.5,0.1,0.8c0,0,0,0.1,0,0.1c0,0,0,0.1,0,0.1H214c0,0.2,0,0.3,0.1,0.5c0.1,0.1,0.1,0.3,0.2,0.4
		c0.1,0.1,0.2,0.2,0.4,0.2c0.1,0.1,0.3,0.1,0.5,0.1c0.3,0,0.6-0.1,0.7-0.2c0.2-0.1,0.3-0.3,0.4-0.6L216.9,230z M216.1,228.8
		c0-0.3-0.1-0.5-0.3-0.7c-0.2-0.2-0.4-0.3-0.8-0.3c-0.2,0-0.3,0-0.4,0.1c-0.1,0.1-0.2,0.1-0.3,0.2c-0.1,0.1-0.2,0.2-0.2,0.3
		c-0.1,0.1-0.1,0.2-0.1,0.4H216.1z"/>
	<path fill="#999999" d="M217.6,230.1c0-0.2,0-0.3,0.1-0.5s0.1-0.3,0.2-0.3c0.1-0.1,0.2-0.2,0.4-0.2s0.3-0.1,0.5-0.1l1-0.2
		c0.1,0,0.2-0.1,0.2-0.1c0-0.1,0.1-0.1,0.1-0.2c0-0.2-0.1-0.3-0.2-0.5s-0.3-0.2-0.6-0.2c-0.3,0-0.5,0.1-0.6,0.2
		c-0.1,0.1-0.2,0.3-0.3,0.6l-0.7-0.2c0-0.2,0.1-0.3,0.2-0.5c0.1-0.2,0.2-0.3,0.3-0.4s0.3-0.2,0.5-0.3c0.2-0.1,0.4-0.1,0.6-0.1
		c0.3,0,0.5,0,0.7,0.1c0.2,0.1,0.4,0.2,0.5,0.3c0.1,0.1,0.2,0.3,0.3,0.4c0.1,0.2,0.1,0.3,0.1,0.5v1.9c0,0.2,0,0.3,0,0.4
		c0,0.1,0,0.2,0,0.2h-0.7c0,0,0-0.1,0-0.2s0-0.2,0-0.3c0,0.1-0.1,0.1-0.2,0.2c-0.1,0.1-0.2,0.1-0.3,0.2c-0.1,0.1-0.2,0.1-0.4,0.2
		c-0.1,0-0.3,0.1-0.5,0.1c-0.2,0-0.4,0-0.5-0.1c-0.2-0.1-0.3-0.1-0.4-0.3c-0.1-0.1-0.2-0.2-0.3-0.4
		C217.6,230.4,217.6,230.3,217.6,230.1z M219,230.6c0.2,0,0.3,0,0.4-0.1c0.1,0,0.3-0.1,0.4-0.2c0.1-0.1,0.2-0.2,0.2-0.4
		c0.1-0.1,0.1-0.3,0.1-0.5v-0.2l-1.2,0.2c-0.2,0-0.3,0.1-0.4,0.2c-0.1,0.1-0.2,0.2-0.2,0.4c0,0.1,0.1,0.3,0.2,0.4
		C218.7,230.6,218.8,230.6,219,230.6z"/>
	<path fill="#999999" d="M224.2,228.1c-0.1,0-0.2,0-0.3,0c-0.3,0-0.6,0.1-0.8,0.3c-0.2,0.2-0.3,0.5-0.3,0.9v1.9H222v-3.8h0.7v0.7
		c0.1-0.1,0.2-0.3,0.2-0.4c0.1-0.1,0.2-0.2,0.3-0.2c0.1-0.1,0.2-0.1,0.3-0.1s0.2,0,0.3,0c0.1,0,0.1,0,0.1,0c0,0,0.1,0,0.1,0V228.1z"
		/>
	<path fill="#999999" d="M224.2,230.6c0-0.1,0.1-0.3,0.2-0.4s0.3-0.2,0.4-0.2c0.2,0,0.3,0.1,0.5,0.2c0.1,0.1,0.2,0.3,0.2,0.6
		c0,0.3,0,0.5-0.1,0.7c-0.1,0.2-0.2,0.3-0.3,0.5c-0.1,0.1-0.2,0.2-0.4,0.3c-0.1,0.1-0.3,0.1-0.4,0.1V232c0.1,0,0.2-0.1,0.3-0.1
		c0.1-0.1,0.2-0.1,0.2-0.2c0.1-0.1,0.1-0.2,0.1-0.3c0-0.1,0.1-0.2,0.1-0.3c0,0,0,0-0.1,0c0,0-0.1,0-0.1,0c-0.2,0-0.3,0-0.4-0.1
		C224.2,230.9,224.2,230.8,224.2,230.6z"/>
	<path fill="#999999" d="M228.7,231.1v-5.7h2c0.4,0,0.7,0.1,1,0.2c0.3,0.1,0.6,0.3,0.9,0.5c0.2,0.2,0.4,0.5,0.6,0.9s0.2,0.8,0.2,1.2
		s-0.1,0.9-0.2,1.2c-0.1,0.4-0.3,0.6-0.6,0.9c-0.3,0.2-0.5,0.4-0.9,0.5s-0.7,0.2-1,0.2H228.7z M230.6,230.4c0.3,0,0.5,0,0.7-0.1
		c0.2-0.1,0.4-0.2,0.6-0.4c0.2-0.2,0.3-0.4,0.4-0.7s0.2-0.6,0.2-0.9s-0.1-0.7-0.2-0.9s-0.2-0.5-0.4-0.7s-0.4-0.3-0.6-0.4
		s-0.5-0.1-0.7-0.1h-1.2v4.3H230.6z"/>
	<path fill="#999999" d="M236,227.2c0.3,0,0.6,0.1,0.8,0.2c0.2,0.1,0.4,0.2,0.6,0.4s0.3,0.4,0.4,0.6s0.1,0.5,0.1,0.8
		c0,0.3,0,0.6-0.1,0.8c-0.1,0.3-0.2,0.5-0.4,0.6s-0.4,0.3-0.6,0.4c-0.2,0.1-0.5,0.2-0.8,0.2c-0.3,0-0.6-0.1-0.8-0.2
		c-0.2-0.1-0.4-0.2-0.6-0.4s-0.3-0.4-0.4-0.6c-0.1-0.3-0.1-0.5-0.1-0.8c0-0.3,0-0.6,0.1-0.8s0.2-0.5,0.4-0.6s0.4-0.3,0.6-0.4
		C235.5,227.2,235.7,227.2,236,227.2z M236,230.6c0.2,0,0.3,0,0.5-0.1c0.1-0.1,0.3-0.1,0.4-0.3c0.1-0.1,0.2-0.3,0.3-0.4
		c0.1-0.2,0.1-0.4,0.1-0.6c0-0.2,0-0.4-0.1-0.6c-0.1-0.2-0.2-0.3-0.3-0.4c-0.1-0.1-0.2-0.2-0.4-0.3c-0.1-0.1-0.3-0.1-0.5-0.1
		s-0.3,0-0.5,0.1c-0.1,0.1-0.3,0.1-0.4,0.3c-0.1,0.1-0.2,0.3-0.3,0.4s-0.1,0.4-0.1,0.6c0,0.2,0,0.4,0.1,0.6s0.2,0.3,0.3,0.4
		s0.2,0.2,0.4,0.3C235.7,230.6,235.8,230.6,236,230.6z"/>
	<path fill="#999999" d="M239.4,231.2c0,0.3,0.1,0.5,0.3,0.7s0.4,0.3,0.7,0.3c0.4,0,0.7-0.1,0.9-0.3s0.3-0.5,0.3-0.9v-0.6
		c-0.1,0.2-0.2,0.3-0.4,0.4c-0.2,0.1-0.4,0.2-0.7,0.2c-0.3,0-0.5,0-0.7-0.1c-0.2-0.1-0.4-0.2-0.6-0.4c-0.2-0.2-0.3-0.4-0.4-0.6
		s-0.1-0.5-0.1-0.8c0-0.3,0-0.5,0.1-0.7c0.1-0.2,0.2-0.4,0.4-0.6s0.3-0.3,0.6-0.4c0.2-0.1,0.5-0.1,0.7-0.1c0.3,0,0.5,0.1,0.7,0.2
		s0.3,0.3,0.4,0.4v-0.5h0.7v3.6c0,0.2,0,0.5-0.1,0.7c-0.1,0.2-0.2,0.4-0.3,0.6c-0.2,0.2-0.3,0.3-0.6,0.4c-0.2,0.1-0.5,0.2-0.9,0.2
		c-0.2,0-0.5,0-0.7-0.1c-0.2-0.1-0.4-0.2-0.5-0.3c-0.2-0.1-0.3-0.3-0.4-0.5c-0.1-0.2-0.2-0.4-0.2-0.6L239.4,231.2z M240.5,230.3
		c0.3,0,0.6-0.1,0.8-0.3c0.2-0.2,0.3-0.5,0.3-0.9s-0.1-0.7-0.3-0.9c-0.2-0.2-0.5-0.3-0.8-0.3c-0.3,0-0.6,0.1-0.8,0.3
		c-0.2,0.2-0.3,0.5-0.3,0.9c0,0.4,0.1,0.7,0.3,0.9C239.9,230.2,240.2,230.3,240.5,230.3z"/>
	<path fill="#999999" d="M243.5,230.6c0-0.1,0.1-0.3,0.2-0.4s0.3-0.2,0.4-0.2s0.3,0.1,0.5,0.2c0.1,0.1,0.2,0.3,0.2,0.6
		c0,0.3,0,0.5-0.1,0.7c-0.1,0.2-0.2,0.3-0.3,0.5c-0.1,0.1-0.2,0.2-0.4,0.3c-0.1,0.1-0.3,0.1-0.4,0.1V232c0.1,0,0.2-0.1,0.3-0.1
		c0.1-0.1,0.2-0.1,0.2-0.2c0.1-0.1,0.1-0.2,0.1-0.3c0-0.1,0.1-0.2,0.1-0.3c0,0,0,0-0.1,0c0,0-0.1,0-0.1,0c-0.1,0-0.3,0-0.4-0.1
		C243.5,230.9,243.5,230.8,243.5,230.6z"/>
	<path fill="#999999" d="M250.4,231.3c-0.4,0-0.7-0.1-1.1-0.2c-0.3-0.1-0.6-0.3-0.9-0.6c-0.3-0.3-0.5-0.6-0.6-0.9
		c-0.2-0.4-0.2-0.8-0.2-1.3s0.1-0.9,0.2-1.3c0.2-0.4,0.4-0.7,0.6-0.9c0.3-0.3,0.6-0.4,0.9-0.6c0.3-0.1,0.7-0.2,1-0.2
		c0.3,0,0.6,0,0.9,0.1s0.5,0.2,0.7,0.4c0.2,0.2,0.4,0.3,0.5,0.6c0.1,0.2,0.3,0.5,0.3,0.7l-0.7,0.3c-0.1-0.4-0.3-0.8-0.6-1
		c-0.3-0.2-0.7-0.3-1.2-0.3c-0.3,0-0.5,0-0.7,0.1c-0.2,0.1-0.5,0.2-0.6,0.4s-0.3,0.4-0.5,0.7c-0.1,0.3-0.2,0.6-0.2,1s0.1,0.7,0.2,1
		c0.1,0.3,0.3,0.5,0.5,0.7s0.4,0.3,0.6,0.4c0.2,0.1,0.5,0.1,0.7,0.1c0.2,0,0.5,0,0.7-0.1s0.4-0.2,0.5-0.3c0.2-0.1,0.3-0.3,0.4-0.4
		s0.2-0.3,0.2-0.5l0.7,0.3c-0.1,0.3-0.2,0.5-0.3,0.7c-0.1,0.2-0.3,0.4-0.5,0.6c-0.2,0.2-0.5,0.3-0.7,0.4
		C251.1,231.2,250.8,231.3,250.4,231.3z"/>
	<path fill="#999999" d="M253.5,230.1c0-0.2,0-0.3,0.1-0.5s0.1-0.3,0.2-0.3c0.1-0.1,0.2-0.2,0.4-0.2s0.3-0.1,0.5-0.1l1-0.2
		c0.1,0,0.2-0.1,0.2-0.1c0-0.1,0.1-0.1,0.1-0.2c0-0.2-0.1-0.3-0.2-0.5s-0.3-0.2-0.6-0.2c-0.3,0-0.5,0.1-0.6,0.2
		c-0.1,0.1-0.2,0.3-0.3,0.6l-0.7-0.2c0-0.2,0.1-0.3,0.2-0.5c0.1-0.2,0.2-0.3,0.3-0.4s0.3-0.2,0.5-0.3c0.2-0.1,0.4-0.1,0.6-0.1
		c0.3,0,0.5,0,0.7,0.1c0.2,0.1,0.4,0.2,0.5,0.3c0.1,0.1,0.2,0.3,0.3,0.4c0.1,0.2,0.1,0.3,0.1,0.5v1.9c0,0.2,0,0.3,0,0.4
		c0,0.1,0,0.2,0,0.2h-0.7c0,0,0-0.1,0-0.2c0-0.1,0-0.2,0-0.3c0,0.1-0.1,0.1-0.2,0.2c-0.1,0.1-0.2,0.1-0.3,0.2
		c-0.1,0.1-0.2,0.1-0.4,0.2c-0.1,0-0.3,0.1-0.5,0.1c-0.2,0-0.4,0-0.5-0.1c-0.2-0.1-0.3-0.1-0.4-0.3c-0.1-0.1-0.2-0.2-0.3-0.4
		C253.5,230.4,253.5,230.3,253.5,230.1z M254.9,230.6c0.2,0,0.3,0,0.4-0.1c0.1,0,0.3-0.1,0.4-0.2c0.1-0.1,0.2-0.2,0.2-0.4
		c0.1-0.1,0.1-0.3,0.1-0.5v-0.2l-1.2,0.2c-0.2,0-0.3,0.1-0.4,0.2c-0.1,0.1-0.2,0.2-0.2,0.4c0,0.1,0.1,0.3,0.2,0.4
		C254.6,230.6,254.7,230.6,254.9,230.6z"/>
	<path fill="#999999" d="M258.9,227.3h0.8v0.7h-0.8v2c0,0.2,0,0.3,0.1,0.4c0.1,0.1,0.2,0.1,0.4,0.1c0,0,0.1,0,0.2,0
		c0.1,0,0.1,0,0.1,0v0.6c0,0-0.1,0-0.2,0c-0.1,0-0.2,0-0.3,0c-0.3,0-0.6-0.1-0.8-0.3s-0.3-0.5-0.3-0.8V228h-0.7v-0.7h0.2
		c0.2,0,0.4-0.1,0.5-0.2c0.1-0.1,0.1-0.3,0.1-0.4v-0.6h0.7V227.3z"/>
	<path fill="#999999" d="M260.7,230.6c0-0.1,0.1-0.3,0.2-0.4s0.3-0.2,0.4-0.2c0.2,0,0.3,0.1,0.5,0.2c0.1,0.1,0.2,0.3,0.2,0.6
		c0,0.3,0,0.5-0.1,0.7c-0.1,0.2-0.2,0.3-0.3,0.5c-0.1,0.1-0.2,0.2-0.4,0.3c-0.1,0.1-0.3,0.1-0.4,0.1V232c0.1,0,0.2-0.1,0.3-0.1
		c0.1-0.1,0.2-0.1,0.2-0.2c0.1-0.1,0.1-0.2,0.1-0.3c0-0.1,0.1-0.2,0.1-0.3c0,0,0,0-0.1,0c0,0-0.1,0-0.1,0c-0.2,0-0.3,0-0.4-0.1
		C260.8,230.9,260.7,230.8,260.7,230.6z"/>
	<path fill="#999999" d="M267.2,231.3c-0.3,0-0.6,0-0.8-0.1s-0.5-0.2-0.6-0.4c-0.2-0.2-0.3-0.4-0.4-0.6c-0.1-0.3-0.2-0.6-0.2-0.9
		v-3.7h0.8v3.7c0,0.4,0.1,0.8,0.3,1c0.2,0.2,0.5,0.4,0.9,0.4s0.7-0.1,0.9-0.4s0.3-0.6,0.3-1v-3.7h0.8v3.7c0,0.3-0.1,0.6-0.2,0.9
		c-0.1,0.3-0.2,0.5-0.4,0.6c-0.2,0.2-0.4,0.3-0.6,0.4S267.5,231.3,267.2,231.3z"/>
	<path fill="#999999" d="M271.2,231.1h-0.8v-3.8h0.7v0.6c0.1-0.2,0.3-0.4,0.5-0.5c0.2-0.1,0.4-0.2,0.7-0.2c0.2,0,0.4,0,0.6,0.1
		c0.2,0.1,0.3,0.2,0.4,0.3c0.1,0.1,0.2,0.3,0.3,0.5s0.1,0.4,0.1,0.6v2.4H273v-2.3c0-0.1,0-0.3,0-0.4c0-0.1-0.1-0.2-0.2-0.3
		c-0.1-0.1-0.2-0.2-0.3-0.2s-0.3-0.1-0.4-0.1c-0.1,0-0.3,0-0.4,0.1c-0.1,0.1-0.2,0.1-0.3,0.2c-0.1,0.1-0.1,0.2-0.2,0.3
		s-0.1,0.3-0.1,0.4V231.1z"/>
	<path fill="#999999" d="M274.8,225.8c0-0.2,0.1-0.3,0.2-0.4c0.1-0.1,0.2-0.2,0.4-0.2c0.2,0,0.3,0.1,0.4,0.2
		c0.1,0.1,0.2,0.2,0.2,0.4c0,0.1-0.1,0.3-0.2,0.4c-0.1,0.1-0.2,0.2-0.4,0.2c-0.2,0-0.3-0.1-0.4-0.2
		C274.8,226.1,274.8,226,274.8,225.8z M274.9,231.1v-3.8h0.7v3.8H274.9z"/>
	<path fill="#999999" d="M278.6,227.9c-0.2,0-0.3,0-0.4,0.1c-0.1,0.1-0.3,0.1-0.4,0.3c-0.1,0.1-0.2,0.3-0.3,0.4
		c-0.1,0.2-0.1,0.4-0.1,0.6c0,0.2,0,0.4,0.1,0.6c0.1,0.2,0.2,0.3,0.3,0.4c0.1,0.1,0.2,0.2,0.4,0.3s0.3,0.1,0.4,0.1
		c0.2,0,0.3,0,0.5-0.1c0.1-0.1,0.2-0.1,0.3-0.2c0.1-0.1,0.1-0.2,0.2-0.3c0-0.1,0.1-0.2,0.1-0.3l0.7,0.3c0,0.1-0.1,0.3-0.2,0.4
		c-0.1,0.1-0.2,0.3-0.4,0.4c-0.1,0.1-0.3,0.2-0.5,0.3c-0.2,0.1-0.4,0.1-0.7,0.1c-0.3,0-0.5-0.1-0.8-0.2c-0.2-0.1-0.4-0.2-0.6-0.4
		c-0.2-0.2-0.3-0.4-0.4-0.6c-0.1-0.2-0.1-0.5-0.1-0.8c0-0.3,0-0.6,0.1-0.8c0.1-0.3,0.2-0.5,0.4-0.6c0.2-0.2,0.4-0.3,0.6-0.4
		c0.2-0.1,0.5-0.2,0.8-0.2c0.3,0,0.5,0,0.7,0.1c0.2,0.1,0.4,0.2,0.5,0.3c0.1,0.1,0.3,0.3,0.3,0.4c0.1,0.1,0.1,0.3,0.2,0.4l-0.7,0.3
		c0-0.1-0.1-0.2-0.1-0.3c0-0.1-0.1-0.2-0.2-0.3s-0.2-0.1-0.3-0.2S278.8,227.9,278.6,227.9z"/>
	<path fill="#999999" d="M282.8,227.2c0.3,0,0.6,0.1,0.8,0.2c0.2,0.1,0.4,0.2,0.6,0.4s0.3,0.4,0.4,0.6s0.1,0.5,0.1,0.8
		c0,0.3,0,0.6-0.1,0.8c-0.1,0.3-0.2,0.5-0.4,0.6s-0.4,0.3-0.6,0.4c-0.2,0.1-0.5,0.2-0.8,0.2c-0.3,0-0.6-0.1-0.8-0.2
		c-0.2-0.1-0.4-0.2-0.6-0.4s-0.3-0.4-0.4-0.6c-0.1-0.3-0.1-0.5-0.1-0.8c0-0.3,0-0.6,0.1-0.8s0.2-0.5,0.4-0.6s0.4-0.3,0.6-0.4
		C282.3,227.2,282.5,227.2,282.8,227.2z M282.8,230.6c0.2,0,0.3,0,0.5-0.1c0.1-0.1,0.3-0.1,0.4-0.3c0.1-0.1,0.2-0.3,0.3-0.4
		c0.1-0.2,0.1-0.4,0.1-0.6c0-0.2,0-0.4-0.1-0.6c-0.1-0.2-0.2-0.3-0.3-0.4c-0.1-0.1-0.2-0.2-0.4-0.3c-0.1-0.1-0.3-0.1-0.5-0.1
		s-0.3,0-0.5,0.1c-0.1,0.1-0.3,0.1-0.4,0.3c-0.1,0.1-0.2,0.3-0.3,0.4s-0.1,0.4-0.1,0.6c0,0.2,0,0.4,0.1,0.6s0.2,0.3,0.3,0.4
		s0.2,0.2,0.4,0.3C282.5,230.6,282.7,230.6,282.8,230.6z"/>
	<path fill="#999999" d="M287.9,228.1c-0.1,0-0.2,0-0.3,0c-0.3,0-0.6,0.1-0.8,0.3c-0.2,0.2-0.3,0.5-0.3,0.9v1.9h-0.8v-3.8h0.7v0.7
		c0.1-0.1,0.2-0.3,0.2-0.4c0.1-0.1,0.2-0.2,0.3-0.2c0.1-0.1,0.2-0.1,0.3-0.1c0.1,0,0.2,0,0.3,0c0.1,0,0.1,0,0.1,0c0,0,0.1,0,0.1,0
		V228.1z"/>
	<path fill="#999999" d="M289.4,231.1h-0.8v-3.8h0.7v0.6c0.1-0.2,0.3-0.4,0.5-0.5c0.2-0.1,0.4-0.2,0.7-0.2c0.2,0,0.4,0,0.6,0.1
		c0.2,0.1,0.3,0.2,0.4,0.3c0.1,0.1,0.2,0.3,0.3,0.5s0.1,0.4,0.1,0.6v2.4h-0.8v-2.3c0-0.1,0-0.3,0-0.4c0-0.1-0.1-0.2-0.2-0.3
		c-0.1-0.1-0.2-0.2-0.3-0.2s-0.3-0.1-0.4-0.1c-0.1,0-0.3,0-0.4,0.1c-0.1,0.1-0.2,0.1-0.3,0.2c-0.1,0.1-0.1,0.2-0.2,0.3
		s-0.1,0.3-0.1,0.4V231.1z"/>
</g>
<g>
	<path fill="#9013FE" d="M-315.4,231.1h-1.1l4.1-8.5h1.1L-315.4,231.1z"/>
	<path fill="#9013FE" d="M-311,231.1v-5.8h1.1v0.8c0.2-0.3,0.4-0.6,0.8-0.7s0.7-0.2,1-0.2c0.4,0,0.7,0.1,1,0.3
		c0.3,0.2,0.6,0.5,0.7,0.8c0.2-0.4,0.5-0.7,0.9-0.9s0.7-0.2,1.1-0.2c0.2,0,0.5,0,0.7,0.1c0.2,0.1,0.5,0.2,0.6,0.4
		c0.2,0.2,0.3,0.4,0.5,0.7c0.1,0.3,0.2,0.6,0.2,1v3.7h-1.1v-3.6c0-0.4-0.1-0.7-0.3-0.9c-0.2-0.3-0.5-0.4-0.9-0.4
		c-0.4,0-0.7,0.1-1,0.4c-0.2,0.3-0.4,0.6-0.4,1v3.5h-1.1v-3.6c0-0.4-0.1-0.7-0.3-0.9c-0.2-0.3-0.5-0.4-0.9-0.4c-0.4,0-0.7,0.1-1,0.4
		c-0.2,0.3-0.4,0.6-0.4,1.1v3.5H-311z"/>
	<path fill="#9013FE" d="M-301.1,229.6c0-0.3,0-0.5,0.1-0.7c0.1-0.2,0.2-0.4,0.4-0.5c0.2-0.1,0.3-0.3,0.6-0.3
		c0.2-0.1,0.4-0.2,0.7-0.2l1.6-0.2c0.2,0,0.3-0.1,0.4-0.2c0.1-0.1,0.1-0.2,0.1-0.3c0-0.3-0.1-0.5-0.3-0.7c-0.2-0.2-0.5-0.3-1-0.3
		c-0.4,0-0.7,0.1-0.9,0.3c-0.2,0.2-0.3,0.5-0.4,0.8l-1.1-0.3c0-0.3,0.1-0.5,0.2-0.8s0.3-0.4,0.5-0.6s0.5-0.3,0.7-0.4
		c0.3-0.1,0.6-0.1,0.9-0.1c0.4,0,0.8,0.1,1.1,0.2c0.3,0.1,0.6,0.3,0.7,0.5c0.2,0.2,0.3,0.4,0.4,0.7c0.1,0.3,0.1,0.5,0.1,0.8v2.9
		c0,0.3,0,0.5,0,0.6c0,0.2,0,0.3,0,0.3h-1.1c0-0.1,0-0.2,0-0.3s0-0.3,0-0.5c-0.1,0.1-0.1,0.2-0.3,0.3c-0.1,0.1-0.2,0.2-0.4,0.3
		c-0.2,0.1-0.3,0.2-0.5,0.2c-0.2,0.1-0.4,0.1-0.7,0.1c-0.3,0-0.6,0-0.8-0.1c-0.2-0.1-0.4-0.2-0.6-0.4s-0.3-0.3-0.4-0.5
		C-301,230-301.1,229.8-301.1,229.6z M-299,230.4c0.2,0,0.4,0,0.7-0.1c0.2-0.1,0.4-0.2,0.5-0.3c0.1-0.1,0.3-0.3,0.4-0.5
		s0.1-0.5,0.1-0.8v-0.3l-1.8,0.3c-0.2,0-0.4,0.1-0.6,0.3c-0.2,0.1-0.2,0.3-0.2,0.6c0,0.2,0.1,0.4,0.3,0.6
		C-299.5,230.3-299.3,230.4-299,230.4z"/>
	<path fill="#9013FE" d="M-294.4,233.6l1.4-3l-2.5-5.1h1.3l1.8,4l1.7-4h1.2l-3.8,8.2H-294.4z"/>
	<path fill="#9013FE" d="M-288.8,229.6c0-0.3,0-0.5,0.1-0.7c0.1-0.2,0.2-0.4,0.4-0.5c0.2-0.1,0.3-0.3,0.6-0.3
		c0.2-0.1,0.4-0.2,0.7-0.2l1.6-0.2c0.2,0,0.3-0.1,0.4-0.2c0.1-0.1,0.1-0.2,0.1-0.3c0-0.3-0.1-0.5-0.3-0.7c-0.2-0.2-0.5-0.3-1-0.3
		c-0.4,0-0.7,0.1-0.9,0.3c-0.2,0.2-0.3,0.5-0.4,0.8l-1.1-0.3c0-0.3,0.1-0.5,0.2-0.8s0.3-0.4,0.5-0.6s0.5-0.3,0.7-0.4
		c0.3-0.1,0.6-0.1,0.9-0.1c0.4,0,0.8,0.1,1.1,0.2c0.3,0.1,0.6,0.3,0.7,0.5c0.2,0.2,0.3,0.4,0.4,0.7c0.1,0.3,0.1,0.5,0.1,0.8v2.9
		c0,0.3,0,0.5,0,0.6c0,0.2,0,0.3,0,0.3h-1.1c0-0.1,0-0.2,0-0.3s0-0.3,0-0.5c-0.1,0.1-0.1,0.2-0.3,0.3c-0.1,0.1-0.2,0.2-0.4,0.3
		c-0.2,0.1-0.3,0.2-0.5,0.2c-0.2,0.1-0.4,0.1-0.7,0.1c-0.3,0-0.6,0-0.8-0.1c-0.2-0.1-0.4-0.2-0.6-0.4s-0.3-0.3-0.4-0.5
		C-288.8,230-288.8,229.8-288.8,229.6z M-286.7,230.4c0.2,0,0.4,0,0.7-0.1c0.2-0.1,0.4-0.2,0.5-0.3c0.1-0.1,0.3-0.3,0.4-0.5
		s0.1-0.5,0.1-0.8v-0.3l-1.8,0.3c-0.2,0-0.4,0.1-0.6,0.3c-0.2,0.1-0.2,0.3-0.2,0.6c0,0.2,0.1,0.4,0.3,0.6
		C-287.3,230.3-287,230.4-286.7,230.4z"/>
	<path fill="#9013FE" d="M-281.1,231.1h-1.1v-5.8h1.1v0.8c0.2-0.4,0.5-0.6,0.8-0.8c0.3-0.2,0.6-0.2,1-0.2c0.3,0,0.6,0.1,0.9,0.2
		c0.3,0.1,0.5,0.3,0.6,0.5c0.2,0.2,0.3,0.4,0.4,0.7c0.1,0.3,0.1,0.6,0.1,0.9v3.7h-1.1v-3.5c0-0.2,0-0.4-0.1-0.6
		c0-0.2-0.1-0.3-0.2-0.5c-0.1-0.1-0.2-0.2-0.4-0.3c-0.2-0.1-0.4-0.1-0.6-0.1c-0.2,0-0.4,0-0.6,0.1s-0.3,0.2-0.4,0.3
		c-0.1,0.1-0.2,0.3-0.3,0.5c-0.1,0.2-0.1,0.4-0.1,0.6V231.1z"/>
	<path fill="#9013FE" d="M-272.7,227.8l2.5,3.3h-1.4l-1.9-2.5l-0.8,0.8v1.7h-1.1v-8.7h1.1v5.5l2.5-2.6h1.6L-272.7,227.8z"/>
	<path fill="#9013FE" d="M-265.4,230.3c-0.1,0.3-0.4,0.5-0.7,0.7c-0.3,0.2-0.7,0.3-1.1,0.3c-0.4,0-0.8-0.1-1.1-0.2s-0.6-0.4-0.9-0.6
		c-0.2-0.3-0.4-0.6-0.5-1s-0.2-0.8-0.2-1.2c0-0.4,0.1-0.8,0.2-1.2c0.1-0.4,0.3-0.7,0.6-1c0.2-0.3,0.5-0.5,0.9-0.7s0.7-0.2,1.1-0.2
		c0.3,0,0.5,0,0.7,0.1c0.2,0.1,0.4,0.1,0.5,0.2c0.1,0.1,0.3,0.2,0.4,0.3c0.1,0.1,0.2,0.2,0.2,0.4v-3.7h1.1v7.6c0,0.3,0,0.5,0,0.7
		c0,0.2,0,0.3,0,0.4h-1.1c0-0.1,0-0.2,0-0.3C-265.4,230.7-265.4,230.5-265.4,230.3L-265.4,230.3z M-268.8,228.2c0,0.3,0,0.6,0.1,0.8
		s0.2,0.5,0.3,0.7c0.1,0.2,0.3,0.3,0.5,0.4c0.2,0.1,0.4,0.2,0.7,0.2c0.3,0,0.5-0.1,0.7-0.2s0.4-0.3,0.5-0.4c0.1-0.2,0.3-0.4,0.3-0.7
		s0.1-0.5,0.1-0.8c0-0.6-0.1-1.1-0.4-1.5s-0.7-0.6-1.2-0.6c-0.3,0-0.5,0-0.7,0.1c-0.2,0.1-0.4,0.2-0.5,0.4c-0.1,0.2-0.3,0.4-0.3,0.6
		S-268.8,227.9-268.8,228.2z"/>
	<path fill="#9013FE" d="M-261.3,231.1h-1.1v-8.7h1.1v3.6c0.2-0.3,0.5-0.5,0.8-0.6c0.3-0.1,0.6-0.2,1-0.2c0.3,0,0.6,0.1,0.9,0.2
		c0.3,0.1,0.5,0.3,0.6,0.5c0.2,0.2,0.3,0.4,0.4,0.7c0.1,0.3,0.1,0.6,0.1,0.9v3.7h-1.1v-3.5c0-0.2,0-0.4-0.1-0.6
		c0-0.2-0.1-0.3-0.2-0.5c-0.1-0.1-0.2-0.2-0.4-0.3c-0.2-0.1-0.4-0.1-0.6-0.1c-0.2,0-0.4,0-0.6,0.1c-0.2,0.1-0.3,0.2-0.4,0.3
		c-0.1,0.1-0.2,0.3-0.3,0.5c-0.1,0.2-0.1,0.4-0.1,0.6V231.1z"/>
	<path fill="#9013FE" d="M-256,229.6c0-0.3,0-0.5,0.1-0.7c0.1-0.2,0.2-0.4,0.4-0.5c0.2-0.1,0.3-0.3,0.6-0.3c0.2-0.1,0.4-0.2,0.7-0.2
		l1.6-0.2c0.2,0,0.3-0.1,0.4-0.2c0.1-0.1,0.1-0.2,0.1-0.3c0-0.3-0.1-0.5-0.3-0.7c-0.2-0.2-0.5-0.3-1-0.3c-0.4,0-0.7,0.1-0.9,0.3
		c-0.2,0.2-0.3,0.5-0.4,0.8l-1.1-0.3c0-0.3,0.1-0.5,0.2-0.8s0.3-0.4,0.5-0.6s0.5-0.3,0.7-0.4c0.3-0.1,0.6-0.1,0.9-0.1
		c0.4,0,0.8,0.1,1.1,0.2c0.3,0.1,0.6,0.3,0.7,0.5c0.2,0.2,0.3,0.4,0.4,0.7c0.1,0.3,0.1,0.5,0.1,0.8v2.9c0,0.3,0,0.5,0,0.6
		c0,0.2,0,0.3,0,0.3h-1.1c0-0.1,0-0.2,0-0.3s0-0.3,0-0.5c-0.1,0.1-0.1,0.2-0.3,0.3c-0.1,0.1-0.2,0.2-0.4,0.3
		c-0.2,0.1-0.3,0.2-0.5,0.2c-0.2,0.1-0.4,0.1-0.7,0.1c-0.3,0-0.6,0-0.8-0.1c-0.2-0.1-0.4-0.2-0.6-0.4s-0.3-0.3-0.4-0.5
		C-256,230-256,229.8-256,229.6z M-253.9,230.4c0.2,0,0.4,0,0.7-0.1c0.2-0.1,0.4-0.2,0.5-0.3c0.1-0.1,0.3-0.3,0.4-0.5
		s0.1-0.5,0.1-0.8v-0.3l-1.8,0.3c-0.2,0-0.4,0.1-0.6,0.3c-0.2,0.1-0.2,0.3-0.2,0.6c0,0.2,0.1,0.4,0.3,0.6
		C-254.4,230.3-254.2,230.4-253.9,230.4z"/>
	<path fill="#9013FE" d="M-245,225.4l1.5,4.3l1.3-4.3h1.2l-1.9,5.8h-1.2l-1.5-4.4l-1.5,4.4h-1.2l-1.9-5.8h1.2l1.3,4.3l1.5-4.3H-245z
		"/>
	<path fill="#9013FE" d="M-240.3,229.6c0-0.3,0-0.5,0.1-0.7c0.1-0.2,0.2-0.4,0.4-0.5c0.2-0.1,0.3-0.3,0.6-0.3
		c0.2-0.1,0.4-0.2,0.7-0.2l1.6-0.2c0.2,0,0.3-0.1,0.4-0.2c0.1-0.1,0.1-0.2,0.1-0.3c0-0.3-0.1-0.5-0.3-0.7c-0.2-0.2-0.5-0.3-1-0.3
		c-0.4,0-0.7,0.1-0.9,0.3c-0.2,0.2-0.3,0.5-0.4,0.8l-1.1-0.3c0-0.3,0.1-0.5,0.2-0.8s0.3-0.4,0.5-0.6s0.5-0.3,0.7-0.4
		c0.3-0.1,0.6-0.1,0.9-0.1c0.4,0,0.8,0.1,1.1,0.2c0.3,0.1,0.6,0.3,0.7,0.5c0.2,0.2,0.3,0.4,0.4,0.7c0.1,0.3,0.1,0.5,0.1,0.8v2.9
		c0,0.3,0,0.5,0,0.6c0,0.2,0,0.3,0,0.3h-1.1c0-0.1,0-0.2,0-0.3s0-0.3,0-0.5c-0.1,0.1-0.1,0.2-0.3,0.3c-0.1,0.1-0.2,0.2-0.4,0.3
		c-0.2,0.1-0.3,0.2-0.5,0.2c-0.2,0.1-0.4,0.1-0.7,0.1c-0.3,0-0.6,0-0.8-0.1c-0.2-0.1-0.4-0.2-0.6-0.4s-0.3-0.3-0.4-0.5
		C-240.2,230-240.3,229.8-240.3,229.6z M-238.2,230.4c0.2,0,0.4,0,0.7-0.1c0.2-0.1,0.4-0.2,0.5-0.3c0.1-0.1,0.3-0.3,0.4-0.5
		s0.1-0.5,0.1-0.8v-0.3l-1.8,0.3c-0.2,0-0.4,0.1-0.6,0.3c-0.2,0.1-0.2,0.3-0.2,0.6c0,0.2,0.1,0.4,0.3,0.6
		C-238.7,230.3-238.5,230.4-238.2,230.4z"/>
	<path fill="#9013FE" d="M-232.5,231.1h-1.1v-5.8h1.1v0.8c0.2-0.4,0.5-0.6,0.8-0.8c0.3-0.2,0.6-0.2,1-0.2c0.3,0,0.6,0.1,0.9,0.2
		c0.3,0.1,0.5,0.3,0.6,0.5c0.2,0.2,0.3,0.4,0.4,0.7c0.1,0.3,0.1,0.6,0.1,0.9v3.7h-1.1v-3.5c0-0.2,0-0.4-0.1-0.6
		c0-0.2-0.1-0.3-0.2-0.5c-0.1-0.1-0.2-0.2-0.4-0.3c-0.2-0.1-0.4-0.1-0.6-0.1c-0.2,0-0.4,0-0.6,0.1s-0.3,0.2-0.4,0.3
		c-0.1,0.1-0.2,0.3-0.3,0.5c-0.1,0.2-0.1,0.4-0.1,0.6V231.1z"/>
</g>
<path fill-rule="evenodd" clip-rule="evenodd" fill="#9013FE" d="M-329.1,236.5c-0.4-2.4-1.1-4.6-1.9-6.7c1.9-0.3,3.9-0.3,5.9,0.2
	C-325.5,232.7-327,235-329.1,236.5z M-341.3,236.3c0.7-0.9,2.1-2.5,4.1-3.9c1.4-0.9,2.8-1.6,4.3-2.1c0.9,2.2,1.6,4.7,2,7.3
	c-1.3,0.6-2.7,0.9-4.2,0.9C-337.4,238.5-339.6,237.7-341.3,236.3z M-345.1,228C-345,228-345,228-345.1,228c1.3,0,3.5-0.1,6.2-0.6
	c1.5-0.3,2.9-0.6,4.3-1.1c0.3,0.7,0.7,1.4,1,2.2c-1.9,0.6-3.5,1.5-4.7,2.3c-2.1,1.4-3.6,3.1-4.4,4c-1.5-1.8-2.4-4-2.4-6.5
	C-345.1,228.3-345.1,228.1-345.1,228z M-339,219.2c0.6,0.8,2,2.7,3.5,5.4c-3.8,1.2-7.5,1.4-9.3,1.5
	C-344.1,223-341.9,220.4-339,219.2z M-328.5,220.7c-1.5,1.4-3.3,2.4-5.2,3.2c-1.3-2.5-2.6-4.3-3.4-5.4c0.7-0.1,1.4-0.2,2.1-0.2
	C-332.5,218.3-330.3,219.2-328.5,220.7z M-327.2,222.1c1.3,1.7,2.2,3.8,2.2,6c-2.5-0.5-4.8-0.5-6.7-0.1c-0.4-0.8-0.7-1.6-1.1-2.4
	C-330.6,224.7-328.7,223.5-327.2,222.1z M-335,216.4c-6.6,0-12,5.4-12,12s5.4,12,12,12c6.6,0,12-5.4,12-12S-328.4,216.4-335,216.4z"
	/>
<g>
	<path fill="#9013FE" d="M-160.5,231.1v-5.8h1.1v0.8c0.2-0.3,0.4-0.6,0.8-0.7s0.7-0.2,1-0.2c0.4,0,0.7,0.1,1,0.3
		c0.3,0.2,0.6,0.5,0.7,0.8c0.2-0.4,0.5-0.7,0.9-0.9s0.7-0.2,1.1-0.2c0.2,0,0.5,0,0.7,0.1c0.2,0.1,0.5,0.2,0.6,0.4
		c0.2,0.2,0.3,0.4,0.5,0.7c0.1,0.3,0.2,0.6,0.2,1v3.7h-1.1v-3.6c0-0.4-0.1-0.7-0.3-0.9c-0.2-0.3-0.5-0.4-0.9-0.4
		c-0.4,0-0.7,0.1-1,0.4c-0.2,0.3-0.4,0.6-0.4,1v3.5h-1.1v-3.6c0-0.4-0.1-0.7-0.3-0.9c-0.2-0.3-0.5-0.4-0.9-0.4c-0.4,0-0.7,0.1-1,0.4
		c-0.2,0.3-0.4,0.6-0.4,1.1v3.5H-160.5z"/>
	<path fill="#9013FE" d="M-150.6,229.6c0-0.3,0-0.5,0.1-0.7c0.1-0.2,0.2-0.4,0.4-0.5c0.2-0.1,0.3-0.3,0.6-0.3
		c0.2-0.1,0.4-0.2,0.7-0.2l1.6-0.2c0.2,0,0.3-0.1,0.4-0.2c0.1-0.1,0.1-0.2,0.1-0.3c0-0.3-0.1-0.5-0.3-0.7c-0.2-0.2-0.5-0.3-1-0.3
		c-0.4,0-0.7,0.1-0.9,0.3c-0.2,0.2-0.3,0.5-0.4,0.8l-1.1-0.3c0-0.3,0.1-0.5,0.2-0.8s0.3-0.4,0.5-0.6s0.5-0.3,0.7-0.4
		c0.3-0.1,0.6-0.1,0.9-0.1c0.4,0,0.8,0.1,1.1,0.2c0.3,0.1,0.6,0.3,0.7,0.5c0.2,0.2,0.3,0.4,0.4,0.7c0.1,0.3,0.1,0.5,0.1,0.8v2.9
		c0,0.3,0,0.5,0,0.6c0,0.2,0,0.3,0,0.3h-1.1c0-0.1,0-0.2,0-0.3s0-0.3,0-0.5c-0.1,0.1-0.1,0.2-0.3,0.3c-0.1,0.1-0.2,0.2-0.4,0.3
		c-0.2,0.1-0.3,0.2-0.5,0.2c-0.2,0.1-0.4,0.1-0.7,0.1c-0.3,0-0.6,0-0.8-0.1c-0.2-0.1-0.4-0.2-0.6-0.4s-0.3-0.3-0.4-0.5
		C-150.5,230-150.6,229.8-150.6,229.6z M-148.5,230.4c0.2,0,0.4,0,0.7-0.1c0.2-0.1,0.4-0.2,0.5-0.3c0.1-0.1,0.3-0.3,0.4-0.5
		s0.1-0.5,0.1-0.8v-0.3l-1.8,0.3c-0.2,0-0.4,0.1-0.6,0.3c-0.2,0.1-0.2,0.3-0.2,0.6c0,0.2,0.1,0.4,0.3,0.6
		C-149,230.3-148.8,230.4-148.5,230.4z"/>
	<path fill="#9013FE" d="M-143.9,233.6l1.4-3l-2.5-5.1h1.3l1.8,4l1.7-4h1.2l-3.8,8.2H-143.9z"/>
	<path fill="#9013FE" d="M-138.3,229.6c0-0.3,0-0.5,0.1-0.7c0.1-0.2,0.2-0.4,0.4-0.5c0.2-0.1,0.3-0.3,0.6-0.3
		c0.2-0.1,0.4-0.2,0.7-0.2l1.6-0.2c0.2,0,0.3-0.1,0.4-0.2c0.1-0.1,0.1-0.2,0.1-0.3c0-0.3-0.1-0.5-0.3-0.7c-0.2-0.2-0.5-0.3-1-0.3
		c-0.4,0-0.7,0.1-0.9,0.3c-0.2,0.2-0.3,0.5-0.4,0.8l-1.1-0.3c0-0.3,0.1-0.5,0.2-0.8s0.3-0.4,0.5-0.6s0.5-0.3,0.7-0.4
		c0.3-0.1,0.6-0.1,0.9-0.1c0.4,0,0.8,0.1,1.1,0.2c0.3,0.1,0.6,0.3,0.7,0.5c0.2,0.2,0.3,0.4,0.4,0.7c0.1,0.3,0.1,0.5,0.1,0.8v2.9
		c0,0.3,0,0.5,0,0.6c0,0.2,0,0.3,0,0.3h-1.1c0-0.1,0-0.2,0-0.3s0-0.3,0-0.5c-0.1,0.1-0.1,0.2-0.3,0.3c-0.1,0.1-0.2,0.2-0.4,0.3
		c-0.2,0.1-0.3,0.2-0.5,0.2c-0.2,0.1-0.4,0.1-0.7,0.1c-0.3,0-0.6,0-0.8-0.1c-0.2-0.1-0.4-0.2-0.6-0.4s-0.3-0.3-0.4-0.5
		C-138.3,230-138.3,229.8-138.3,229.6z M-136.2,230.4c0.2,0,0.4,0,0.7-0.1c0.2-0.1,0.4-0.2,0.5-0.3c0.1-0.1,0.3-0.3,0.4-0.5
		s0.1-0.5,0.1-0.8v-0.3l-1.8,0.3c-0.2,0-0.4,0.1-0.6,0.3c-0.2,0.1-0.2,0.3-0.2,0.6c0,0.2,0.1,0.4,0.3,0.6
		C-136.8,230.3-136.5,230.4-136.2,230.4z"/>
	<path fill="#9013FE" d="M-130.6,231.1h-1.1v-5.8h1.1v0.8c0.2-0.4,0.5-0.6,0.8-0.8c0.3-0.2,0.6-0.2,1-0.2c0.3,0,0.6,0.1,0.9,0.2
		c0.3,0.1,0.5,0.3,0.6,0.5c0.2,0.2,0.3,0.4,0.4,0.7c0.1,0.3,0.1,0.6,0.1,0.9v3.7h-1.1v-3.5c0-0.2,0-0.4-0.1-0.6
		c0-0.2-0.1-0.3-0.2-0.5c-0.1-0.1-0.2-0.2-0.4-0.3c-0.2-0.1-0.4-0.1-0.6-0.1c-0.2,0-0.4,0-0.6,0.1s-0.3,0.2-0.4,0.3
		c-0.1,0.1-0.2,0.3-0.3,0.5c-0.1,0.2-0.1,0.4-0.1,0.6V231.1z"/>
	<path fill="#9013FE" d="M-122.2,227.8l2.5,3.3h-1.4l-1.9-2.5l-0.8,0.8v1.7h-1.1v-8.7h1.1v5.5l2.5-2.6h1.6L-122.2,227.8z"/>
	<path fill="#9013FE" d="M-119.1,232.1v-0.9h6.1v0.9H-119.1z"/>
	<path fill="#9013FE" d="M-110.4,225.4h1.2v1h-1.2v3c0,0.3,0.1,0.5,0.2,0.6s0.3,0.2,0.6,0.2c0.1,0,0.2,0,0.2,0s0.2,0,0.2,0v1
		c0,0-0.1,0-0.3,0.1c-0.1,0-0.3,0-0.5,0c-0.5,0-0.9-0.1-1.2-0.4c-0.3-0.3-0.4-0.7-0.4-1.2v-3.2h-1.1v-1h0.3c0.3,0,0.5-0.1,0.7-0.3
		c0.1-0.2,0.2-0.4,0.2-0.6v-0.9h1V225.4z"/>
	<path fill="#9013FE" d="M-106.6,231.1h-1.1v-8.7h1.1v3.6c0.2-0.3,0.5-0.5,0.8-0.6c0.3-0.1,0.6-0.2,1-0.2c0.3,0,0.6,0.1,0.9,0.2
		c0.3,0.1,0.5,0.3,0.6,0.5c0.2,0.2,0.3,0.4,0.4,0.7c0.1,0.3,0.1,0.6,0.1,0.9v3.7h-1.1v-3.5c0-0.2,0-0.4-0.1-0.6
		c0-0.2-0.1-0.3-0.2-0.5c-0.1-0.1-0.2-0.2-0.4-0.3c-0.2-0.1-0.4-0.1-0.6-0.1c-0.2,0-0.4,0-0.6,0.1c-0.2,0.1-0.3,0.2-0.4,0.3
		c-0.1,0.1-0.2,0.3-0.3,0.5c-0.1,0.2-0.1,0.4-0.1,0.6V231.1z"/>
	<path fill="#9013FE" d="M-95.9,229.5c-0.1,0.3-0.2,0.5-0.4,0.7c-0.2,0.2-0.3,0.4-0.6,0.6c-0.2,0.2-0.5,0.3-0.8,0.4
		c-0.3,0.1-0.6,0.1-0.9,0.1c-0.4,0-0.8-0.1-1.1-0.2c-0.4-0.1-0.7-0.3-0.9-0.6c-0.3-0.3-0.5-0.6-0.6-1c-0.2-0.4-0.2-0.8-0.2-1.3
		c0-0.5,0.1-0.9,0.2-1.2c0.2-0.4,0.4-0.7,0.6-1c0.3-0.3,0.5-0.5,0.9-0.6c0.3-0.1,0.7-0.2,1-0.2c0.4,0,0.8,0.1,1.2,0.2
		c0.3,0.1,0.6,0.4,0.9,0.6c0.2,0.3,0.4,0.6,0.5,1s0.2,0.8,0.2,1.2c0,0.1,0,0.1,0,0.2c0,0.1,0,0.1,0,0.2h-4.3c0,0.3,0.1,0.5,0.1,0.7
		c0.1,0.2,0.2,0.4,0.4,0.6c0.2,0.2,0.3,0.3,0.6,0.4s0.4,0.1,0.7,0.1c0.5,0,0.8-0.1,1.1-0.3c0.2-0.2,0.4-0.5,0.5-0.8L-95.9,229.5z
		 M-97.1,227.7c0-0.4-0.2-0.8-0.4-1c-0.3-0.3-0.7-0.4-1.2-0.4c-0.2,0-0.5,0-0.6,0.1c-0.2,0.1-0.3,0.2-0.5,0.3
		c-0.1,0.1-0.2,0.3-0.3,0.5c-0.1,0.2-0.1,0.4-0.1,0.5H-97.1z"/>
	<path fill="#9013FE" d="M-95.4,232.1v-0.9h6.1v0.9H-95.4z"/>
	<path fill="#9013FE" d="M-85.8,225.2c0.4,0,0.8,0.1,1.2,0.2s0.7,0.4,0.9,0.6c0.3,0.3,0.5,0.6,0.6,1s0.2,0.8,0.2,1.2
		c0,0.4-0.1,0.8-0.2,1.2s-0.3,0.7-0.6,1c-0.3,0.3-0.6,0.5-0.9,0.6c-0.4,0.2-0.8,0.2-1.2,0.2c-0.4,0-0.8-0.1-1.2-0.2
		c-0.4-0.2-0.7-0.4-0.9-0.6c-0.3-0.3-0.5-0.6-0.6-1c-0.1-0.4-0.2-0.8-0.2-1.2c0-0.4,0.1-0.8,0.2-1.2c0.1-0.4,0.3-0.7,0.6-1
		c0.3-0.3,0.6-0.5,0.9-0.6C-86.7,225.3-86.3,225.2-85.8,225.2z M-85.8,230.3c0.2,0,0.5,0,0.7-0.1s0.4-0.2,0.6-0.4
		c0.2-0.2,0.3-0.4,0.4-0.6s0.1-0.6,0.1-0.9s0-0.6-0.1-0.9s-0.2-0.5-0.4-0.6s-0.4-0.3-0.6-0.4c-0.2-0.1-0.4-0.1-0.7-0.1
		c-0.2,0-0.5,0-0.7,0.1c-0.2,0.1-0.4,0.2-0.6,0.4s-0.3,0.4-0.4,0.6c-0.1,0.3-0.1,0.5-0.1,0.9s0,0.6,0.1,0.9c0.1,0.3,0.2,0.5,0.4,0.6
		c0.2,0.2,0.4,0.3,0.6,0.4S-86.1,230.3-85.8,230.3z"/>
	<path fill="#9013FE" d="M-80.3,231.1h-1.1v-5.8h1.1v0.8c0.2-0.4,0.5-0.6,0.8-0.8c0.3-0.2,0.6-0.2,1-0.2c0.3,0,0.6,0.1,0.9,0.2
		c0.3,0.1,0.5,0.3,0.6,0.5c0.2,0.2,0.3,0.4,0.4,0.7c0.1,0.3,0.1,0.6,0.1,0.9v3.7h-1.1v-3.5c0-0.2,0-0.4-0.1-0.6
		c0-0.2-0.1-0.3-0.2-0.5c-0.1-0.1-0.2-0.2-0.4-0.3c-0.2-0.1-0.4-0.1-0.6-0.1c-0.2,0-0.4,0-0.6,0.1s-0.3,0.2-0.4,0.3
		c-0.1,0.1-0.2,0.3-0.3,0.5c-0.1,0.2-0.1,0.4-0.1,0.6V231.1z"/>
	<path fill="#9013FE" d="M-69.7,229.5c-0.1,0.3-0.2,0.5-0.4,0.7c-0.2,0.2-0.3,0.4-0.6,0.6c-0.2,0.2-0.5,0.3-0.8,0.4
		c-0.3,0.1-0.6,0.1-0.9,0.1c-0.4,0-0.8-0.1-1.1-0.2c-0.4-0.1-0.7-0.3-0.9-0.6c-0.3-0.3-0.5-0.6-0.6-1c-0.2-0.4-0.2-0.8-0.2-1.3
		c0-0.5,0.1-0.9,0.2-1.2c0.2-0.4,0.4-0.7,0.6-1c0.3-0.3,0.5-0.5,0.9-0.6c0.3-0.1,0.7-0.2,1-0.2c0.4,0,0.8,0.1,1.2,0.2
		c0.3,0.1,0.6,0.4,0.9,0.6c0.2,0.3,0.4,0.6,0.5,1s0.2,0.8,0.2,1.2c0,0.1,0,0.1,0,0.2c0,0.1,0,0.1,0,0.2H-74c0,0.3,0.1,0.5,0.1,0.7
		c0.1,0.2,0.2,0.4,0.4,0.6c0.2,0.2,0.3,0.3,0.6,0.4s0.4,0.1,0.7,0.1c0.5,0,0.8-0.1,1.1-0.3c0.2-0.2,0.4-0.5,0.5-0.8L-69.7,229.5z
		 M-70.8,227.7c0-0.4-0.2-0.8-0.4-1c-0.3-0.3-0.7-0.4-1.2-0.4c-0.2,0-0.5,0-0.6,0.1c-0.2,0.1-0.3,0.2-0.5,0.3
		c-0.1,0.1-0.2,0.3-0.3,0.5c-0.1,0.2-0.1,0.4-0.1,0.5H-70.8z"/>
</g>
<g>
	<path fill-rule="evenodd" clip-rule="evenodd" fill="#9013FE" d="M-173.6,220c-0.4,0-0.8,0.2-1.1,0.5c-0.3,0.3-0.5,0.7-0.5,1.1
		c0,0.4,0.2,0.8,0.5,1.1c0.3,0.3,0.7,0.5,1.1,0.5c0.4,0,0.8-0.2,1.1-0.5c0.3-0.3,0.5-0.7,0.5-1.1c0-0.4-0.2-0.8-0.5-1.1
		C-172.7,220.2-173.2,220-173.6,220z"/>
	<path fill-rule="evenodd" clip-rule="evenodd" fill="#9013FE" d="M-174.6,216h-10.7c-3.6,0-6.6,3-6.6,6.6v10.7c0,3.6,3,6.6,6.6,6.6
		h10.7c3.6,0,6.6-3,6.6-6.6v-10.7C-168,219-171,216-174.6,216z M-170.1,233.4c0,2.5-2,4.5-4.5,4.5h-10.7c-2.5,0-4.5-2-4.5-4.5v-10.7
		c0-2.5,2-4.5,4.5-4.5h10.7c2.5,0,4.5,2,4.5,4.5V233.4z"/>
	<path fill-rule="evenodd" clip-rule="evenodd" fill="#9013FE" d="M-180,221.8c-3.4,0-6.2,2.8-6.2,6.2c0,3.4,2.8,6.2,6.2,6.2
		c3.4,0,6.2-2.8,6.2-6.2C-173.8,224.6-176.6,221.8-180,221.8z M-180,232.1c-2.2,0-4.1-1.8-4.1-4.1s1.8-4.1,4.1-4.1
		c2.2,0,4.1,1.8,4.1,4.1S-177.8,232.1-180,232.1z"/>
</g>
<g>
	<circle fill="#4577FF" cx="-115" cy="60" r="60"/>
	<rect x="-179" y="-4" fill="none" width="128" height="128"/>
	<g>
		<defs>
			<circle id="SVGID_1_" cx="-115" cy="60" r="60"/>
		</defs>
		<clipPath id="SVGID_2_">
			<use xlink:href="#SVGID_1_"  overflow="visible"/>
		</clipPath>
		<path clip-path="url(#SVGID_2_)" fill="#FFAA00" d="M-137,72L-137,72c6.6,0,12-5.4,12-12V36c0-2.2-1.8-4-4-4h-8
			c-6.6,0-12,5.4-12,12v16C-149,66.6-143.6,72-137,72z"/>
		<path clip-path="url(#SVGID_2_)" fill="#FFC036" d="M-81,124h-64V52c0-17.6,14.4-32,32-32h0c17.6,0,32,14.4,32,32V124z"/>
		<path clip-path="url(#SVGID_2_)" fill="#FFE09E" d="M-93,132h-48v0c0-13.3,10.7-24,24-24h0C-103.7,108-93,118.7-93,132L-93,132z"
			/>
	</g>
	<circle fill="#603535" cx="-109" cy="52" r="4"/>
	<path fill="#FFE09E" d="M-105,40L-105,40c0,1.1-0.9,2-2,2h-4c-1.1,0-2-0.9-2-2v0c0-1.1,0.9-2,2-2h4C-105.9,38-105,38.9-105,40z"/>
	<path fill="#FFE09E" d="M-121,40L-121,40c0,1.1-0.9,2-2,2h-4c-1.1,0-2-0.9-2-2v0c0-1.1,0.9-2,2-2h4C-121.9,38-121,38.9-121,40z"/>
	<circle fill="#603535" cx="-125" cy="52" r="4"/>
	<path fill="#F5463A" d="M-119,88h12c1.1,0,2,0.9,2,2v6c0,4.4-3.6,8-8,8h0c-4.4,0-8-3.6-8-8v-6C-121,88.9-120.1,88-119,88z"/>
	<g>
		<path fill="#ED2F21" d="M-113,98c-1.1,0-2-0.9-2-2v-8c0-1.1,0.9-2,2-2s2,0.9,2,2v8C-111,97.1-111.9,98-113,98z"/>
	</g>
	<path fill="#FFE09E" d="M-121,96h-12c-13.2,0-24-10.8-24-24v-8c0-4.4,3.6-8,8-8l44,0c4.4,0,8,3.6,8,8v8C-97,85.2-107.8,96-121,96z"
		/>
	<path fill="#603535" d="M-151,56h12c1.1,0,2,0.9,2,2v2c0,4.4-3.6,8-8,8h0c-4.4,0-8-3.6-8-8v-2C-153,56.9-152.1,56-151,56z"/>
	<circle fill="#FFC036" cx="-129" cy="64" r="2"/>
	<circle fill="#301B1B" cx="-141" cy="62" r="2"/>
	<circle fill="#301B1B" cx="-149" cy="62" r="2"/>
	<circle fill="#FFC036" cx="-121" cy="64" r="2"/>
	<circle fill="#FFC036" cx="-125" cy="72" r="2"/>
	<path fill="#FFAA00" d="M-81,72L-81,72c-6.6,0-12-5.4-12-12V36c0-2.2,1.8-4,4-4h8c6.6,0,12,5.4,12,12v16C-69,66.6-74.4,72-81,72z"
		/>
</g>
<g>
	<circle fill="#F5463A" cx="60" cy="-108" r="60"/>
	<rect x="-4" y="-172" fill="none" width="128" height="128"/>
	<g>
		<defs>
			<circle id="SVGID_3_" cx="60" cy="-108" r="60"/>
		</defs>
		<clipPath id="SVGID_4_">
			<use xlink:href="#SVGID_3_"  overflow="visible"/>
		</clipPath>
		<path clip-path="url(#SVGID_4_)" fill="#2BD665" d="M92-32H28v-16c0-17.7,14.3-32,32-32h0c17.7,0,32,14.3,32,32V-32z"/>
		<path clip-path="url(#SVGID_4_)" fill="#1FC258" d="M60-64c6.6,0,12-5.4,12-12v-1.7c-3.7-1.5-7.8-2.3-12-2.3l0,0
			c-4.2,0-8.3,0.8-12,2.3v1.7C48-69.4,53.4-64,60-64z"/>
	</g>
	<path fill="#FFA47A" d="M60-68L60-68c-4.4,0-8-3.6-8-8v-8c0-4.4,3.6-8,8-8h0c4.4,0,8,3.6,8,8v8C68-71.6,64.4-68,60-68z"/>
	<path fill="#FFBB9B" d="M60-78L60-78c-16.6,0-30-13.4-30-30v-8c0-16.6,13.4-30,30-30h0c16.6,0,30,13.4,30,30v8
		C90-91.4,76.6-78,60-78z"/>
	<circle fill="#603535" cx="64" cy="-116" r="4"/>
	<circle fill="#603535" cx="48" cy="-116" r="4"/>
	<path fill="#FFFFFF" d="M56-92L56-92c-7.7,0-14-6.3-14-14v-2h28v2C70-98.3,63.7-92,56-92z"/>
	<path fill="#FFBB9B" d="M90-106h-2v-12h2c3.3,0,6,2.7,6,6v0C96-108.7,93.3-106,90-106z"/>
	<path fill="#643536" d="M88-118h4v-16c0-4.4-3.6-8-8-8h0v20C84-119.8,85.8-118,88-118z"/>
	<path fill="#643536" d="M88-128H40c-8.8,0-16-7.2-16-16v0l56,0c4.4,0,8,3.6,8,8V-128z"/>
	<path fill="#643536" d="M88-140l-44,0c-8.8,0-16-7.2-16-16v0h44C80.8-156,88-148.8,88-140L88-140z"/>
</g>
<g>
	<circle fill="#1D1433" cx="-115" cy="-108" r="60"/>
	<g>
		<defs>
			<circle id="SVGID_5_" cx="-115" cy="-108" r="60"/>
		</defs>
		<clipPath id="SVGID_6_">
			<use xlink:href="#SVGID_5_"  overflow="visible"/>
		</clipPath>
		<path clip-path="url(#SVGID_6_)" fill="#F0EBFF" d="M-79-44h-72v-16c0-17.7,14.3-32,32-32h8c17.7,0,32,14.3,32,32V-44z"/>
		<path clip-path="url(#SVGID_6_)" fill="#DED4FF" d="M-97-20h-48v-24c0-13.3,10.7-24,24-24h0c13.3,0,24,10.7,24,24V-20z"/>
	</g>
	<path fill="#F0EBFF" d="M-79-80h-72v-36c0-19.8,16.2-36,36-36h0c19.8,0,36,16.2,36,36V-80z"/>
	<path fill="#3E257A" d="M-115-96h-20c-11,0-20-9-20-20v0c0-11,9-20,20-20h20c11,0,20,9,20,20v0C-95-105-104-96-115-96z"/>
	<path fill="#50338F" d="M-147-116c0-11,9-20,20-20h-8c-11,0-20,9-20,20s9,20,20,20h8C-138-96-147-105-147-116z"/>
	<path fill="#1D1433" d="M-119-88h-2v-4h2c1.1,0,2,0.9,2,2v0C-117-88.9-117.9-88-119-88z"/>
	<path fill="#A385FF" d="M-79-72h-72c-2.2,0-4-1.8-4-4v0c0-2.2,1.8-4,4-4h72c2.2,0,4,1.8,4,4v0C-75-73.8-76.8-72-79-72z"/>
	<circle fill="#1D1433" cx="-111" cy="-116" r="4"/>
	<circle fill="#F5463A" cx="-91" cy="-64" r="2"/>
	<circle fill="#FFC036" cx="-99" cy="-64" r="2"/>
	<circle fill="#1D1433" cx="-127" cy="-116" r="4"/>
	<path fill="#A385FF" d="M-79-100h-4c-4.4,0-8-3.6-8-8v-8c0-4.4,3.6-8,8-8h4c4.4,0,8,3.6,8,8v8C-71-103.6-74.6-100-79-100z"/>
	<path fill="#F0EBFF" d="M-79-100L-79-100c-4.4,0-8-3.6-8-8v-8c0-4.4,3.6-8,8-8h0c4.4,0,8,3.6,8,8v8C-71-103.6-74.6-100-79-100z"/>
	<g>
		<path fill="#A385FF" d="M-79-110c-1.1,0-2-0.9-2-2v-28c0-1.1,0.9-2,2-2s2,0.9,2,2v28C-77-110.9-77.9-110-79-110z"/>
	</g>
	<path fill="#DED4FF" d="M-79-136L-79-136c-2.2,0-4-1.8-4-4l0,0c0-2.2,1.8-4,4-4h0c2.2,0,4,1.8,4,4l0,0C-75-137.8-76.8-136-79-136z"
		/>
	<rect x="-129" y="-92" fill="#1D1433" width="4" height="4"/>
	<path fill="#1D1433" d="M-129-88h-2c-1.1,0-2-0.9-2-2v0c0-1.1,0.9-2,2-2h2V-88z"/>
	<rect x="-125" y="-92" fill="#1D1433" width="4" height="4"/>
	<rect x="-179" y="-172" fill="none" width="128" height="128"/>
</g>
<g>
	<circle fill="#FFCE47" cx="235" cy="-108" r="60"/>
	<g>
		<defs>
			<circle id="SVGID_7_" cx="235" cy="-108" r="60"/>
		</defs>
		<clipPath id="SVGID_8_">
			<use xlink:href="#SVGID_7_"  overflow="visible"/>
		</clipPath>
		<path clip-path="url(#SVGID_8_)" fill="#643536" d="M267-68h-60c-4.4,0-8-3.6-8-8v-56c0-8.8,7.2-16,16-16h24c19.9,0,36,16.1,36,36
			v36C275-71.6,271.4-68,267-68z"/>
		<path clip-path="url(#SVGID_8_)" fill="#CC2996" d="M263-28h-56v-20c0-15.5,12.5-28,28-28h0c15.5,0,28,12.5,28,28V-28z"/>
		<path clip-path="url(#SVGID_8_)" fill="#FFA47A" d="M235-60c6.6,0,12-5.4,12-12v-1.3c-3.6-1.7-7.7-2.7-12-2.7s-8.4,1-12,2.7v1.3
			C223-65.4,228.4-60,235-60z"/>
	</g>
	<path fill="#FFA47A" d="M235-64L235-64c-4.4,0-8-3.6-8-8v-8c0-4.4,3.6-8,8-8h0c4.4,0,8,3.6,8,8v8C243-67.6,239.4-64,235-64z"/>
	<path fill="#FFBB9B" d="M235-78L235-78c-16.6,0-30-13.4-30-30v-8c0-16.6,13.4-30,30-30h0c16.6,0,30,13.4,30,30v8
		C265-91.4,251.6-78,235-78z"/>
	<path fill="#643536" d="M243-158h-2h-4h-14c-6.3,0-11.5,4.9-12,11.1c0,0.3,0,0.6,0,0.9c0,13.2,10.8,24,24,24h34h6v-4
		C275-143.6,260.6-158,243-158z"/>
	<circle fill="#603535" cx="239" cy="-116" r="4"/>
	<circle fill="#603535" cx="223" cy="-116" r="4"/>
	<path fill="#FFFFFF" d="M231-92L231-92c-7.7,0-14-6.3-14-14v-2h28v2C245-98.3,238.7-92,231-92z"/>
	<path fill="#FFD8A8" d="M265-106h-2v-12h2c3.3,0,6,2.7,6,6v0C271-108.7,268.3-106,265-106z"/>
	<path fill="#643536" d="M267-68L267-68c4.4,0,8-3.6,8-8v-48h-24v40C251-75.2,258.2-68,267-68z"/>
	<rect x="171" y="-172" fill="none" width="128" height="128"/>
</g>
<g>
	<circle fill="#603535" cx="60" cy="60" r="60"/>
	<path fill="#FF680A" d="M60,40H40V20c0-2.2,1.8-4,4-4h0c8.8,0,16,7.2,16,16V40z"/>
	<g>
		<defs>
			<circle id="SVGID_9_" cx="60" cy="60" r="60"/>
		</defs>
		<clipPath id="SVGID_10_">
			<use xlink:href="#SVGID_9_"  overflow="visible"/>
		</clipPath>
		<path clip-path="url(#SVGID_10_)" fill="#FF7E29" d="M94,132H30v-8c0-19.8,16.2-36,36-36h28V132z"/>
		<path clip-path="url(#SVGID_10_)" fill="#FF680A" d="M84,128H36v-4c0-13.3,10.7-24,24-24h0c13.3,0,24,10.7,24,24V128z"/>
	</g>
	<path fill="#FF7E29" d="M94,96H62c-19.9,0-36-16.1-36-36v0c0-19.8,16.2-36,36-36h16c8.8,0,16,7.2,16,16V96z"/>
	<path fill="#FFE4D1" d="M52,90L52,90c-11,0-20-9-20-20v-4c0-4.4,3.6-8,8-8h24c4.4,0,8,3.6,8,8v4C72,81,63,90,52,90z"/>
	<circle fill="#603535" cx="64" cy="52" r="4"/>
	<circle fill="#603535" cx="48" cy="52" r="4"/>
	<path fill="#603535" d="M44,58h8c1.1,0,2,0.9,2,2v0c0,3.3-2.7,6-6,6h0c-3.3,0-6-2.7-6-6v0C42,58.9,42.9,58,44,58z"/>
	<path fill="#FF680A" d="M70,48L70,48c0,1.1-0.9,2-2,2h-8c-1.1,0-2-0.9-2-2v0c0-1.1,0.9-2,2-2h8C69.1,46,70,46.9,70,48z"/>
	<path fill="#FFE4D1" d="M80,66L80,66c0,1.1-0.9,2-2,2H66c-1.1,0-2-0.9-2-2v0c0-1.1,0.9-2,2-2h12C79.1,64,80,64.9,80,66z"/>
	<path fill="#FFE4D1" d="M80,74L80,74c0,1.1-0.9,2-2,2l-12,0c-1.1,0-2-0.9-2-2v0c0-1.1,0.9-2,2-2l12,0C79.1,72,80,72.9,80,74z"/>
	<path fill="#FFE4D1" d="M40,66L40,66c0,1.1-0.9,2-2,2H26c-1.1,0-2-0.9-2-2v0c0-1.1,0.9-2,2-2h12C39.1,64,40,64.9,40,66z"/>
	<path fill="#FFE4D1" d="M40,74L40,74c0,1.1-0.9,2-2,2l-12,0c-1.1,0-2-0.9-2-2v0c0-1.1,0.9-2,2-2l12,0C39.1,72,40,72.9,40,74z"/>
	<path fill="#FF680A" d="M54,48L54,48c0,1.1-0.9,2-2,2h-8c-1.1,0-2-0.9-2-2v0c0-1.1,0.9-2,2-2h8C53.1,46,54,46.9,54,48z"/>
	<path fill="#FF7E29" d="M74,40h20V20c0-2.2-1.8-4-4-4h0c-8.8,0-16,7.2-16,16V40z"/>
	<g>
		<path fill="#F3A9B1" d="M90,32V20c-4,0-7.6,2-9.7,5C84.2,26.3,87.6,28.8,90,32z"/>
	</g>
	<circle fill="#FFBD8F" cx="64" cy="64" r="2"/>
	<circle fill="#FFBD8F" cx="60" cy="72" r="2"/>
	<circle fill="#FFBD8F" cx="36" cy="72" r="2"/>
	<path fill="#FF680A" d="M90,72h4v-8h-4c-2.2,0-4,1.8-4,4v0C86,70.2,87.8,72,90,72z"/>
	<path fill="#FF680A" d="M90,84h4v-8h-4c-2.2,0-4,1.8-4,4v0C86,82.2,87.8,84,90,84z"/>
	<path fill="#FF680A" d="M86,96h8v-8h-8c-2.2,0-4,1.8-4,4v0C82,94.2,83.8,96,86,96z"/>
	<rect x="-4" y="-4" fill="none" width="128" height="128"/>
</g>
<g>
	<circle fill="#2BD665" cx="-289" cy="60" r="60"/>
	<g>
		<defs>
			<circle id="SVGID_11_" cx="-289" cy="60" r="60"/>
		</defs>
		<clipPath id="SVGID_12_">
			<use xlink:href="#SVGID_11_"  overflow="visible"/>
		</clipPath>
		<path clip-path="url(#SVGID_12_)" fill="#C14F3B" d="M-297,32L-297,32c0,8.8-7.2,16-16,16h0c-8.8,0-16-7.2-16-16v0
			c0-8.8,7.2-16,16-16h0C-304.2,16-297,23.2-297,32z"/>
		<path clip-path="url(#SVGID_12_)" fill="#F3A9B1" d="M-304.5,34.8l-5.7,5.7c-1.6,1.6-4.1,1.6-5.7,0l-2.8-2.8
			c-3.1-3.1-3.1-8.2,0-11.3v0c3.1-3.1,8.2-3.1,11.3,0l2.8,2.8C-303,30.7-303,33.3-304.5,34.8z"/>
		<path clip-path="url(#SVGID_12_)" fill="#D76B5A" d="M-261,48L-261,48c-8.8,0-16-7.2-16-16v0c0-8.8,7.2-16,16-16h0
			c8.8,0,16,7.2,16,16v0C-245,40.8-252.2,48-261,48z"/>
		<path clip-path="url(#SVGID_12_)" fill="#F3A9B1" d="M-263.8,40.5l-5.7-5.7c-1.6-1.6-1.6-4.1,0-5.7l2.8-2.8
			c3.1-3.1,8.2-3.1,11.3,0l0,0c3.1,3.1,3.1,8.2,0,11.3l-2.8,2.8C-259.7,42-262.3,42-263.8,40.5z"/>
		<path clip-path="url(#SVGID_12_)" fill="#D76B5A" d="M-253,124h-72V52c0-19.8,16.2-36,36-36h0c19.8,0,36,16.2,36,36L-253,124z"/>
		<path clip-path="url(#SVGID_12_)" fill="#C14F3B" d="M-257,68L-257,68c-1.1,0-2-0.9-2-2v-4c0-1.1,0.9-2,2-2l0,0c1.1,0,2,0.9,2,2v4
			C-255,67.1-255.9,68-257,68z"/>
		<path clip-path="url(#SVGID_12_)" fill="#C14F3B" d="M-265,80L-265,80c-1.1,0-2-0.9-2-2v-4c0-1.1,0.9-2,2-2l0,0c1.1,0,2,0.9,2,2v4
			C-263,79.1-263.9,80-265,80z"/>
		<path clip-path="url(#SVGID_12_)" fill="#C14F3B" d="M-257,92L-257,92c-1.1,0-2-0.9-2-2v-4c0-1.1,0.9-2,2-2l0,0c1.1,0,2,0.9,2,2v4
			C-255,91.1-255.9,92-257,92z"/>
		<path clip-path="url(#SVGID_12_)" fill="#C14F3B" d="M-265,104L-265,104c-1.1,0-2-0.9-2-2v-4c0-1.1,0.9-2,2-2l0,0c1.1,0,2,0.9,2,2
			v4C-263,103.1-263.9,104-265,104z"/>
		<path clip-path="url(#SVGID_12_)" fill="#C14F3B" d="M-273,116L-273,116c-1.1,0-2-0.9-2-2v-4c0-1.1,0.9-2,2-2l0,0c1.1,0,2,0.9,2,2
			v4C-271,115.1-271.9,116-273,116z"/>
		<path clip-path="url(#SVGID_12_)" fill="#C14F3B" d="M-281,124L-281,124c-1.1,0-2-0.9-2-2v-4c0-1.1,0.9-2,2-2l0,0c1.1,0,2,0.9,2,2
			v4C-279,123.1-279.9,124-281,124z"/>
		<path clip-path="url(#SVGID_12_)" fill="#C14F3B" d="M-313,120L-313,120c-1.1,0-2-0.9-2-2v-4c0-1.1,0.9-2,2-2l0,0c1.1,0,2,0.9,2,2
			v4C-311,119.1-311.9,120-313,120z"/>
		<path clip-path="url(#SVGID_12_)" fill="#C14F3B" d="M-321,108L-321,108c-1.1,0-2-0.9-2-2v-4c0-1.1,0.9-2,2-2l0,0c1.1,0,2,0.9,2,2
			v4C-319,107.1-319.9,108-321,108z"/>
		<path clip-path="url(#SVGID_12_)" fill="#C14F3B" d="M-257,116L-257,116c-1.1,0-2-0.9-2-2v-4c0-1.1,0.9-2,2-2l0,0c1.1,0,2,0.9,2,2
			v4C-255,115.1-255.9,116-257,116z"/>
	</g>
	<path fill="#FFA47A" d="M-297,96L-297,96c-6.6,0-12-5.4-12-12v-4h24v4C-285,90.6-290.4,96-297,96z"/>
	<path fill="#FFBB9B" d="M-289,90h-8c-2.2,0-4-1.8-4-4V58h8c8.8,0,16,7.2,16,16v4C-277,84.6-282.4,90-289,90z"/>
	<path fill="#FFBB9B" d="M-305,90L-305,90c2.2,0,4-1.8,4-4V58l0,0c-8.8,0-16,7.2-16,16v4C-317,84.6-311.6,90-305,90z"/>
	<circle fill="#603535" cx="-285" cy="52" r="4"/>
	<circle fill="#603535" cx="-301" cy="52" r="4"/>
	<path fill="#343A40" d="M-303,62h4c2.2,0,4,1.8,4,4v2c0,3.3-2.7,6-6,6l0,0c-3.3,0-6-2.7-6-6v-2C-307,63.8-305.2,62-303,62z"/>
	<path fill="#C14F3B" d="M-281,40L-281,40c0,1.1-0.9,2-2,2h-4c-1.1,0-2-0.9-2-2v0c0-1.1,0.9-2,2-2h4C-281.9,38-281,38.9-281,40z"/>
	<path fill="#C14F3B" d="M-297,44L-297,44c0,1.1-0.9,2-2,2h-4c-1.1,0-2-0.9-2-2v0c0-1.1,0.9-2,2-2h4C-297.9,42-297,42.9-297,44z"/>
	<rect x="-353" y="-4" fill="none" width="128" height="128"/>
</g>
<g>
	<circle fill="#CC2996" cx="-289" cy="-108" r="60"/>
	<g>
		<defs>
			<circle id="SVGID_13_" cx="-289" cy="-108" r="60"/>
		</defs>
		<use xlink:href="#SVGID_13_"  overflow="visible" fill="#7732D1"/>
		<clipPath id="SVGID_14_">
			<use xlink:href="#SVGID_13_"  overflow="visible"/>
		</clipPath>
		<path clip-path="url(#SVGID_14_)" fill="#FFC74D" d="M-265-40h-48v-24c0-13.3,10.7-24,24-24h0c13.3,0,24,10.7,24,24V-40z"/>
		<path clip-path="url(#SVGID_14_)" fill="#FFBE33" d="M-309.8-76h41.5c-4.2-7.2-11.9-12-20.8-12C-297.9-88-305.6-83.2-309.8-76z"/>
	</g>
	<path fill="#C07867" d="M-253-80h-28v-64h28c2.2,0,4,1.8,4,4v56C-249-81.8-250.8-80-253-80z"/>
	<path fill="#F4A568" d="M-261-120v-20c0-2.2-1.8-4-4-4h8c2.2,0,4,1.8,4,4v20H-261z"/>
	<path fill="#F4A568" d="M-269-80h-56c-2.2,0-4-1.8-4-4v-56c0-2.2,1.8-4,4-4h56c2.2,0,4,1.8,4,4v56C-265-81.8-266.8-80-269-80z"/>
	<path fill="#FFBB9B" d="M-281-108h-32c-4.4,0-8-3.6-8-8v0c0-4.4,3.6-8,8-8h32c4.4,0,8,3.6,8,8v0C-273-111.6-276.6-108-281-108z"/>
	<path fill="#C07867" d="M-313-116c0-4.4,3.6-8,8-8h-8c-4.4,0-8,3.6-8,8s3.6,8,8,8h8C-309.4-108-313-111.6-313-116z"/>
	<circle fill="#603535" cx="-285" cy="-116" r="4"/>
	<circle fill="#603535" cx="-301" cy="-116" r="4"/>
	<rect x="-353" y="-172" fill="none" width="128" height="128"/>
</g>
<g>
	<g>
		<defs>
			<circle id="SVGID_15_" cx="235" cy="60" r="60"/>
		</defs>
		<use xlink:href="#SVGID_15_"  overflow="visible" fill="#6521CC"/>
		<clipPath id="SVGID_16_">
			<use xlink:href="#SVGID_15_"  overflow="visible"/>
		</clipPath>
		<path clip-path="url(#SVGID_16_)" fill="#FF85C8" d="M259,96h-12c-4.4,0-8-3.6-8-8V52c0-11,9-20,20-20h0c11,0,20,9,20,20v24
			C279,87,270,96,259,96z"/>
		<path clip-path="url(#SVGID_16_)" fill="#F8F9FA" d="M271,132h-64v-8c0-19.8,16.2-36,36-36h28V132z"/>
		<path clip-path="url(#SVGID_16_)" fill="#DED4FF" d="M263,124h-48v0c0-13.3,10.7-24,24-24h0C252.3,100,263,110.7,263,124L263,124z
			"/>
	</g>
	<path fill="#F8F9FA" d="M271,92h-40c-22,0-40-18-40-40v0c0-6.6,5.4-12,12-12h68V92z"/>
	<g>
		<defs>
			<path id="SVGID_17_" d="M271,92h-40c-22,0-40-18-40-40v0c0-6.6,5.4-12,12-12h68V92z"/>
		</defs>
		<clipPath id="SVGID_18_">
			<use xlink:href="#SVGID_17_"  overflow="visible"/>
		</clipPath>
		<path clip-path="url(#SVGID_18_)" fill="#DED4FF" d="M203,68h-4c-4.4,0-8-3.6-8-8v-8c0-6.6,5.4-12,12-12h0c6.6,0,12,5.4,12,12v4
			C215,62.6,209.6,68,203,68z"/>
	</g>
	<circle fill="#B199FF" cx="205" cy="62" r="2"/>
	<circle fill="#B199FF" cx="197" cy="62" r="2"/>
	<circle fill="#603535" cx="239" cy="52" r="4"/>
	<circle fill="#603535" cx="223" cy="52" r="4"/>
	<path fill="#F8F9FA" d="M259,32v18h12V32c0-3.3-2.7-6-6-6l0,0C261.7,26,259,28.7,259,32z"/>
	<path fill="#FFADDA" d="M263,32v6h4v-6c0-1.1-0.9-2-2-2l0,0C263.9,30,263,30.9,263,32z"/>
	<g>
		<path fill="#FFAA00" d="M243,20h-8v0c0-2.2,1.8-4,4-4l0,0C241.2,16,243,17.8,243,20L243,20z"/>
		<rect x="235" y="20" fill="#FFCE47" width="8" height="4"/>
		<rect x="235" y="24" fill="#FFAA00" width="8" height="4"/>
		<rect x="235" y="28" fill="#FFCE47" width="8" height="4"/>
		<rect x="235" y="32" fill="#FFAA00" width="8" height="4"/>
		<rect x="235" y="36" fill="#FFCE47" width="8" height="4"/>
	</g>
	<rect x="171" y="-4" fill="none" width="128" height="128"/>
</g>
</svg>
